<svg xmlns="http://www.w3.org/2000/svg" width="316" height="150" viewBox="0 0 316 150">
    <g fill="#483711" fill-rule="evenodd">
        <path d="M315.451 144.783a.573.573 0 0 0-.25-.142c-1.066-.296-1.887-.865-2.037-1.972a.567.567 0 0 0-.153-.324l-.297-.3a.572.572 0 0 0-.806 0l-.35.351a.584.584 0 0 0-.125.195c-.38.975-1 1.599-1.965 2.014H6.416c-1.01-.305-1.78-.87-1.924-1.936a.567.567 0 0 0-.153-.324l-.298-.3a.572.572 0 0 0-.806 0c-.101.103-.22.22-.349.351a.584.584 0 0 0-.125.195c-.391 1.004-1.032 1.64-2.045 2.054a.575.575 0 0 0-.174.11c-.14.13-.27.249-.375.354a.569.569 0 0 0 0 .805c.105.106.235.227.377.36.049.043.106.08.166.105.963.413 1.704.994 2.052 2.035a.6.6 0 0 0 .136.227l.337.337a.57.57 0 0 0 .806 0l.3-.3a.608.608 0 0 0 .16-.32c.186-1.067.915-1.63 1.92-1.94h303.04c.923.412 1.636.984 1.973 1.996a.6.6 0 0 0 .137.227l.337.337a.57.57 0 0 0 .806 0l.3-.3a.608.608 0 0 0 .159-.32c.194-1.106.965-1.674 2.03-1.974a.592.592 0 0 0 .248-.143c.123-.12.234-.23.33-.327a.567.567 0 0 0 0-.805 39.891 39.891 0 0 0-.33-.326M100.501 78.814c2.687 0 4.893-.86 6.591-2.608l-.48-.481c-1.421 1.443-3.297 2.152-5.603 2.152-2.257 0-4.007-.734-5.223-2.177-1.218-1.443-1.827-3.419-1.827-5.925 0-5.164 2.536-8.15 6.974-8.15 2.813 0 4.613 1.214 5.399 3.67h.684l-.304-3.317-.304-.304-.76.533c-1.446-.938-3.144-1.419-5.122-1.419-2.61 0-4.715.81-6.287 2.457-1.546 1.62-2.333 3.822-2.333 6.582 0 2.759.787 4.961 2.333 6.581 1.547 1.595 3.65 2.406 6.262 2.406M117.432 76.535c-.938.912-2.08 1.368-3.423 1.368-1.394 0-2.08-.659-2.08-1.95 0-.86.407-1.494 1.218-1.924.583-.279 2.003-.683 4.285-1.19v3.696zm-.128-4.48c-2.965.657-4.918 1.215-5.83 1.67-.913.456-1.369 1.24-1.369 2.355 0 1.797.988 2.709 2.966 2.709 1.547 0 3.321-.634 4.336-1.469l.076.076c.05.886.456 1.342 1.241 1.342.863 0 1.573-.278 2.156-.861l-.254-.278a1.033 1.033 0 0 1-.76.304c-.38 0-.558-.228-.558-.659v-7.29c0-1.799-1.7-3.04-4.336-3.04-1.267 0-2.332.254-3.22.786-.862.507-1.292 1.14-1.292 1.923 0 .684.405 1.014.913 1.014.532 0 .937-.405.937-.911v-1.267c.71-.531 1.547-.785 2.51-.785 1.546 0 2.612.938 2.612 2.228v2.127c-.025 0-.076 0-.128.025zM127.899 78.08l-1.445-.431v-4.531h6.414v4.405l-1.445.556v.583h4.842v-.583l-1.52-.43v-9.57l1.52-.48v-.583h-4.842v.583l1.445.43v4.304h-6.414v-4.304l1.445-.43v-.583h-4.817v.583l1.52.43v9.468l-1.52.558v.607h4.817zM146.149 76.535c-.938.912-2.08 1.368-3.423 1.368-1.394 0-2.08-.659-2.08-1.95 0-.86.408-1.494 1.218-1.924.584-.279 2.003-.683 4.285-1.19v3.696zm3.194 1.064a1.033 1.033 0 0 1-.76.304c-.38 0-.558-.228-.558-.659v-7.29c0-1.799-1.7-3.04-4.335-3.04-1.268 0-2.332.254-3.22.786-.863.507-1.293 1.14-1.293 1.923 0 .684.406 1.014.913 1.014.532 0 .937-.405.937-.911v-1.267c.71-.531 1.547-.785 2.51-.785 1.547 0 2.612.938 2.612 2.228v2.127c-.025 0-.076 0-.127.025-2.966.658-4.919 1.216-5.831 1.671-.913.456-1.369 1.24-1.369 2.355 0 1.797.989 2.709 2.966 2.709 1.547 0 3.321-.634 4.336-1.469l.076.076c.05.886.456 1.342 1.241 1.342.863 0 1.573-.278 2.156-.861l-.254-.278zM161.256 67.776l.583 2.101h.71v-2.86h-11.206v2.86h.685l.608-2.101h3.372v9.721l-1.522.557v.608h4.919v-.582l-1.522-.43v-9.874zM170.48 77.979c-2.332 0-3.878-1.925-3.878-5.14 0-3.24 1.546-5.165 3.878-5.165 2.333 0 3.88 1.925 3.88 5.165 0 3.215-1.547 5.14-3.88 5.14m5.831-5.14c0-1.823-.532-3.265-1.622-4.33-1.064-1.062-2.46-1.595-4.209-1.595-1.748 0-3.143.533-4.208 1.595-1.065 1.065-1.597 2.507-1.597 4.33s.532 3.266 1.597 4.33c1.065 1.062 2.46 1.593 4.208 1.593 1.75 0 3.145-.531 4.21-1.594 1.09-1.063 1.621-2.506 1.621-4.329M185.182 78.029c-1.217 0-2.206-.304-2.967-.911v-7.95c.761-.886 1.851-1.341 3.271-1.341 2.358 0 3.753 1.847 3.753 5.012 0 3.316-1.547 5.19-4.057 5.19m1.165-11.114c-1.52 0-3.219.506-4.106 1.443l-.076-.076.05-1.114-.304-.303-2.915.455v.683l1.368.355v15.468l-1.52.558v.607h5.704v-.582l-2.333-.507v-5.95c.81.533 1.877.811 3.17.811 3.626 0 5.806-2.202 5.806-6.05 0-3.469-1.776-5.798-4.844-5.798M198.563 78.08l-1.47-.431v-.38l6.364-7.645.076.076-.076 1.19v6.633l-1.47.556v.583h4.84v-.583l-1.52-.43v-9.57l1.52-.48v-.583h-4.84v.583l1.47.43v.38l-6.364 7.645-.076-.075.076-1.191v-6.759l1.47-.43v-.583h-4.841v.583l1.52.43v9.468l-1.52.558v.607h4.841zM213.974 78.08l-1.47-.431v-.38l6.363-7.645.076.076-.076 1.19v6.633l-1.47.556v.583h4.842v-.583l-1.522-.43v-9.57l1.522-.48v-.583h-4.843v.583l1.471.43v.38l-6.363 7.645-.076-.075.076-1.191v-6.759l1.47-.43v-.583h-4.842v.583l1.521.43v9.468l-1.521.558v.607h4.842zM213.163 64.51c.76.43 1.597.632 2.51.632.938 0 1.775-.201 2.51-.632.76-.43 1.14-.988 1.14-1.645 0-.633-.405-1.013-.913-1.013-.532 0-.938.404-.938.911v1.114c-.431.354-1.013.532-1.8.532-.76 0-1.343-.178-1.774-.532v-1.114c0-.507-.406-.91-.938-.91-.507 0-.913.327-.913 1.012 0 .657.38 1.214 1.116 1.645M42.157 89.94v-.858h-31.73v.857l2.939.768v27.938l-2.939 1.038v.993h11.436v-.948l-2.938-.947V90.527H33.66v28.118l-2.937 1.038v.993h11.434v-.948l-2.938-.947V90.752zM52.505 103.074c1.22-1.49 2.757-2.257 4.61-2.257 3.435 0 5.47 3.475 5.47 9.208 0 6.318-2.215 9.658-6.058 9.658a7.459 7.459 0 0 1-4.022-1.174v-15.435zm4.836 17.828c6.735 0 10.713-4.153 10.713-11.42 0-6.454-2.984-10.651-8.453-10.651-2.938 0-5.288.947-7.096 2.843l-.135-.135.135-2.211-.678-.632-7.233.902v1.084l2.532.767v27.397l-2.712.993v.993h12.203v-.948l-4.112-.993v-9.072c1.355.722 2.983 1.083 4.836 1.083zM79.124 100.862l2.395-.857v-.993H71.034v.993l2.712.857v17.828l-2.712.993v.993h10.485v-.948l-2.395-.902v-.722l9.628-13.902.135.136-.135 2.843v11.554l-2.396.993v.948h10.441v-.948l-2.712-.902v-17.919l2.712-.902v-.993h-10.44v.993l2.395.857v.768l-9.628 13.9-.135-.134.135-2.89zM111.574 100.095c3.39 0 5.515 3.43 5.515 9.794 0 6.318-2.125 9.75-5.515 9.75-3.39 0-5.559-3.432-5.559-9.75 0-6.364 2.169-9.794 5.559-9.794m-10.215-1.264c-.588 2.121-.905 4.603-.905 7.448 0 9.748 3.661 14.623 10.94 14.623 3.434 0 6.146-.993 8.136-2.934 2.033-1.986 3.027-4.65 3.027-8.033 0-3.385-.994-6.094-2.983-8.08-1.989-2.03-4.656-3.024-7.954-3.024-3.617 0-6.239 1.218-7.82 3.61h-.181c.135-8.259 4.52-8.8 8.994-9.387 3.3-.45 6.69-1.084 8.226-5.236l-.677-.631c-.769.767-2.984 1.173-5.334 1.534-2.305.316-5.152.767-7.638 2.256-2.487 1.49-4.61 3.566-5.83 7.854M133.583 103.074c1.22-1.49 2.758-2.257 4.61-2.257 3.436 0 5.47 3.475 5.47 9.208 0 6.318-2.215 9.658-6.057 9.658a7.459 7.459 0 0 1-4.023-1.174v-15.435zm4.836 17.828c6.735 0 10.713-4.153 10.713-11.42 0-6.454-2.983-10.651-8.452-10.651-2.938 0-5.289.947-7.097 2.843l-.134-.135.134-2.211-.678-.632-7.232.902v1.084l2.532.767v27.397l-2.712.993v.993h12.203v-.948l-4.113-.993v-9.072c1.356.722 2.983 1.083 4.836 1.083zM158.214 108.445c.226-5.19 2.712-8.35 5.785-8.35 2.893 0 4.655 2.753 4.655 7.763l-10.44.587zm15.096.496c.136-.406.226-.993.226-1.67 0-2.482-.904-4.468-2.712-6.048-1.808-1.58-4.157-2.392-7.05-2.392-3.21 0-5.876.993-7.91 3.024-2.034 1.986-3.075 4.695-3.075 8.124 0 3.295.995 5.914 2.984 7.944 1.989 1.986 4.746 2.979 8.316 2.979 3.707 0 6.69-1.129 8.905-3.43l-.814-.813c-1.582 1.58-3.661 2.347-6.238 2.347-5.107 0-7.683-3.113-7.728-9.388h14.418l.678-.677zM202.19 103.028l-.858 2.618c-.724 2.122-2.26 3.205-4.657 3.205v-7.944l2.713-.902v-.994H188.63v.994l2.712.857v7.989c-2.395 0-3.932-1.083-4.656-3.205l-.858-2.618c-.86-2.798-2.44-4.197-4.7-4.197-2.215 0-3.888 1.038-3.888 3.25 0 1.67.904 2.617 2.35 2.617 1.492 0 2.486-.857 2.486-2.3v-1.49a.91.91 0 0 1 .407-.091c.814 0 1.492.902 2.08 2.754l.769 2.391c.451 1.354 1.083 2.347 1.852 2.98-4.34.134-6.463 1.263-7.186 4.332l-.86 3.295c-.497 1.986-.948 2.709-1.852 2.709-.497 0-.95-.182-1.357-.497l-.451.497c.994 1.082 2.486 1.624 4.43 1.624 2.531 0 3.705-1.31 4.429-4.062l.858-3.475c.588-2.348 1.989-3.205 4.7-3.205h1.447v8.53l-2.712.993v.993h10.668v-.947l-2.623-.904v-8.665h1.402c2.758 0 4.158.857 4.701 3.205l.904 3.475c.723 2.752 1.852 4.062 4.429 4.062 1.99 0 3.436-.542 4.385-1.624l-.452-.497c-.408.315-.86.497-1.356.497-.904 0-1.311-.723-1.809-2.709l-.904-3.295c-.767-3.069-2.847-4.243-7.14-4.378.767-.631 1.355-1.625 1.807-2.934l.814-2.391c.586-1.852 1.265-2.754 2.078-2.754a.91.91 0 0 1 .408.09v1.49c0 1.444.994 2.301 2.44 2.301 1.492 0 2.396-.947 2.396-2.617 0-2.212-1.672-3.25-3.842-3.25-2.486 0-3.843 1.444-4.746 4.197M224.786 100.005v-.993H214.39v.993l2.712.857v17.829l-2.712.992v.993h10.396v-.948l-2.306-.903v-8.485h9.538v8.396l-2.305.992v.948h10.396v-.948l-2.713-.903v-17.918l2.713-.902v-.993h-10.396v.993l2.305.857v8.034h-9.538v-8.034zM250.502 109.483h3.208c2.713 0 4.476 1.714 4.476 4.92 0 3.204-1.718 4.92-4.476 4.92h-3.208v-9.84zm-8.09 10.29v.903h12.7c5.107 0 8.542-2.438 8.542-6.274s-3.48-6.273-8.542-6.273h-4.61v-7.222l2.711-.902v-.993h-10.802v.993l2.712.857v18.099l-2.712.812zM275.27 100.005v-.993h-10.802v.993l2.712.857v17.829l-2.712.992v.993h10.803v-.948l-2.712-.903v-17.918zM283.041 91.926c0 1.354.769 2.436 2.26 3.204 1.492.767 3.21 1.128 5.108 1.128 1.898 0 3.615-.36 5.107-1.128 1.537-.768 2.306-1.806 2.306-3.16 0-1.444-1.04-2.391-2.352-2.391-1.4 0-2.395.993-2.395 2.437v2.437c-.768.406-1.626.632-2.666.632a5.49 5.49 0 0 1-2.621-.632v-2.437c.27-3.16-4.972-3.204-4.747-.09M303.29 100.005v-.993h-10.44v.993l2.395.857v.767l-9.627 13.902-.136-.136.136-2.888v-11.645l2.395-.857v-.993h-10.485v.993l2.71.857v17.829l-2.71.992v.993h10.485v-.948l-2.395-.903v-.721l9.627-13.902.135.135-.135 2.844v11.555l-2.395.992v.948h10.44v-.948l-2.712-.903v-17.918zM124.79 19.421l-.598.225v.263h2.32v-.253l-.6-.198v-5.789l-.116-.163-1.645.408v.306h.64zM128.87 13.85c.461 0 .695.92.695 2.755-.144.307-.358.46-.633.46-.462 0-.736-.542-.736-1.545 0-1.047.261-1.67.674-1.67m-.165 3.602c.337 0 .62-.108.846-.315-.075 1.507-.71 2.33-2.085 2.628l.159.206c2.043-.133 3.069-1.309 3.069-3.52 0-1.78-.66-2.899-1.872-2.899-.51 0-.929.18-1.252.542-.324.352-.483.84-.483 1.445 0 .578.145 1.037.44 1.39.296.352.688.523 1.178.523M183.22 16.753l.274.136c.406.208.682.389.826.551.152.162.228.406.228.74 0 .731-.345 1.12-.895 1.12-.544 0-.82-.406-.82-1.228 0-.524.132-.966.386-1.319m.447-3.268c.448 0 .675.38.675 1.147 0 .46-.097.848-.296 1.174l-.11-.064c-.365-.189-.613-.36-.757-.524-.144-.171-.213-.415-.213-.731 0-.606.262-1.002.701-1.002m-1.81 4.66c0 .93.551 1.471 1.714 1.471 1.286 0 1.926-.624 1.926-1.878 0-.442-.082-.785-.247-1.03-.165-.243-.427-.478-.79-.686.543-.333.81-.822.81-1.444 0-.858-.495-1.4-1.513-1.4-.606 0-1.04.163-1.308.497-.268.334-.398.759-.398 1.29 0 .823.288 1.255.832 1.59-.64.352-1.025.794-1.025 1.59M186.61 17.63c-.296 0-.517.261-.517.704 0 .57.406.984.895 1.155.248.082.516.127.799.127.543 0 .982-.153 1.321-.47.337-.315.501-.74.501-1.264 0-.821-.44-1.408-1.203-1.625.633-.209 1.025-.714 1.025-1.464 0-.495-.151-.884-.447-1.173-.296-.297-.703-.442-1.205-.442a2.01 2.01 0 0 0-1.15.334c-.337.217-.502.532-.502.948 0 .443.22.705.516.705.304 0 .523-.29.523-.723v-.732a.616.616 0 0 1 .441-.171c.413 0 .695.416.695 1.283 0 .912-.323 1.272-.95 1.272h-.29v.352h.318c.737 0 1.1.471 1.1 1.4 0 .948-.357 1.409-.873 1.409a.7.7 0 0 1-.483-.172v-.73c0-.434-.212-.723-.514-.723"/>
        <path d="M153.09 18.121c1.926-5.415 2.035-15.38 2.035-15.801 0-.878.621-1.717 1.868-1.706 1.246.012 1.705 1.018 1.705 1.676v11.046c0 1.107-2.605 1.157-2.605 1.157l-.182.995s2.784.05 2.786 1.156v8.786c0 3.061-2.242 4.115-2.242 4.115s-.203 1.03-.23 1.152c6.114-3.462 9.73-4.344 9.73-4.344l-.301-.767s-2.55.7-2.55-1.101v-8.997c4.484.472 7.979 8.056 9.607 12.203.248.632.511 1.293.737 1.93a38.64 38.64 0 0 0-7.355 1.86c-2.442.874-5.318 2.49-7.531 4.625-1.876-1.577-4.501-2.973-7.939-4.342a37.024 37.024 0 0 0-4.711-1.526c4.029-3.926 5.858-8.406 7.177-12.117m7.627 24.648c0 2.05-.69 3.625-2.052 3.625s-2.192-1.804-2.192-3.668c0-1.417.48-3.418 2.126-5.412 1.421 1.71 2.118 3.789 2.118 5.455m25.248-8.894c.162 1.156-.94 2.41-3.066 1.901-2.624-.63-4.272-3.539-4.658-4.524 4.633.04 7.48.89 7.724 2.623m-46.971-.941c-3.342 2.86-8.993 4.278-8.993 1.505 0-2.595 6.305-3.387 10.758-3.15-.6.602-1.196 1.156-1.765 1.645m-2.56-30.745c3.376 0 1.204 8.364 4.313 14.383 1.377 2.664 3.454 4.554 6.891 5.238-1.086 2.732-3.273 5.461-5.264 7.745-3.612-.484-6.426-.209-8.327.065-3.168.457-5.859 2.403-5.207 4.743.65 2.34 4.6 3.77 11.846-.217a23.714 23.714 0 0 0 3.606-2.45c3.64.611 8.565 1.894 11.773 3.73.734.42 1.34.872 1.846 1.342-1.798 1.928-3.099 4.285-3.099 6.558 0 5.155 3.394 5.378 3.914 5.378.521 0 3.639-.203 3.639-5.317 0-2.534-1.224-4.821-3.085-6.634.391-.388.84-.777 1.368-1.176 3.097-2.342 8.855-4.09 13.635-4.156 1.74 3.385 4.401 5.347 8.33 5.347 2.522 0 4.247-1.245 3.98-3.147-.23-1.642-1.817-2.632-4.131-3.439-1.536-.535-3.546-.847-4.776-.855-.595-2.12-2.504-6.999-4.593-9.992-1.686-2.416-4.711-3.951-6.757-4.625 2.122-.355 3.723-.974 5.453-2.774 3.526-3.668 1.218-9.995 4.594-9.995 1.711 0 2.304 1.877 2.304 1.877h.01l.203-.89c-.407-.808-1.239-1.87-2.796-1.87-3.724 0-4.17 2.909-5.976 7.336-1.488 3.648-4.742 5.199-7.023 5.467V3.363c0-2.174 2.514-1.893 2.514-1.893l.205-.632S163.85 0 157.018 0c-6.83 0-9.196.838-9.196.838l.17.606s2.652-.364 2.652 1.935c0 3.447.177 10.906-2.242 17.08-1.904 0-4.815-2.452-5.75-8.56-1.114-7.279-2.203-10.841-5.927-10.841-1.46 0-2.51 1.047-3.113 1.87l.249.845c.247-.388 1.125-1.584 2.572-1.584M311.434 74.676a.591.591 0 0 0 .136.227l.338.339a.57.57 0 0 0 .805 0l.3-.301a.604.604 0 0 0 .159-.32c.194-1.105.966-1.674 2.03-1.974a.579.579 0 0 0 .25-.142l.33-.327a.567.567 0 0 0 0-.804 28.803 28.803 0 0 0-.33-.328.582.582 0 0 0-.252-.142c-1.065-.297-1.886-.865-2.035-1.971a.575.575 0 0 0-.153-.325c-.108-.11-.21-.21-.299-.3a.57.57 0 0 0-.805 0l-.349.352a.574.574 0 0 0-.126.196c-.38.974-1.002 1.598-1.965 2.012H236.9v1.815h72.56c.923.411 1.636.984 1.973 1.993M.545 72.536c.048.045.105.08.165.106.962.414 1.704.994 2.052 2.035a.591.591 0 0 0 .136.226c.124.126.238.24.338.339a.57.57 0 0 0 .805 0l.3-.301a.604.604 0 0 0 .159-.32c.186-1.067.916-1.63 1.921-1.938H78.46v-1.815H6.417c-1.01-.305-1.781-.868-1.925-1.935a.575.575 0 0 0-.153-.325l-.298-.3a.57.57 0 0 0-.805 0l-.35.352a.565.565 0 0 0-.125.196C2.37 69.858 1.73 70.495.716 70.908a.589.589 0 0 0-.173.11c-.141.13-.27.25-.376.356a.566.566 0 0 0 0 .803c.105.107.236.227.378.36"/>
    </g>
</svg>
