<svg xmlns="http://www.w3.org/2000/svg" width="222" height="150" viewBox="0 0 222 150">
    <g fill="#483711" fill-rule="evenodd">
        <path d="M221.048 144.64c-1.066-.296-1.887-.865-2.038-1.971a.568.568 0 0 0-.152-.324l-.297-.3a.57.57 0 0 0-.806 0c-.103.102-.221.221-.35.352a.575.575 0 0 0-.125.194c-.381.975-1.002 1.599-1.967 2.014H6.434c-1.01-.306-1.782-.87-1.925-1.936a.568.568 0 0 0-.152-.324l-.3-.3a.57.57 0 0 0-.805 0l-.35.352a.587.587 0 0 0-.124.194c-.392 1.003-1.032 1.639-2.045 2.054a.57.57 0 0 0-.174.109c-.142.13-.27.25-.376.355a.57.57 0 0 0 0 .805c.106.107.236.227.378.36.049.044.106.08.165.105.963.413 1.705.994 2.053 2.034a.598.598 0 0 0 .136.227l.337.338a.57.57 0 0 0 .806 0l.3-.3a.598.598 0 0 0 .159-.32c.187-1.067.916-1.63 1.92-1.938h208.87c.922.41 1.637.983 1.974 1.993a.589.589 0 0 0 .136.227l.338.338a.57.57 0 0 0 .806 0l.298-.3a.598.598 0 0 0 .16-.32c.194-1.105.966-1.674 2.03-1.974a.588.588 0 0 0 .25-.142l.33-.328a.567.567 0 0 0 0-.805 62.62 62.62 0 0 0-.33-.327.577.577 0 0 0-.251-.141zM54.828 78.813c2.688 0 4.894-.86 6.593-2.607l-.482-.481c-1.42 1.443-3.297 2.152-5.604 2.152-2.257 0-4.007-.735-5.223-2.177-1.218-1.443-1.826-3.419-1.826-5.925 0-5.164 2.535-8.151 6.973-8.151 2.815 0 4.615 1.214 5.4 3.67h.686l-.305-3.316-.304-.304-.76.532c-1.446-.937-3.145-1.418-5.123-1.418-2.611 0-4.716.81-6.288 2.457-1.547 1.62-2.333 3.822-2.333 6.581 0 2.76.786 4.962 2.333 6.582 1.547 1.595 3.651 2.405 6.263 2.405M71.761 76.535c-.938.912-2.08 1.367-3.423 1.367-1.395 0-2.079-.658-2.079-1.95 0-.86.406-1.493 1.217-1.923.583-.28 2.003-.683 4.285-1.19v3.696zm-.126-4.48c-2.968.657-4.92 1.215-5.832 1.67-.913.456-1.37 1.24-1.37 2.354 0 1.798.989 2.71 2.967 2.71 1.547 0 3.321-.634 4.336-1.47l.076.077c.05.886.457 1.341 1.243 1.341.862 0 1.572-.278 2.155-.86l-.254-.278a1.037 1.037 0 0 1-.76.303c-.381 0-.559-.227-.559-.658v-7.29c0-1.799-1.698-3.04-4.336-3.04-1.267 0-2.332.254-3.22.786-.862.506-1.293 1.14-1.293 1.923 0 .684.406 1.013.913 1.013.532 0 .938-.405.938-.91v-1.267c.71-.532 1.547-.785 2.51-.785 1.547 0 2.612.937 2.612 2.228v2.127c-.025 0-.076 0-.126.025zM82.23 78.08l-1.445-.431v-4.532H87.2v4.406l-1.446.556v.583h4.844v-.583l-1.522-.43v-9.57l1.522-.48v-.583h-4.844v.583l1.446.43v4.304h-6.415v-4.304l1.445-.43v-.583h-4.817v.583l1.52.43v9.468l-1.52.558v.607h4.817zM100.483 76.535c-.938.912-2.08 1.367-3.424 1.367-1.394 0-2.078-.658-2.078-1.95 0-.86.405-1.493 1.216-1.923.584-.28 2.004-.683 4.286-1.19v3.696zm3.449 1.342l-.254-.278a1.037 1.037 0 0 1-.761.303c-.38 0-.558-.227-.558-.658v-7.29c0-1.799-1.699-3.04-4.336-3.04-1.268 0-2.332.254-3.22.786-.862.506-1.294 1.14-1.294 1.923 0 .684.406 1.013.914 1.013.532 0 .938-.405.938-.91v-1.267c.71-.532 1.546-.785 2.51-.785 1.546 0 2.612.937 2.612 2.228v2.127c-.025 0-.076 0-.127.025-2.967.658-4.92 1.216-5.832 1.671-.913.456-1.37 1.24-1.37 2.354 0 1.798.99 2.71 2.967 2.71 1.547 0 3.322-.634 4.337-1.47l.076.077c.05.886.456 1.341 1.242 1.341.862 0 1.572-.278 2.156-.86zM115.592 67.775l.583 2.102h.71v-2.86h-11.207v2.86h.684l.609-2.102h3.373v9.722l-1.522.557v.607h4.918v-.581l-1.52-.431v-9.874zM124.818 77.978c-2.332 0-3.88-1.924-3.88-5.139 0-3.24 1.548-5.165 3.88-5.165 2.333 0 3.88 1.924 3.88 5.165 0 3.215-1.547 5.14-3.88 5.14m5.832-5.14c0-1.823-.532-3.265-1.622-4.33-1.066-1.063-2.46-1.595-4.21-1.595s-3.144.532-4.209 1.595c-1.065 1.065-1.597 2.507-1.597 4.33s.532 3.265 1.597 4.329c1.065 1.063 2.46 1.594 4.21 1.594s3.143-.531 4.209-1.594c1.09-1.064 1.622-2.506 1.622-4.329M139.522 78.028c-1.218 0-2.206-.303-2.967-.91v-7.95c.76-.886 1.851-1.341 3.271-1.341 2.358 0 3.753 1.847 3.753 5.012 0 3.316-1.547 5.19-4.057 5.19m1.166-11.114c-1.522 0-3.22.505-4.108 1.443l-.076-.076.05-1.114-.304-.304-2.915.456v.683l1.37.355v15.468l-1.522.557v.608h5.705v-.582l-2.333-.507v-5.95c.811.533 1.877.81 3.17.81 3.626 0 5.806-2.202 5.806-6.05 0-3.468-1.774-5.797-4.843-5.797M152.906 78.08l-1.47-.431v-.38l6.363-7.645.076.075-.076 1.19v6.634l-1.47.556v.583h4.842v-.583l-1.52-.43v-9.57l1.52-.48v-.583h-4.842v.583l1.47.43v.38l-6.364 7.645-.076-.076.076-1.19v-6.759l1.47-.43v-.583h-4.843v.583l1.522.43v9.468l-1.522.558v.607h4.844zM167.507 64.51c.761.43 1.598.632 2.51.632.94 0 1.776-.201 2.51-.632.761-.43 1.142-.988 1.142-1.646 0-.632-.406-1.012-.913-1.012-.533 0-.938.404-.938.91v1.115c-.431.354-1.014.531-1.8.531-.761 0-1.345-.177-1.775-.531v-1.114c0-.507-.406-.911-.938-.911-.508 0-.914.328-.914 1.012 0 .658.38 1.215 1.116 1.646M168.318 78.08l-1.47-.431v-.38l6.364-7.645.076.075-.076 1.19v6.634l-1.47.556v.583h4.842v-.583l-1.52-.43v-9.57l1.52-.48v-.583h-4.842v.583l1.47.43v.38l-6.364 7.645-.076-.076.076-1.19v-6.759l1.47-.43v-.583h-4.843v.583l1.522.43v9.468l-1.522.558v.607h4.843zM17.499 104.075h5.198c4.204 0 7.007 2.527 7.007 7.537s-2.803 7.583-7.007 7.583H17.5v-15.12zM9 119.736v.858h14.557c3.57 0 6.419-.813 8.589-2.392 2.215-1.625 3.3-3.836 3.3-6.59 0-2.753-1.085-4.964-3.3-6.545-2.17-1.624-5.019-2.436-8.59-2.436H17.5V90.444h12.024l2.035 4.513h1.31L32.599 89H9v.857l2.939.767v28.39L9 119.736zM53.867 108.027l-10.443.587c.226-5.19 2.713-8.35 5.786-8.35 2.894 0 4.657 2.752 4.657 7.763m-12.794-6.003C39.04 104.009 38 106.718 38 110.148c0 3.295.994 5.913 2.984 7.944 1.988 1.986 4.746 2.979 8.317 2.979 3.707 0 6.69-1.13 8.905-3.43l-.813-.813c-1.582 1.58-3.662 2.346-6.238 2.346-5.109 0-7.686-3.113-7.73-9.387h14.42l.678-.677c.136-.407.226-.993.226-1.67 0-2.482-.904-4.468-2.712-6.048-1.809-1.58-4.16-2.392-7.052-2.392-3.21 0-5.877.993-7.912 3.024M63.706 120.89c2.758 0 4.386-2.437 4.883-7.266l1.447-13.179h6.6v18.28l-2.352.992v.948h10.398v-.948l-2.712-.903v-18.189l2.712-.767V99H65.831v.858l2.712.722-1.446 13.224c-.361 3.656-1.311 4.875-1.944 4.875-.18 0-.316-.045-.361-.09v-1.174c0-1.4-.995-2.257-2.441-2.257-1.447 0-2.351.948-2.351 2.528 0 2.166 1.718 3.205 3.706 3.205M95.092 109.47H98.3c2.712 0 4.476 1.716 4.476 4.92 0 3.205-1.718 4.92-4.476 4.92h-3.21v-9.84zM87 119.762v.903h12.702c5.109 0 8.545-2.437 8.545-6.273s-3.481-6.274-8.545-6.274h-4.61v-7.222l2.712-.902V99H87v.993l2.712.857v18.1L87 119.76zM119.804 99.993V99H109v.993l2.713.857v17.83l-2.713.992v.993h10.804v-.949l-2.712-.902v-17.919zM128.007 92.347c0 1.354.769 2.437 2.26 3.204 1.492.767 3.21 1.129 5.108 1.129 1.9 0 3.617-.362 5.11-1.13 1.536-.766 2.305-1.805 2.305-3.158 0-1.444-1.04-2.392-2.352-2.392-1.4 0-2.395.993-2.395 2.438v2.436c-.769.406-1.627.632-2.668.632a5.49 5.49 0 0 1-2.62-.632v-2.436c.27-3.16-4.974-3.205-4.748-.091M147.767 99.993V99h-10.443v.993l2.396.857v.768l-9.628 13.901-.136-.135.136-2.889V100.85l2.395-.857V99H122v.993l2.712.857v17.83l-2.712.992v.993h10.487v-.949l-2.395-.902v-.722l9.628-13.901.135.135-.135 2.844v11.554l-2.396.992v.949h10.443v-.949l-2.713-.902v-17.919zM169.132 97.44c0-4.648 2.53-6.995 6.374-6.995h4.926v13.991h-4.926c-3.843 0-6.374-2.347-6.374-6.996m-4.204 23.425c3.209 0 4.746-1.624 5.83-5.417l1.357-4.603c.95-3.475 2.622-4.964 6.193-4.964h2.124v12.683l-3.118 1.037v.993h11.572v-.947l-2.938-.948V90.671l2.938-.813V89h-14.149c-3.435 0-6.194.767-8.273 2.257-2.08 1.49-3.118 3.476-3.118 6.049 0 4.196 3.028 7.175 8.091 8.079-2.35.677-3.888 2.392-4.656 5.054l-1.448 4.514c-.903 3.07-1.536 4.062-2.847 4.062-.723 0-1.401-.271-1.989-.768l-.497.497c1.266 1.4 2.893 2.12 4.928 2.12M199.092 103.378c1.22-1.49 2.757-2.257 4.61-2.257 3.437 0 5.47 3.476 5.47 9.209 0 6.318-2.215 9.657-6.057 9.657a7.46 7.46 0 0 1-4.023-1.173v-15.436zm4.837 17.828c6.736 0 10.713-4.152 10.713-11.419 0-6.454-2.983-10.652-8.452-10.652-2.94 0-5.29.948-7.098 2.844l-.136-.135.136-2.212-.678-.632-7.234.903v1.084l2.532.767v27.396l-2.712.993v.994h12.205v-.949l-4.113-.992v-9.073c1.356.722 2.983 1.083 4.837 1.083zM79.122 19.421l-.6.226v.262h2.32v-.253l-.598-.198v-5.789l-.117-.162-1.646.406v.307h.64zM83.201 13.85c.462 0 .696.921.696 2.754-.144.308-.358.461-.633.461-.462 0-.737-.541-.737-1.545 0-1.047.261-1.67.674-1.67m-.165 3.603c.337 0 .62-.109.847-.316-.075 1.508-.71 2.33-2.086 2.628l.159.207c2.044-.134 3.07-1.309 3.07-3.521 0-1.78-.661-2.899-1.873-2.899-.51 0-.929.181-1.252.543-.324.35-.482.84-.482 1.445 0 .577.144 1.037.44 1.39.295.351.688.523 1.177.523M137.559 16.754l.275.136c.407.207.681.387.826.55.151.163.227.406.227.74 0 .732-.343 1.12-.895 1.12-.543 0-.818-.406-.818-1.228 0-.523.13-.966.385-1.318m.448-3.269c.447 0 .674.379.674 1.147 0 .46-.096.848-.297 1.174l-.11-.063c-.364-.19-.611-.362-.756-.524-.145-.172-.214-.416-.214-.732 0-.606.262-1.002.703-1.002m-1.81 4.66c0 .93.55 1.471 1.713 1.471 1.287 0 1.927-.623 1.927-1.878 0-.442-.082-.785-.248-1.03-.164-.243-.427-.478-.79-.686.543-.333.811-.82.811-1.445 0-.857-.495-1.399-1.514-1.399-.606 0-1.04.163-1.307.497-.27.333-.4.759-.4 1.291 0 .821.289 1.255.833 1.589-.64.353-1.025.794-1.025 1.59M140.95 17.63c-.296 0-.517.262-.517.704 0 .57.407.984.895 1.155.248.082.517.127.799.127.543 0 .984-.154 1.322-.47.337-.316.5-.74.5-1.264 0-.821-.439-1.409-1.203-1.624.633-.209 1.026-.715 1.026-1.464 0-.497-.152-.884-.448-1.173-.296-.299-.703-.443-1.205-.443-.433 0-.812.108-1.15.334-.336.217-.501.533-.501.947 0 .444.22.706.516.706.303 0 .523-.29.523-.723v-.732a.615.615 0 0 1 .44-.172c.414 0 .696.416.696 1.284 0 .912-.323 1.272-.95 1.272h-.289v.353h.316c.737 0 1.101.47 1.101 1.4 0 .947-.357 1.408-.874 1.408a.698.698 0 0 1-.482-.171v-.731c0-.434-.213-.724-.515-.724M217.417 74.903c.124.126.238.24.338.338a.57.57 0 0 0 .805 0c.09-.088.19-.19.3-.3a.598.598 0 0 0 .159-.32c.194-1.105.966-1.673 2.03-1.974a.569.569 0 0 0 .25-.141l.33-.328a.569.569 0 0 0 0-.805 28.806 28.806 0 0 0-.33-.327.582.582 0 0 0-.252-.143c-1.065-.296-1.887-.864-2.036-1.97a.57.57 0 0 0-.152-.325l-.3-.299a.568.568 0 0 0-.804 0l-.35.35a.585.585 0 0 0-.125.196c-.38.975-1.002 1.598-1.967 2.013H191.25v1.814h24.058c.922.412 1.636.984 1.974 1.994a.578.578 0 0 0 .136.227zM.71 72.643c.963.413 1.705.993 2.052 2.033a.58.58 0 0 0 .136.227l.338.339a.57.57 0 0 0 .806 0l.3-.301a.612.612 0 0 0 .159-.32c.187-1.066.916-1.63 1.922-1.939h26.36v-1.814H6.417c-1.01-.305-1.78-.868-1.925-1.935a.572.572 0 0 0-.153-.325l-.297-.298a.569.569 0 0 0-.806 0l-.35.35a.579.579 0 0 0-.125.196c-.392 1.002-1.032 1.639-2.045 2.053a.543.543 0 0 0-.173.109c-.142.13-.271.25-.376.356a.567.567 0 0 0 0 .804c.106.106.236.225.378.358.048.045.104.08.165.107z"/>
        <path d="M107.424 18.122c1.927-5.416 2.037-15.382 2.037-15.802 0-.879.621-1.717 1.868-1.706 1.247.013 1.706 1.019 1.706 1.676l-.001 11.046c0 1.107-2.605 1.156-2.605 1.156l-.182.995s2.784.052 2.787 1.157v8.786c0 3.06-2.243 4.115-2.243 4.115s-.203 1.03-.23 1.152c6.115-3.462 9.73-4.345 9.73-4.345l-.3-.765s-2.551.699-2.551-1.102v-8.997c4.485.471 7.98 8.056 9.609 12.203.249.632.512 1.294.737 1.93a38.651 38.651 0 0 0-7.356 1.859c-2.442.875-5.32 2.491-7.533 4.626-1.875-1.578-4.5-2.973-7.939-4.343a36.876 36.876 0 0 0-4.712-1.524c4.03-3.927 5.86-8.408 7.178-12.117m7.629 24.648c0 2.049-.691 3.625-2.053 3.625s-2.192-1.806-2.192-3.669c0-1.417.48-3.419 2.126-5.413 1.422 1.712 2.119 3.79 2.119 5.457m25.252-8.896c.162 1.156-.94 2.411-3.068 1.902-2.623-.63-4.271-3.539-4.659-4.524 4.635.04 7.482.89 7.727 2.622m-46.98-.94c-3.341 2.86-8.993 4.278-8.993 1.505 0-2.594 6.306-3.387 10.76-3.15-.6.602-1.196 1.157-1.766 1.644M90.766 2.19c3.375 0 1.204 8.365 4.313 14.382 1.378 2.665 3.455 4.554 6.892 5.238-1.086 2.732-3.274 5.462-5.265 7.746-3.612-.484-6.426-.209-8.328.065-3.169.457-5.86 2.403-5.208 4.744.65 2.34 4.6 3.77 11.849-.217a23.722 23.722 0 0 0 3.606-2.451c3.64.61 8.566 1.894 11.775 3.73a9.89 9.89 0 0 1 1.845 1.342c-1.797 1.927-3.098 4.284-3.098 6.557 0 5.156 3.394 5.38 3.914 5.38.521 0 3.64-.205 3.64-5.318 0-2.533-1.224-4.821-3.087-6.634.392-.388.841-.777 1.369-1.176 3.097-2.342 8.856-4.09 13.638-4.157 1.74 3.385 4.402 5.348 8.33 5.348 2.524 0 4.249-1.245 3.982-3.146-.23-1.644-1.818-2.633-4.133-3.44-1.535-.535-3.546-.847-4.776-.855-.595-2.121-2.505-6.999-4.594-9.993-1.686-2.415-4.712-3.95-6.757-4.624 2.121-.355 3.723-.973 5.453-2.773 3.527-3.67 1.219-9.996 4.595-9.996 1.712 0 2.305 1.877 2.305 1.877h.008l.205-.891c-.408-.807-1.24-1.87-2.797-1.87-3.725 0-4.171 2.91-5.977 7.337-1.49 3.649-4.743 5.2-7.025 5.466V3.364c0-2.175 2.515-1.893 2.515-1.893l.205-.632S118.188 0 111.355 0s-9.198.838-9.198.838l.17.604s2.652-.363 2.652 1.936c0 3.447.177 10.906-2.242 17.08-1.905 0-4.816-2.453-5.751-8.56-1.114-7.28-2.204-10.842-5.928-10.842-1.46 0-2.512 1.048-3.114 1.872l.25.845c.247-.389 1.125-1.585 2.571-1.585"/>
    </g>
</svg>
