<svg xmlns="http://www.w3.org/2000/svg" xmlns:xlink="http://www.w3.org/1999/xlink" width="67" height="67" viewBox="0 0 67 67">
    <defs>
        <path id="a" d="M0 0h66.89v66.696H0z"/>
    </defs>
    <g fill="none" fill-rule="evenodd">
        <mask id="b" fill="#fff">
            <use xlink:href="#a"/>
        </mask>
        <path fill="#483711" d="M65.39 13.24h-6.466a.75.75 0 0 0 0 1.5h6.465v3.844h-6.465a.75.75 0 0 0 0 1.5h6.46c-.065 3.539-2.958 6.398-6.512 6.398H33.636V1.5h25.237c3.554 0 6.446 2.859 6.511 6.398h-6.46a.75.75 0 0 0 0 1.5h6.465v3.843zM53.15 51.185c-.085.59-.503.777-.839.828l-2.549.396-.08.01-8.7 1.345c-.374-.022-.669-.33-.677-.613l3.35-25.167h12.798l-3.304 23.2zm-5 6.52h-.673l.305-3.474 1.136-.176-.769 3.65zM39.962 37.07l.396-2.973h.97l-.395 2.973h-.97zm-7.827-10.84L18.46 22.21V5.773l13.675-4.021V26.23zM16.96 22.21l-1.514.449V5.324l1.514.449v16.436zM58.873-.001H32.886c-.046 0-.085.019-.128.026-.028.005-.057-.004-.084.004l-14.963 4.4-2.8-.828a.756.756 0 0 0-.663.117.755.755 0 0 0-.3.602v19.342a.748.748 0 0 0 .963.719l2.8-.83 14.963 4.402c.07.02.141.029.212.029h9.257l-.613 4.614h-1.828a.751.751 0 0 0-.743.652l-.595 4.473c-.03.213.035.43.177.592a.76.76 0 0 0 .565.256h1.631l-1.924 14.48c0 1.223.994 2.215 2.217 2.215a.716.716 0 0 0 .113-.008l5.11-.791-.343 3.926a.75.75 0 0 0 .748.814h.14l-.946 6.635a.748.748 0 1 0 1.483.21l.976-6.845h.447a.748.748 0 0 0 .732-.596l1.011-4.801 2.037-.314c1.134-.176 1.935-.98 2.095-2.1L57.97 27.98h.903c4.42 0 8.017-3.596 8.017-8.015V8.015C66.89 3.595 63.293 0 58.873 0zM9.565 13.242H.75a.75.75 0 0 0 0 1.5h8.815a.75.75 0 0 0 0-1.5zm-.213 7.095L1.43 22.68a.75.75 0 1 0 .426 1.438l7.923-2.343a.75.75 0 0 0-.426-1.44zM1.43 5.303l7.923 2.344a.75.75 0 0 0 .426-1.44L1.855 3.864a.75.75 0 0 0-.426 1.439z" mask="url(#b)"/>
    </g>
</svg>
