<svg xmlns="http://www.w3.org/2000/svg" xmlns:xlink="http://www.w3.org/1999/xlink" width="80" height="74" viewBox="0 0 80 74">
    <defs>
        <path id="a" d="M0 73.076h79.357V1H0z"/>
    </defs>
    <g fill="none" fill-rule="evenodd">
        <path fill="#483711" stroke="#483711" stroke-width=".5" d="M78.357 60.632a2.624 2.624 0 0 1-2.621 2.62H26.158V11.49h49.578a2.625 2.625 0 0 1 2.62 2.62v46.522zm-53.2 8.823a2.624 2.624 0 0 1-2.62 2.62H9.355a2.624 2.624 0 0 1-2.621-2.62V4.62A2.623 2.623 0 0 1 9.354 2h13.183a2.623 2.623 0 0 1 2.62 2.62v64.834zM3.62 63.253a2.624 2.624 0 0 1-2.621-2.621V14.11a2.625 2.625 0 0 1 2.62-2.621h2.114v51.763H3.62zM75.736 10.49H26.158V4.62A3.625 3.625 0 0 0 22.537 1H9.355a3.625 3.625 0 0 0-3.621 3.62v5.87H3.62A3.625 3.625 0 0 0 0 14.11v46.522a3.625 3.625 0 0 0 3.62 3.62h2.114v5.203a3.625 3.625 0 0 0 3.62 3.62h13.183a3.625 3.625 0 0 0 3.62-3.62v-5.202h49.579a3.625 3.625 0 0 0 3.62-3.621V14.11a3.625 3.625 0 0 0-3.62-3.621z"/>
        <path fill="#483711" stroke="#483711" stroke-width=".5" d="M74.382 20.893a2.624 2.624 0 0 1-2.62 2.62H33.414a2.624 2.624 0 0 1-2.62-2.62v-3.028a2.624 2.624 0 0 1 2.62-2.621H71.76a2.624 2.624 0 0 1 2.621 2.62v3.029zm-2.62-6.65H33.414a3.625 3.625 0 0 0-3.62 3.622v3.028a3.625 3.625 0 0 0 3.62 3.62H71.76a3.625 3.625 0 0 0 3.621-3.62v-3.028a3.625 3.625 0 0 0-3.62-3.621z"/>
        <mask id="b" fill="#fff">
            <use xlink:href="#a"/>
        </mask>
        <path fill="#483711" stroke="#483711" stroke-width=".5" d="M62.524 54.514h3.945v-4.081h-3.945v4.081zm-1 .999h5.945v-6.081h-5.945v6.081zm-6.698-.999h3.944v-4.081h-3.944v4.081zm-1 .999h5.944v-6.081h-5.944v6.081zm-6.696-.999h3.944v-4.081H47.13v4.081zm-1 .999h5.944v-6.081H46.13v6.081zm-6.697-.999h3.945v-4.081h-3.945v4.081zm-1 .999h5.945v-6.081h-5.945v6.081zm1-9.624h3.945V41.81h-3.945v4.079zm-1 1.001h5.945v-6.079h-5.945v6.079zm8.697-1.001h3.944V41.81H47.13v4.079zm-1 1.001h5.944v-6.079H46.13v6.079zm8.696-1.001h3.944V41.81h-3.944v4.079zm-1 1.001h5.944v-6.079h-5.944v6.079zm8.698-1.001h3.945V41.81h-3.945v4.079zm-1 1.001h5.945v-6.079h-5.945v6.079zm1-9.623h3.945v-4.08h-3.945v4.08zm-1 1h5.945v-6.079h-5.945v6.079zm-6.698-1h3.944v-4.08h-3.944v4.08zm-1 1h5.944v-6.079h-5.944v6.079zm-6.696-1h3.944v-4.08H47.13v4.08zm-1 1h5.944v-6.079H46.13v6.079zm-6.697-1h3.945v-4.08h-3.945v4.08zm-1 1h5.945v-6.079h-5.945v6.079z" mask="url(#b)"/>
    </g>
</svg>
