<svg xmlns="http://www.w3.org/2000/svg" width="45" height="31" viewBox="0 0 45 31">
    <path fill="#483711" fill-rule="evenodd" stroke="#483711" stroke-linecap="round" stroke-linejoin="round" stroke-width=".2" d="M6.5 16.238l.7.7c8.3-8.3 21.8-8.3 30.1 0l.7-.7c-8.7-8.6-22.8-8.6-31.5 0M0 9.138l.7.7c11.9-11.8 31.2-11.8 43.1.1l.7-.7c-12.3-12.3-32.2-12.3-44.5-.1m13.4 14.2l.7.7c2.2-2.2 5.1-3.4 8.1-3.4s5.9 1.2 8.1 3.4l.7-.7c-2.4-2.4-5.5-3.7-8.8-3.7-3.3 0-6.4 1.4-8.8 3.7m8.8 5.3a1 1 0 1 0 0 2 1 1 0 0 0 0-2"/>
</svg>
