<svg id="Layer_5" data-name="Layer 5" xmlns="http://www.w3.org/2000/svg" width="22" height="22" viewBox="0 0 22 22"><defs><style>.cls-1{fill:#c0d5b3;fill-rule:evenodd;}</style></defs><title>social_fb</title><path class="cls-1" d="M20.78,0H1.22A1.22,1.22,0,0,0,0,1.22V20.78A1.22,1.22,0,0,0,1.22,22H11.75V13.48H8.88V10.16h2.87V7.71A4,4,0,0,1,16,3.33a23.67,23.67,0,0,1,2.56.13v3H16.82c-1.38,0-1.64.65-1.64,1.61v2.12h3.28L18,13.48H15.18V22h5.6A1.22,1.22,0,0,0,22,20.78V1.22A1.22,1.22,0,0,0,20.78,0"/></svg>