<svg id="Layer_3" data-name="Layer 3" xmlns="http://www.w3.org/2000/svg" width="22" height="22" viewBox="0 0 22 22"><defs><style>.cls-1{fill:#c0d5b3;fill-rule:evenodd;}</style></defs><title>social_in</title><path class="cls-1" d="M11,2c2.94,0,3.28,0,4.44.07a5.9,5.9,0,0,1,2,.38,3.39,3.39,0,0,1,1.26.82,3.44,3.44,0,0,1,.82,1.26,6.13,6.13,0,0,1,.38,2C20,7.71,20,8.06,20,11s0,3.28-.06,4.44a6.07,6.07,0,0,1-.38,2,3.48,3.48,0,0,1-.82,1.27,3.52,3.52,0,0,1-1.26.82,6.15,6.15,0,0,1-2,.38C14.28,20,13.94,20,11,20S7.72,20,6.56,20a6.15,6.15,0,0,1-2-.38,3.44,3.44,0,0,1-1.26-.82,3.48,3.48,0,0,1-.82-1.27,6.07,6.07,0,0,1-.38-2C2,14.28,2,13.93,2,11s0-3.29.07-4.45a6.13,6.13,0,0,1,.38-2,3.44,3.44,0,0,1,.82-1.26,3.32,3.32,0,0,1,1.26-.82,5.9,5.9,0,0,1,2.05-.38C7.72,2,8.06,2,11,2m0-2C8,0,7.64,0,6.47.07A8,8,0,0,0,3.8.58,5.34,5.34,0,0,0,1.85,1.85,5.39,5.39,0,0,0,.58,3.79,8,8,0,0,0,.07,6.46C0,7.64,0,8,0,11s0,3.36.07,4.53A8,8,0,0,0,.58,18.2a5.42,5.42,0,0,0,1.27,1.95A5.34,5.34,0,0,0,3.8,21.42a8.31,8.31,0,0,0,2.67.51C7.64,22,8,22,11,22s3.36,0,4.53-.06a8.31,8.31,0,0,0,2.67-.51,5.34,5.34,0,0,0,1.95-1.27,5.42,5.42,0,0,0,1.27-1.95,8,8,0,0,0,.51-2.67C22,14.36,22,14,22,11s0-3.36-.07-4.54a8,8,0,0,0-.51-2.67,5.39,5.39,0,0,0-1.27-1.94A5.34,5.34,0,0,0,18.2.58,8,8,0,0,0,15.53.07C14.36,0,14,0,11,0"/><path class="cls-1" d="M11,5.35A5.65,5.65,0,1,0,16.65,11,5.65,5.65,0,0,0,11,5.35m0,9.31A3.67,3.67,0,1,1,14.67,11,3.67,3.67,0,0,1,11,14.66"/><path class="cls-1" d="M18.19,5.13a1.32,1.32,0,1,1-1.32-1.32,1.32,1.32,0,0,1,1.32,1.32"/></svg>