<svg xmlns="http://www.w3.org/2000/svg" width="65" height="35" viewBox="0 0 65 35">
    <path fill="#757575" fill-rule="evenodd" d="M61.846 31.93c-1.95 1.949-4.636 3.06-7.57 3.07l-.01-.002H28.295L25.982 35h-8.524c-4.79.003-9.154-1.87-12.317-5.058l-.012.009A17.542 17.542 0 0 1 0 17.559l.006-.005H0A17.566 17.566 0 0 1 5.129 5.165v-.008C8.287 1.975 12.653.003 17.445 0h6.717c2.226 0 4.029 1.81 4.029 4.036 0 2.245-1.803 3.846-4.03 3.846l-6.706.004-.004-.01c-2.578.01-4.93 1.293-6.63 3.001l-.02.005a9.411 9.411 0 0 0-2.745 6.672H8.05a9.475 9.475 0 0 0 2.779 6.668l-.009.012c1.701 1.712 4.051 2.846 6.638 2.846l8.515-.007 2.33.007 25.963-.007h.002c.744 0 1.413-.384 1.904-.874.48-.48.814-1.445.814-2.19h.004c-.004-.757-.343-1.99-.839-2.49a2.62 2.62 0 0 0-1.885-.773H47.35l-10.387-.005c-2.007.012-4.024-2.013-4.03-4.041L32.928 4.05C32.923 2.027 34.936 0 36.95 0h10.895c2.233-.008 4.031 1.609 4.027 3.84.004 2.24-1.805 4.056-4.022 4.06l-7.034-.01v5.668l6.533.005 6.912-.005h.005c2.942 0 5.633 1.22 7.584 3.186 1.942 1.957 3.15 4.588 3.15 7.548.012 2.962-1.208 5.672-3.154 7.637"/>
</svg>
