<svg id="Layer_4" data-name="Layer 4" xmlns="http://www.w3.org/2000/svg" width="22" height="22" viewBox="0 0 22 22"><defs><style>.cls-1{fill:#c0d5b3;fill-rule:evenodd;}</style></defs><title>social_ok</title><path class="cls-1" d="M13.3,16a11,11,0,0,0,3.3-1.36,1.66,1.66,0,0,0-1.77-2.81h0a7.25,7.25,0,0,1-7.66,0,1.67,1.67,0,0,0-2.29.52h0a1.66,1.66,0,0,0,.52,2.29A11,11,0,0,0,8.7,16L5.52,19.17a1.65,1.65,0,0,0,0,2.34,1.67,1.67,0,0,0,2.36,0L11,18.41l3.12,3.1a1.67,1.67,0,0,0,2.35,0h0a1.65,1.65,0,0,0,0-2.34h0L13.3,16"/><path class="cls-1" d="M11,0a5.69,5.69,0,1,0,5.69,5.69A5.69,5.69,0,0,0,11,0m0,8.05a2.36,2.36,0,1,1,2.36-2.36A2.36,2.36,0,0,1,11,8.05"/></svg>