<svg xmlns="http://www.w3.org/2000/svg" width="17" height="15" viewBox="0 0 17 15">
    <g fill="#483711" fill-rule="nonzero">
        <path d="M7.063.194c-.426.15-.683.478-.727.92-.05.528.324 1.023.846 1.123l.201.04v1.136l-.254.043c-.63.103-1.393.362-2.057.7-2.397 1.223-3.991 3.768-4.008 6.392-.003.466.004.509.076.665.106.209.307.412.515.518l.165.08H15.06l.165-.08c.208-.106.41-.309.515-.518.072-.153.079-.2.076-.648-.014-2.053-1.01-4.14-2.625-5.488-1-.834-2.268-1.432-3.44-1.621l-.254-.043V2.277l.201-.04c.519-.1.888-.588.849-1.116a1.076 1.076 0 0 0-.618-.884L9.743.151 8.49.144C7.347.134 7.218.141 7.063.194zM.724 12.954c-.31.106-.472.252-.64.568-.112.215-.112.644.003.88.102.213.304.412.512.518l.165.08H16.115l.165-.08c.208-.106.41-.305.512-.518.066-.136.083-.216.08-.449 0-.239-.014-.308-.09-.455a1.103 1.103 0 0 0-.515-.505l-.185-.086L8.49 12.9c-7.24-.006-7.6-.006-7.765.054z"/>
    </g>
</svg>
