<svg id="Layer_2" data-name="Layer 2" xmlns="http://www.w3.org/2000/svg" width="22" height="22" viewBox="0 0 22 22"><defs><style>.cls-1{fill:#c0d5b3;fill-rule:evenodd;}</style></defs><title>social_vk</title><path class="cls-1" d="M18.22,11.3s2.89-4.08,3.17-5.42c.1-.48-.11-.75-.61-.75H18.27a.91.91,0,0,0-.95.62,22.85,22.85,0,0,1-3,4.7c-.53.59-.8.77-1.09.77s-.34-.2-.34-.73V5.84c0-.65-.08-.84-.61-.84h-4c-.31,0-.5.18-.5.42,0,.61.94.75.94,2.41v3.43c0,.69,0,1-.37,1-.86,0-2.9-3-4.05-6.33C4,5.19,3.79,5,3.14,5H.63A.6.6,0,0,0,0,5.61c0,.67.78,3.77,3.87,7.92,2.06,2.8,4.78,4.31,7.23,4.31,1.49,0,1.85-.25,1.85-.88V14.82c0-.54.22-.77.52-.77s.95.11,2.37,1.51c1.69,1.61,1.8,2.28,2.72,2.28h2.81c.29,0,.56-.13.56-.61s-.82-1.76-2.09-3.1c-.51-.69-1.35-1.44-1.62-1.78s-.27-.63,0-1"/></svg>