<svg id="Layer_1" data-name="Layer 1" xmlns="http://www.w3.org/2000/svg" width="22" height="22" viewBox="0 0 22 22"><defs><style>.cls-1{fill:#c0d5b3;fill-rule:evenodd;}</style></defs><title>social_yt</title><path class="cls-1" d="M21.77,6.34a4.81,4.81,0,0,0-.88-2.19,3.15,3.15,0,0,0-2.2-.93C15.61,3,11,3,11,3h0S6.37,3,3.3,3.22a3.18,3.18,0,0,0-2.21.93A4.75,4.75,0,0,0,.22,6.34,33.26,33.26,0,0,0,0,9.9v1.67a33.26,33.26,0,0,0,.22,3.56,4.75,4.75,0,0,0,.87,2.19,3.83,3.83,0,0,0,2.43.94c1.76.17,7.47.22,7.47.22s4.62,0,7.7-.23a3.15,3.15,0,0,0,2.2-.93,4.81,4.81,0,0,0,.88-2.19A33.26,33.26,0,0,0,22,11.57V9.9A33.26,33.26,0,0,0,21.77,6.34Zm-13,7.25V7.41l5.94,3.1Z"/></svg>