<svg xmlns="http://www.w3.org/2000/svg" width="260" height="260" viewBox="0 0 260 260">
    <g fill="none" fill-rule="evenodd">
        <circle cx="130" cy="130" r="130" fill="#F6EFE5"/>
        <path fill="#DDBC99" d="M79.758 64.274l-1.058-1.06 1.058-.191v1.251zm0 3.386l-3.899-3.91 1.224-.227 2.675 2.683v1.454zm0 3.374l-6.741-6.76 1.214-.226 5.527 5.543v1.443zm0 3.385l-9.582-9.608 1.225-.227 8.357 8.38v1.455zm0 3.386l-10.7-10.73v-1.454l10.7 10.73v1.454zm0 3.373l-10.7-10.729v-1.454l10.7 10.729v1.454zm0 3.386l-10.7-10.73v-1.453l10.7 10.728v1.455zm0 3.373l-10.7-10.728v-1.443l10.7 10.729v1.442zm0 3.386l-10.7-10.729V79.14l10.7 10.728v1.455zm0 3.373l-10.7-10.728v-1.443l10.7 10.729v1.442zm0 3.386l-10.7-10.729V85.9l10.7 10.729v1.454zm0 3.374l-10.7-10.73v-1.442l10.7 10.73v1.442zm0 3.385l-10.7-10.729v-1.454l10.7 10.729v1.454zm0 3.386l-10.7-10.73v-1.454l10.7 10.73v1.454zm0 3.373l-10.7-10.729V99.43l10.7 10.729v1.442zm0 3.386l-10.7-10.73v-1.453l10.7 10.728v1.455zm0 3.373l-10.7-10.728v-1.443l10.7 10.729v1.442zm0 3.386l-10.7-10.729v-1.454l10.7 10.728v1.455zm0 3.373l-10.7-10.728v-1.443l10.7 10.729v1.442zm0 3.386l-10.7-10.729v-1.454l10.7 10.729v1.454zm0 3.385l-10.7-10.728v-1.455l10.7 10.73v1.453zm0 3.374l-10.7-10.729v-1.442l10.7 10.729v1.442zm0 3.386l-10.7-10.73v-1.454l10.7 10.73v1.454zm0 3.373l-10.7-10.729v-1.442l10.7 10.729v1.442zm0 3.386l-10.7-10.73v-1.453l10.7 10.728v1.455zm0 3.373l-10.7-10.728v-1.443l10.7 10.729v1.442zm0 3.386l-10.7-10.729v-1.454l10.7 10.728v1.455zm0 3.385l-10.7-10.728v-1.455l10.7 10.729v1.454zm0 3.374l-10.7-10.729v-1.442l10.7 10.729v1.442zm0 3.385l-10.7-10.728v-1.455l10.7 10.73v1.453zm0 3.374l-10.7-10.729v-1.442l10.7 10.729v1.442zm0 3.386l-10.7-10.73v-1.454l10.7 10.73v1.454zm0 3.373l-10.7-10.729v-1.442l10.7 10.729v1.442zm0 3.386l-10.7-10.73v-1.453l10.7 10.728v1.455zm0 3.385l-10.7-10.729v-1.454l10.7 10.729v1.454zm0 3.374l-10.7-10.729v-1.454l10.7 10.728v1.455zm0 3.385l-10.7-10.728v-1.455l10.7 10.729v1.454zm0 3.374l-10.7-10.729v-1.442l10.7 10.729v1.442zm0 3.385l-10.7-10.728v-1.455l10.7 10.73v1.453zm0 3.374l-10.7-10.729v-1.442l10.7 10.729v1.442zm-2.89.489l-7.81-7.832v-1.455l9.261 9.287h-1.45zm-3.364 0l-4.446-4.459v-1.442l5.885 5.9h-1.439zm-3.376 0l-1.07-1.073v-1.454l2.52 2.527h-1.45zm30.113 1.704l-1.878-.44-.01-.013h-.014l-2.507-.596-1.903-.453-2.533-.608-1.902-.452-2.52-.597-.083-.023V57.944L83.752 55l-1.427.262-1.21.227H81.1l-1.605.31-1.224.226-1.63.298-1.222.227-1.618.31-1.212.226-1.629.298-1.225.227-1.617.31-1.213.226-1.628.298-1.225.227-1.629.298-1.212.238-1.617.298-1.225.227-1.627.298-1.214.226h-.012l-1.617.31L42 62.784v5.472h19.568l.357.358v125.872l-.511.13-1.522.406-1.153.298-1.522.406-1.141.298-1.534.393-10.234 2.694v4.637h60.213v-4.422l-1.747-.418-2.533-.608zm108.59-33.247l-9.512-9.536a25.766 25.766 0 0 0-1.379-2.826l10.914 10.944c0 .477 0 .953-.024 1.418zm-.132 2.134c-.023.346-.06.691-.095 1.025l-7.656-7.677a29.209 29.209 0 0 0-.523-1.979l8.298 8.321c0 .107-.01.215-.024.31zm-.356 3.028c-.036.25-.07.489-.118.715l-.037.239-6.527-6.545a35.736 35.736 0 0 0-.237-1.68l6.954 6.973c-.01.095-.023.203-.035.298zm-.785 3.707l-5.635-5.65a31.282 31.282 0 0 0-.071-1.526l6.003 6.02c-.082.393-.177.775-.297 1.156zm-.808 2.575l-4.85-4.863v-.06c.023-.441.036-.906.036-1.359l5.182 5.197c-.107.37-.226.728-.368 1.085zm-.558 1.43c-.132.323-.263.62-.417.93 0 .013-.012.013-.012.024l-4.09-4.1c.036-.322.072-.632.095-.954.013-.12.013-.25.024-.381l4.423 4.434c-.012.012-.012.036-.023.048zm-1.202 2.468a10.65 10.65 0 0 1-.297.525c-.024.06-.06.12-.095.179l-3.353-3.362c.084-.405.144-.823.214-1.24l3.662 3.672a2.216 2.216 0 0 1-.13.226zm-1.736 2.73l-2.603-2.61c.107-.382.191-.775.273-1.169l2.925 2.933a9.64 9.64 0 0 1-.595.846zm-1.498 1.884l-1.866-1.872c.119-.37.238-.739.345-1.108l2.175 2.181c-.19.274-.416.536-.654.799zm-1.093 1.168c-.179.19-.357.37-.547.536l-.012.012-1.14-1.144c.153-.334.284-.68.415-1.025l1.45 1.454-.166.167zm-2.246 2.05c-.037.024-.072.06-.107.084l-.417-.417c.166-.322.333-.644.476-.978l.724.727c-.225.203-.451.394-.676.584zm-23.16-60.212l.999.382.13-.12 1.011.43 31.375 31.459c.034.5.058 1.001.07 1.514v.012l-33.585-33.677zm19.557 41.819c0 .476-.011.953-.036 1.418 0 .12 0 .25-.012.37-.012.488-.047.977-.095 1.454-.036.441-.07.882-.13 1.311l-.072.572c-.048.382-.107.751-.165 1.121-.061.417-.144.823-.227 1.228-.012.036-.012.06-.023.095-.073.394-.156.775-.263 1.145-.012.107-.047.226-.071.333-.01.06-.036.12-.048.18-.071.297-.154.571-.25.858-.01.023-.01.06-.023.083-.142.489-.297.977-.476 1.454-.118.358-.25.704-.403 1.05-.18.452-.37.905-.583 1.346a20.94 20.94 0 0 1-.963 1.86c-.072.12-.131.227-.202.346v.012c-.179.298-.369.596-.56.882-.249.381-.51.763-.796 1.132a9.845 9.845 0 0 1-.523.68l-.107.143a1.275 1.275 0 0 1-.166.19 6.165 6.165 0 0 1-.523.609c-.06.083-.13.155-.202.238a23.986 23.986 0 0 1-1.688 1.68c-.25.227-.512.454-.772.68-.358.274-.715.56-1.083.847-.285.19-.57.393-.856.584-.012.012-.036.024-.046.036-.37.25-.738.488-1.13.715-.297.19-.607.357-.928.524-.048.024-.084.048-.131.072-.202.12-.416.226-.629.334-.168.083-.345.167-.512.25-.226.12-.464.226-.702.334a2.9 2.9 0 0 1-.285.119c-.06.024-.107.048-.167.071-.344.155-.69.299-1.046.442-.047.023-.095.035-.142.06h-.012c-.356.13-.714.261-1.07.369-.143.06-.297.107-.452.155-.333.119-.665.214-1.01.31l-.249.071c-.297.084-.594.167-.892.239-.037.011-.06.011-.095.023-.227.06-.452.12-.679.167-.261.06-.535.12-.796.167-.392.096-.797.167-1.2.239-.356.06-.714.119-1.083.178l-.594.072h-.024c-.332.06-.666.095-1.01.131-.084.012-.179.012-.26.024l-.275.036-1.154.107c-.107.012-.225.012-.332.024-.452.024-.915.047-1.38.06-.13.011-.25.011-.379.011-.488.024-.988.036-1.499.036h-.202c-.427 0-.856 0-1.27-.024-.203 0-.405-.012-.595-.012-.404-.012-.81-.035-1.202-.06-.072 0-.142-.011-.214-.011-.262-.024-.535-.036-.797-.06a8.5 8.5 0 0 1-.772-.071 24.12 24.12 0 0 1-.927-.096l-.536-.071-.737-.107c-.367-.06-.725-.12-1.082-.191-.237-.048-.463-.096-.701-.143-.44-.072-.867-.18-1.296-.286a19.652 19.652 0 0 1-1.26-.346 7.505 7.505 0 0 1-.547-.167 8.353 8.353 0 0 1-.773-.25 6.576 6.576 0 0 1-.808-.298c-.012 0-.036 0-.046-.012a24.36 24.36 0 0 1-2.998-1.36c-.225-.118-.451-.238-.664-.38a17.884 17.884 0 0 1-1.13-.692 4.102 4.102 0 0 0-.298-.203 14.645 14.645 0 0 1-.975-.715c-.38-.286-.749-.584-1.105-.906a15.32 15.32 0 0 1-.892-.823l-.321-.321c-.19-.191-.369-.394-.559-.596a15.34 15.34 0 0 1-.392-.453c-.272-.31-.535-.62-.76-.942a13.35 13.35 0 0 1-.844-1.18 13.76 13.76 0 0 1-.786-1.252 23.685 23.685 0 0 1-1.771-3.707 7.014 7.014 0 0 1-.285-.751c-.107-.263-.19-.537-.284-.811-.061-.19-.12-.382-.192-.584 0-.036-.01-.06-.024-.096a20.847 20.847 0 0 1-.331-1.18c-.132-.477-.25-.953-.358-1.442a73.597 73.597 0 0 1-.345-1.788v-.012a26.497 26.497 0 0 1-.202-1.335 11.08 11.08 0 0 1-.119-.906v-.012c-.036-.262-.071-.525-.095-.799-.023-.262-.048-.536-.07-.81l-.037-.37-.071-.918a174.18 174.18 0 0 1-.035-.787 18.76 18.76 0 0 1-.047-.894c-.013-.202-.013-.417-.013-.62-.024-.488-.024-.99-.024-1.49v-.465c.012-.477.012-.941.037-1.406.022-.62.058-1.228.105-1.824.037-.453.072-.894.12-1.335.012-.132.023-.263.047-.394.025-.298.06-.596.107-.882.013-.155.036-.298.06-.441.011-.107.035-.215.048-.322.035-.25.082-.5.118-.739l.037-.179c.095-.536.2-1.073.331-1.597.024-.131.048-.262.072-.382.06-.274.13-.548.191-.81.13-.513.272-1.014.415-1.514.107-.37.227-.74.345-1.097.154-.489.322-.965.499-1.43a2.04 2.04 0 0 1 .095-.227c.095-.274.202-.548.322-.81.177-.454.368-.907.582-1.348.142-.333.31-.667.464-.989.213-.43.427-.846.665-1.264a24.72 24.72 0 0 1 1.248-2.122c.179-.298.37-.596.571-.882.071-.107.144-.214.214-.322.155-.226.322-.453.487-.679.024-.048.06-.083.095-.131.048-.072.096-.143.155-.215.143-.202.31-.405.464-.608.273-.357.56-.727.857-1.073.213-.262.44-.524.664-.786.298-.346.607-.68.928-1.002.214-.25.451-.5.701-.739.238-.25.488-.5.737-.727.072-.095.155-.167.226-.238.25-.227.5-.465.76-.692.167-.155.334-.31.512-.465.167-.143.333-.298.511-.44.131-.108.263-.227.393-.335.12-.107.262-.226.392-.333.06-.048.12-.096.178-.131.298-.25.595-.49.904-.716.274-.214.547-.429.821-.62.237-.19.475-.357.724-.536l1.023.358 2.223.774 2.961 1.038 2.21.774 1.237.43c.582.202 1.166.417 1.735.62.226.083.44.166.667.25.393.13.772.274 1.152.429.167.06.334.131.5.19 1.07.394 2.104.8 3.114 1.193.834.334 1.653.667 2.438.99l.011.011c.143.048.274.107.418.167.427.179.854.37 1.284.548.547.239 1.093.465 1.628.704.938.417 1.843.834 2.698 1.251.869.406 1.7.811 2.485 1.216.261.131.524.274.784.406.202.107.392.202.583.31.927.488 1.783.989 2.591 1.466.262.167.525.322.774.465.011.012.011.024.023.024h.012c.06.035.13.083.19.119.322.202.62.393.917.596.297.19.57.381.842.572.442.298.845.596 1.238.894.272.215.522.417.772.62.262.203.512.417.762.644.165.143.331.298.498.465.226.214.452.44.654.667.166.155.309.322.451.489.143.155.275.31.405.477.63.775 1.2 1.61 1.7 2.491.178.286.333.584.475.894 0 .012.012.012.012.024 0 0 0 .012.013.012.095.19.19.393.284.596.095.203.19.405.274.62.095.203.18.417.25.632.084.214.166.429.237.643.071.18.13.358.192.537.082.262.165.524.236.799.06.178.108.37.156.548.07.274.141.548.202.834l.07.334c.071.346.143.704.202 1.073l.073.394c.117.715.202 1.43.26 2.181v.012c.024.19.048.37.048.56.037.334.06.668.071 1.002.025.584.036 1.192.036 1.8v.167zm-64.554 21.23l-8.428-8.451c-.275-.453-.513-.93-.75-1.407-.06-.131-.131-.274-.19-.43a30.319 30.319 0 0 1-.405-.965l11.758 11.79c.178.298.368.596.57.894a27.767 27.767 0 0 1-2.555-1.43zm-10.71-14.126c-.014-.024-.014-.06-.026-.083-.095-.37-.178-.751-.25-1.145-.035-.19-.07-.393-.106-.596l9.951 9.978c.285.823.606 1.621.95 2.396l-10.52-10.55zm-.715-4.089c-.036-.202-.048-.417-.07-.62-.025-.31-.048-.643-.061-.965l9.025 9.048c.07.334.142.667.236.99.071.321.167.655.263.965l-9.393-9.418zm-.19-3.612c0-.464.013-.93.023-1.382l8.298 8.32c.024.191.048.382.084.573.047.345.095.68.166 1 0 .049.013.096.024.144l-8.595-8.619v-.036zm.285-4.506l7.644 7.665c.013.263.036.537.06.8.023.261.048.524.07.786l-7.917-7.94c.036-.44.083-.881.143-1.31zm.477-2.753c.01-.036.01-.084.022-.12l6.99 7.01c0 .5.026 1.001.048 1.49l-7.276-7.296c.061-.37.143-.715.216-1.084zm.605-2.194c.047-.19.119-.37.178-.548l6.265 6.282v.179c-.023.381-.035.775-.035 1.168v.072l-6.573-6.604c.059-.191.107-.37.165-.549zm1.153-2.956l5.517 5.531c-.06.441-.095.882-.12 1.335l-5.837-5.853c.13-.346.285-.68.44-1.013zm1.177-2.194l4.72 4.733c-.082.417-.143.834-.19 1.252l-5.053-5.067c.154-.31.333-.62.523-.918zm.856-1.335c.154-.226.322-.465.5-.691l3.899 3.91c-.096.393-.179.799-.25 1.204l-4.256-4.268c.036-.047.071-.107.107-.155zm2.009-2.55l3.068 3.075c-.12.37-.215.75-.31 1.132l-3.424-3.433c.215-.262.44-.513.666-.775zm1.296-1.36c.107-.119.239-.238.368-.357l2.212 2.217c-.131.358-.25.727-.357 1.097l-2.592-2.6c.12-.118.238-.238.369-.357zm2.152-1.955l1.367 1.383c-.155.334-.286.68-.415 1.025l-1.736-1.74c.25-.227.51-.441.784-.668zm1.891-1.478l.522.525c-.155.321-.31.655-.462.989l-.881-.894c.261-.215.535-.417.821-.62zm1.248-.882c-.025.048-.048.083-.072.131l-.048-.048c.036-.023.084-.06.12-.083zm-6.29-39.911a24.784 24.784 0 0 1-.463-1.907l22.064 22.125-1.188-.537c-.488-.226-.975-.44-1.45-.667l-18.963-19.014zm11.343 14.758l-8.787-8.81a22.79 22.79 0 0 1-1.52-2.98l13.98 14.02a47.581 47.581 0 0 1-3.673-2.23zm-12.186-18.978c-.025-.167-.048-.322-.06-.489-.06-.381-.094-.763-.131-1.156l28.282 28.36-2.233-.787-25.858-25.928zm-.31-3.696v-.011a21.685 21.685 0 0 1-.036-1.252v-.215l33.597 33.689-2.211-.775-31.35-31.436zm0-3.54c.013-.393.024-.799.06-1.18v-.048l8.155 8.178.25.68c.178.44.368.858.56 1.275.105.214.212.429.32.632l-9.357-9.382c0-.048 0-.107.012-.155zm.273-3.672c.024-.19.048-.393.085-.584v-.047l6.478 6.485v.011c.13.644.273 1.276.453 1.896l-7.086-7.105c.011-.215.035-.441.07-.656zm.583-3.516l5.399 5.412c0 .06.01.13.01.19.024.31.06.608.095.906l.072.525-5.802-5.817c.06-.418.143-.811.226-1.216zm.666-2.563c.012-.036.025-.084.035-.12l4.506 4.519c0 .286 0 .56.012.822 0 .227.012.441.025.668l-4.864-4.876c.084-.346.179-.68.286-1.013zm.582-1.765c.107-.286.214-.56.334-.846l3.71 3.72c-.037.452-.061.905-.073 1.37l-4.04-4.053c.022-.06.046-.13.07-.19zm.963-2.288c.131-.298.274-.596.428-.882l2.937 2.944c-.06.43-.107.858-.155 1.3l-3.257-3.267a.397.397 0 0 1 .047-.095zm1.665-3.016l2.199 2.205c-.082.393-.166.799-.237 1.204l-2.51-2.515c.167-.298.346-.596.548-.894zm1.402-1.98l1.487 1.49c-.12.37-.214.752-.321 1.133l-1.784-1.788c.192-.286.393-.56.618-.834zm1.57-1.811l.774.775c-.12.274-.227.572-.323.858-.022.072-.047.131-.07.203l-1.083-1.085c.226-.25.452-.5.702-.751zm1.416-1.395l.297-.262.058.06c-.153.333-.308.667-.45 1l-.358-.369c.155-.155.297-.286.453-.429zm36.366 54.252l2.319.882 15.643 15.688a61.67 61.67 0 0 0-3.542-2.11l-14.42-14.46zm-5.409-2.039c.617.227 1.248.465 1.877.692l.416.155 13.53 13.566c-.88-.43-1.795-.859-2.746-1.3l-13.077-13.113zm-5.553-2.193c.785.322 1.581.656 2.413.977l12.792 12.827c-.796-.345-1.617-.68-2.46-1.025l-12.745-12.779zm4.222 9.549c-.12-.048-.24-.084-.358-.132l-1.877-.655-15.219-15.259a76.173 76.173 0 0 0 3.34 1.896l14.114 14.15zm-10.25-12.207c.857.405 1.726.81 2.64 1.204l.012.012h.013l12.921 12.97c-.76-.299-1.52-.585-2.317-.883l-13.268-13.303zm-15.3-32.246v-.108c.012-.429.037-.846.072-1.263a21.44 21.44 0 0 1 .154-1.776c.036-.43.095-.859.166-1.288.024-.19.06-.381.097-.572.047-.31.106-.62.165-.918.012-.048.025-.095.036-.143.012-.06.023-.107.037-.167.059-.322.141-.656.212-.977.012-.012.012-.024.012-.036.12-.5.262-1.001.416-1.49.013-.012.013-.012.013-.024.106-.37.225-.727.356-1.085.166-.477.345-.942.536-1.395.143-.333.297-.655.463-.99.059-.13.118-.25.179-.38.106-.227.213-.454.332-.668.047-.084.083-.155.13-.239.18-.31.357-.607.535-.905.25-.406.5-.8.761-1.169.202-.286.405-.572.62-.834.284-.37.57-.715.866-1.061.226-.25.452-.5.69-.751l.083-.084c.24-.238.476-.476.713-.68.06-.059.131-.118.19-.178.25-.238.5-.465.761-.691.358-.286.714-.56 1.094-.835.274-.202.559-.405.856-.596.394-.262.786-.5 1.189-.739.31-.179.618-.346.94-.5.106-.06.213-.108.32-.156.25-.143.513-.262.773-.37.071-.035.144-.059.214-.094l.072-.036c.308-.143.617-.274.95-.394.036-.012.084-.023.12-.047.427-.155.868-.31 1.308-.453.368-.12.736-.227 1.105-.334.023 0 .036-.012.059-.012a18.5 18.5 0 0 1 1.166-.286l.332-.072c.024 0 .036-.012.06-.012.357-.083.725-.155 1.094-.214.023 0 .035-.012.059-.012.32-.06.642-.107.974-.143.238-.036.476-.072.714-.095.261-.036.536-.06.82-.084.166-.024.333-.036.5-.036.606-.06 1.212-.083 1.843-.083.272-.024.558-.024.843-.024.202 0 .404 0 .595.012.346 0 .677.012 1.022.024.333.012.655.036.987.06a33.51 33.51 0 0 1 1.606.154c.795.108 1.568.239 2.329.406.226.047.44.095.666.143.237.047.475.107.7.179.191.047.37.095.548.155.035.011.06.023.095.023.31.096.607.191.905.286h.01c.357.132.702.25 1.046.394.335.131.666.274 1 .429.179.072.369.155.546.262.25.12.5.239.749.382.025.012.06.024.083.047.345.18.679.37 1.01.585.334.202.656.417.976.643 1.153.81 2.212 1.74 3.174 2.802.202.214.392.429.572.643.367.441.724.894 1.056 1.371.18.25.357.489.512.751.57.87 1.082 1.788 1.558 2.778.225.465.44.954.642 1.442.023.084.058.155.095.239.19.5.38 1.013.547 1.537.225.668.427 1.348.617 2.063.095.405.202.81.286 1.216.084.345.154.703.225 1.06.013.06.024.132.036.203.107.56.202 1.145.285 1.74.048.323.095.644.132.978.048.394.094.799.13 1.216.047.465.083.942.107 1.43a.53.53 0 0 1 .013.144c0 .047.01.107.01.155.024.393.048.798.06 1.216.012.214.012.429.012.643.024.477.024.954.024 1.43v.037c0 .631-.01 1.263-.048 1.883-.01.465-.035.93-.071 1.383a26.894 26.894 0 0 1-.167 1.764c-.047.43-.095.859-.165 1.276a4.996 4.996 0 0 1-.06.393c-.035.31-.094.62-.155.93a2.978 2.978 0 0 1-.06.334c-.07.405-.154.81-.249 1.204a34.713 34.713 0 0 1-.367 1.561c-.109.382-.216.751-.323 1.121-.154.489-.309.977-.474 1.454 0 .012 0 .012-.013.024a10.82 10.82 0 0 1-.38 1.037c-.06.18-.131.358-.201.537l-.143.357c-.073.155-.144.322-.215.477-.143.346-.284.68-.452 1.002-.202.44-.416.87-.629 1.299-.167.322-.334.632-.512.93-.225.417-.464.822-.714 1.216-.178.298-.368.596-.557.894a44.515 44.515 0 0 1-1.392 1.979c-.284.37-.559.727-.844 1.084-.226.275-.452.537-.666.787-.297.346-.605.692-.902 1.025-.24.25-.477.501-.715.74-.309.321-.629.643-.963.953-.238.239-.487.477-.749.703-.333.31-.666.608-1.022.906-.143.132-.286.25-.428.37l-1.058-.405-3.09-1.169-1.938-.739c-.132-.047-.25-.095-.382-.143a114.54 114.54 0 0 1-3.09-1.168 131.41 131.41 0 0 1-5.684-2.313c-.89-.381-1.746-.763-2.578-1.144a84.418 84.418 0 0 1-3.734-1.812 56.103 56.103 0 0 1-3.186-1.74c-.012-.012-.023-.012-.036-.024-1.795-1.037-3.364-2.075-4.707-3.112-.332-.25-.642-.5-.94-.75-.284-.251-.57-.513-.83-.775-.287-.263-.536-.537-.785-.811a10.794 10.794 0 0 1-.608-.703c-.202-.25-.39-.501-.581-.763a9.877 9.877 0 0 1-.513-.74 3.758 3.758 0 0 1-.142-.226 8.626 8.626 0 0 1-.476-.787 19.899 19.899 0 0 1-.451-.834l-.143-.286a8.247 8.247 0 0 1-.333-.74c-.012-.011-.012-.035-.023-.047-.013-.024-.013-.036-.025-.06a13.888 13.888 0 0 1-.426-1.073 10.789 10.789 0 0 1-.37-1.096c-.012-.024-.012-.048-.023-.072-.095-.298-.18-.584-.25-.894a26.05 26.05 0 0 1-.179-.715c-.06-.286-.118-.584-.178-.882 0-.024-.012-.036-.012-.06a15.387 15.387 0 0 1-.272-1.716 4.888 4.888 0 0 1-.085-.716c-.035-.202-.047-.405-.07-.608-.025-.274-.037-.548-.06-.822-.035-.5-.06-1.002-.072-1.526-.01-.31-.01-.62-.01-.93 0-.334 0-.667.01-1.001zm70.796 69.546c.047.274.095.56.132.846.047.275.082.549.105.835l-27.842-27.919.583.25c.665.287 1.319.573 1.949.847l25.073 25.141zm-18.545-21.982l17.391 17.44.037.107c.107.31.202.608.298.918.107.358.212.704.297 1.061l-20.948-21.004c1.022.488 1.996.99 2.925 1.478zm5.503 3.266c.274.191.547.37.808.56a39.933 39.933 0 0 1 2.973 2.265c.274.227.546.465.808.704.214.179.416.37.618.56.012.024.037.036.048.048l.012.012.06.06.82.822c.095.083.166.179.249.262.107.095.19.179.273.274.298.31.571.632.845.954.31.358.594.727.88 1.097.214.286.417.572.619.87a21.87 21.87 0 0 1 1.366 2.241l-11.294-11.325c.31.203.618.394.915.596zm-4.292-69.63c.012 0 .025 0 .036.012l8.025 8.047c0 .012.012.012.012.024a20.76 20.76 0 0 1 1.355 2.79l-9.428-9.454c-.202-.37-.392-.727-.606-1.085a71.304 71.304 0 0 0-.642-1.06c.43.226.844.464 1.248.727zm10.51 14.198c.095.406.19.799.262 1.192.023.096.048.18.059.275l-8.38-8.405c0-.012 0-.012-.014-.023a16.372 16.372 0 0 0-.273-.847 6.346 6.346 0 0 0-.19-.524c-.095-.263-.19-.525-.297-.775a.243.243 0 0 0-.023-.084l8.749 8.774c.035.143.072.274.107.417zm.655 3.732c.06.524.107 1.049.13 1.573l-7.669-7.689a30.26 30.26 0 0 0-.416-1.86l7.955 7.976zm.154 4.982l-7.05-7.069a70.66 70.66 0 0 0-.227-1.669l7.312 7.32c0 .477-.012.954-.035 1.418zm-.31 3.064l-6.443-6.45-.012-.011v-.012c0-.238-.012-.477-.036-.715a17.382 17.382 0 0 0-.06-.823l6.73 6.747c-.048.43-.108.847-.179 1.264zm-.439 2.205a7.757 7.757 0 0 1-.155.585l-5.789-5.806c.01-.143.01-.274.01-.417 0-.346 0-.692-.01-1.037l6.074 6.091c-.036.203-.083.394-.13.584zm-.986 3.136l-5.078-5.09c.036-.394.048-.8.073-1.193 0-.06.01-.119.01-.178l5.374 5.388c-.107.37-.238.727-.38 1.073zm-1.035 2.336l-4.352-4.363c.071-.417.119-.846.166-1.275l4.649 4.66c-.143.334-.31.656-.463.978zm-1.248 2.134l-3.556-3.564c.072-.418.144-.823.214-1.24l3.9 3.91c-.179.298-.369.608-.558.894zm-1.404 1.967l-2.782-2.79c.095-.381.19-.763.285-1.156l3.116 3.123c-.202.275-.404.549-.619.823zm-1.116 1.335a6.064 6.064 0 0 1-.452.477l-1.987-1.99c.061-.168.12-.347.167-.514.06-.202.119-.393.178-.596l2.33 2.337c-.071.095-.154.19-.236.286zm-1.523 1.574a7.33 7.33 0 0 1-.605.596l-1.202-1.204c.142-.346.273-.692.405-1.038l1.52 1.526a.538.538 0 0 1-.118.12zm-2.425 2.157l-.405-.405c.155-.334.31-.668.452-1.001l.75.75c-.262.239-.524.454-.797.656zm24.133 51.248c0-.513-.012-1.013-.048-1.502a31.01 31.01 0 0 0-.059-1.05c-.023-.345-.048-.679-.083-1.024a23.381 23.381 0 0 0-.167-1.622 34.517 34.517 0 0 0-.356-2.288 11.879 11.879 0 0 0-.131-.692c-.07-.381-.166-.763-.25-1.132a28.801 28.801 0 0 0-.367-1.419 26.013 26.013 0 0 0-.297-.99c-.025-.095-.06-.178-.085-.273-.154-.477-.308-.954-.499-1.419a10.498 10.498 0 0 0-.333-.87c-.143-.346-.285-.68-.427-1.013-.203-.442-.417-.87-.63-1.3a.55.55 0 0 0-.06-.12 16.494 16.494 0 0 0-.607-1.108c-.047-.095-.107-.179-.154-.274a17.803 17.803 0 0 0-.702-1.144c-.25-.406-.522-.787-.796-1.18-.107-.144-.213-.298-.32-.442-.203-.286-.417-.56-.642-.846a28.74 28.74 0 0 0-1.998-2.3l-1.414-1.42-.025-.023c-.333-.322-.69-.644-1.046-.954a31.26 31.26 0 0 0-.975-.834c-.416-.346-.83-.692-1.27-1.025-.442-.334-.882-.668-1.344-1.002a62.905 62.905 0 0 0-1.94-1.335 65.797 65.797 0 0 0-2.448-1.526c-.476-.298-.975-.572-1.474-.858-.274-.155-.56-.31-.844-.465a44.357 44.357 0 0 0-1.498-.81 47.52 47.52 0 0 0-1.557-.8 108.53 108.53 0 0 0-3.686-1.764c-.832-.381-1.7-.762-2.58-1.144l-.452-.453c.334-.155.654-.31.976-.465.44-.214.867-.429 1.284-.644.284-.13.558-.286.844-.429.035-.024.082-.035.118-.06.43-.226.844-.452 1.248-.679.31-.179.62-.346.917-.524.415-.239.82-.477 1.211-.716.298-.19.607-.381.892-.56.392-.25.785-.512 1.153-.775.297-.19.583-.381.857-.584a39.822 39.822 0 0 0 1.937-1.442c.309-.239.618-.489.903-.727l.167-.132c.263-.226.523-.44.773-.679.344-.298.69-.608 1.023-.906.25-.238.488-.477.724-.715.321-.31.642-.644.963-.966l.69-.763c.309-.346.595-.691.893-1.037.212-.262.426-.536.628-.81.298-.358.571-.728.833-1.097.025-.024.035-.06.06-.084.177-.262.368-.512.534-.775a30.9 30.9 0 0 0 .749-1.18c.19-.298.369-.596.535-.894v-.012c.238-.417.464-.822.678-1.251.166-.322.32-.644.475-.978.12-.25.238-.512.345-.775.083-.19.168-.381.238-.572.142-.346.285-.691.404-1.049.178-.465.345-.93.5-1.419v-.011c.107-.358.214-.728.332-1.11.13-.512.262-1.024.38-1.549.084-.405.167-.81.24-1.216.105-.548.189-1.108.26-1.669.012-.071.024-.13.024-.202.047-.358.083-.728.119-1.097.07-.596.107-1.192.13-1.8.024-.465.036-.942.036-1.419.012-.13.012-.25.012-.381 0-.537-.012-1.061-.035-1.574 0-.119-.013-.238-.013-.357a17.81 17.81 0 0 0-.071-1.169c0-.035 0-.06-.01-.095a13.98 13.98 0 0 0-.085-.99c-.036-.357-.07-.715-.13-1.072a5.368 5.368 0 0 0-.06-.453 14.72 14.72 0 0 0-.202-1.264l-.036-.167a6.853 6.853 0 0 0-.095-.524c-.083-.417-.167-.835-.274-1.24-.047-.19-.095-.37-.142-.548-.095-.382-.19-.763-.31-1.133-.083-.31-.19-.62-.297-.918v-.012a15.206 15.206 0 0 0-.355-1.037c-.168-.465-.358-.918-.547-1.37l-.037-.072c-.106-.239-.213-.465-.32-.704-.19-.417-.38-.822-.607-1.227-.202-.406-.416-.811-.654-1.204a17.025 17.025 0 0 0-.487-.775 27.563 27.563 0 0 0-1.421-2.048c-.051-.068-.095-.139-.149-.205-.015-.02-.034-.042-.052-.062-.128-.167-.26-.332-.392-.496-.029-.031-.051-.066-.079-.098-.19-.238-.392-.477-.594-.703l-.012-.013a28.8 28.8 0 0 0-3.697-3.528c-.333-.262-.665-.524-1.01-.775-.058-.039-.11-.077-.165-.115-.459-.333-.93-.656-1.416-.97-.18-.119-.358-.238-.547-.345-.095-.072-.18-.12-.274-.179a21.388 21.388 0 0 0-.999-.596 40.188 40.188 0 0 0-1.617-.87 39.375 39.375 0 0 0-3.436-1.526 7.782 7.782 0 0 0-.677-.25 37.62 37.62 0 0 0-1.403-.513c-.06-.024-.13-.048-.202-.072a34.913 34.913 0 0 0-1.688-.512c-.308-.095-.618-.179-.928-.262-.035 0-.07-.012-.107-.024a16.81 16.81 0 0 0-1.284-.334 10.3 10.3 0 0 0-.653-.155 19.46 19.46 0 0 0-1.2-.262 20.43 20.43 0 0 0-1.226-.239l-.166-.035c-.357-.072-.713-.143-1.08-.191-.168-.036-.335-.06-.5-.084a63.349 63.349 0 0 0-2.248-.321 35.805 35.805 0 0 0-1.629-.18c-.345-.047-.69-.07-1.046-.107-.357-.035-.713-.06-1.069-.083a32.277 32.277 0 0 0-1.533-.095h-.013c-.12-.012-.237-.012-.357-.024-.522-.036-1.046-.048-1.581-.072h-.072c-.487-.012-.974-.024-1.474-.024-.5-.023-.998-.023-1.508-.023h-.44c-.25 0-.477 0-.715.011-.226 0-.463.012-.701.012h-.012c-.63 0-1.247.024-1.867.048-.07 0-.142 0-.214.012-.392.012-.784.024-1.165.06-.618.023-1.212.06-1.807.119-.415.024-.844.06-1.247.095-.037 0-.06.012-.096.012a39.12 39.12 0 0 0-1.746.179l-.595.071c-.238.024-.465.048-.69.084-.571.071-1.13.155-1.677.25-.428.06-.832.131-1.247.203-.547.095-1.095.203-1.618.31-.404.083-.796.167-1.189.25-.523.12-1.046.239-1.557.37-.38.095-.761.202-1.141.31-.5.13-1 .274-1.473.417-.014.012-.014.012-.025.012a29.34 29.34 0 0 0-1.094.346c-.488.166-.962.321-1.427.5a27.23 27.23 0 0 0-1.046.406c-.464.166-.914.357-1.366.56-.334.13-.679.286-1.012.44-.44.204-.866.406-1.295.633-.32.155-.642.322-.952.488-.01 0-.01.012-.023.012-.321.18-.654.358-.963.537l-.25.143c-.308.179-.605.357-.902.548-.192.12-.393.239-.584.37-.202.13-.392.25-.583.393-.285.19-.582.382-.855.584-.38.274-.738.549-1.094.835-.274.202-.546.417-.809.643-.356.287-.701.585-1.033.894l-.762.692c-.32.322-.642.644-.95.965-.239.25-.476.49-.702.751-.308.334-.605.692-.892 1.038-.226.262-.44.536-.642.81-.165.203-.333.417-.487.632a7.23 7.23 0 0 0-.333.477c-.048.06-.095.131-.143.19-.071.108-.141.203-.214.31-.083.12-.166.227-.238.346-.034.06-.07.12-.107.18-.214.32-.426.655-.642 1-.177.298-.356.608-.535.918v.012c-.236.417-.451.823-.665 1.252a25.98 25.98 0 0 0-.476.966c-.202.44-.404.882-.581 1.347-.156.333-.287.691-.417 1.037-.19.465-.357.941-.512 1.418-.13.358-.237.727-.355 1.097-.155.489-.287 1.001-.417 1.502-.107.393-.203.775-.285 1.168a32.592 32.592 0 0 0-.344 1.586c-.073.417-.143.834-.204 1.251a32.18 32.18 0 0 0-.236 1.598c0 .024-.013.06-.013.083-.048.43-.094.859-.142 1.3-.06.584-.108 1.18-.142 1.788v.024c-.025.357-.037.715-.048 1.084-.013.096-.013.191-.013.286v.191a38.256 38.256 0 0 0-.036 1.67V95.4c0 .489.012.965.024 1.442 0 .298.012.596.036.894.012.382.037.751.06 1.133 0 .06.011.13.011.19.024.394.048.775.095 1.145 0 .083.013.167.024.25.071.751.166 1.49.273 2.206.013.071.024.143.036.214.071.441.143.858.227 1.276.01.083.035.178.048.262v.012c.01.071.022.131.047.202.047.275.107.537.177.8.036.178.073.345.12.512.082.345.178.691.273 1.025.19.715.404 1.419.654 2.11a28.34 28.34 0 0 0 1.379 3.314c.012.024.025.06.047.083.107.25.238.501.369.74.155.31.31.607.487.905.202.346.404.704.618 1.038l.394.608c.498.762 1.04 1.498 1.607 2.216.088.11.17.225.258.335a.163.163 0 0 1 .023.027c.155.19.322.377.484.566.109.128.214.258.325.384.025.024.036.048.06.072.014.019.033.035.052.05a35.11 35.11 0 0 0 3.37 3.3c.044.04.087.08.132.119.008.004.015.01.022.015.173.15.346.3.524.446l.074.063c.31.254.636.512.964.763.074.056.141.115.216.17l.009.009c.184.143.379.275.568.414.288.212.573.426.87.635a54.23 54.23 0 0 0 2.935 1.907c.31.191.632.382.951.572.025.012.06.036.084.048.654.37 1.32.751 1.997 1.109l1.034.536 1.071.537c.892.453 1.806.882 2.757 1.31 0 0 .013 0 .013.013-.344.143-.69.286-1.023.429-.463.179-.916.37-1.367.56-.345.143-.677.298-1.01.441-.453.191-.893.394-1.32.596-.345.143-.677.298-1 .453-.439.215-.866.418-1.295.632-.333.155-.654.322-.975.477-.082.048-.166.083-.25.131-.344.179-.676.358-1.01.537-.321.166-.63.333-.94.5-.415.227-.831.465-1.236.692-.307.178-.605.357-.902.548a17.83 17.83 0 0 0-1.189.74c-.047.023-.107.059-.154.095-.227.13-.44.274-.667.417-.023.012-.048.035-.07.047-.394.25-.774.513-1.142.775-.239.155-.476.322-.702.489-.06.036-.107.072-.155.107-.38.274-.749.549-1.105.823-.273.214-.547.429-.808.644-.356.286-.69.56-1.035.858l-.024.024c-.226.202-.464.393-.676.596-.025.024-.061.047-.085.071-.345.31-.677.62-.998.93-.25.239-.488.477-.726.727-.166.167-.32.322-.474.489-.168.155-.31.322-.465.5-.224.24-.452.49-.654.74l-.022.024c-.31.345-.595.703-.87 1.06-.225.263-.44.537-.641.811-.273.37-.547.751-.797 1.133-.202.286-.392.56-.557.858-.013 0-.013.012-.013.012-.262.393-.5.799-.726 1.204-.19.31-.355.62-.51.942a6.213 6.213 0 0 0-.381.739c-.095.179-.179.37-.26.548-.026.048-.048.084-.061.131-.13.25-.25.5-.345.751-.024.036-.034.072-.048.108-.023.06-.059.13-.083.19-.166.382-.333.775-.475 1.18v.012c-.13.358-.262.704-.368 1.073-.18.477-.334.966-.465 1.467-.118.37-.213.75-.309 1.144a21.99 21.99 0 0 0-.344 1.585c-.084.406-.155.811-.225 1.216-.095.56-.168 1.12-.239 1.693-.048.441-.095.882-.13 1.323a44.275 44.275 0 0 0-.108 1.824c-.022.465-.035.942-.022 1.419-.013.107-.013.226-.013.345 0 .275 0 .537.013.811 0 .274.01.537.022.799 0 .167.012.334.012.5.012.239.025.465.048.704 0 .119.012.226.025.334.022.37.047.727.095 1.084.022.358.07.716.117 1.061 0 .036.012.06.012.096.036.262.073.524.12.775.035.286.082.572.143.858.142.834.332 1.645.534 2.456v.011c0 .012 0 .012.013.024.165.68.367 1.371.594 2.027a28.52 28.52 0 0 0 1.26 3.195 27.948 27.948 0 0 0 1.7 3.159c.035.06.083.13.12.19.217.334.438.666.664.991.183.265.377.523.57.782.111.153.217.308.334.457.027.035.059.068.085.103.304.389.623.77.949 1.145.045.052.085.106.13.158.018.022.037.04.054.061.024.026.045.054.07.08.068.082.135.166.21.24.203.227.416.442.618.656.091.092.177.182.266.267.049.05.101.097.15.146.052.051.106.106.155.148.25.262.522.512.784.75.025.026.055.047.08.071.084.077.173.153.259.229.37.335.74.65 1.123.964.024.024.048.036.072.06.332.262.665.512 1.01.775.144.107.297.214.441.322a27.729 27.729 0 0 0 1.332.906 35.027 35.027 0 0 0 3.423 1.99c.011 0 .011.012.023.012a40.849 40.849 0 0 0 1.808.87c.558.25 1.129.501 1.723.74.75.31 1.522.608 2.318.882h.013a38.4 38.4 0 0 0 1.58.534l.19.062c.268.086.538.162.811.238.08.024.155.05.236.072h.013c.652.19 1.306.381 1.985.548.415.095.82.203 1.236.298.415.107.845.203 1.271.286.595.131 1.202.25 1.807.358.761.143 1.534.274 2.33.405a62.476 62.476 0 0 0 1.975.274c.617.084 1.237.155 1.879.215l.32.036c.19.023.38.047.558.06l.737.07c.69.06 1.391.12 2.094.168.51.035 1.009.06 1.532.095.048 0 .083 0 .13.012.44.012.88.036 1.332.048.18.012.369.012.547.023.5.024.987.036 1.498.048.642.012 1.296.024 1.951.024h1.45c.641-.012 1.26-.012 1.89-.036.476 0 .939-.012 1.402-.036.63-.011 1.25-.035 1.855-.071.464-.024.915-.048 1.367-.083a44.35 44.35 0 0 0 1.807-.12c.452-.035.892-.071 1.332-.107.144-.012.297-.024.44-.048.404-.035.808-.083 1.2-.119.037 0 .072-.012.107-.012.44-.047.87-.095 1.296-.155.57-.071 1.141-.143 1.701-.226.415-.06.844-.12 1.247-.191a33.532 33.532 0 0 0 1.641-.286c.416-.072.82-.143 1.226-.227.534-.107 1.069-.214 1.592-.333.393-.084.785-.18 1.178-.275.462-.107.914-.214 1.366-.333.06-.012.12-.036.18-.048.378-.107.759-.215 1.129-.31.499-.143.998-.298 1.473-.453.37-.107.737-.226 1.093-.358.44-.143.857-.286 1.272-.44a.587.587 0 0 0 .155-.048h.012c.358-.131.69-.263 1.034-.406.465-.167.927-.357 1.367-.56.12-.048.24-.095.357-.143.154-.06.309-.131.464-.203.06-.035.13-.06.19-.095.37-.155.737-.322 1.094-.5.083-.036.154-.072.225-.108.321-.155.654-.322.963-.477a62.48 62.48 0 0 0 1.25-.68c.01-.011.022-.011.034-.023.274-.143.523-.298.785-.453.036-.024.06-.036.095-.06.416-.238.808-.477 1.2-.727.298-.19.583-.381.869-.584.393-.262.76-.525 1.13-.787.284-.214.547-.417.82-.632.37-.274.725-.572 1.07-.858.26-.226.522-.453.772-.68.345-.297.678-.607 1-.93.25-.226.486-.476.724-.714.322-.322.63-.656.94-.99.226-.262.45-.512.666-.787.297-.345.581-.691.867-1.06.202-.263.416-.549.62-.823.271-.37.533-.763.783-1.145.202-.286.392-.584.57-.882.132-.202.25-.405.369-.608.119-.19.237-.405.344-.608.036-.071.084-.13.12-.202.083-.143.166-.286.249-.441.049-.096.096-.203.144-.298.225-.418.44-.835.642-1.276.154-.322.308-.656.452-1.001.2-.453.379-.906.557-1.371.143-.358.275-.703.392-1.061.167-.477.335-.966.477-1.454.118-.37.225-.74.32-1.121.132-.477.25-.942.369-1.419 0-.035.013-.083.023-.119l.037-.143c.07-.274.13-.536.177-.81.025-.072.036-.155.048-.239.12-.536.215-1.085.297-1.633.073-.417.143-.835.19-1.252.012-.06.012-.119.025-.179.047-.321.094-.655.13-.989.012-.19.035-.37.047-.56.048-.441.095-.882.12-1.335.047-.56.082-1.145.107-1.729v-.095c.023-.465.035-.93.035-1.407.013-.298.013-.596.013-.894 0-.358 0-.703-.025-1.049z"/>
    </g>
</svg>
