<svg xmlns="http://www.w3.org/2000/svg" width="165" height="165" viewBox="0 0 165 165">
    <g fill="none" fill-rule="evenodd">
        <circle cx="82.5" cy="82.5" r="82.5" fill="#F6EFE5"/>
        <path fill="#483711" d="M97.99 105.162c-.276.116-.572.255-.905.38a16.35 16.35 0 0 1-1.086.356c-.383.118-.805.202-1.233.308-.43.104-.886.164-1.346.252-.466.07-.935.158-1.414.217l-2.836.397c-.916.12-1.779.253-2.519.394-.74.125-1.363.274-1.8.382-.438.11-.688.19-.688.19s.994.327 2.51.526c.755.105 1.644.176 2.598.19.478-.01.973.015 1.478-.03.504-.023 1.015-.08 1.528-.15a15.274 15.274 0 0 0 1.523-.293c.503-.115.986-.286 1.453-.456a8.387 8.387 0 0 0 1.307-.606c.407-.213.766-.47 1.08-.723a5.895 5.895 0 0 0 1.302-1.42c.233-.405.34-.636.34-.636s-.236.132-.604.362c-.187.11-.436.214-.688.36m-22.43-31.79a4.49 4.49 0 0 0-1.247-.386c-.35-.082-.636-.081-.826-.105l-.294-.026.294.034c.19.03.475.026.82.13.345.082.773.21 1.173.49.404.258.807.68.898 1.244.108.553-.04 1.17-.35 1.735-.308.579-.745 1.086-1.275 1.549l-.893.773-.859.82c-.28.256-.545.477-.76.589-.22.108-.355.135-.586.107-.477-.042-1.146-.415-1.785-.792a2.234 2.234 0 0 1-1.043-1.36c-.168-.591-.129-1.276.042-1.902.153-.64.484-1.2.836-1.677.188-.23.364-.463.583-.63a3.57 3.57 0 0 1 .621-.47c.201-.147.411-.244.61-.325.195-.096.384-.151.56-.187.343-.106.628-.106.82-.113l.294-.015-.296.008a3.396 3.396 0 0 0-.828.087c-.18.024-.375.067-.576.15-.207.07-.438.132-.66.257-.472.2-.939.546-1.43.955-.464.433-.953.956-1.314 1.635-.359.67-.653 1.486-.607 2.424.032.927.526 1.97 1.353 2.58.23.194.342.263.522.4.154.117.398.248.596.368.426.23.88.435 1.478.512.581.082 1.29-.074 1.767-.393.488-.306.811-.663 1.082-.994.566-.68.961-1.225 1.477-1.878a6.31 6.31 0 0 0 1.07-2.181c.19-.746.204-1.521-.05-2.156a2.403 2.403 0 0 0-1.218-1.256m45.813 16.458c-.533.733-1.157 1.648-1.864 2.686-4.084 5.986-11.683 17.13-19.936 18.09-1.13.13-2.507.313-4.064.518-5.777.759-14.506 1.907-21.885 1.907-6.318 0-13.869-.858-13.963-4.95l-.02-.203c-.11-.657-2.813-16.184-13.643-20.921-3.189-1.395-5.084-3.154-5.794-5.377-1.224-3.834 1.361-8.822 3.412-12.24 1.174-1.957 1.954-4.043 2.708-6.061 1.87-4.998 3.14-7.826 7.496-7.826 1.151 0 2.506.207 4.026.615 1.875.505 3.837.75 5.998.75 4.053 0 8.206-.87 12.602-1.792 5.04-1.056 10.251-2.15 16.08-2.15 3.601 0 7.024.419 10.463 1.279 12.917 3.229 14.235 6.84 15.631 10.663.628 1.718 1.277 3.495 2.852 5.228 4.201 4.62 3.444 14.912-.099 19.784m2.228-21.72c-1.195-1.314-1.696-2.688-2.278-4.278-1.519-4.157-3.239-8.87-17.637-12.47A45.415 45.415 0 0 0 92.522 50c-6.126 0-11.728 1.174-16.67 2.21-4.246.89-8.256 1.73-12.01 1.73-1.905 0-3.622-.212-5.249-.65-1.789-.482-3.35-.716-4.775-.716-6.567 0-8.41 4.93-10.193 9.697-.709 1.896-1.44 3.857-2.48 5.587-2.536 4.227-5.247 9.707-3.685 14.597.963 3.016 3.447 5.417 7.383 7.139 9.011 3.943 11.714 17.452 11.941 18.672.301 7.645 12.737 7.645 16.838 7.645 7.566 0 16.41-1.163 22.26-1.931 1.541-.203 2.902-.382 4.021-.513 9.56-1.112 17.336-12.515 21.982-19.327.688-1.01 1.295-1.901 1.814-2.614 4.265-5.864 5.172-17.616-.099-23.414m-6.272 5.19c-1.148-1.224-2.338-2.122-3.323-2.911-.988-.785-1.779-1.447-2.272-1.984-.236-.271-.424-.494-.53-.661l-.16-.262.064.303c.052.196.14.488.31.834.337.692.974 1.599 1.824 2.563.83.98 1.876 2.038 2.802 3.215a7.796 7.796 0 0 1 1.118 1.845c.254.63.285 1.219.07 1.776-.042.14-.123.287-.186.42-.09.129-.112.225-.27.409l-.777.965a22.27 22.27 0 0 0-.786 1.008l-.688 1.057a8.49 8.49 0 0 0-.6 1.062c-.184.356-.358.703-.493 1.052-.308.69-.529 1.34-.743 1.94-.228.578-.402 1.137-.608 1.589-.195.46-.355.884-.536 1.213-.329.67-.502 1.066-.502 1.066s.305-.304.815-.85c.262-.265.544-.624.854-1.061.334-.428.637-.933.973-1.491l1.018-1.756c.171-.311.374-.608.583-.908.212-.298.393-.623.64-.915.23-.301.466-.606.704-.916l.788-.9.826-.972c.124-.131.3-.412.445-.633.131-.24.255-.467.347-.727.39-1.04.245-2.25-.163-3.14-.39-.917-.983-1.61-1.544-2.23m-31.056-9.33c.371-.078.74-.114 1.074-.228.325-.132.64-.26.941-.384.615-.205 1.084-.587 1.525-.843.45-.256.77-.547 1.05-.775.553-.462.86-.74.86-.74s-.388.14-1.057.413c-.33.139-.735.319-1.198.457-.468.13-.955.366-1.533.449l-.877.178c-.302.04-.619.034-.938.055-.635.094-1.312-.108-2-.145-.69-.177-1.397-.345-2.115-.597-.712-.294-1.452-.493-2.16-.87l-2.206-.978a10.03 10.03 0 0 0-2.41-.771c-.82-.184-1.766-.15-2.576.184-.828.324-1.387.95-1.748 1.499-.36.556-.596 1.072-.813 1.516-.219.439-.41.81-.596 1.107-.197.28-.35.517-.492.644l-.2.219.263-.136c.183-.081.426-.236.717-.475.278-.244.604-.565.924-.957.326-.385.68-.82 1.061-1.233.4-.397.85-.708 1.354-.831.508-.121 1.102-.076 1.752.116.654.162 1.244.454 2.004.808l2.203 1.047c.742.367 1.588.585 2.363.875.385.159.818.213 1.227.294.414.07.813.166 1.221.208.833.01 1.631.095 2.38-.105m5.751 26.424c.2-.03.482-.115.823-.268.342-.152.736-.387 1.181-.657.222-.134.458-.28.713-.394.25-.13.544-.17.74-.058.412.239.566.957.7 1.639.127.707.194 1.459.215 2.218.017.754-.022 1.53-.184 2.216-.176.695-.474 1.22-.896 1.474-.198.154-.473.22-.779.277-.15.049-.304.015-.456.032-.08.004-.146.02-.24.017l-.314-.034a5.761 5.761 0 0 1-2.064-.551 3.871 3.871 0 0 1-1.547-1.3c-.38-.541-.633-1.17-.65-1.776a2.762 2.762 0 0 1 .375-1.603 2.4 2.4 0 0 1 .96-.882l.457-.19.363-.063.302-.054s-.105.017-.303.045l-.363.057c-.138.05-.294.109-.469.174-.346.146-.728.414-1.075.823-.342.42-.554 1.009-.658 1.678-.099.678.025 1.437.317 2.186a4.845 4.845 0 0 0 1.548 2.04 5.956 5.956 0 0 0 2.52 1.147l.307.072c.113.02.26.029.39.042.27.009.544.053.813.003.53-.042 1.107-.196 1.61-.527 1.041-.673 1.511-1.842 1.595-2.787.12-.973-.009-1.868-.198-2.694A14.112 14.112 0 0 0 97 90.416c-.172-.382-.29-.658-.517-1.01-.19-.32-.456-.648-.854-.776-.408-.116-.763.065-1.008.217-.26.159-.477.335-.682.496a6.517 6.517 0 0 1-1.104.757c-.33.173-.616.256-.81.289-.198.034-.303.05-.303.05s.107-.013.301-.042M69.995 98.05c-.144-.385-.233-.836-.32-1.327l-.184-1.7c-.085-.634-.219-1.356-.548-2.066-.347-.688-.79-1.386-1.374-1.915-.265-.294-.6-.528-.914-.783-.326-.263-.604-.41-.91-.617a16.284 16.284 0 0 0-1.998-1.047c-.668-.311-1.367-.53-2.025-.737-.652-.207-1.309-.336-1.705-.514-.097-.047-.158-.094-.24-.14-.047-.07-.125-.1-.174-.188-.115-.144-.193-.371-.273-.586-.248-.95-.339-1.873-.443-2.488-.093-.628-.163-.987-.163-.987s-.09.354-.219.974c-.062.31-.125.696-.185 1.138-.05.445-.104.952-.073 1.543.04.309.07.632.225 1.002.057.182.21.356.328.533a3.3 3.3 0 0 0 .475.414c.674.435 1.283.638 1.887.887.603.245 1.196.525 1.793.829a22.53 22.53 0 0 1 1.752.979c.647.393 1.13.742 1.586 1.142.474.404.842.85 1.146 1.329.27.492.481 1.027.65 1.59.154.566.323 1.158.52 1.689.208.538.456 1.016.738 1.39.261.392.566.662.798.887.238.22.47.345.602.449l.215.149s-.207-.313-.52-.84c-.14-.274-.313-.6-.447-.99"/>
    </g>
</svg>
