<svg xmlns="http://www.w3.org/2000/svg" width="105" height="75" viewBox="0 0 105 75">
    <g fill="#5A4A25" fill-rule="evenodd">
        <path d="M5.054 29.902H.088v-.405l1.282-.349v-8.045H0v-.475L3.522 20l.25.251v8.953l1.282.307v.391zm6.25-4.287c-.486.32-1.09.488-1.813.488-1.046 0-1.886-.265-2.52-.81-.633-.544-.942-1.257-.942-2.15 0-.936.339-1.69 1.031-2.235.693-.559 1.592-.838 2.682-.838 2.593 0 4.008 1.732 4.008 4.483 0 3.422-2.196 5.238-6.572 5.447l-.339-.321c2.947-.461 4.303-1.732 4.465-4.064zm.03-.824c0-2.836-.502-4.26-1.489-4.26-.884 0-1.444.963-1.444 2.584 0 1.55.59 2.388 1.577 2.388.59 0 1.046-.238 1.355-.712zM95.902 22.174c0 .968-.563 1.725-1.702 2.244.765.323 1.312.687 1.658 1.066.347.379.52.912.52 1.599 0 1.95-1.341 2.917-4.038 2.917-2.436 0-3.59-.842-3.59-2.286 0-1.234.807-1.922 2.148-2.469-1.139-.518-1.744-1.192-1.744-2.468 0-.827.274-1.487.836-2.006.562-.519 1.47-.771 2.74-.771 2.134 0 3.172.842 3.172 2.174zm-3.72 3.59l-.577-.21c-.534.547-.808 1.234-.808 2.048 0 1.276.577 1.907 1.716 1.907 1.154 0 1.875-.603 1.875-1.739 0-.519-.159-.898-.476-1.15-.303-.253-.88-.533-1.73-.856zm.922-1.78l.231.097c.418-.505.62-1.108.62-1.823 0-1.192-.476-1.781-1.413-1.781-.923 0-1.47.617-1.47 1.557 0 .49.144.87.446 1.136.303.252.822.519 1.586.813zm6.777-3.157v1.137c0 .673-.461 1.122-1.096 1.122-.62 0-1.08-.407-1.08-1.094 0-.646.345-1.136 1.052-1.473.706-.35 1.5-.519 2.408-.519 1.052 0 1.903.224 2.523.687.62.449.937 1.052.937 1.824 0 1.164-.822 1.949-2.148 2.272 1.6.336 2.523 1.248 2.523 2.524 0 .814-.346 1.473-1.053 1.964-.706.49-1.629.729-2.768.729-.591 0-1.153-.07-1.673-.196-1.023-.267-1.874-.912-1.874-1.796 0-.687.461-1.094 1.081-1.094.635 0 1.082.45 1.082 1.122v1.137c.274.182.62.266 1.01.266 1.08 0 1.83-.715 1.83-2.188 0-1.445-.764-2.174-2.307-2.174h-.663v-.547h.606c1.312 0 1.99-.56 1.99-1.977 0-1.347-.592-1.992-1.457-1.992-.36 0-.663.084-.923.266z"/>
        <path d="M90.464 55.091c-4.08-.97-6.642-5.449-7.244-6.964 7.205.06 11.633 1.368 12.012 4.036.253 1.782-1.462 3.714-4.768 2.928m-26.131-6.614c-3.798 1.346-8.27 3.836-11.711 7.124-2.918-2.428-7-4.58-12.345-6.688a57.95 57.95 0 0 0-7.326-2.348c6.266-6.046 9.109-12.947 11.16-18.66 2.996-8.339 3.167-23.688 3.167-24.335 0-1.352.965-2.643 2.904-2.625 1.939.019 2.65 1.567 2.65 2.581v35.633c0 4.715-3.487 6.337-3.487 6.337s-.314 1.588-.358 1.775c9.509-5.332 15.13-6.69 15.13-6.69l-.468-1.18s-3.965 1.076-3.965-1.698V23.85c6.972.725 12.407 12.404 14.94 18.79.384.975.795 1.993 1.145 2.974a60.545 60.545 0 0 0-11.436 2.863m-8.36 17.385c0 3.157-1.075 5.582-3.193 5.582-2.118 0-3.408-2.778-3.408-5.649 0-2.184.747-5.265 3.305-8.334 2.212 2.634 3.296 5.834 3.296 8.4M22.192 50.715c-5.195 4.405-13.983 6.59-13.983 2.32 0-3.997 9.804-5.217 16.727-4.852a46.847 46.847 0 0 1-2.744 2.532m74.016 1.06c-.357-2.53-2.825-4.053-6.423-5.297-2.389-.825-5.515-1.304-7.427-1.316-.923-3.266-3.895-10.78-7.143-15.388-2.622-3.72-7.325-6.085-10.506-7.121 3.299-.547 5.79-1.5 8.48-4.27C78.67 12.73 75.082 2.988 80.33 2.988c2.663 0 3.585 2.891 3.585 2.891h.014l.318-1.373c-.635-1.242-1.929-2.88-4.35-2.88-5.792 0-6.483 4.481-9.293 11.3-2.314 5.619-7.374 8.004-10.921 8.417V5.179c0-3.348 3.908-2.915 3.908-2.915l.321-.974S60.846 0 50.223 0s-14.3 1.29-14.3 1.29l.263.93S40.31 1.662 40.31 5.2c0 5.31.276 16.795-3.486 26.304-2.961 0-7.488-3.778-8.942-13.183C26.15 7.114 24.458 1.627 18.665 1.627c-2.27 0-3.904 1.614-4.84 2.882l.387 1.302c.386-.6 1.752-2.44 4-2.44 5.248 0 1.872 12.88 6.707 22.147 2.141 4.103 5.37 7.015 10.715 8.068-1.689 4.205-5.09 8.408-8.185 11.925-5.617-.744-9.992-.32-12.949.101-4.925.704-9.11 3.701-8.098 7.306 1.012 3.603 7.154 5.804 18.423-.334a36.975 36.975 0 0 0 5.604-3.775c5.662.941 13.32 2.916 18.308 5.744a15.32 15.32 0 0 1 2.87 2.067c-2.795 2.968-4.818 6.598-4.818 10.096 0 7.941 5.278 8.284 6.087 8.284.81 0 5.657-.314 5.657-8.188 0-3.9-1.902-7.425-4.796-10.216a21.078 21.078 0 0 1 2.128-1.812c4.816-3.604 13.767-6.297 21.2-6.4 2.708 5.214 6.847 8.236 12.954 8.236 3.922 0 6.603-1.917 6.189-4.846"/>
    </g>
</svg>
