<svg xmlns="http://www.w3.org/2000/svg" width="941" height="40" viewBox="0 0 941 40">
    <g fill="#483711" fill-rule="evenodd">
        <path d="M88.33 13.34c-.149 0-.3-.03-.439-.09a1.048 1.048 0 0 1-.37-.25c-.11-.11-.2-.23-.25-.37-.06-.14-.09-.29-.09-.44 0-.08.01-.15.02-.23.02-.07.04-.14.07-.21.03-.07.06-.14.1-.2.04-.07.09-.12.15-.18.42-.43 1.2-.43 1.62 0 .06.06.11.11.15.18.04.06.08.13.11.2.02.07.05.14.06.21.02.08.02.15.02.23 0 .15-.03.3-.08.44-.06.14-.15.26-.26.37-.21.22-.5.34-.81.34M.75 12.19c0-.64.511-1.16 1.151-1.16.639 0 1.15.52 1.15 1.16a1.15 1.15 0 0 1-2.301 0m4.551 0c0-.64.51-1.16 1.149-1.16.641 0 1.151.52 1.151 1.16a1.15 1.15 0 1 1-2.3 0m4.55 0c0-.64.51-1.16 1.149-1.16.641 0 1.151.52 1.151 1.16a1.15 1.15 0 1 1-2.3 0m4.55 0c0-.64.509-1.16 1.15-1.16a1.155 1.155 0 0 1 0 2.309c-.641 0-1.15-.519-1.15-1.15m4.54 0c0-.64.519-1.159 1.15-1.159.64 0 1.159.52 1.159 1.16a1.155 1.155 0 0 1-2.309 0m4.549 0c0-.64.521-1.16 1.151-1.16.639 0 1.16.52 1.16 1.16 0 .63-.521 1.15-1.16 1.15-.63 0-1.151-.52-1.151-1.15m4.55 0c0-.64.521-1.16 1.151-1.16.639 0 1.16.52 1.16 1.16 0 .63-.521 1.15-1.16 1.15-.63 0-1.151-.52-1.151-1.15m4.551 0c0-.64.52-1.16 1.149-1.16a1.16 1.16 0 0 1 1.161 1.16 1.156 1.156 0 0 1-2.31 0m4.55 0c0-.64.519-1.16 1.149-1.16.641 0 1.16.52 1.16 1.16a1.155 1.155 0 0 1-2.309 0m4.55 0c0-.64.519-1.16 1.15-1.16.64 0 1.149.52 1.149 1.16a1.149 1.149 0 1 1-2.299 0m4.549 0c0-.64.51-1.16 1.151-1.16.639 0 1.149.52 1.149 1.16a1.15 1.15 0 1 1-2.3 0m4.55 0c0-.64.511-1.16 1.151-1.16.639 0 1.15.52 1.15 1.16a1.15 1.15 0 0 1-2.301 0m4.54 0c0-.64.521-1.16 1.16-1.16.63 0 1.151.52 1.151 1.16 0 .63-.521 1.15-1.151 1.15-.639 0-1.16-.52-1.16-1.15m4.551 0c0-.64.52-1.16 1.159-1.16.63 0 1.151.52 1.151 1.16 0 .63-.521 1.15-1.151 1.15a1.158 1.158 0 0 1-1.159-1.15m4.55 0c0-.64.519-1.16 1.149-1.16.641 0 1.16.52 1.16 1.16a1.155 1.155 0 0 1-2.309 0m4.55 0c0-.64.519-1.16 1.15-1.16.64 0 1.159.52 1.159 1.16a1.155 1.155 0 0 1-2.309 0m4.549 0c0-.64.521-1.16 1.151-1.16.64 0 1.16.52 1.16 1.16 0 .63-.52 1.15-1.16 1.15-.63 0-1.151-.52-1.151-1.15m4.55 0c0-.64.521-1.16 1.151-1.16.639 0 1.15.52 1.15 1.16a1.15 1.15 0 0 1-2.301 0m4.551 0c0-.64.52-1.16 1.149-1.16.64 0 1.161.52 1.161 1.16 0 .63-.521 1.15-1.161 1.15a1.156 1.156 0 0 1-1.149-1.15M213.18 13.32c-.15 0-.3-.03-.44-.091a1.162 1.162 0 0 1-.38-.25 1.34 1.34 0 0 1-.25-.38c-.06-.13-.09-.279-.09-.439 0-.301.13-.601.34-.811.06-.05.11-.099.18-.139.06-.04.13-.08.2-.111.07-.029.14-.05.21-.069a1.136 1.136 0 0 1 1.04.319c.06.05.1.111.15.17.04.071.07.13.1.2.03.071.05.14.07.22.01.07.02.151.02.221 0 .16-.03.309-.09.439-.05.141-.14.271-.25.38-.11.111-.23.191-.37.25-.14.061-.29.091-.44.091M107.4 12.16c0-.63.52-1.15 1.15-1.15a1.15 1.15 0 1 1-1.15 1.15m4.55 0c0-.63.52-1.15 1.15-1.15a1.15 1.15 0 1 1-1.15 1.15m4.55 0a1.15 1.15 0 1 1 2.3 0 1.15 1.15 0 0 1-2.3 0m4.55 0a1.15 1.15 0 1 1 2.3 0 1.15 1.15 0 0 1-2.3 0m4.54 0c0-.63.52-1.15 1.16-1.15.63 0 1.15.52 1.15 1.15 0 .64-.52 1.149-1.15 1.149-.64 0-1.16-.51-1.16-1.15m4.55 0c0-.63.52-1.15 1.16-1.15.63 0 1.15.52 1.15 1.15 0 .64-.52 1.15-1.15 1.15-.64 0-1.16-.51-1.16-1.15m4.55 0c0-.63.52-1.15 1.16-1.15.63 0 1.15.52 1.15 1.15 0 .64-.52 1.15-1.15 1.15-.64 0-1.16-.51-1.16-1.15m4.55 0c0-.63.52-1.15 1.15-1.15.64 0 1.16.52 1.16 1.15 0 .64-.52 1.15-1.16 1.15a1.15 1.15 0 0 1-1.15-1.15m4.55 0c0-.63.52-1.15 1.15-1.15.64 0 1.16.52 1.16 1.15 0 .64-.52 1.15-1.16 1.15a1.15 1.15 0 0 1-1.15-1.15m4.55 0c0-.63.52-1.15 1.15-1.15.64 0 1.16.52 1.16 1.15 0 .64-.52 1.15-1.16 1.15a1.15 1.15 0 0 1-1.15-1.15m4.55 0c0-.63.52-1.15 1.15-1.15a1.15 1.15 0 1 1-1.15 1.15m4.55 0a1.15 1.15 0 1 1 2.3.001 1.15 1.15 0 0 1-2.3 0m4.55 0a1.15 1.15 0 1 1 2.3 0 1.15 1.15 0 0 1-2.3 0m4.55 0a1.15 1.15 0 1 1 2.3 0 1.15 1.15 0 0 1-2.3 0m4.54 0c0-.63.52-1.15 1.16-1.15.63 0 1.15.52 1.15 1.15 0 .64-.52 1.149-1.15 1.149-.64 0-1.16-.51-1.16-1.15m4.55 0c0-.63.52-1.15 1.16-1.15.63 0 1.15.52 1.15 1.15 0 .64-.52 1.15-1.15 1.15-.64 0-1.16-.51-1.16-1.15m4.55 0c0-.63.52-1.15 1.16-1.15.63 0 1.15.52 1.15 1.15 0 .64-.52 1.15-1.15 1.15-.64 0-1.16-.51-1.16-1.15m4.55 0c0-.63.52-1.15 1.15-1.15.64 0 1.16.52 1.16 1.15 0 .64-.52 1.15-1.16 1.15a1.15 1.15 0 0 1-1.15-1.15m4.55 0c0-.63.52-1.15 1.15-1.15.64 0 1.16.52 1.16 1.15 0 .64-.52 1.15-1.16 1.15a1.15 1.15 0 0 1-1.15-1.15m4.55 0c0-.63.51-1.15 1.15-1.15.64 0 1.16.52 1.16 1.15 0 .64-.52 1.15-1.16 1.15-.64 0-1.15-.51-1.15-1.15m4.55 0a1.15 1.15 0 1 1 2.3.001 1.15 1.15 0 0 1-2.3 0m4.55 0a1.15 1.15 0 1 1 2.3 0 1.15 1.15 0 0 1-2.3 0m4.55 0a1.15 1.15 0 1 1 2.3 0 1.15 1.15 0 0 1-2.3 0M104 13.32c-.149 0-.3-.03-.439-.091a1.152 1.152 0 0 1-.371-1.88c.42-.429 1.201-.429 1.63 0a1.149 1.149 0 0 1-.38 1.88c-.139.061-.28.091-.44.091M338.06 13.34c-.148 0-.3-.03-.438-.09a1.048 1.048 0 0 1-.371-.25c-.11-.11-.2-.23-.25-.37-.06-.14-.09-.29-.09-.44 0-.08.01-.15.02-.23.02-.07.04-.14.07-.21.03-.07.06-.14.1-.2.04-.07.09-.12.15-.18.42-.43 1.2-.43 1.62 0 .06.06.11.11.15.18.04.06.08.13.11.2.02.07.05.14.06.21.02.08.02.15.02.23 0 .15-.03.3-.08.44-.06.14-.15.26-.26.37-.21.22-.5.34-.81.34M232.281 12.19c0-.64.52-1.16 1.15-1.16a1.16 1.16 0 0 1 1.16 1.16c0 .63-.52 1.15-1.16 1.15a1.156 1.156 0 0 1-1.15-1.15m4.55 0c0-.64.52-1.16 1.15-1.16.64 0 1.16.52 1.16 1.16a1.155 1.155 0 0 1-2.309 0m4.55 0c0-.64.518-1.16 1.15-1.16.64 0 1.158.52 1.158 1.16a1.155 1.155 0 0 1-2.309 0m4.55 0c0-.64.52-1.16 1.15-1.16.64 0 1.15.52 1.15 1.16a1.15 1.15 0 1 1-2.3 0m4.55 0c0-.64.51-1.16 1.15-1.16.64 0 1.15.52 1.15 1.16a1.15 1.15 0 0 1-2.3 0m4.55 0c0-.64.51-1.16 1.15-1.16.64 0 1.15.52 1.15 1.16a1.15 1.15 0 1 1-2.3 0m4.55 0c0-.64.51-1.16 1.15-1.16.64 0 1.15.52 1.15 1.16a1.15 1.15 0 1 1-2.3 0m4.55 0c0-.64.51-1.16 1.15-1.16a1.155 1.155 0 0 1 0 2.309c-.64 0-1.15-.519-1.15-1.15m4.54 0c0-.64.52-1.159 1.15-1.159.64 0 1.16.52 1.16 1.16a1.155 1.155 0 0 1-2.309 0m4.548 0c0-.64.521-1.16 1.151-1.16.64 0 1.16.52 1.16 1.16 0 .63-.52 1.15-1.16 1.15-.63 0-1.15-.52-1.15-1.15m4.55 0c0-.64.52-1.16 1.15-1.16.64 0 1.16.52 1.16 1.16 0 .63-.52 1.15-1.16 1.15-.63 0-1.15-.52-1.15-1.15m4.55 0c0-.64.52-1.16 1.15-1.16a1.16 1.16 0 0 1 1.16 1.16c0 .63-.52 1.15-1.16 1.15a1.156 1.156 0 0 1-1.15-1.15m4.55 0c0-.64.52-1.16 1.15-1.16.64 0 1.16.52 1.16 1.16a1.155 1.155 0 0 1-2.309 0m4.55 0c0-.64.518-1.16 1.15-1.16.64 0 1.148.52 1.148 1.16a1.149 1.149 0 1 1-2.299 0m4.55 0c0-.64.51-1.16 1.15-1.16.64 0 1.15.52 1.15 1.16a1.15 1.15 0 1 1-2.3 0m4.55 0c0-.64.51-1.16 1.15-1.16.64 0 1.15.52 1.15 1.16a1.15 1.15 0 0 1-2.3 0m4.54 0c0-.64.52-1.16 1.16-1.16.63 0 1.15.52 1.15 1.16 0 .63-.52 1.15-1.15 1.15-.64 0-1.16-.52-1.16-1.15m4.55 0c0-.64.52-1.16 1.16-1.16.63 0 1.15.52 1.15 1.16 0 .63-.52 1.15-1.15 1.15a1.158 1.158 0 0 1-1.16-1.15m4.55 0c0-.64.52-1.16 1.15-1.16.64 0 1.16.52 1.16 1.16a1.155 1.155 0 0 1-2.309 0m4.55 0c0-.64.518-1.16 1.15-1.16.64 0 1.158.52 1.158 1.16a1.155 1.155 0 0 1-2.309 0m4.55 0c0-.64.52-1.16 1.15-1.16.64 0 1.16.52 1.16 1.16 0 .63-.52 1.15-1.16 1.15-.63 0-1.15-.52-1.15-1.15m4.55 0c0-.64.52-1.16 1.15-1.16.64 0 1.15.52 1.15 1.16a1.15 1.15 0 0 1-2.3 0m4.55 0c0-.64.52-1.16 1.15-1.16.64 0 1.16.52 1.16 1.16 0 .63-.52 1.15-1.16 1.15a1.156 1.156 0 0 1-1.15-1.15M228.89 13.34c-.31 0-.6-.12-.818-.34a1.14 1.14 0 0 1-.341-.81c0-.31.13-.6.34-.82.27-.26.67-.39 1.04-.31.08.01.15.03.22.06s.14.07.2.11a1.136 1.136 0 0 1 .509.96c0 .31-.12.59-.338.81-.221.22-.5.34-.811.34M357.131 12.16c0-.63.52-1.15 1.15-1.15a1.15 1.15 0 1 1-1.15 1.15m4.55 0c0-.63.52-1.15 1.15-1.15a1.15 1.15 0 1 1-1.15 1.15m4.55 0a1.15 1.15 0 1 1 2.3 0 1.15 1.15 0 0 1-2.3 0m4.55 0a1.15 1.15 0 1 1 2.3 0 1.15 1.15 0 0 1-2.3 0m4.54 0c0-.63.52-1.15 1.16-1.15.63 0 1.15.52 1.15 1.15 0 .64-.52 1.149-1.15 1.149-.64 0-1.16-.51-1.16-1.15m4.55 0c0-.63.52-1.15 1.16-1.15.63 0 1.15.52 1.15 1.15 0 .64-.52 1.15-1.15 1.15-.64 0-1.16-.51-1.16-1.15m4.55 0c0-.63.52-1.15 1.16-1.15.63 0 1.15.52 1.15 1.15 0 .64-.52 1.15-1.15 1.15-.64 0-1.16-.51-1.16-1.15m4.55 0c0-.63.52-1.15 1.15-1.15.64 0 1.16.52 1.16 1.15 0 .64-.52 1.15-1.16 1.15a1.15 1.15 0 0 1-1.15-1.15m4.55 0c0-.63.52-1.15 1.15-1.15.64 0 1.16.52 1.16 1.15 0 .64-.52 1.15-1.16 1.15a1.15 1.15 0 0 1-1.15-1.15m4.55 0c0-.63.52-1.15 1.15-1.15.64 0 1.16.52 1.16 1.15 0 .64-.52 1.15-1.16 1.15a1.15 1.15 0 0 1-1.15-1.15m4.55 0c0-.63.52-1.15 1.15-1.15a1.15 1.15 0 1 1-1.15 1.15m4.55 0a1.15 1.15 0 1 1 2.3.001 1.15 1.15 0 0 1-2.3 0m4.55 0a1.15 1.15 0 1 1 2.3 0 1.15 1.15 0 0 1-2.3 0m4.55 0a1.15 1.15 0 1 1 2.3 0 1.15 1.15 0 0 1-2.3 0m4.54 0c0-.63.52-1.15 1.16-1.15.63 0 1.15.52 1.15 1.15 0 .64-.52 1.149-1.15 1.149-.64 0-1.16-.51-1.16-1.15m4.55 0c0-.63.52-1.15 1.16-1.15.63 0 1.15.52 1.15 1.15 0 .64-.52 1.15-1.15 1.15-.64 0-1.16-.51-1.16-1.15m4.55 0c0-.63.52-1.15 1.16-1.15.63 0 1.15.52 1.15 1.15 0 .64-.52 1.15-1.15 1.15-.64 0-1.16-.51-1.16-1.15m4.55 0c0-.63.52-1.15 1.15-1.15.64 0 1.16.52 1.16 1.15 0 .64-.52 1.15-1.16 1.15a1.15 1.15 0 0 1-1.15-1.15m4.55 0c0-.63.52-1.15 1.15-1.15.64 0 1.16.52 1.16 1.15 0 .64-.52 1.15-1.16 1.15a1.15 1.15 0 0 1-1.15-1.15M353.73 13.32c-.148 0-.3-.03-.438-.091a1.152 1.152 0 0 1-.371-1.88c.42-.429 1.2-.429 1.63 0a1.149 1.149 0 0 1-.38 1.88c-.14.061-.28.091-.44.091M587.791 13.34c-.149 0-.3-.03-.439-.09a1.048 1.048 0 0 1-.37-.25c-.11-.11-.2-.23-.25-.37-.06-.14-.09-.29-.09-.44 0-.08.01-.15.02-.23.02-.07.04-.14.07-.21.03-.07.06-.14.1-.2.04-.07.09-.12.15-.18.42-.43 1.2-.43 1.62 0 .06.06.11.11.15.18.04.06.08.13.11.2.02.07.05.14.06.21.02.08.02.15.02.23 0 .15-.03.3-.08.44-.06.14-.15.26-.26.37-.21.22-.5.34-.81.34M495.66 12.19c0-.64.522-1.16 1.152-1.16.639 0 1.149.52 1.149 1.16a1.15 1.15 0 1 1-2.3 0m4.55 0c0-.64.51-1.16 1.15-1.16.64 0 1.15.52 1.15 1.16a1.15 1.15 0 0 1-2.3 0m4.55 0c0-.64.51-1.16 1.15-1.16.64 0 1.15.52 1.15 1.16a1.15 1.15 0 1 1-2.3 0m4.55 0c0-.64.51-1.16 1.15-1.16.64 0 1.15.52 1.15 1.16a1.15 1.15 0 1 1-2.3 0m4.55 0c0-.64.51-1.16 1.15-1.16a1.155 1.155 0 0 1 0 2.309c-.64 0-1.15-.519-1.15-1.15m4.54 0c0-.64.52-1.159 1.15-1.159.64 0 1.16.52 1.16 1.16a1.155 1.155 0 0 1-2.309 0m4.549 0c0-.64.52-1.16 1.15-1.16.64 0 1.16.52 1.16 1.16 0 .63-.52 1.15-1.16 1.15-.63 0-1.15-.52-1.15-1.15m4.55 0c0-.64.52-1.16 1.15-1.16.64 0 1.16.52 1.16 1.16 0 .63-.52 1.15-1.16 1.15-.63 0-1.15-.52-1.15-1.15m4.55 0c0-.64.52-1.16 1.15-1.16a1.16 1.16 0 0 1 1.16 1.16c0 .63-.52 1.15-1.16 1.15a1.156 1.156 0 0 1-1.15-1.15m4.55 0c0-.64.52-1.16 1.15-1.16.64 0 1.16.52 1.16 1.16a1.155 1.155 0 0 1-2.309 0m4.55 0c0-.64.519-1.16 1.15-1.16.64 0 1.149.52 1.149 1.16a1.149 1.149 0 1 1-2.3 0m4.55 0c0-.64.51-1.16 1.15-1.16.64 0 1.15.52 1.15 1.16a1.15 1.15 0 1 1-2.3 0m4.55 0c0-.64.51-1.16 1.15-1.16.64 0 1.15.52 1.15 1.16a1.15 1.15 0 0 1-2.3 0m4.54 0c0-.64.52-1.16 1.16-1.16.63 0 1.15.52 1.15 1.16 0 .63-.52 1.15-1.15 1.15-.64 0-1.16-.52-1.16-1.15m4.55 0c0-.64.52-1.16 1.16-1.16.63 0 1.15.52 1.15 1.16 0 .63-.52 1.15-1.15 1.15a1.158 1.158 0 0 1-1.16-1.15m4.55 0c0-.64.52-1.16 1.15-1.16.64 0 1.16.52 1.16 1.16a1.155 1.155 0 0 1-2.309 0m4.55 0c0-.64.519-1.16 1.15-1.16.64 0 1.159.52 1.159 1.16a1.155 1.155 0 0 1-2.309 0m4.549 0c0-.64.52-1.16 1.15-1.16.64 0 1.16.52 1.16 1.16 0 .63-.52 1.15-1.16 1.15-.63 0-1.15-.52-1.15-1.15m4.55 0c0-.64.52-1.16 1.15-1.16.64 0 1.15.52 1.15 1.16a1.15 1.15 0 0 1-2.3 0m4.55 0c0-.64.52-1.16 1.15-1.16.64 0 1.16.52 1.16 1.16 0 .63-.52 1.15-1.16 1.15a1.156 1.156 0 0 1-1.15-1.15M712.642 13.32c-.15 0-.3-.03-.44-.091a1.162 1.162 0 0 1-.38-.25 1.34 1.34 0 0 1-.25-.38c-.06-.13-.09-.279-.09-.439 0-.301.13-.601.34-.811.059-.05.11-.099.179-.139.06-.04.13-.08.2-.111.07-.029.14-.05.21-.069a1.136 1.136 0 0 1 1.04.319c.06.05.1.111.15.17.04.071.07.13.1.2.03.071.05.14.07.22.01.07.02.151.02.221 0 .16-.03.309-.09.439-.05.141-.14.271-.25.38-.11.111-.23.191-.37.25-.14.061-.29.091-.44.091M606.861 12.16c0-.63.52-1.15 1.15-1.15a1.15 1.15 0 1 1-1.15 1.15m4.55 0c0-.63.52-1.15 1.15-1.15a1.15 1.15 0 1 1-1.15 1.15m4.55 0a1.15 1.15 0 1 1 2.3 0 1.15 1.15 0 0 1-2.3 0m4.55 0a1.15 1.15 0 1 1 2.3 0 1.15 1.15 0 0 1-2.3 0m4.54 0c0-.63.52-1.15 1.16-1.15.63 0 1.15.52 1.15 1.15 0 .64-.52 1.149-1.15 1.149-.64 0-1.16-.51-1.16-1.15m4.55 0c0-.63.52-1.15 1.16-1.15.63 0 1.15.52 1.15 1.15 0 .64-.52 1.15-1.15 1.15-.64 0-1.16-.51-1.16-1.15m4.55 0c0-.63.52-1.15 1.16-1.15.63 0 1.15.52 1.15 1.15 0 .64-.52 1.15-1.15 1.15-.64 0-1.16-.51-1.16-1.15m4.55 0c0-.63.52-1.15 1.15-1.15.64 0 1.16.52 1.16 1.15 0 .64-.52 1.15-1.16 1.15a1.15 1.15 0 0 1-1.15-1.15m4.55 0c0-.63.52-1.15 1.15-1.15.64 0 1.16.52 1.16 1.15 0 .64-.52 1.15-1.16 1.15a1.15 1.15 0 0 1-1.15-1.15m4.55 0c0-.63.52-1.15 1.15-1.15.64 0 1.16.52 1.16 1.15 0 .64-.52 1.15-1.16 1.15a1.15 1.15 0 0 1-1.15-1.15m4.55 0c0-.63.52-1.15 1.15-1.15a1.15 1.15 0 1 1-1.15 1.15m4.55 0a1.15 1.15 0 1 1 2.3.001 1.15 1.15 0 0 1-2.3 0m4.55 0a1.15 1.15 0 1 1 2.3 0 1.15 1.15 0 0 1-2.3 0m4.55 0a1.15 1.15 0 1 1 2.3 0 1.15 1.15 0 0 1-2.3 0m4.54 0c0-.63.52-1.15 1.16-1.15.63 0 1.15.52 1.15 1.15 0 .64-.52 1.149-1.15 1.149-.64 0-1.16-.51-1.16-1.15m4.55 0c0-.63.52-1.15 1.16-1.15.63 0 1.15.52 1.15 1.15 0 .64-.52 1.15-1.15 1.15-.64 0-1.16-.51-1.16-1.15m4.55 0c0-.63.52-1.15 1.16-1.15.63 0 1.15.52 1.15 1.15 0 .64-.52 1.15-1.15 1.15-.64 0-1.16-.51-1.16-1.15m4.55 0c0-.63.52-1.15 1.15-1.15.64 0 1.16.52 1.16 1.15 0 .64-.52 1.15-1.16 1.15a1.15 1.15 0 0 1-1.15-1.15m4.55 0c0-.63.52-1.15 1.15-1.15.64 0 1.16.52 1.16 1.15 0 .64-.52 1.15-1.16 1.15a1.15 1.15 0 0 1-1.15-1.15m4.55 0c0-.63.51-1.15 1.15-1.15.64 0 1.16.52 1.16 1.15 0 .64-.52 1.15-1.16 1.15-.64 0-1.15-.51-1.15-1.15m4.55 0a1.15 1.15 0 1 1 2.3.001 1.15 1.15 0 0 1-2.3 0m4.55 0a1.15 1.15 0 1 1 2.3 0 1.15 1.15 0 0 1-2.3 0m4.55 0a1.15 1.15 0 1 1 2.3 0 1.15 1.15 0 0 1-2.3 0M603.461 13.32c-.149 0-.3-.03-.439-.091a1.152 1.152 0 0 1-.371-1.88c.42-.429 1.201-.429 1.63 0a1.149 1.149 0 0 1-.38 1.88c-.139.061-.28.091-.44.091M837.522 13.34c-.15 0-.3-.03-.44-.09a1.048 1.048 0 0 1-.37-.25c-.11-.11-.2-.23-.25-.37-.06-.14-.09-.29-.09-.44 0-.08.01-.15.02-.23.02-.07.04-.14.07-.21.03-.07.06-.14.1-.2.04-.07.09-.12.15-.18.42-.43 1.2-.43 1.62 0 .06.06.11.11.15.18.04.06.08.13.11.2.02.07.05.14.06.21.02.08.02.15.02.23 0 .15-.03.3-.08.44-.06.14-.15.26-.26.37-.21.22-.5.34-.81.34M731.742 12.19c0-.64.52-1.16 1.15-1.16a1.16 1.16 0 0 1 1.16 1.16c0 .63-.52 1.15-1.16 1.15a1.156 1.156 0 0 1-1.15-1.15m4.55 0c0-.64.52-1.16 1.15-1.16.64 0 1.16.52 1.16 1.16a1.155 1.155 0 0 1-2.309 0m4.55 0c0-.64.518-1.16 1.15-1.16.64 0 1.158.52 1.158 1.16a1.155 1.155 0 0 1-2.309 0m4.55 0c0-.64.52-1.16 1.15-1.16.64 0 1.15.52 1.15 1.16a1.15 1.15 0 1 1-2.3 0m4.55 0c0-.64.51-1.16 1.15-1.16.64 0 1.15.52 1.15 1.16a1.15 1.15 0 0 1-2.3 0m4.55 0c0-.64.51-1.16 1.15-1.16.64 0 1.15.52 1.15 1.16a1.15 1.15 0 1 1-2.3 0m4.55 0c0-.64.51-1.16 1.15-1.16.64 0 1.15.52 1.15 1.16a1.15 1.15 0 1 1-2.3 0m4.55 0c0-.64.51-1.16 1.15-1.16a1.155 1.155 0 0 1 0 2.309c-.64 0-1.15-.519-1.15-1.15m4.54 0c0-.64.52-1.159 1.15-1.159.64 0 1.16.52 1.16 1.16a1.155 1.155 0 0 1-2.309 0m4.548 0c0-.64.521-1.16 1.151-1.16.64 0 1.16.52 1.16 1.16 0 .63-.52 1.15-1.16 1.15-.63 0-1.15-.52-1.15-1.15m4.55 0c0-.64.52-1.16 1.15-1.16.64 0 1.16.52 1.16 1.16 0 .63-.52 1.15-1.16 1.15-.63 0-1.15-.52-1.15-1.15m4.55 0c0-.64.52-1.16 1.15-1.16a1.16 1.16 0 0 1 1.16 1.16c0 .63-.52 1.15-1.16 1.15a1.156 1.156 0 0 1-1.15-1.15m4.55 0c0-.64.52-1.16 1.15-1.16.64 0 1.16.52 1.16 1.16a1.155 1.155 0 0 1-2.309 0m4.55 0c0-.64.518-1.16 1.15-1.16.64 0 1.148.52 1.148 1.16a1.149 1.149 0 1 1-2.299 0m4.55 0c0-.64.51-1.16 1.15-1.16.64 0 1.15.52 1.15 1.16a1.15 1.15 0 1 1-2.3 0m4.55 0c0-.64.51-1.16 1.15-1.16.64 0 1.15.52 1.15 1.16a1.15 1.15 0 0 1-2.3 0m4.54 0c0-.64.52-1.16 1.16-1.16.63 0 1.15.52 1.15 1.16 0 .63-.52 1.15-1.15 1.15-.64 0-1.16-.52-1.16-1.15m4.55 0c0-.64.52-1.16 1.16-1.16.63 0 1.15.52 1.15 1.16 0 .63-.52 1.15-1.15 1.15a1.158 1.158 0 0 1-1.16-1.15m4.55 0c0-.64.52-1.16 1.15-1.16.64 0 1.16.52 1.16 1.16a1.155 1.155 0 0 1-2.309 0m4.55 0c0-.64.518-1.16 1.15-1.16.64 0 1.158.52 1.158 1.16a1.155 1.155 0 0 1-2.309 0m4.55 0c0-.64.52-1.16 1.15-1.16.64 0 1.16.52 1.16 1.16 0 .63-.52 1.15-1.16 1.15-.63 0-1.15-.52-1.15-1.15m4.55 0c0-.64.52-1.16 1.15-1.16.64 0 1.15.52 1.15 1.16a1.15 1.15 0 0 1-2.3 0m4.55 0c0-.64.52-1.16 1.15-1.16.64 0 1.16.52 1.16 1.16 0 .63-.52 1.15-1.16 1.15a1.156 1.156 0 0 1-1.15-1.15M728.352 13.34c-.31 0-.6-.12-.82-.34a1.14 1.14 0 0 1-.34-.81c0-.31.13-.6.34-.82.27-.26.67-.39 1.04-.31.08.01.15.03.22.06s.14.07.2.11a1.136 1.136 0 0 1 .509.96c0 .31-.12.59-.338.81-.221.22-.5.34-.811.34M856.592 12.16c0-.63.52-1.15 1.15-1.15a1.15 1.15 0 1 1-1.15 1.15m4.55 0c0-.63.52-1.15 1.15-1.15a1.15 1.15 0 1 1-1.15 1.15m4.55 0a1.15 1.15 0 1 1 2.3 0 1.15 1.15 0 0 1-2.3 0m4.55 0a1.15 1.15 0 1 1 2.3 0 1.15 1.15 0 0 1-2.3 0m4.54 0c0-.63.52-1.15 1.16-1.15.63 0 1.15.52 1.15 1.15 0 .64-.52 1.149-1.15 1.149-.64 0-1.16-.51-1.16-1.15m4.55 0c0-.63.52-1.15 1.16-1.15.63 0 1.15.52 1.15 1.15 0 .64-.52 1.15-1.15 1.15-.64 0-1.16-.51-1.16-1.15m4.55 0c0-.63.52-1.15 1.16-1.15.63 0 1.15.52 1.15 1.15 0 .64-.52 1.15-1.15 1.15-.64 0-1.16-.51-1.16-1.15m4.55 0c0-.63.52-1.15 1.15-1.15.64 0 1.16.52 1.16 1.15 0 .64-.52 1.15-1.16 1.15a1.15 1.15 0 0 1-1.15-1.15m4.55 0c0-.63.52-1.15 1.15-1.15.64 0 1.16.52 1.16 1.15 0 .64-.52 1.15-1.16 1.15a1.15 1.15 0 0 1-1.15-1.15m4.55 0c0-.63.52-1.15 1.15-1.15.64 0 1.16.52 1.16 1.15 0 .64-.52 1.15-1.16 1.15a1.15 1.15 0 0 1-1.15-1.15m4.55 0c0-.63.52-1.15 1.15-1.15a1.15 1.15 0 1 1-1.15 1.15m4.55 0a1.15 1.15 0 1 1 2.3.001 1.15 1.15 0 0 1-2.3 0m4.55 0a1.15 1.15 0 1 1 2.3 0 1.15 1.15 0 0 1-2.3 0m4.55 0a1.15 1.15 0 1 1 2.3 0 1.15 1.15 0 0 1-2.3 0m4.54 0c0-.63.52-1.15 1.16-1.15.63 0 1.15.52 1.15 1.15 0 .64-.52 1.149-1.15 1.149-.64 0-1.16-.51-1.16-1.15m4.55 0c0-.63.52-1.15 1.16-1.15.63 0 1.15.52 1.15 1.15 0 .64-.52 1.15-1.15 1.15-.64 0-1.16-.51-1.16-1.15m4.55 0c0-.63.52-1.15 1.16-1.15.63 0 1.15.52 1.15 1.15 0 .64-.52 1.15-1.15 1.15-.64 0-1.16-.51-1.16-1.15m4.55 0c0-.63.52-1.15 1.15-1.15.64 0 1.16.52 1.16 1.15 0 .64-.52 1.15-1.16 1.15a1.15 1.15 0 0 1-1.15-1.15m4.55 0c0-.63.52-1.15 1.15-1.15.64 0 1.16.52 1.16 1.15 0 .64-.52 1.15-1.16 1.15a1.15 1.15 0 0 1-1.15-1.15M853.192 13.32c-.15 0-.3-.03-.44-.091a1.152 1.152 0 0 1-.371-1.88c.42-.429 1.202-.429 1.63 0a1.149 1.149 0 0 1-.38 1.88c-.138.061-.28.091-.44.091M93.386 15.627a.689.689 0 0 1-.69-.688c0-.181.009-.394.018-.627a.704.704 0 0 1 .055-.242c.512-1.221.513-2.313-.01-3.507a.7.7 0 0 1-.06-.274l-.002-.6a.69.69 0 0 1 .689-.69c.15 0 .324 0 .512.003.148 0 .29.058.408.147 1.075.82 2.264.605 3.43-.053a.696.696 0 0 1 .337-.093L98.635 9c.38 0 .688.309.688.69l-.001.563a.708.708 0 0 1-.092.335c-.652 1.167-.825 2.314-.045 3.427.085.12.137.26.138.41v.514a.689.689 0 0 1-.688.688l-.578-.001a.716.716 0 0 1-.311-.078c-1.188-.594-2.32-.456-3.497.014a.713.713 0 0 1-.232.049c-.235.009-.45.016-.631.016M343.116 15.627a.689.689 0 0 1-.688-.688c0-.181.007-.394.016-.627a.704.704 0 0 1 .055-.242c.512-1.221.514-2.313-.01-3.507a.7.7 0 0 1-.06-.274v-.6c0-.38.307-.69.687-.69.152 0 .324 0 .512.003.148 0 .29.058.408.147 1.075.82 2.264.605 3.43-.053a.696.696 0 0 1 .337-.093l.562-.003a.69.69 0 0 1 .69.69l-.003.563a.708.708 0 0 1-.092.335c-.652 1.167-.825 2.314-.045 3.427.085.12.137.26.138.41l.001.514a.689.689 0 0 1-.689.688l-.578-.001a.72.72 0 0 1-.31-.078c-1.189-.594-2.32-.456-3.498.014a.707.707 0 0 1-.232.049c-.235.009-.449.016-.63.016M218.392 15.627a.689.689 0 0 1-.69-.688c0-.181.008-.394.017-.627a.728.728 0 0 1 .055-.242c.513-1.221.514-2.313-.01-3.507a.683.683 0 0 1-.06-.274l-.001-.6a.69.69 0 0 1 .689-.69c.15 0 .323 0 .51.003.149 0 .29.058.409.147 1.075.82 2.265.605 3.43-.053a.7.7 0 0 1 .337-.093L223.64 9a.69.69 0 0 1 .689.69l-.001.563a.732.732 0 0 1-.092.335c-.653 1.167-.826 2.314-.046 3.427.085.12.137.26.138.41v.514a.689.689 0 0 1-.688.688l-.578-.001a.72.72 0 0 1-.311-.078c-1.188-.594-2.32-.456-3.497.014a.707.707 0 0 1-.232.049c-.234.009-.45.016-.63.016M592.848 15.627a.689.689 0 0 1-.69-.688c0-.181.008-.394.017-.627a.753.753 0 0 1 .055-.242c.513-1.221.514-2.313-.01-3.507a.683.683 0 0 1-.06-.274l-.001-.6a.69.69 0 0 1 .689-.69c.15 0 .323 0 .51.003.149 0 .29.058.409.147 1.075.82 2.265.605 3.43-.053a.7.7 0 0 1 .337-.093l.562-.003a.69.69 0 0 1 .689.69l-.001.563a.732.732 0 0 1-.092.335c-.653 1.167-.826 2.314-.046 3.427.085.12.137.26.138.41v.514a.689.689 0 0 1-.688.688l-.578-.001a.72.72 0 0 1-.311-.078c-1.188-.594-2.32-.456-3.497.014a.707.707 0 0 1-.232.049c-.234.009-.45.016-.63.016M842.578 15.627a.689.689 0 0 1-.689-.688c0-.181.007-.394.016-.627a.753.753 0 0 1 .055-.242c.513-1.221.514-2.313-.009-3.507a.683.683 0 0 1-.06-.274c-.002-.223-.002-.425-.002-.6a.69.69 0 0 1 .69-.69c.15 0 .322 0 .51.003a.69.69 0 0 1 .408.147c1.076.82 2.265.605 3.43-.053a.7.7 0 0 1 .337-.093l.562-.003a.69.69 0 0 1 .69.69c0 .166 0 .355-.002.563a.72.72 0 0 1-.092.335c-.653 1.167-.826 2.314-.046 3.427.085.12.137.26.14.41v.514a.689.689 0 0 1-.69.688l-.578-.001a.72.72 0 0 1-.31-.078c-1.189-.594-2.32-.456-3.498.014a.707.707 0 0 1-.232.049 17.18 17.18 0 0 1-.63.016M717.853 15.627a.689.689 0 0 1-.69-.688c0-.181.008-.394.018-.627a.704.704 0 0 1 .055-.242c.512-1.221.513-2.313-.01-3.507a.683.683 0 0 1-.06-.274c-.002-.223-.002-.425-.002-.6a.69.69 0 0 1 .689-.69c.15 0 .323 0 .51.003a.69.69 0 0 1 .409.147c1.076.82 2.265.605 3.43-.053a.696.696 0 0 1 .338-.093L723.1 9a.69.69 0 0 1 .69.69l-.001.563a.72.72 0 0 1-.092.335c-.653 1.167-.825 2.314-.046 3.427a.72.72 0 0 1 .139.41v.514a.689.689 0 0 1-.69.688l-.576-.001a.72.72 0 0 1-.312-.078c-1.188-.594-2.32-.456-3.497.014a.702.702 0 0 1-.231.049c-.235.009-.45.016-.631.016M465.691 14.676c1.558-4.386 1.647-12.457 1.647-12.798 0-.71.502-1.39 1.51-1.381 1.008.01 1.38.824 1.38 1.358l-.001 8.946c0 .896-2.106.936-2.106.936l-.148.807s2.252.04 2.254.935l-.001 7.116c0 2.48-1.813 3.332-1.813 3.332s-.164.835-.186.934c4.945-2.804 7.869-3.518 7.869-3.518l-.243-.62s-2.063.565-2.063-.894v-7.286c3.626.381 6.453 6.524 7.77 9.883.2.512.413 1.048.596 1.563-1.97.298-3.911.775-5.949 1.506-1.974.709-4.301 2.017-6.09 3.746-1.517-1.277-3.64-2.408-6.42-3.517a29.784 29.784 0 0 0-3.81-1.235c3.258-3.18 4.738-6.808 5.804-9.813m6.168 19.962c0 1.66-.558 2.936-1.66 2.936-1.101 0-1.772-1.462-1.772-2.971 0-1.15.388-2.77 1.719-4.384 1.15 1.386 1.713 3.069 1.713 4.42m20.419-7.205c.131.936-.76 1.953-2.48 1.54-2.122-.51-3.454-2.866-3.768-3.663 3.748.031 6.05.72 6.248 2.123m-37.987-.762c-2.702 2.316-7.272 3.465-7.272 1.219 0-2.1 5.099-2.743 8.7-2.551-.486.487-.967.936-1.428 1.332m-2.07-24.9c2.73 0 .974 6.775 3.488 11.649 1.114 2.157 2.793 3.688 5.573 4.243-.878 2.21-2.648 4.423-4.257 6.271a23.74 23.74 0 0 0-6.735.054c-2.562.37-4.737 1.946-4.21 3.841.525 1.895 3.72 3.053 9.58-.175a19.234 19.234 0 0 0 2.916-1.986c2.943.496 6.926 1.535 9.521 3.021a8.03 8.03 0 0 1 1.492 1.088c-1.453 1.56-2.505 3.47-2.505 5.31 0 4.176 2.744 4.356 3.165 4.356.421 0 2.943-.165 2.943-4.306 0-2.051-.99-3.905-2.496-5.373.317-.314.68-.629 1.107-.953 2.504-1.897 7.16-3.311 11.027-3.366 1.408 2.742 3.56 4.332 6.737 4.332 2.04 0 3.435-1.01 3.219-2.549-.187-1.33-1.47-2.132-3.341-2.785-1.242-.435-2.868-.686-3.863-.693-.48-1.718-2.025-5.669-3.715-8.093-1.362-1.955-3.81-3.2-5.463-3.745 1.715-.287 3.01-.789 4.41-2.246 2.851-2.97.985-8.095 3.715-8.095 1.384 0 1.863 1.52 1.863 1.52h.007l.166-.722c-.33-.653-1.003-1.514-2.262-1.514-3.012 0-3.373 2.356-4.833 5.942-1.204 2.955-3.835 4.21-5.68 4.427v-8.5c0-1.761 2.033-1.534 2.033-1.534l.166-.512s-1.595-.678-7.12-.678c-5.524 0-7.437.678-7.437.678l.137.489s2.145-.293 2.145 1.568c0 2.792.143 8.833-1.813 13.833-1.54 0-3.894-1.986-4.65-6.933-.901-5.895-1.782-8.78-4.794-8.78-1.18 0-2.031.848-2.518 1.516l.202.683c.2-.314.91-1.283 2.08-1.283"/>
    </g>
</svg>
