<svg xmlns="http://www.w3.org/2000/svg" width="165" height="165" viewBox="0 0 165 165">
    <g fill="none" fill-rule="evenodd">
        <circle cx="82.5" cy="82.5" r="82.5" fill="#F6EFE5"/>
        <path fill="#483711" d="M68.55 128.381c0-.036.03-.065.065-.065.037 0 .066.029.066.065 0 .075-.131.075-.131 0m.065-1.618c-.896 0-1.625.726-1.625 1.618 0 .893.729 1.619 1.625 1.619.897 0 1.626-.726 1.626-1.619 0-.892-.73-1.618-1.626-1.618m-6.397-21.064a.137.137 0 0 1 .274 0c0 .15-.274.15-.274 0m.137-2.416a2.423 2.423 0 0 0-2.425 2.416 2.423 2.423 0 0 0 2.425 2.414 2.423 2.423 0 0 0 2.426-2.414 2.423 2.423 0 0 0-2.426-2.416m14.85-18.505a1.044 1.044 0 0 1-1.046-1.041c0-.575.468-1.041 1.045-1.041s1.046.466 1.046 1.04c0 .575-.47 1.042-1.046 1.042m0-4.36a3.33 3.33 0 0 0-3.334 3.319 3.33 3.33 0 0 0 3.334 3.32 3.331 3.331 0 0 0 3.335-3.32 3.33 3.33 0 0 0-3.335-3.32m49.19 36.333c0-.032.028-.061.06-.061.034 0 .062.029.062.061 0 .066-.122.067-.122 0m.06-2.117c-1.171 0-2.125.95-2.125 2.117 0 1.168.954 2.117 2.126 2.117 1.173 0 2.127-.95 2.127-2.117a2.124 2.124 0 0 0-2.127-2.117m-17.844-12.482a.137.137 0 0 1 .274 0c0 .15-.274.15-.274 0m.137-2.415a2.423 2.423 0 0 0-2.426 2.415 2.423 2.423 0 0 0 2.426 2.415 2.423 2.423 0 0 0 2.426-2.415 2.423 2.423 0 0 0-2.426-2.415m-.066 26.168c0-.037.03-.066.066-.066.036 0 .066.03.066.066 0 .074-.132.073-.132 0m.066-1.619c-.896 0-1.625.726-1.625 1.619 0 .892.729 1.618 1.625 1.618s1.625-.726 1.625-1.618c0-.893-.73-1.619-1.625-1.619M64.357 48.28a2.667 2.667 0 0 1 2.67 2.658 2.668 2.668 0 0 1-2.67 2.659 2.668 2.668 0 0 1-2.67-2.659 2.668 2.668 0 0 1 2.67-2.658m0 7.595c2.734 0 4.959-2.215 4.959-4.937 0-2.722-2.225-4.937-4.96-4.937-2.734 0-4.958 2.215-4.958 4.937 0 2.722 2.224 4.937 4.959 4.937m27.52 58.026a.137.137 0 0 1 .274 0c0 .15-.275.15-.275 0m.138-2.415a2.424 2.424 0 0 0-2.426 2.415 2.423 2.423 0 0 0 2.426 2.415 2.423 2.423 0 0 0 2.426-2.415 2.423 2.423 0 0 0-2.426-2.415m5.096-48.3a2.667 2.667 0 0 1-2.67-2.66 2.667 2.667 0 0 1 2.67-2.658 2.667 2.667 0 0 1 2.67 2.659 2.667 2.667 0 0 1-2.67 2.658m0-7.595c-2.734 0-4.959 2.215-4.959 4.937 0 2.722 2.225 4.937 4.96 4.937 2.733 0 4.958-2.215 4.958-4.937 0-2.722-2.225-4.937-4.959-4.937m10.357 28.922a1.596 1.596 0 0 1-1.598-1.591c0-.876.716-1.59 1.598-1.59.88 0 1.596.714 1.596 1.59 0 .878-.716 1.591-1.596 1.591m0-5.46c-2.143 0-3.887 1.736-3.887 3.869 0 2.134 1.744 3.87 3.887 3.87 2.142 0 3.885-1.736 3.885-3.87 0-2.133-1.743-3.868-3.885-3.868M36.68 94.817a1.045 1.045 0 0 1-1.047-1.041 1.046 1.046 0 0 1 2.092 0c0 .574-.47 1.041-1.045 1.041m0-4.361a3.331 3.331 0 0 0-3.336 3.32 3.331 3.331 0 0 0 3.336 3.32 3.33 3.33 0 0 0 3.334-3.32 3.33 3.33 0 0 0-3.334-3.32m99.103 5.979c0-.036.03-.065.065-.065.038 0 .066.03.066.065 0 .072-.131.074-.131 0m.065-1.618c-.896 0-1.625.726-1.625 1.618 0 .892.729 1.619 1.625 1.619.897 0 1.626-.727 1.626-1.62 0-.89-.73-1.617-1.626-1.617m-103.89-35.43a2.667 2.667 0 0 1-2.67-2.659 2.667 2.667 0 0 1 2.67-2.658 2.667 2.667 0 0 1 2.671 2.658 2.667 2.667 0 0 1-2.67 2.659m4.959-2.659c0-2.722-2.225-4.936-4.96-4.936-2.733 0-4.958 2.214-4.958 4.936s2.225 4.937 4.959 4.937c2.734 0 4.959-2.215 4.959-4.937m97.123-1.14a2.668 2.668 0 0 1-2.67-2.657 2.668 2.668 0 0 1 2.67-2.658 2.667 2.667 0 0 1 2.67 2.658 2.667 2.667 0 0 1-2.67 2.658m0-7.595c-2.734 0-4.959 2.215-4.959 4.937 0 2.722 2.225 4.936 4.96 4.936 2.733 0 4.958-2.214 4.958-4.936s-2.225-4.937-4.959-4.937m-91.107 73.792a.066.066 0 0 1 .132 0c0 .073-.132.072-.132 0m.067-1.618c-.898 0-1.627.726-1.627 1.618 0 .893.73 1.619 1.627 1.619.896 0 1.625-.726 1.625-1.619 0-.892-.729-1.618-1.625-1.618m9.862-43.596c-.88 0-1.598-.713-1.598-1.59 0-.877.717-1.59 1.598-1.59.88 0 1.597.713 1.597 1.59 0 .877-.716 1.59-1.597 1.59m0-5.459c-2.143 0-3.887 1.736-3.887 3.869s1.744 3.87 3.887 3.87 3.886-1.737 3.886-3.87-1.743-3.869-3.886-3.869m77.364 6.303a1.044 1.044 0 0 1-1.046-1.04c0-.575.469-1.042 1.046-1.042.576 0 1.045.467 1.045 1.042 0 .574-.469 1.04-1.045 1.04m0-4.36a3.33 3.33 0 0 0-3.334 3.32 3.33 3.33 0 0 0 3.334 3.319 3.33 3.33 0 0 0 3.334-3.32c0-1.83-1.496-3.32-3.334-3.32"/>
    </g>
</svg>
