<svg xmlns="http://www.w3.org/2000/svg" xmlns:xlink="http://www.w3.org/1999/xlink" width="61" height="101" viewBox="0 0 61 101">
    <defs>
        <path id="a" d="M0 0h60.454v100.001H0z"/>
    </defs>
    <g fill="none" fill-rule="evenodd">
        <mask id="b" fill="#fff">
            <use xlink:href="#a"/>
        </mask>
        <path fill="#483711" stroke="#483711" stroke-width=".2" d="M10.831 65.947c.442 0 .8-.36.8-.8v-18a.8.8 0 1 0-1.6 0v18c0 .44.359.8.8.8zM58.854 36.77H1.632l-.032.002V9.43c0-4.318 3.512-7.83 7.829-7.83h41.596c4.317 0 7.829 3.512 7.829 7.83v27.34zm0 48.093c0 4.318-3.512 7.83-7.829 7.83H9.429c-4.317 0-7.829-3.512-7.829-7.83V38.366c.011.001.021.004.032.004h57.222v46.493zm-11.315 13.54h-2.965l-1.729-4.05h6.425l-1.731 4.05zm-31.661 0h-2.965l-1.729-4.05h6.425l-1.731 4.05zM51.025 0H9.429C4.23 0 0 4.23 0 9.43v75.432c0 5.198 4.224 9.424 9.419 9.43l2.23 5.223a.8.8 0 0 0 .736.486h4.022a.8.8 0 0 0 .736-.486l2.231-5.223h21.708l2.23 5.223a.798.798 0 0 0 .735.486h4.022c.32 0 .609-.19.736-.486l2.231-5.223c5.194-.006 9.418-4.233 9.418-9.43V9.43c0-5.2-4.23-9.429-9.429-9.43zM10.831 9.97a.8.8 0 0 0-.8.8v18a.8.8 0 0 0 1.6 0v-18a.8.8 0 0 0-.8-.8z" mask="url(#b)"/>
    </g>
</svg>
