<svg xmlns="http://www.w3.org/2000/svg" xmlns:xlink="http://www.w3.org/1999/xlink" width="82" height="82" viewBox="0 0 82 82">
    <defs>
        <path id="a" d="M0 0h82v82H0z"/>
    </defs>
    <g fill="none" fill-rule="evenodd">
        <mask id="b" fill="#fff">
            <use xlink:href="#a"/>
        </mask>
        <path fill="#483711" d="M76.035 80h-55.07A31.456 31.456 0 0 1 17 64.753c0-1.542.12-3.072.343-4.582a.978.978 0 0 0 .054-.192c.37-2.4.998-4.713 1.873-6.906l.033-.082c.285-.708.595-1.403.931-2.084a31.688 31.688 0 0 1 4.543-6.825h47.451C77.243 49.833 80 57.156 80 64.753c0 5.31-1.369 10.569-3.965 15.247zM2 50.016v-5.457l15.994 6.4c-.013.03-.023.06-.037.089a33.366 33.366 0 0 0-2.3 7.161L2 50.016zm48.923-16.634a31.317 31.317 0 0 1 19.402 8.7H26.68a31.31 31.31 0 0 1 19.4-8.7 1 1 0 0 0 .922-.997v-4.136h3v4.136a1 1 0 0 0 .922.997zM25.325 15.997c0-7.691 6.238-13.954 13.922-13.997h18.426c7.72 0 14.001 6.281 14.001 14.001v24.616A33.285 33.285 0 0 0 52 31.472v-4.223a1 1 0 0 0-1-1h-4.999a1 1 0 0 0-1 1v4.223a33.28 33.28 0 0 0-19.676 9.149V15.997zm48.35 26.711V16.001C73.674 7.178 66.495 0 57.672 0H39.326c-8.823 0-16 7.176-16 15.996v26.717a33.717 33.717 0 0 0-4.443 6.448L1.371 42.154A.999.999 0 0 0 0 43.082v7.5c0 .351.184.677.485.857l14.813 8.888A33.26 33.26 0 0 0 15 64.753a33.473 33.473 0 0 0 4.518 16.748 1 1 0 0 0 .866.499h56.235c.356 0 .687-.19.865-.499A33.485 33.485 0 0 0 82 64.753c0-8.108-2.957-15.919-8.326-22.045z" mask="url(#b)"/>
    </g>
</svg>
