<svg xmlns="http://www.w3.org/2000/svg" xmlns:xlink="http://www.w3.org/1999/xlink" width="200" height="200" viewBox="0 0 200 200">
    <defs>
        <path id="a" d="M0 .273V132h63.76V.273z"/>
    </defs>
    <g fill="none" fill-rule="evenodd">
        <g transform="translate(38 40.289)">
            <mask id="b" fill="#fff">
                <use xlink:href="#a"/>
            </mask>
            <path fill="#483711" d="M62.26 132H15.322c-5.757 0-10.945-2.99-13.54-7.802a14.955 14.955 0 0 1-1.454-3.931 14.954 14.954 0 0 1 .038-6.404c.623-2.802 2.122-5.504 4.333-7.813l34.96-36.337a26.395 26.395 0 0 0 4.984-7.364 26.12 26.12 0 0 0 2.417-11.044V1.773a1.5 1.5 0 0 1 1.5-1.5h13.7a1.5 1.5 0 1 1 0 3h-12.2v48.032c0 4.297-.905 8.433-2.69 12.293a29.37 29.37 0 0 1-5.547 8.193l-34.96 36.336c-1.83 1.911-3.064 4.121-3.568 6.388a11.963 11.963 0 0 0-.033 5.123 11.924 11.924 0 0 0 1.162 3.136c2.07 3.84 6.246 6.226 10.898 6.226H62.26a1.5 1.5 0 1 1 0 3" mask="url(#b)"/>
        </g>
        <path fill="#483711" d="M100.26 43.562H79.77a1.5 1.5 0 0 1-1.5-1.5V30.505a1.5 1.5 0 0 1 1.5-1.5h20.49a1.5 1.5 0 1 1 0 3H81.27v8.557h18.99a1.5 1.5 0 1 1 0 3M95.357 54h-8.795a1.5 1.5 0 1 1 0-3h8.795a1.5 1.5 0 1 1 0 3m0 18.101h-8.795a1.5 1.5 0 1 1 0-3h8.795a1.5 1.5 0 1 1 0 3m0 19.484h-8.795a1.5 1.5 0 1 1 0-3h8.795a1.5 1.5 0 1 1 0 3m11.661 80.7a1.5 1.5 0 0 1-1.5-1.5c0-12.668 13.911-18.812 27.363-24.754 13.152-5.81 25.575-11.296 25.575-22.01 0-10.713-12.423-16.2-25.575-22.01-13.453-5.941-27.363-12.085-27.363-24.753 0-12.666 13.91-18.81 27.363-24.75 13.152-5.81 25.575-11.295 25.575-22.007a1.5 1.5 0 1 1 3 0c0 12.667-13.91 18.81-27.363 24.75-13.153 5.809-25.575 11.295-25.575 22.007 0 10.714 12.423 16.2 25.575 22.01 13.452 5.942 27.363 12.086 27.363 24.754 0 12.668-13.91 18.812-27.363 24.753-13.152 5.809-25.575 11.296-25.575 22.01a1.5 1.5 0 0 1-1.5 1.5m52.938 0a1.5 1.5 0 0 1-1.5-1.5c0-6.071-3.91-10.961-12.673-15.854a1.498 1.498 0 0 1-.58-2.04 1.497 1.497 0 0 1 2.042-.58c6.616 3.695 14.21 9.132 14.21 18.474a1.5 1.5 0 0 1-1.5 1.5"/>
        <path fill="#483711" d="M121.904 143.47c-.236 0-.477-.056-.701-.175-7.302-3.867-15.685-9.552-15.685-19.273 0-9.333 5.65-14.103 14.764-18.775a1.5 1.5 0 0 1 1.369 2.67c-8.318 4.263-13.133 8.264-13.133 16.105 0 6.422 4.214 11.392 14.09 16.622a1.5 1.5 0 0 1-.704 2.826m25.194-47.878a1.5 1.5 0 0 1-.746-2.803c8.37-4.784 12.104-9.574 12.104-15.531 0-6.306-4.295-11.406-13.927-16.534a1.5 1.5 0 0 1 1.41-2.648c7.224 3.847 15.517 9.503 15.517 19.182 0 9.28-7.771 14.795-13.615 18.136a1.497 1.497 0 0 1-.743.198m-26.311-46.248a1.49 1.49 0 0 1-.723-.187c-6.772-3.732-14.546-9.226-14.546-18.657a1.5 1.5 0 1 1 3 0c0 6.133 4.008 11.077 12.995 16.03a1.5 1.5 0 0 1-.726 2.814"/>
        <path fill="#483711" d="M159.635 34.937h-52.33a1.5 1.5 0 1 1 0-3h52.33a1.5 1.5 0 1 1 0 3m-3.494 34.605h-45.815a1.5 1.5 0 1 1 0-3h45.815a1.5 1.5 0 1 1 0 3m0 18.212h-44.034a1.5 1.5 0 1 1 0-3h44.034a1.5 1.5 0 1 1 0 3m1.641 30.161h-48.688a1.5 1.5 0 1 1 0-3h48.688a1.5 1.5 0 1 1 0 3m-1.641 17.417H111.37a1.5 1.5 0 1 1 0-3h44.772a1.5 1.5 0 1 1 0 3m3.387 34.753h-52.33a1.5 1.5 0 1 1 0-3h52.33a1.5 1.5 0 1 1 0 3M93.74 145.44c-4.209 0-7.632 3.424-7.632 7.632s3.423 7.63 7.631 7.63 7.632-3.422 7.632-7.63-3.424-7.632-7.632-7.632m0 18.263c-5.862 0-10.63-4.77-10.63-10.631 0-5.862 4.768-10.632 10.63-10.632 5.862 0 10.632 4.77 10.632 10.632s-4.77 10.63-10.632 10.63"/>
        <path fill="#F4E07A" d="M93.74 159.808a6.743 6.743 0 0 1-6.737-6.736c0-3.714 3.022-6.737 6.736-6.737s6.736 3.023 6.736 6.737a6.743 6.743 0 0 1-6.736 6.736"/>
        <path fill="#483711" d="M69.88 137.028a3.07 3.07 0 0 0-3.066 3.066 3.07 3.07 0 0 0 3.066 3.065 3.07 3.07 0 0 0 3.066-3.065 3.07 3.07 0 0 0-3.066-3.066m0 9.131a6.072 6.072 0 0 1-6.066-6.065 6.073 6.073 0 0 1 6.066-6.066 6.073 6.073 0 0 1 6.066 6.066 6.072 6.072 0 0 1-6.066 6.065"/>
        <path fill="#F4E07A" d="M69.88 142.265a2.173 2.173 0 0 1-2.17-2.17c0-1.197.973-2.171 2.17-2.171s2.171.974 2.171 2.17c0 1.197-.974 2.17-2.171 2.17"/>
        <path fill="#483711" d="M55.389 156.06c-.984 0-1.784.8-1.784 1.784s.8 1.784 1.784 1.784c.983 0 1.784-.8 1.784-1.784s-.801-1.784-1.784-1.784m0 6.568a4.79 4.79 0 0 1-4.784-4.784 4.79 4.79 0 0 1 4.784-4.784 4.79 4.79 0 0 1 4.784 4.784 4.79 4.79 0 0 1-4.784 4.784"/>
        <path fill="#F4E07A" d="M55.389 158.732"/>
        <path fill="#483711" d="M90.96 119.424a4.857 4.857 0 0 0-4.852 4.852 4.857 4.857 0 0 0 4.852 4.85 4.856 4.856 0 0 0 4.85-4.85 4.857 4.857 0 0 0-4.85-4.852m0 12.703c-4.33 0-7.852-3.522-7.852-7.851 0-4.33 3.522-7.852 7.852-7.852 4.329 0 7.85 3.522 7.85 7.852 0 4.329-3.521 7.85-7.85 7.85"/>
        <path fill="#F4E07A" d="M90.96 128.231a3.961 3.961 0 0 1-3.957-3.957 3.96 3.96 0 0 1 3.957-3.955 3.96 3.96 0 0 1 3.957 3.955 3.961 3.961 0 0 1-3.957 3.957m23.982-56.057h36.572c1.631 0 3.083 1.846 3.237 4.358l.011.232a9.86 9.86 0 0 1-.029 1.204c-.21 2.422-1.635 4.152-3.216 4.152H114.95c-1.635 0-3.099-1.855-3.236-4.375a11.575 11.575 0 0 1 .004-1.303c.145-2.476 1.615-4.268 3.223-4.268m.001 48.146h36.572c1.631 0 3.083 1.767 3.237 4.17l.011.223c.015.405.004.789-.029 1.152-.21 2.317-1.635 3.973-3.216 3.973H114.95c-1.635 0-3.099-1.775-3.236-4.186a10.604 10.604 0 0 1 .004-1.248c.145-2.37 1.615-4.084 3.223-4.084m1.165-82.697c-.019-.024 1.759-.301 1.926-.298 10.478.153 20.939.196 31.418.196.35 0 2.087.269 2.358 0-2.797 2.785-5.8 4.62-9.266 6.291l-9.889 4.771c-.541.262-1.643 1.081-2.219.967-.303-.06-.753-.611-.988-.81-.656-.558-1.283-1.167-1.959-1.699a348.033 348.033 0 0 1-7.608-6.166c-1.221-1.02-2.761-2.013-3.773-3.252m35.98 126.933c.02.026-1.759.32-1.926.319-10.478-.164-20.939-.21-31.418-.21-.35 0-2.087-.287-2.358-.001 2.797-2.973 5.8-4.933 9.266-6.718 3.296-1.7 6.593-3.398 9.889-5.096.542-.28 1.643-1.154 2.219-1.032.303.064.753.652.988.865.656.596 1.283 1.247 1.959 1.814a346.78 346.78 0 0 1 7.608 6.586c1.221 1.089 2.761 2.15 3.773 3.473"/>
    </g>
</svg>
