<svg xmlns="http://www.w3.org/2000/svg" xmlns:xlink="http://www.w3.org/1999/xlink" width="200" height="200" viewBox="0 0 200 200">
    <defs>
        <path id="a" d="M126.51.64H0V141h126.51z"/>
    </defs>
    <g fill="none" fill-rule="evenodd">
        <path fill="#F4E07A" d="M153.732 100.63c-1.98 13.7-8.68 22.85-10.08 24.7-3.05 4.05-9.11 12.08-20.47 16.15-9.14 3.28-17.23 2.39-21.27 1.65a45.639 45.639 0 0 1-8.1-2.46c-1.01-.42-2.01-.87-3.01-1.37 6.42.87 13.58-.64 19.34-1.97 26.96-6.24 38.81-35 33.49-60.31-.69-3.3-2.12-6.53-4.59-8.81-2.59-2.4-6.14-3.58-9.66-3.79-2.09-.12-4.25.04-6.38.4 1.13-.66 2.28-1.25 3.42-1.66 2.49-.9 4.64-.89 5.65-.91 3.28-.06 5.79.67 6.76.99 4.77 1.55 7.64 4.51 8.53 5.45 4.28 4.52 5.18 9.76 6.15 15.45a53.3 53.3 0 0 1 .22 16.49"/>
        <path fill="#483711" d="M107.6 87.96a1.5 1.5 0 0 1-1.465-1.191c-.046-.21-1.072-5.205.29-9.034a1.5 1.5 0 0 1 2.827 1.006c-.898 2.524-.436 6.204-.182 7.41a1.5 1.5 0 0 1-1.47 1.809"/>
        <g transform="translate(37 29.36)">
            <mask id="b" fill="#fff">
                <use xlink:href="#a"/>
            </mask>
            <path fill="#483711" d="M90.191 118.303h.01-.01zM27.127 83.5c-5.99 0-11.656 2.149-16.016 6.173-7.164 6.61-9.84 16.95-6.986 26.984 5.732 20.146 32.042 21.446 39.975 21.339a3.594 3.594 0 0 0 3.34-2.405c.705-2.017 1.36-5.32.475-9.593-.309-1.49-1.503-2.646-2.973-2.876a200.45 200.45 0 0 0-5.15-.715c-3.46-.45-7.039-.915-10.46-1.732-4.937-1.181-8.574-4.072-9.727-7.735-.809-2.571-.352-5.54 1.193-7.747 3.25-4.64 9.956-4.873 14.31-2.431.721.404 1.458.893 2.25 1.492.86.648 1.678 1.346 2.47 2.022.333.283.665.566 1 .844 12.788 10.67 28.281 15.279 41.445 12.334 2.423-.543 4.874-1.387 7.284-2.51.941-.44 1.886-.921 2.808-1.431 13.914-7.69 25.191-22.85 29.428-39.562 3.386-13.354 1.727-26.214-4.67-36.212-5.23-8.172-15.119-15.38-27.2-11.11-2.252.798-4.257 2.024-6.198 3.209-3.386 2.069-6.585 4.019-9.976 2.655-1.233-.498-2.3-1.366-3.174-2.582a1.83 1.83 0 0 1-.085-.131c-2.977-5.224-2.179-14.581-.985-21.51a5.652 5.652 0 0 0-1.027-4.304c-.892-1.203-2.185-1.967-3.643-2.15-2.53-.316-5.236-.205-8.037.33-2.257.43-4.022 2.27-4.39 4.576-1.193 7.467-2.617 21.43 1.248 31.048 3.143 7.823 8.46 11.153 12.367 12.57 6.493 2.354 9.79 8.14 9.044 15.874-1.202 12.468-10.73 22.52-18.533 23.744-5.629.882-10.572-1.698-15.356-4.193-3.222-1.682-6.266-3.27-9.463-3.85a25.828 25.828 0 0 0-4.588-.415zM43.42 141c-9.225 0-36.033-1.916-42.18-23.523-3.167-11.126-.164-22.625 7.837-30.01 6.16-5.684 14.605-8.057 23.173-6.502 3.645.659 7.036 2.429 10.316 4.14 4.553 2.376 8.853 4.614 13.503 3.89 7.297-1.145 15.08-11.384 16.012-21.07.355-3.68-.094-10.231-7.08-12.765-4.483-1.625-10.572-5.42-14.129-14.271-4.134-10.29-2.669-24.867-1.427-32.64.567-3.55 3.296-6.383 6.791-7.05 3.108-.594 6.128-.714 8.972-.36 2.278.286 4.296 1.473 5.68 3.34a8.667 8.667 0 0 1 1.574 6.6c-1.56 9.05-1.348 15.95.596 19.445.526.714 1.136 1.214 1.813 1.487 1.898.767 4.006-.427 7.29-2.432 1.975-1.207 4.214-2.576 6.761-3.477 11.491-4.063 23.264.657 30.727 12.319 6.85 10.704 8.644 24.402 5.052 38.568-4.434 17.489-16.269 33.372-30.885 41.449a48.627 48.627 0 0 1-2.99 1.524c-2.606 1.215-5.263 2.13-7.898 2.72-14.065 3.148-30.523-1.695-44.022-12.958-.343-.285-.683-.575-1.024-.866-.794-.677-1.543-1.316-2.33-1.91a16.81 16.81 0 0 0-1.913-1.27c-3.227-1.813-8.169-1.628-10.383 1.534-1.022 1.46-1.324 3.426-.79 5.127.834 2.648 3.662 4.785 7.563 5.718 3.267.78 6.766 1.235 10.15 1.675 1.72.224 3.498.455 5.228.726 2.696.422 4.885 2.525 5.446 5.232 1.023 4.945.25 8.815-.58 11.19a6.602 6.602 0 0 1-6.14 4.416c-.224.002-.463.004-.713.004z" mask="url(#b)"/>
        </g>
        <path fill="#483711" d="M91.23 129.69a1.501 1.501 0 0 1-1.498-1.435c-.24-5.402-4.185-7.764-4.352-7.862a1.503 1.503 0 0 1-.548-2.046 1.495 1.495 0 0 1 2.037-.557c.226.128 5.545 3.23 5.86 10.333a1.5 1.5 0 0 1-1.432 1.564c-.022.002-.045.002-.067.002m15.29-4.036a1.499 1.499 0 0 1-1.424-1.034c-.971-2.977-5.361-4.942-6.97-5.448a1.499 1.499 0 0 1-.98-1.881 1.503 1.503 0 0 1 1.88-.981c.297.093 7.278 2.341 8.92 7.378a1.5 1.5 0 0 1-1.425 1.966m9.734-15.485c-.217 0-.437-.047-.646-.146-5.06-2.417-7.59-.535-7.695-.453-.647.5-1.586.399-2.098-.237a1.488 1.488 0 0 1 .195-2.082c.16-.134 3.992-3.23 10.89.064a1.5 1.5 0 0 1-.646 2.854m-5.765-15.72c-.305 0-.612-.092-.876-.284a1.492 1.492 0 0 1-.348-2.073c.092-.13 2.3-3.171 7.364-3.732a1.504 1.504 0 0 1 1.656 1.326 1.502 1.502 0 0 1-1.326 1.657c-3.66.404-5.193 2.412-5.256 2.497a1.514 1.514 0 0 1-1.215.609"/>
    </g>
</svg>
