<svg xmlns="http://www.w3.org/2000/svg" width="200" height="200" viewBox="0 0 200 200">
    <g fill="none" fill-rule="evenodd">
        <path fill="#483711" d="M52.38 150.837c-7.024 0-14.165-3.046-21.764-9.272-16.971-13.906-18.732-36.823-19.395-45.45C9.165 69.35 21.483 37.487 48.36 31.16c11.734-2.764 22.395-.548 30.022 6.237 8.526 7.586 11.732 21.872 7.147 31.845-2.317 5.038-6.273 8.964-10.852 10.77-.095.045-15.453 6.661-22.364-8.046a1.5 1.5 0 0 1 2.715-1.276c5.653 12.03 17.97 6.785 18.493 6.555 3.922-1.549 7.285-4.914 9.282-9.257 4.005-8.71 1.067-21.692-6.415-28.35-9.276-8.253-21.111-7.024-27.341-5.558-14.584 3.434-22.97 14.584-27.436 23.334-5.72 11.205-8.417 25.228-7.4 38.472.636 8.278 2.326 30.266 18.306 43.36 7.654 6.27 14.689 9.056 21.519 8.528 9.349-.728 18.117-7.133 21.818-15.937.075-.179.148-.359.219-.54 3.494-8.898-.755-16.779-6.18-20.337-4.35-2.85-11.016-3.88-16.688 1.776-.306.306-.61.627-.91.966a1.501 1.501 0 0 1-2.246-1.989 25.08 25.08 0 0 1 1.038-1.1c5.72-5.709 13.748-6.558 20.45-2.162 6.408 4.201 11.435 13.486 7.328 23.943-.08.204-.162.405-.246.605-4.124 9.814-13.91 16.953-24.35 17.766a24.3 24.3 0 0 1-1.89.073m95.945-.001c-.631 0-1.26-.024-1.89-.073-10.44-.813-20.225-7.952-24.35-17.766-.084-.2-.166-.4-.246-.604-4.106-10.458.92-19.743 7.328-23.944 6.702-4.396 14.73-3.547 20.452 2.161.348.348.693.714 1.036 1.101a1.5 1.5 0 1 1-2.245 1.99 22.386 22.386 0 0 0-.91-.967c-5.672-5.658-12.34-4.628-16.688-1.776-5.426 3.557-9.674 11.44-6.181 20.337.07.181.145.361.22.54 3.7 8.804 12.468 15.21 21.817 15.937 6.836.531 13.867-2.258 21.52-8.529 15.98-13.093 17.669-35.08 18.305-43.359 1.018-13.244-1.68-27.267-7.4-38.472-4.466-8.75-12.851-19.9-27.435-23.334-6.23-1.466-18.065-2.695-27.341 5.558-7.482 6.657-10.42 19.64-6.416 28.351 1.998 4.342 5.362 7.707 9.227 9.232.578.254 12.896 5.498 18.549-6.53a1.5 1.5 0 1 1 2.715 1.275c-6.911 14.705-22.27 8.09-22.423 8.022-4.52-1.782-8.475-5.707-10.793-10.746-4.585-9.974-1.38-24.259 7.147-31.845 7.626-6.784 18.289-9 30.022-6.237 12.429 2.926 22.602 11.533 29.42 24.89 5.965 11.683 8.778 26.287 7.72 40.066-.663 8.627-2.424 31.544-19.395 45.45-7.6 6.226-14.74 9.272-21.765 9.272"/>
        <path fill="#F4E07A" d="M67.965 72.522c-.4.008-5.998.04-10.334-3.833-1.676-1.497-1.297-1.91-3.611-4.578-2.366-2.726-5.193-5.983-8.723-6.755-4.492-.984-8.703 2.369-10.332 3.666-2.715 2.161-8.569 7.91-11 29-.94 8.151-1.528 19.973.5 34.334a87.749 87.749 0 0 1-4.167-14.834c-.797-4.239-3.001-16.509-.5-29.666.622-3.269 7.312-36.137 30.137-42.02 1.652-.427 14.69-3.493 23.889 4.679 6.367 5.658 10.697 16.884 5.873 24.014-2.504 3.702-7.21 5.902-11.733 5.993zm70.391 39.405c.37-.026 5.558-.322 9.76 3.063 1.626 1.308 1.295 1.71 3.567 4.072 2.323 2.415 5.097 5.3 8.407 5.85 4.213.697 7.956-2.61 9.405-3.89 2.414-2.133 7.568-7.74 8.82-27.409.485-7.6.469-18.588-2.094-31.805a81.344 81.344 0 0 1 4.567 13.553c.94 3.892 3.567 15.163 1.873 27.48-.42 3.06-5.061 33.847-25.942 40.387-1.513.473-13.455 3.935-22.37-3.204-6.172-4.942-10.72-15.144-6.586-21.983 2.146-3.55 6.404-5.815 10.593-6.114z"/>
        <path fill="#483711" d="M62.281 108.65a1.5 1.5 0 0 1-1.266-2.303l1.427-2.254c2.216-3.5 3.316-7.414 3.179-11.314l-.005-.107a21.727 21.727 0 0 0-1.37-6.766 19.091 19.091 0 0 0-3.917-5.763 1.5 1.5 0 0 1 2.128-2.115c1.887 1.89 3.466 4.224 4.568 6.753a24.77 24.77 0 0 1 1.589 7.761l.005.132c.158 4.506-1.102 9.01-3.642 13.024l-1.427 2.254c-.286.45-.772.697-1.269.697"/>
        <path fill="#483711" d="M91.182 170.447a1.5 1.5 0 0 1-1.5-1.5v-51.303c0-12.702-9.428-23.036-21.017-23.036a1.5 1.5 0 1 1 0-3c13.243 0 24.017 11.68 24.017 26.036v51.303a1.5 1.5 0 0 1-1.5 1.5m18.34 0a1.5 1.5 0 0 1-1.5-1.5v-51.303c0-14.356 10.774-26.036 24.017-26.036a1.5 1.5 0 1 1 0 3c-11.589 0-21.017 10.334-21.017 23.036v51.303a1.5 1.5 0 0 1-1.5 1.5"/>
        <path fill="#483711" d="M138.424 108.646c-.418 0-.835-.174-1.132-.515-1.754-2.015-5.794-7.57-5.412-15.629.368-7.667 4.578-12.68 6.371-14.479a1.499 1.499 0 1 1 2.095 2.147c-1.565 1.58-5.153 5.894-5.469 12.475-.33 6.971 3.161 11.774 4.678 13.516a1.5 1.5 0 0 1-1.131 2.485"/>
    </g>
</svg>
