<svg xmlns="http://www.w3.org/2000/svg" width="200" height="200" viewBox="0 0 200 200">
    <g fill="none" fill-rule="evenodd">
        <path fill="#483711" d="M125.028 175.009c-1.406 0-2.848-.086-4.323-.258-30.397-3.555-66.362-23.638-73.495-59.335-4.41-22.065 4.337-40.263 8.561-47.417V33.701c0-4.246 3.454-7.701 7.701-7.701h7.356c4.246 0 7.701 3.455 7.701 7.701V50.05a1.5 1.5 0 1 1-3 0V33.701A4.707 4.707 0 0 0 70.83 29h-7.357a4.707 4.707 0 0 0-4.7 4.701v34.711c0 .272-.075.538-.215.771-3.953 6.59-12.686 24.227-8.406 45.645 4.795 23.993 29.028 52.047 70.903 56.943 8.05.943 14.721-.822 19.826-5.241 5.972-5.169 9.421-13.827 9.71-24.376.297-10.832-1.354-22.707-4.774-34.34a135.877 135.877 0 0 0-12.012-28.43l-.715-1.273c-3.775-6.745-8.946-15.981-16.7-16.798a1.5 1.5 0 1 1 .312-2.983c9.301.978 14.91 10.999 19.006 18.315l.71 1.264a138.854 138.854 0 0 1 12.277 29.059c3.508 11.931 5.2 24.126 4.895 35.268-.313 11.401-4.129 20.835-10.746 26.563-4.733 4.097-10.832 6.21-17.815 6.21"/>
        <path fill="#483711" d="M57.27 69.912a1.501 1.501 0 0 1-1.081-2.541c.233-.24 5.745-5.941 11.897-10.475a1.5 1.5 0 1 1 1.779 2.415c-5.942 4.379-11.46 10.084-11.513 10.142a1.5 1.5 0 0 1-1.081.459m74.844 72.482c-.164 0-.331-.027-.495-.084-16.664-5.82-29.704-15.336-38.76-28.284a69.025 69.025 0 0 1-3.311-5.237c-8.972-15.663-12.03-35.684-7.788-51.005 2.957-10.685 9.366-19.047 18.535-24.183 5.965-3.341 12.628-4.982 19.812-4.904 5.139.064 9.319 4.329 9.319 9.508v5.325a9.508 9.508 0 0 1-8.363 9.435c-7.287.877-11.192 3.818-11.61 8.743v12.18a1.5 1.5 0 0 1-3 0v-12.24c0-.04.002-.08.006-.118.505-6.4 5.564-10.498 14.245-11.543a6.506 6.506 0 0 0 5.723-6.456v-5.325c0-3.545-2.852-6.465-6.357-6.508-6.64-.074-12.808 1.44-18.31 4.52-8.575 4.805-14.331 12.33-17.11 22.367-4.036 14.589-1.093 33.71 7.502 48.713a65.69 65.69 0 0 0 3.166 5.009c8.687 12.42 21.233 21.563 37.29 27.17a1.5 1.5 0 0 1-.494 2.918"/>
        <path fill="#483711" d="M90.852 130.045a1.501 1.501 0 0 1-1.373-.892c-4.196-9.454-.216-21.113-.044-21.605a1.5 1.5 0 0 1 2.833.987c-.038.11-3.755 11.045-.046 19.401a1.5 1.5 0 0 1-1.37 2.11m20.668-2.42c-4.318 0-7.221-1.145-7.445-1.236a1.5 1.5 0 0 1 1.127-2.78c.371.148 9.199 3.559 18.994-2.971a1.499 1.499 0 1 1 1.664 2.496c-5.316 3.544-10.414 4.49-14.34 4.49M93.567 95.039c-.074 0-.149-.005-.225-.017-9.37-1.405-11.97-8.426-12.077-8.724a1.5 1.5 0 0 1 2.823-1.014c.088.237 2.172 5.642 9.7 6.772a1.5 1.5 0 0 1-.22 2.983m2.616-55.408c-.255 0-.514-.065-.75-.203a17.652 17.652 0 0 0-8.747-2.375 18.005 18.005 0 0 0-8.905 2.375 1.499 1.499 0 1 1-1.505-2.595 20.696 20.696 0 0 1 10.424-2.78 20.647 20.647 0 0 1 10.238 2.78 1.499 1.499 0 0 1-.754 2.798"/>
        <path fill="#F4E07A" d="M53.517 114.206c5.037 12.212 25.775 53.382 75.986 52.118 2.467-.062 4.42-2.114 4.42-4.58a4.581 4.581 0 0 0-4.303-4.574c-12.892-.802-51.295-6.59-67.315-46.624-1.119-2.795-4.568-3.79-6.985-1.995l-.302.223a4.582 4.582 0 0 0-1.502 5.432"/>
    </g>
</svg>
