<svg xmlns="http://www.w3.org/2000/svg" width="200" height="200" viewBox="0 0 200 200">
    <g fill="#483711" fill-rule="evenodd">
        <path d="M87.499 61.131c-3.668 0-7.67-.41-11.521-2.087-6.166-2.683-6.351-6.228-5.913-8.104.4-1.714 1.328-3.17 2.268-4.49a13.572 13.572 0 0 1 1.865-2.104 1.5 1.5 0 0 1 2.027 2.213 10.484 10.484 0 0 0-1.45 1.634c-.762 1.068-1.506 2.223-1.79 3.43-.498 2.137 2.004 3.72 4.19 4.671 4.359 1.896 9.102 1.953 13.165 1.763l.333-.017a1.513 1.513 0 0 1 1.576 1.421 1.501 1.501 0 0 1-1.421 1.575l-.353.018c-.958.045-1.955.077-2.976.077"/>
        <path d="M95.484 51.168h-.024c-4.517-.072-8.749-.622-12.94-1.682-4.608-1.164-8.22-2.755-12.044-4.439-2.492-1.097-5.068-2.232-7.972-3.249-2.583-.906-8.294-2.178-17.52-.508-1.313.237-2.589.02-3.593-.61-1.08-.68-1.792-1.696-1.95-2.787a1.428 1.428 0 0 1-.016-.216 7.125 7.125 0 0 1 5.904-7.03c3.863-.675 10.241-.987 18.695 1.375a1.499 1.499 0 1 1-.807 2.888c-7.913-2.21-13.814-1.929-17.37-1.307a4.128 4.128 0 0 0-3.42 3.93c.06.172.243.407.56.606.363.23.898.301 1.463.2 7.34-1.328 14.103-1.105 19.046.627 3.014 1.056 5.645 2.216 8.19 3.336 3.705 1.632 7.205 3.174 11.57 4.276 3.962 1.002 7.97 1.523 12.251 1.59a1.5 1.5 0 0 1-.023 3m-46.486 69.919a1.5 1.5 0 0 1-1.5-1.464l-1.474-61.986c-.01-.45.181-.883.524-1.176.613-.524 1.478-1.349 2.117-2.302a1.498 1.498 0 0 1 2.082-.409 1.5 1.5 0 0 1 .41 2.081c-.646.962-1.44 1.8-2.118 2.428l1.458 61.292a1.501 1.501 0 0 1-1.464 1.536h-.036zm-10.91-20.492l-.543-42.855c-.005-.317-.306-1.036-.467-1.421-.172-.412-.334-.8-.439-1.168l-.035-.127c-.488-1.751-1.157-4.149-.595-6.256a1.5 1.5 0 0 1 2.899.771c-.35 1.319.19 3.261.586 4.679l.033.12c.065.228.191.516.32.823.348.835.743 1.781.696 2.66.004.113.545 42.737.545 42.737l-3 .037z"/>
        <path d="M96.75 43.883zm.142 77.25a1.5 1.5 0 0 1-1.498-1.472c-.059-3.02-1.4-73.989-1.4-75.976a2.79 2.79 0 0 1 1.236-2.32 2.816 2.816 0 0 1 2.644-.263 5.318 5.318 0 0 0 2.198.387 1.5 1.5 0 1 1 .116 2.998 8.33 8.33 0 0 1-3.19-.51c.066 5.408 1.38 74.907 1.394 75.628a1.5 1.5 0 0 1-1.471 1.528h-.029zm-23.183-.558c-.964 0-2.298-.085-3.779-.42a1.414 1.414 0 0 1-.244-.079 1.498 1.498 0 0 1-.886-1.83 1.498 1.498 0 0 1 1.87-1c.003 0 .005 0 .008.002 2.325.511 4.197.267 4.216.264 1.644-.183 2.971-.648 4.094-1.424 2.639-1.822 3.075-5.416 3.496-8.893.129-1.063.263-2.161.458-3.182.341-1.776 2.323-10.72 7.908-12.388a1.5 1.5 0 1 1 .858 2.875c-3.254.972-5.189 6.793-5.819 10.078-.177.92-.298 1.92-.426 2.977-.479 3.944-1.02 8.413-4.77 11-1.52 1.05-3.345 1.701-5.426 1.934-.028.005-.617.085-1.558.085"/>
        <path d="M106.51 126.845a1.5 1.5 0 0 1-1.5-1.5v-4.135a19.132 19.132 0 0 1-10.311-.001v4.136a1.5 1.5 0 1 1-3 0v-4.438c0-.883.405-1.692 1.111-2.218a2.761 2.761 0 0 1 2.46-.438 16.105 16.105 0 0 0 9.178-.001 2.753 2.753 0 0 1 2.456.434 2.728 2.728 0 0 1 1.106 2.207v4.454a1.5 1.5 0 0 1-1.5 1.5m.114 9.577a1.5 1.5 0 0 1-1.5-1.5v-3.98a19.46 19.46 0 0 1-5.013.726 19.466 19.466 0 0 1-5.527-.727v3.981a1.5 1.5 0 1 1-3 0v-4.256c0-.889.408-1.703 1.12-2.234a2.783 2.783 0 0 1 2.48-.442 16.414 16.414 0 0 0 9.351-.002 2.783 2.783 0 0 1 2.475.44 2.75 2.75 0 0 1 1.114 2.223v4.271a1.5 1.5 0 0 1-1.5 1.5m.805 9.496a1.5 1.5 0 0 1-1.5-1.5v-4.17c-1.84.634-3.81.934-5.79.96a21.725 21.725 0 0 1-6.413-.889l.056.923v3.176a1.5 1.5 0 0 1-3 0v-4.152c0-.939.43-1.798 1.18-2.359a2.945 2.945 0 0 1 2.616-.465c1.796.534 3.643.794 5.522.766a18.516 18.516 0 0 0 5.04-.768 2.928 2.928 0 0 1 2.613.463 2.9 2.9 0 0 1 1.176 2.345v4.17a1.5 1.5 0 0 1-1.5 1.5M86.342 71.887c-.284 0-.567-.003-.851-.01-1.802-.044-17.673-.657-19.734-8.627-.763-2.938.49-6.273 1.796-8.236a11.595 11.595 0 0 1 3.126-3.157 1.5 1.5 0 0 1 1.683 2.484 8.588 8.588 0 0 0-2.311 2.333c-1.23 1.849-1.8 4.243-1.39 5.823 1.268 4.905 12.92 6.285 16.903 6.38 1.767.047 3.56-.06 5.328-.308a1.5 1.5 0 0 1 .417 2.97 35.666 35.666 0 0 1-4.967.348"/>
        <path d="M82.74 82.512c-2.615 0-9.861-.28-16.473-3.101-.886-.377-2.732-1.163-3.946-3.044-1.998-3.094-.91-6.814-.445-8.402.708-2.422 2.09-4.669 4-6.502a1.495 1.495 0 0 1 1.073-.452c.829 0 1.5.669 1.5 1.497v.005a1.5 1.5 0 0 1-.465 1.086c-1.548 1.475-2.664 3.276-3.23 5.208-.378 1.296-1.167 3.991.087 5.934.66 1.022 1.689 1.522 2.602 1.911 7.454 3.178 16.082 2.851 16.168 2.845a52.04 52.04 0 0 0 7.14-.809 1.5 1.5 0 1 1 .542 2.951c-2.5.459-5.04.747-7.553.856-.07.003-.421.017-1 .017"/>
        <path d="M83.316 93.426h-.017a83.517 83.517 0 0 1-5.858-.27c-4.532-.368-7.807-.914-10.011-1.669-2.611-.895-4.866-1.668-6.282-4.005-1.141-1.88-1.12-3.809-1.103-5.217.029-2.453.69-4.836 1.965-7.085a1.501 1.501 0 0 1 2.61 1.48c-1.023 1.803-1.553 3.7-1.575 5.637-.014 1.221-.028 2.482.667 3.63.814 1.341 2.24 1.882 4.69 2.722 1.939.665 5.06 1.174 9.282 1.516 1.88.153 3.78.24 5.648.261a1.5 1.5 0 0 1-.016 3m14.189-52.674c-.132 0-.267-.019-.4-.056a1.496 1.496 0 0 1-1.098-1.519c-.019-1.072-.463-1.88-.88-2.103l-1.983-1.053c-.95-.506-1.538-1.606-1.538-2.873 0-1.037.413-2 1.107-2.582a2.336 2.336 0 0 1 1.926-.53l4.762.863a4.07 4.07 0 0 0 1.46 0l4.758-.86c.687-.127 1.37.062 1.927.526.693.581 1.107 1.545 1.107 2.583 0 1.267-.588 2.368-1.537 2.873l-1.98 1.052c-.427.228-.88 1.067-.88 2.174a1.5 1.5 0 1 1-3 0c0-2.13.97-4.022 2.471-4.822l1.88-.999a.763.763 0 0 0 .044-.345l-4.256.77a7.07 7.07 0 0 1-2.529 0l-4.258-.77-.002.067c0 .13.026.226.048.278l1.88 1c1.502.798 2.473 2.69 2.473 4.821a1.503 1.503 0 0 1-1.502 1.505M58.5 63.434c-.088 0-.18-.008-.27-.024-3.807-.695-6.71-2.505-8.626-5.382-1.02-1.53-1.517-3.466-1.477-5.76a1.42 1.42 0 0 0-.402-1.021 1.419 1.419 0 0 0-1.007-.433l-9.105-.125a1.5 1.5 0 0 1-.2-.017 5.21 5.21 0 0 1-3.614-2.331 4.92 4.92 0 0 1-.615-4.012c.49-1.73 1.826-3.04 3.967-3.896a1.499 1.499 0 0 1 1.95.836 1.499 1.499 0 0 1-.835 1.949c-1.234.493-1.973 1.144-2.197 1.932a1.895 1.895 0 0 0 .25 1.565c.33.51.854.863 1.449.976l8.992.123a4.395 4.395 0 0 1 3.119 1.346 4.404 4.404 0 0 1 1.248 3.16c-.02 1.149.132 2.784.973 4.044 1.449 2.174 3.693 3.55 6.668 4.094a1.5 1.5 0 0 1-.267 2.976m92.882 57.238h-.036a1.501 1.501 0 0 1-1.464-1.536l1.458-61.292c-.677-.629-1.472-1.466-2.118-2.429a1.5 1.5 0 0 1 2.492-1.672c.64.954 1.504 1.78 2.117 2.303.343.293.535.725.525 1.176l-1.475 61.986a1.5 1.5 0 0 1-1.5 1.464m10.91-20.492l-3-.038.543-42.834c-.045-.781.35-1.727.698-2.562.13-.307.255-.595.321-.831l.033-.117c.395-1.417.935-3.357.585-4.674a1.499 1.499 0 1 1 2.898-.771c.561 2.105-.106 4.5-.593 6.25l-.034.125c-.108.376-.27.765-.442 1.176-.16.385-.46 1.104-.468 1.352.002.08.002.096-.542 42.925"/>
        <path d="M142.511 62.89a1.5 1.5 0 0 1-.33-2.963c2.693-.61 4.746-1.947 6.1-3.978.84-1.261.992-2.895.972-4.044a4.402 4.402 0 0 1 1.248-3.161 4.398 4.398 0 0 1 3.118-1.345l8.993-.123a2.221 2.221 0 0 0 1.448-.976 1.9 1.9 0 0 0 .251-1.566c-.224-.788-.964-1.438-2.197-1.932a1.5 1.5 0 0 1 1.115-2.785c2.141.857 3.476 2.168 3.968 3.896a4.928 4.928 0 0 1-.616 4.014 5.22 5.22 0 0 1-3.614 2.33c-.066.01-.133.016-.2.017l-9.106.125a1.42 1.42 0 0 0-1.006.433 1.42 1.42 0 0 0-.402 1.02c.04 2.293-.457 4.23-1.476 5.76-1.796 2.693-4.465 4.457-7.933 5.24a1.524 1.524 0 0 1-.333.038m-69.404 52.554c-1.573 0-3.382-.371-5.416-1.112a1.553 1.553 0 0 1-.23-.107c-.191-.11-4.666-2.76-3.596-10.341a1.5 1.5 0 0 1 2.971.42c-.704 4.987 1.55 6.91 2.044 7.267 3.058 1.09 5.353 1.163 6.642.212.996-.736 1.127-1.893 1.33-4.438.173-2.177.388-4.888 1.484-8.35.79-2.488 2.43-7.662 6.843-11.338 1.492-1.244 3.2-2.015 4.939-2.228a7.907 7.907 0 0 1 1.41-.05 1.5 1.5 0 0 1 1.406 1.589 1.493 1.493 0 0 1-1.59 1.406 4.708 4.708 0 0 0-.862.034c-1.164.14-2.334.68-3.383 1.554-3.74 3.114-5.2 7.723-5.902 9.938-.993 3.136-1.194 5.657-1.355 7.683-.215 2.7-.401 5.033-2.538 6.612-1.126.832-2.53 1.249-4.197 1.249"/>
        <path d="M76.618 101.171c-3.244 0-8.336-.593-13.247-3.608-.74-.415-3.344-2.444-2.24-10.112a1.499 1.499 0 1 1 2.969.428c-.759 5.27.487 6.804.745 7.058.01.002.006.003.01.01a.321.321 0 0 0 .054.04c6.963 4.293 14.516 3 14.592 2.985a1.5 1.5 0 0 1 .531 2.953c-.134.023-1.428.246-3.414.246z"/>
        <path d="M74.877 108.512c-3.16 0-7.594-.552-10.462-3.237-.83-.577-3.422-2.96-1.746-9.391a1.5 1.5 0 1 1 2.904.758c-1.268 4.859.542 6.161.561 6.174.114.063.166.11.26.201 3.04 2.945 9.532 2.636 11.776 2.267a1.5 1.5 0 1 1 .486 2.961c-.154.026-1.688.267-3.779.267m-4.614 11.68a1.47 1.47 0 0 1-.544-.103c-1.47-.572-3.982-2.873-2.98-7.485a1.501 1.501 0 0 1 2.932.637c-.716 3.29 1.118 4.046 1.137 4.054a1.498 1.498 0 1 1-.545 2.897m42.51-59.06c-1.268 0-2.523-.049-3.758-.117a1.5 1.5 0 0 1-1.414-1.58c.046-.828.766-1.437 1.581-1.416 4.574.255 9.425.222 13.902-1.725 2.187-.952 4.69-2.534 4.19-4.67-.283-1.208-1.027-2.363-1.79-3.43a10.427 10.427 0 0 0-1.449-1.635 1.5 1.5 0 0 1 2.027-2.213 13.566 13.566 0 0 1 1.864 2.104c.941 1.32 1.868 2.777 2.268 4.49.438 1.876.253 5.421-5.914 8.104-3.788 1.65-7.7 2.088-11.507 2.088"/>
        <path d="M104.775 51.168a1.5 1.5 0 0 1-.023-3c4.28-.067 8.29-.588 12.252-1.59 4.364-1.102 7.864-2.644 11.57-4.276 2.544-1.12 5.175-2.28 8.19-3.336 4.941-1.733 11.706-1.955 19.045-.629.567.104 1.1.031 1.463-.198.321-.2.505-.44.562-.614-.01-1.97-1.475-3.637-3.415-3.88-5.102-.642-14.806-.986-22.482 3.95a1.501 1.501 0 0 1-1.622-2.524c8.473-5.448 18.973-5.099 24.478-4.404 3.444.434 6.041 3.391 6.041 6.878v.132c0 .072-.005.145-.016.217-.159 1.092-.87 2.107-1.95 2.786-1.005.631-2.28.85-3.593.61-9.226-1.668-14.937-.398-17.52.508-2.904 1.017-5.48 2.152-7.972 3.25-3.824 1.683-7.436 3.274-12.043 4.438-4.192 1.06-8.425 1.61-12.94 1.682h-.025z"/>
        <path d="M103.524 43.877v.001m-.259 77.255h-.03a1.5 1.5 0 0 1-1.47-1.53c.015-.72 1.424-70.219 1.497-75.626a8.337 8.337 0 0 1-3.19.51 1.501 1.501 0 0 1-1.442-1.556 1.505 1.505 0 0 1 1.558-1.442 5.286 5.286 0 0 0 2.211-.393 2.816 2.816 0 0 1 2.63.267 2.79 2.79 0 0 1 1.236 2.322c0 1.988-1.439 72.958-1.5 75.978a1.5 1.5 0 0 1-1.5 1.47m23.292-.56c-.953 0-1.557-.081-1.606-.088-2.039-.228-3.865-.88-5.385-1.93-3.575-2.469-4.165-6.79-4.595-9.943-.584-4.276-1.152-7.535-3.154-10.524-.928-1.386-2.207-3.048-3.875-3.601a1.5 1.5 0 1 1 .945-2.849c2.532.84 4.228 2.996 5.423 4.78 2.543 3.797 3.122 8.042 3.633 11.788.46 3.372 1.03 6.292 3.328 7.881 1.124.776 2.451 1.241 4.057 1.422.056.005 1.93.251 4.255-.262.002 0 .004 0 .006-.002a1.5 1.5 0 0 1 .976 2.835 1.47 1.47 0 0 1-.236.074 17.25 17.25 0 0 1-3.772.42M113.92 71.887a35.75 35.75 0 0 1-3.825-.206 1.5 1.5 0 0 1 .322-2.982c1.42.152 2.86.215 4.278.178 3.983-.095 15.636-1.474 16.904-6.378.41-1.582-.161-3.976-1.39-5.825a8.588 8.588 0 0 0-2.311-2.333 1.5 1.5 0 0 1 1.683-2.484 11.612 11.612 0 0 1 3.127 3.157c1.305 1.963 2.558 5.298 1.795 8.237-2.061 7.969-17.932 8.582-19.735 8.626-.282.007-.564.01-.847.01"/>
        <path d="M117.519 82.512c-.578 0-.93-.014-.999-.017a55.2 55.2 0 0 1-5.979-.59 1.5 1.5 0 0 1 .458-2.965c1.874.289 3.775.476 5.651.557.087.007 8.712.334 16.166-2.845.914-.389 1.943-.889 2.603-1.911 1.254-1.943.465-4.638.086-5.934-.565-1.932-1.681-3.733-3.229-5.208a1.5 1.5 0 1 1 2.137-2.108c1.894 1.828 3.267 4.064 3.972 6.474.464 1.588 1.552 5.308-.446 8.402-1.214 1.881-3.06 2.667-3.947 3.044-6.612 2.821-13.857 3.101-16.473 3.101"/>
        <path d="M116.944 93.426a1.5 1.5 0 0 1-.016-3 81.122 81.122 0 0 0 5.647-.26c4.222-.343 7.344-.852 9.28-1.517 2.453-.84 3.879-1.38 4.692-2.722.696-1.148.682-2.409.668-3.628-.022-1.938-.552-3.835-1.575-5.64a1.5 1.5 0 0 1 2.61-1.478c1.275 2.25 1.936 4.632 1.965 7.081.016 1.411.038 3.34-1.103 5.221-1.416 2.336-3.671 3.108-6.283 4.004-2.203.755-5.478 1.301-10.011 1.668a83.46 83.46 0 0 1-5.857.271h-.017z"/>
        <path d="M132.055 112.922h.01-.01zm-4.902 2.521c-1.668 0-3.07-.416-4.197-1.249-2.138-1.579-2.324-3.91-2.539-6.612-.16-2.025-.362-4.546-1.355-7.68-.633-2-1.812-5.723-4.617-8.725-1.68-1.8-3.848-2.886-6.103-3.058a6.633 6.633 0 0 0-.76-.02c-.82-.015-1.514-.639-1.533-1.467a1.5 1.5 0 0 1 1.466-1.534c.354-.005.708.003 1.058.03 3.004.23 5.87 1.65 8.065 4 3.267 3.498 4.63 7.8 5.285 9.867 1.096 3.461 1.312 6.172 1.485 8.35.202 2.545.334 3.701 1.331 4.437 1.288.953 3.586.878 6.647-.214.456-.327 2.746-2.243 2.038-7.264a1.5 1.5 0 0 1 2.97-.42c1.07 7.582-3.404 10.231-3.595 10.341a1.54 1.54 0 0 1-.23.106c-2.034.741-3.843 1.112-5.416 1.112z"/>
        <path d="M123.642 101.171c-1.987 0-3.28-.223-3.415-.246a1.5 1.5 0 0 1 .53-2.953c.122.02 7.69 1.272 14.594-2.986a.506.506 0 0 0 .038-.025l.016-.015c.004-.006 0-.007.01-.009.258-.255 1.503-1.789.746-7.058a1.499 1.499 0 1 1 2.969-.428c1.103 7.668-1.501 9.697-2.241 10.112-4.911 3.015-10.003 3.608-13.247 3.608z"/>
        <path d="M125.382 108.512c-2.09 0-3.625-.241-3.779-.267a1.499 1.499 0 0 1-1.237-1.721 1.502 1.502 0 0 1 1.721-1.24c.081.014 8.13 1.268 11.778-2.267.094-.091.2-.169.313-.233-.009 0 1.767-1.318.508-6.142a1.5 1.5 0 0 1 2.904-.758c1.676 6.431-.916 8.814-1.746 9.391-2.868 2.685-7.3 3.237-10.462 3.237m4.615 11.68a1.501 1.501 0 0 1-.571-2.888c.212-.095 1.841-.945 1.163-4.063a1.5 1.5 0 0 1 2.932-.637c1.002 4.612-1.511 6.913-2.98 7.485a1.47 1.47 0 0 1-.544.103m6.525 49.153a1.5 1.5 0 0 1-.779-2.783c3.727-2.257 6.501-7.863 6.315-12.76-.11-2.914-1.278-6.912-6.215-9.414-10.599-5.371-23.722 4.68-23.853 4.781a1.5 1.5 0 0 1-.92.317H88.351c-.332 0-.657-.112-.92-.316-.132-.101-13.282-10.137-23.854-4.782-4.937 2.502-6.105 6.5-6.216 9.415-.185 4.897 2.59 10.502 6.315 12.759a1.5 1.5 0 1 1-1.554 2.566c-4.65-2.817-7.985-9.454-7.758-15.439.2-5.257 2.99-9.511 7.857-11.977 11.253-5.702 24.106 2.938 26.63 4.774h21.718c2.523-1.836 15.375-10.475 26.63-4.774 4.866 2.466 7.657 6.72 7.856 11.977.227 5.985-3.109 12.622-7.758 15.439a1.495 1.495 0 0 1-.776.217"/>
        <path d="M72.41 168.383a1.5 1.5 0 0 1-1.406-.979 9.084 9.084 0 0 1-.571-3.317 9.19 9.19 0 0 1 1.078-4.152 7.997 7.997 0 0 1 1.86-2.32c1.732-1.485 4.054-2.107 6.367-1.7a8.536 8.536 0 0 1 5.895 4.15l1.585 2.788a1.5 1.5 0 0 1-2.61 1.482l-1.583-2.79a5.51 5.51 0 0 0-3.803-2.676c-1.45-.249-2.834.112-3.9 1.024a4.968 4.968 0 0 0-1.162 1.451 6.087 6.087 0 0 0-.344 5.018 1.5 1.5 0 0 1-1.406 2.021m54.78-.005a1.5 1.5 0 0 1-1.407-2.02 6.106 6.106 0 0 0-.344-5.015c-.686-1.29-1.9-2.214-3.415-2.6-1.95-.498-4.157.444-5.373 2.286l-2.498 3.79a1.498 1.498 0 1 1-2.504-1.65l2.497-3.79c1.938-2.94 5.403-4.365 8.62-3.543 2.343.598 4.233 2.053 5.322 4.098a9.195 9.195 0 0 1 1.078 4.154 9.1 9.1 0 0 1-.568 3.31 1.5 1.5 0 0 1-1.407.98"/>
        <path d="M92.281 161.266h-8.679a1.5 1.5 0 0 1 0-3h8.68a1.5 1.5 0 1 1 0 3m23.43 0h-8.677a1.5 1.5 0 0 1 0-3h8.677a1.5 1.5 0 1 1 0 3M67.106 50.61a6.792 6.792 0 0 1-5.344-2.565c-1.258-1.592-2.598-2.706-3.877-3.224a1.5 1.5 0 0 1 1.125-2.781c1.786.722 3.503 2.117 5.106 4.144.874 1.105 2.307 1.626 3.74 1.357l4.887-.916a1.5 1.5 0 1 1 .552 2.949l-4.887.916a7.114 7.114 0 0 1-1.302.12m66.054 0c-.43 0-.867-.04-1.302-.12l-4.887-.916a1.5 1.5 0 0 1 .553-2.95l4.887.917c1.431.267 2.865-.252 3.74-1.358 1.601-2.026 3.32-3.421 5.105-4.143a1.5 1.5 0 0 1 1.125 2.78c-1.279.519-2.62 1.633-3.876 3.224a6.794 6.794 0 0 1-5.345 2.567M99.966 58.73c-3.68 0-5.354-2.43-5.729-3.738a1.501 1.501 0 0 1 2.878-.85c.096.286.69 1.676 2.98 1.587.837.008 1.515.637 1.534 1.465a1.5 1.5 0 0 1-1.464 1.535l-.199.002"/>
        <path d="M100.293 58.73l-.199-.001a1.5 1.5 0 0 1-1.464-1.535c.02-.828.684-1.463 1.535-1.465 2.33.062 2.89-1.314 2.981-1.59a1.518 1.518 0 0 1 1.871-.976 1.487 1.487 0 0 1 1.005 1.829c-.375 1.308-2.05 3.739-5.729 3.739m-1.116 10.091c-2.156 0-3.535-.854-4.312-1.585a1.499 1.499 0 1 1 2.053-2.187c.571.536 1.382.814 2.421.77h1.545c1.062.023 1.87-.227 2.43-.75a1.499 1.499 0 1 1 2.045 2.196c-.794.74-2.205 1.603-4.512 1.554h-1.472c-.067.002-.133.002-.198.002m.009 10.091c-1.584 0-2.997-.467-4.065-1.357a1.5 1.5 0 0 1 1.92-2.305c.553.461 1.332.677 2.3.66h1.543c.992.013 1.752-.19 2.299-.638a1.5 1.5 0 0 1 1.898 2.323c-.767.628-2.13 1.34-4.233 1.315h-1.474l-.188.002m-.022 10.093c-1.446 0-2.725-.387-3.772-1.15a1.5 1.5 0 1 1 1.767-2.424c.551.402 1.279.61 2.178.571h1.547c.918.022 1.642-.16 2.172-.539a1.5 1.5 0 0 1 1.742 2.441c-1.069.764-2.4 1.124-3.948 1.098h-1.475c-.07.002-.141.003-.211.003m.014 10.092c-1.345 0-2.543-.328-3.536-.98a1.5 1.5 0 0 1 1.645-2.508c.522.342 1.207.504 2.053.486h1.544c.844.012 1.525-.135 2.045-.46a1.5 1.5 0 0 1 1.587 2.548c-1.026.638-2.26.935-3.668.912h-1.473c-.066.002-.132.002-.197.002m.012 10.092c-1.236 0-2.351-.274-3.285-.818a1.5 1.5 0 1 1 1.508-2.594c.497.289 1.138.427 1.93.41h1.54c.785.018 1.419-.112 1.915-.384a1.5 1.5 0 1 1 1.44 2.633c-.964.527-2.104.773-3.388.75h-1.475a5.645 5.645 0 0 1-.184.003"/>
    </g>
</svg>
