<svg xmlns="http://www.w3.org/2000/svg" width="361" height="141" viewBox="0 0 361 141">
    <g fill="#fff">
        <path d="M330.414 137.354c-.894-.111-1.323-.778-1.536-1.704a36.356 36.356 0 0 0-.302-.337l-.282-.313-.28.313c-.087.096-.19.21-.301.338-.132.579-.366 1.053-.73 1.358H33.042c-.379-.302-.62-.767-.756-1.36l-.3-.336-.283-.313-.28.313c-.087.096-.19.21-.302.338-.21.925-.64 1.639-1.536 1.703-.116.125-.219.238-.305.334l-.281.313.28.311.305.336c.77.31 1.242.833 1.54 1.69.112.133.212.255.299.35l.28.312.282-.311c.087-.096.187-.218.297-.35.21-.564.491-1.025.91-1.348h293.586c.425.314.727.744.936 1.347.112.133.212.255.299.35l.28.312s.11-.119.282-.311c.087-.096.187-.218.299-.35.302-.811.73-1.429 1.539-1.691.116-.125.217-.24.305-.336.172-.192.281-.311.281-.311s-.109-.12-.28-.313c-.089-.096-.19-.209-.306-.334M29.586 80.647c.769.31 1.24.833 1.54 1.69.11.133.21.256.298.352l.282.311.28-.311c.087-.096.187-.217.299-.35.21-.564.49-1.025.909-1.347H326.78c.424.314.726.743.937 1.346.111.132.212.255.297.35.173.193.282.312.282.312l.282-.311c.085-.096.185-.217.297-.35.302-.812.732-1.43 1.54-1.692.116-.125.218-.24.304-.334L331 80s-.109-.119-.28-.311c-.087-.096-.189-.21-.305-.336-.895-.11-1.323-.777-1.537-1.703l-.3-.339-.282-.311-.282.311c-.085.096-.189.21-.3.34-.132.579-.367 1.052-.73 1.357H33.043c-.377-.302-.62-.767-.756-1.358a24.424 24.424 0 0 0-.3-.339L31.705 77l-.282.311c-.087.096-.189.21-.302.34-.21.925-.638 1.64-1.536 1.702l-.304.336L29 80l.282.313c.087.094.19.209.304.334m108.064 28.706c-.128.125-.243.238-.339.334L137 110l.311.311c.096.096.21.21.339.336.853.31 1.376.833 1.707 1.69.124.133.235.256.331.352l.313.311.311-.311c.096-.096.207-.219.331-.35.334-.812.81-1.43 1.707-1.692.128-.125.241-.24.337-.336L143 110l-.313-.313a38.732 38.732 0 0 0-.337-.334c-.991-.111-1.467-.777-1.704-1.703a40.312 40.312 0 0 0-.334-.339l-.311-.311-.313.311c-.096.096-.21.21-.334.34-.233.925-.71 1.638-1.704 1.702m161 0l-.339.334L298 110l.311.311c.098.096.21.21.339.336.853.31 1.374.833 1.707 1.69.124.133.233.256.331.352l.311.311.313-.311c.096-.096.207-.219.331-.35.336-.812.81-1.43 1.707-1.692l.339-.336c.19-.192.311-.311.311-.311l-.311-.313-.339-.334c-.991-.111-1.467-.777-1.704-1.703-.123-.128-.238-.243-.334-.339l-.313-.311-.311.311c-.098.096-.21.21-.334.34-.233.925-.71 1.638-1.704 1.702M23 98.748V98h-6.363v.748l2.892.646-6.6 12.034-6.43-12.034 2.178-.646V98H0v.748l2.178.646 8.607 15.842c-2.04 3.774-3.368 5.439-4.49 5.439-.17 0-.272-.034-.375-.069v-1.392c0-1.19-.749-1.973-1.973-1.973-1.19 0-2.041.714-2.041 2.109 0 1.801 1.632 2.65 3.436 2.65 1.293 0 2.381-.51 3.266-1.529.918-1.02 2.177-2.991 3.811-5.95l8.334-15.127L23 98.748zm14.535.342v21.207l-2.235.784v.749H44v-.715l-2.237-.715V99.26L44 98.645V98H25.399v.646l2.235.58-1.927 17.43c-.274 2.758-.996 3.677-1.478 3.677a.698.698 0 0 1-.31-.07v-.918c0-1.226-.756-1.94-1.96-1.94-1.202 0-1.959.783-1.959 2.041 0 1.738 1.444 2.554 3.094 2.554 2.235 0 3.577-1.838 3.955-5.48l1.891-17.43h8.595zm18.004 10.636h3.618c3.304 0 5.392 1.886 5.392 5.588 0 3.704-2.088 5.623-5.392 5.623H55.54v-11.211zM49 121.349V122h10.853c2.748 0 4.939-.582 6.608-1.783 1.705-1.199 2.539-2.846 2.539-4.903 0-2.057-.834-3.668-2.539-4.868-1.67-1.2-3.86-1.817-6.608-1.817H55.54v-9.155l2.261-.72V98H49v.754l2.261.686v9.189H49v1.097h2.261V120.8l-2.261.55zm36.56-11.723h-3.752c-2.925 0-4.854-1.767-4.854-5.27 0-3.5 1.929-5.268 4.854-5.268h3.753v10.538zM92 98.645V98H81.223c-2.615 0-4.717.578-6.3 1.7-1.585 1.122-2.376 2.617-2.376 4.556 0 3.161 2.308 5.404 6.163 6.084-1.79.51-2.96 1.801-3.546 3.808l-1.103 3.4c-.686 2.31-1.17 3.058-2.167 3.058-.552 0-1.069-.204-1.515-.577l-.379.373c.965 1.054 2.204 1.598 3.753 1.598 2.444 0 3.614-1.223 4.44-4.08l1.034-3.466c.723-2.617 1.996-3.74 4.716-3.74h1.618v9.552l-2.375.783v.747H92v-.714l-2.238-.713v-9.563H92v-1.088h-2.238v-10.46L92 98.645zm32 .109V98h-9.127v.754l2.354.686v9.84h-12.42v-9.806l2.353-.72V98H98v.754l2.353.686v9.842H98v1.085h2.353v10.09l-2.353.789V122h9.16v-.72l-2.353-.72v-10.182h12.42v10.079l-2.354.789V122H124v-.72l-2.354-.72v-10.193H124v-1.085h-2.354v-9.808z"/>
        <path d="M147.392 109.034c0 7.18-2.906 11.023-7.409 11.023s-7.373-3.877-7.373-11.023c0-7.18 2.87-11.09 7.373-11.09s7.409 3.91 7.409 11.09m-16.095-8.764c-2.198 2.157-3.297 5.056-3.297 8.73 0 3.675 1.099 6.573 3.297 8.765 2.198 2.157 5.105 3.235 8.686 3.235 3.58 0 6.487-1.078 8.685-3.235C150.9 115.573 152 112.675 152 109c0-3.675-1.099-6.574-3.332-8.73-2.198-2.193-5.105-3.271-8.685-3.271-3.581 0-6.453 1.078-8.686 3.27m31.339 9.971h4.059c3.564 0 5.823 1.816 5.823 5.349 0 3.53-2.26 5.348-5.823 5.348h-4.059v-10.696zm0-11.142h4.059c2.93 0 4.834 1.714 4.834 5.04 0 3.325-1.905 5.04-4.834 5.04h-4.059v-10.08zM156 121.348V122h11.366c2.893 0 5.222-.548 6.986-1.68 1.765-1.132 2.648-2.675 2.648-4.629 0-3.119-2.435-5.28-6.352-5.999 3.353-.789 5.364-2.811 5.364-5.657 0-1.852-.81-3.326-2.4-4.388-1.588-1.097-3.67-1.647-6.246-1.647H156v.652l2.293.584v10.04H156v1.097h2.293V120.8l-2.293.548zm38.655-23.168c1.344 0 2.517.236 3.93.91 1.485.64 2.725 2.056 3.31 4.08h1.001l-.276-4.788-.412-.404-1.483.775c-1.863-1.18-4.139-1.753-6.828-1.753-3.586 0-6.482 1.078-8.655 3.27-2.173 2.157-3.242 5.09-3.242 8.797 0 3.674 1.069 6.573 3.208 8.73 2.172 2.125 5.069 3.203 8.724 3.203 3.689 0 6.723-1.18 9.068-3.505l-.62-.641c-1.794 1.786-4.139 2.662-7.07 2.662-5.966 0-8.826-4.08-8.826-10.651 0-7.044 2.93-10.685 8.171-10.685m21.653 10.955c3.055 0 4.566 1.079 5.218 3.741l.926 3.776c.721 3.068 2.06 4.348 4.67 4.348 1.544 0 2.848-.54 3.878-1.584l-.376-.372c-.515.372-1.03.573-1.58.573-1.237 0-1.854-.909-2.437-3.302l-.927-3.674c-.72-3.001-2.713-4.214-7.107-4.384 1.202-.673 2.06-1.886 2.575-3.639l.79-2.797c.618-2.225 1.44-3.337 2.505-3.337.173 0 .345.033.447.134v1.011c0 1.248.79 2.023 2.026 2.023 1.27 0 1.991-.843 1.991-2.09 0-1.652-1.34-2.562-3.262-2.562-2.574 0-3.88 1.55-4.704 4.415l-.857 2.933c-.79 2.529-2.3 3.81-5.63 3.81v-9.506l2.231-.709v-.741H208v.741l2.23.675v9.53H208v.956h2.23v10.177l-2.23.776v.74h8.685v-.707l-2.23-.709v-10.246h1.853zm22.81 8.105c-1.243 0-2.13.715-2.13 2.108 0 1.802 1.704 2.652 3.586 2.652 1.348 0 2.486-.51 3.409-1.529.958-1.02 2.271-2.991 3.975-5.95l8.7-15.127 2.342-.646V98h-6.64v.748l3.02.646-6.889 12.034-6.71-12.034 2.274-.646V98H235v.748l2.272.646 8.982 15.842c-2.129 3.774-3.514 5.439-4.685 5.439-.18 0-.285-.034-.392-.069v-1.392c0-1.19-.78-1.973-2.06-1.973m33.847-6.452h-2.367v.582l.538.48h2.367c2.831 0 5.125-.616 6.882-1.852 1.755-1.234 2.616-2.913 2.616-5.04 0-2.125-.86-3.806-2.616-5.073-1.757-1.27-4.05-1.886-6.882-1.886H263v.65l2.33.584v21.223l-2.33.789V122h10.287v-.72l-3.55-.788V99.097h3.227c3.334 0 5.483 2.024 5.483 5.863 0 3.84-2.15 5.829-5.483 5.829m35.427-1.755c0 7.18-2.907 11.023-7.41 11.023s-7.374-3.877-7.374-11.023c0-7.18 2.87-11.09 7.374-11.09 4.503 0 7.41 3.91 7.41 11.09m-16.095-8.764c-2.198 2.157-3.296 5.056-3.296 8.73 0 3.675 1.098 6.573 3.296 8.765 2.2 2.157 5.104 3.235 8.685 3.235 3.58 0 6.489-1.078 8.687-3.235C311.9 115.573 313 112.675 313 109c0-3.675-1.099-6.574-3.332-8.73-2.198-2.193-5.108-3.27-8.688-3.27-3.581 0-6.452 1.078-8.685 3.27m40.089-.384c-1.756-1.27-4.05-1.886-6.882-1.886H315v.65l2.33.584v21.223l-2.33.789V122h10.287v-.72l-3.548-.788V99.097h3.225c3.334 0 5.485 2.024 5.485 5.863 0 3.84-2.151 5.829-5.485 5.829H322.6v.582l.537.48h2.366c2.831 0 5.126-.616 6.882-1.85 1.755-1.236 2.616-2.914 2.616-5.041 0-2.125-.86-3.805-2.616-5.074M360.795 98h-20.59l-.205 4.594h.993l1.542-3.497h5.893v21.36l-2.226.79V122h8.668v-.72l-2.228-.72V99.097h5.825l1.574 3.43H361zM135.813 28.314l-.76.318V29H138v-.356l-.76-.278v-8.139l-.15-.227-2.09.57v.432h.813zm5.657-7.896c.64 0 .965 1.292.965 3.86-.201.43-.497.646-.879.646-.638 0-1.02-.76-1.02-2.165 0-1.468.363-2.34.935-2.34m-.23 5.05c.468 0 .86-.152 1.175-.444-.106 2.114-.983 3.266-2.892 3.684l.22.291c2.834-.19 4.256-1.836 4.256-4.936 0-2.494-.916-4.064-2.596-4.064-.706 0-1.289.254-1.737.76-.449.494-.667 1.177-.667 2.025 0 .81.2 1.455.61 1.949s.954.735 1.632.735m78.63-1.471l.378.19c.557.29.935.542 1.134.77.208.227.312.568.312 1.035 0 1.022-.472 1.564-1.23 1.564-.745 0-1.123-.567-1.123-1.716 0-.732.179-1.35.529-1.843m.614-4.569c.614 0 .926.53.926 1.603 0 .643-.131 1.187-.407 1.641l-.15-.088c-.502-.265-.843-.505-1.04-.732-.198-.24-.293-.581-.293-1.022 0-.846.36-1.402.964-1.402M218 25.942c0 1.3.756 2.058 2.353 2.058 1.767 0 2.647-.872 2.647-2.626 0-.618-.114-1.097-.34-1.439-.226-.34-.586-.668-1.087-.959.748-.467 1.115-1.149 1.115-2.02 0-1.199-.68-1.956-2.079-1.956-.831 0-1.428.227-1.796.694-.369.467-.549 1.06-.549 1.805 0 1.149.398 1.754 1.144 2.22-.879.495-1.408 1.113-1.408 2.223m5.734-.72c-.422 0-.734.366-.734.985 0 .795.577 1.376 1.272 1.615.352.115.733.178 1.136.178.772 0 1.398-.215 1.88-.656.478-.443.712-1.036.712-1.768 0-1.149-.626-1.97-1.713-2.272.903-.29 1.46-.996 1.46-2.044 0-.694-.215-1.238-.637-1.643-.422-.415-.999-.617-1.713-.617-.615 0-1.155.15-1.635.467-.479.302-.714.745-.714 1.326 0 .617.313.983.734.983.43 0 .744-.403.744-1.01v-1.022a.88.88 0 0 1 .626-.24c.588 0 .99.581.99 1.793 0 1.274-.46 1.78-1.35 1.78h-.413v.492h.45c1.049 0 1.567.657 1.567 1.957 0 1.325-.51 1.968-1.244 1.968-.263 0-.498-.075-.685-.24v-1.021c0-.607-.304-1.01-.733-1.01m-48.659.822c2.696-7.785 2.85-22.11 2.85-22.713 0-1.262.87-2.467 2.613-2.45 1.744.018 2.387 1.462 2.387 2.409v15.875c-.002 1.591-3.645 1.663-3.645 1.663l-.255 1.43s3.896.073 3.898 1.662v12.628c0 4.4-3.137 5.914-3.137 5.914s-.285 1.482-.324 1.657c8.558-4.977 13.617-6.244 13.617-6.244l-.42-1.102s-3.57 1.005-3.57-1.584V22.26c6.276.677 11.168 11.578 13.447 17.538.347.91.715 1.86 1.03 2.775a52.853 52.853 0 0 0-10.291 2.672c-3.418 1.257-7.445 3.58-10.542 6.65-2.625-2.269-6.3-4.275-11.11-6.243a50.97 50.97 0 0 0-6.592-2.192c5.638-5.642 8.197-12.083 10.044-17.415M185.75 61.47c0 2.946-.967 5.21-2.873 5.21-1.906 0-3.068-2.594-3.068-5.272 0-2.039.672-4.914 2.974-7.78 1.992 2.459 2.967 5.447 2.967 7.842m35.332-12.786c.228 1.662-1.314 3.467-4.29 2.733-3.671-.905-5.977-5.085-6.52-6.5 6.484.057 10.469 1.278 10.81 3.767m-65.734-1.352c-4.676 4.112-12.585 6.15-12.585 2.165 0-3.73 8.824-4.869 15.054-4.528a43.718 43.718 0 0 1-2.47 2.363m-3.582-44.187c4.724 0 1.686 12.021 6.037 20.67 1.926 3.83 4.833 6.547 9.643 7.53-1.519 3.925-4.582 7.849-7.367 11.131-5.054-.695-8.993-.299-11.654.094-4.433.658-8.198 3.454-7.287 6.817.91 3.365 6.438 5.42 16.58-.31a33.244 33.244 0 0 0 5.045-3.523c5.094.879 11.985 2.722 16.476 5.361a13.846 13.846 0 0 1 2.583 1.93c-2.516 2.77-4.336 6.158-4.336 9.422 0 7.412 4.749 7.732 5.477 7.732.73 0 5.093-.293 5.093-7.642 0-3.64-1.712-6.93-4.318-9.535a19.48 19.48 0 0 1 1.915-1.691c4.333-3.364 12.392-5.877 19.082-5.973 2.437 4.866 6.16 7.686 11.658 7.686 3.53 0 5.943-1.79 5.57-4.522-.322-2.361-2.542-3.784-5.782-4.945-2.148-.77-4.962-1.216-6.684-1.227-.831-3.05-3.504-10.061-6.427-14.362-2.36-3.473-6.593-5.68-9.456-6.647 2.97-.51 5.21-1.4 7.63-3.986 4.935-5.274 1.707-14.367 6.43-14.367 2.395 0 3.225 2.698 3.225 2.698h.012l.286-1.281c-.57-1.16-1.734-2.688-3.913-2.688-5.214 0-5.836 4.182-8.365 10.545-2.082 5.245-6.636 7.472-9.83 7.857V4.834c0-3.125 3.52-2.72 3.52-2.72l.289-.91S190.136 0 180.575 0c-9.56 0-12.87 1.204-12.87 1.204l.237.868s3.71-.52 3.71 2.783c0 4.955.25 15.675-3.136 24.55-2.664 0-6.738-3.526-8.047-12.304-1.56-10.461-3.082-15.583-8.295-15.583-2.043 0-3.515 1.507-4.357 2.69l.35 1.215c.345-.56 1.574-2.277 3.598-2.277"/>
    </g>
</svg>
