<svg xmlns="http://www.w3.org/2000/svg" width="59" height="50" viewBox="0 0 59 50">
    <path fill="#483711" fill-rule="evenodd" d="M55.206 36.728c-2.674-.646-4.354-3.633-4.748-4.643 4.723.04 7.625.912 7.874 2.69.166 1.188-.958 2.476-3.126 1.953m-17.13-4.41c-2.49.898-5.422 2.557-7.678 4.75-1.911-1.62-4.587-3.053-8.092-4.46a37.423 37.423 0 0 0-4.802-1.564c4.107-4.032 5.971-8.632 7.316-12.44 1.964-5.56 2.076-15.792 2.076-16.223 0-.902.633-1.763 1.904-1.75 1.27.011 1.738 1.044 1.738 1.72v11.34c-.002 1.136-2.655 1.187-2.655 1.187l-.186 1.022s2.835.052 2.84 1.185v9.022c0 3.142-2.286 4.224-2.286 4.224s-.207 1.059-.235 1.183c6.233-3.554 9.919-4.46 9.919-4.46l-.307-.786s-2.6.717-2.6-1.132V15.9c4.571.483 8.134 8.27 9.794 12.527.253.65.522 1.329.751 1.983a39.11 39.11 0 0 0-7.497 1.908m-5.48 11.59c0 2.105-.705 3.722-2.093 3.722s-2.234-1.853-2.234-3.766c0-1.457.489-3.51 2.166-5.557 1.45 1.756 2.16 3.89 2.16 5.602M10.451 33.81c-3.406 2.936-9.167 4.393-9.167 1.546 0-2.664 6.427-3.478 10.966-3.235a31.424 31.424 0 0 1-1.799 1.689m48.521.707c-.234-1.687-1.852-2.703-4.211-3.532-1.565-.55-3.615-.87-4.869-.877-.605-2.178-2.552-7.186-4.682-10.259-1.718-2.48-4.802-4.056-6.887-4.748 2.163-.364 3.795-.999 5.558-2.847 3.595-3.767 1.243-10.262 4.683-10.262 1.745 0 2.35 1.927 2.35 1.927h.008l.208-.915c-.415-.828-1.263-1.92-2.85-1.92-3.797 0-4.25 2.988-6.092 7.533-1.517 3.746-4.834 5.337-7.16 5.612V3.453c0-2.232 2.563-1.944 2.563-1.944l.21-.65S35.79 0 28.826 0c-6.964 0-9.374.86-9.374.86l.172.62s2.704-.371 2.704 1.988c0 3.54.18 11.197-2.286 17.536-1.94 0-4.908-2.518-5.861-8.789-1.136-7.472-2.245-11.13-6.042-11.13-1.488 0-2.56 1.076-3.174 1.92l.255.869c.252-.4 1.147-1.627 2.622-1.627 3.44 0 1.227 8.587 4.396 14.765 1.404 2.736 3.52 4.676 7.025 5.378-1.107 2.804-3.338 5.607-5.367 7.952-3.68-.498-6.55-.215-8.488.067-3.229.469-5.972 2.467-5.308 4.87.663 2.401 4.689 3.87 12.076-.223a24.155 24.155 0 0 0 3.675-2.517c3.71.628 8.731 1.945 12.001 3.83a10.02 10.02 0 0 1 1.881 1.378c-1.832 1.978-3.158 4.399-3.158 6.731 0 5.294 3.46 5.522 3.99 5.522.532 0 3.71-.209 3.71-5.458 0-2.6-1.248-4.95-3.145-6.81.399-.399.857-.799 1.395-1.208 3.156-2.404 9.025-4.199 13.899-4.267 1.774 3.475 4.487 5.49 8.49 5.49 2.572 0 4.33-1.278 4.058-3.23"/>
</svg>
