<svg xmlns="http://www.w3.org/2000/svg" width="100" height="140" viewBox="0 0 100 140">
    <g fill="none" fill-rule="evenodd">
        <path fill="#E8DDCF" d="M66.93 2.928A10.008 10.008 0 0 0 59.858 0H12C5.374 0 0 5.374 0 12v116c0 6.626 5.374 12 12 12h76c6.628 0 12-5.374 12-12V40.142a9.985 9.985 0 0 0-2.93-7.07L66.93 2.928zM66 7.656L92.344 34H74c-4.412 0-8-3.588-8-8V7.656zM96 128a8 8 0 0 1-8 8H12a8 8 0 0 1-8-8V12a8 8 0 0 1 8-8h48a2 2 0 0 1 2 2v20c0 6.626 5.374 12 12 12h20a2 2 0 0 1 2 2v88z"/>
        <path fill="#483711" d="M33.596 71.968h-2.16v14.976l2.376.552V88h-6.888v-.528l1.56-.552V72.064l-1.56-.408V71.2h7.032c1.896 0 3.432.432 4.608 1.32 1.176.888 1.752 2.064 1.752 3.552s-.576 2.664-1.752 3.528c-1.176.864-2.712 1.296-4.608 1.296h-1.584l-.36-.336v-.408h1.584c2.232 0 3.672-1.392 3.672-4.08s-1.44-4.104-3.672-4.104zm8.472-.312V71.2h7.68c2.472 0 4.44.744 5.952 2.256 1.512 1.512 2.28 3.552 2.28 6.144 0 2.616-.744 4.656-2.256 6.168C54.212 87.256 52.22 88 49.748 88h-7.68v-.456l1.56-.384V72.064l-1.56-.408zm7.68.312H46.58v15.288h3.168c3.144 0 5.136-2.616 5.136-7.632s-1.992-7.656-5.136-7.656zm19.992 9.624l-.504-1.824h-4.968v7.176l2.28.552V88h-6.792v-.528l1.56-.552V72.064l-1.56-.408V71.2H72.38l.144 3.168h-.696l-1.08-2.4h-6.48V79h4.968l.504-1.824h.624v4.416h-.624z"/>
    </g>
</svg>
