<svg xmlns="http://www.w3.org/2000/svg" width="228" height="7" viewBox="0 0 228 7">
    <path d="M106.16 4.313c-.15 0-.3-.03-.44-.091a1.162 1.162 0 0 1-.38-.25 1.34 1.34 0 0 1-.25-.38c-.06-.13-.09-.28-.09-.44 0-.3.13-.6.34-.81.059-.05.11-.1.179-.14.061-.04.13-.08.201-.11.07-.03.14-.05.21-.07a1.136 1.136 0 0 1 1.04.32c.06.05.1.11.15.17a1.573 1.573 0 0 1 .17.42c.01.07.019.15.019.22 0 .16-.029.31-.089.44-.05.14-.14.27-.25.38a1.146 1.146 0 0 1-.81.34M0 3.15C0 2.52.52 2 1.15 2A1.15 1.15 0 1 1 0 3.15m4.55 0C4.55 2.52 5.07 2 5.7 2a1.15 1.15 0 1 1-1.15 1.15m4.55 0a1.15 1.15 0 1 1 2.3 0 1.15 1.15 0 0 1-2.3 0m4.55 0a1.15 1.15 0 1 1 2.3 0 1.15 1.15 0 0 1-2.3 0m4.54 0c0-.63.52-1.15 1.16-1.15.63 0 1.15.52 1.15 1.15 0 .64-.52 1.149-1.15 1.149-.64 0-1.16-.509-1.16-1.149m4.55 0c0-.63.52-1.15 1.16-1.15.63 0 1.15.52 1.15 1.15 0 .64-.52 1.149-1.15 1.149-.64 0-1.16-.509-1.16-1.149m4.55 0c0-.63.52-1.15 1.16-1.15.63 0 1.15.52 1.15 1.15 0 .64-.52 1.149-1.15 1.149-.64 0-1.16-.509-1.16-1.149m4.55 0c0-.63.52-1.15 1.15-1.15.64 0 1.16.52 1.16 1.15 0 .64-.52 1.149-1.16 1.149a1.15 1.15 0 0 1-1.15-1.149m4.55 0c0-.63.52-1.15 1.15-1.15.64 0 1.16.52 1.16 1.15 0 .64-.52 1.149-1.16 1.149a1.15 1.15 0 0 1-1.15-1.149m4.55 0c0-.63.52-1.15 1.15-1.15.64 0 1.16.52 1.16 1.15 0 .64-.52 1.149-1.16 1.149a1.15 1.15 0 0 1-1.15-1.149m4.55 0c0-.63.52-1.15 1.15-1.15a1.15 1.15 0 1 1-1.15 1.15m4.55 0a1.15 1.15 0 1 1 2.3 0 1.15 1.15 0 0 1-2.3 0m4.55 0a1.15 1.15 0 1 1 2.3 0 1.15 1.15 0 0 1-2.3 0m4.55 0a1.15 1.15 0 1 1 2.3 0 1.15 1.15 0 0 1-2.3 0m4.54 0c0-.63.52-1.15 1.16-1.15.63 0 1.15.52 1.15 1.15 0 .64-.52 1.149-1.15 1.149-.64 0-1.16-.509-1.16-1.149m4.55 0c0-.63.52-1.15 1.16-1.15.63 0 1.15.52 1.15 1.15 0 .64-.52 1.149-1.15 1.149-.64 0-1.16-.509-1.16-1.149m4.55 0c0-.63.52-1.15 1.16-1.15.63 0 1.15.52 1.15 1.15 0 .64-.52 1.149-1.15 1.149-.64 0-1.16-.509-1.16-1.149m4.55 0c0-.63.52-1.15 1.15-1.15.64 0 1.16.52 1.16 1.15 0 .64-.52 1.149-1.16 1.149a1.15 1.15 0 0 1-1.15-1.149m4.55 0c0-.63.52-1.15 1.15-1.15.64 0 1.16.52 1.16 1.15 0 .64-.52 1.149-1.16 1.149a1.15 1.15 0 0 1-1.15-1.149m4.55 0c0-.63.51-1.15 1.15-1.15.64 0 1.16.52 1.16 1.15 0 .64-.52 1.149-1.16 1.149-.64 0-1.15-.509-1.15-1.149m4.55 0a1.15 1.15 0 1 1 2.3 0 1.15 1.15 0 0 1-2.3 0m4.55 0a1.15 1.15 0 1 1 2.3 0 1.15 1.15 0 0 1-2.3 0m4.55 0a1.15 1.15 0 1 1 2.3 0 1.15 1.15 0 0 1-2.3 0m24.92.009c0-.64.52-1.159 1.149-1.159a1.16 1.16 0 0 1 1.161 1.159 1.156 1.156 0 0 1-2.31 0m4.55 0c0-.64.519-1.159 1.149-1.159.641 0 1.16.519 1.16 1.159a1.155 1.155 0 0 1-2.309 0m4.55 0c0-.64.519-1.159 1.15-1.159.64 0 1.159.519 1.159 1.159a1.155 1.155 0 0 1-2.309 0m4.549 0c0-.64.521-1.159 1.151-1.159.639 0 1.149.519 1.149 1.159a1.15 1.15 0 1 1-2.3 0m4.55 0c0-.64.511-1.159 1.151-1.159.639 0 1.15.519 1.15 1.159a1.15 1.15 0 0 1-2.301 0m4.551 0c0-.64.51-1.159 1.149-1.159.641 0 1.151.519 1.151 1.159a1.15 1.15 0 1 1-2.3 0m4.55 0c0-.64.51-1.159 1.149-1.159.641 0 1.151.519 1.151 1.159a1.15 1.15 0 1 1-2.3 0m4.55 0c0-.64.509-1.159 1.15-1.159a1.155 1.155 0 0 1 0 2.309c-.641 0-1.15-.519-1.15-1.15m4.54 0c0-.64.519-1.159 1.15-1.159.64 0 1.159.519 1.159 1.159a1.155 1.155 0 0 1-2.309 0m4.549 0c0-.64.521-1.159 1.151-1.159.639 0 1.16.519 1.16 1.159 0 .631-.521 1.15-1.16 1.15-.63 0-1.151-.519-1.151-1.15m4.55 0c0-.64.521-1.159 1.151-1.159.639 0 1.16.519 1.16 1.159 0 .631-.521 1.15-1.16 1.15-.63 0-1.151-.519-1.151-1.15m4.551 0c0-.64.52-1.159 1.149-1.159a1.16 1.16 0 0 1 1.161 1.159 1.156 1.156 0 0 1-2.31 0m4.55 0c0-.64.519-1.159 1.149-1.159.641 0 1.16.519 1.16 1.159a1.155 1.155 0 0 1-2.309 0m4.55 0c0-.64.519-1.159 1.15-1.159.64 0 1.149.519 1.149 1.159a1.149 1.149 0 1 1-2.299 0m4.549 0c0-.64.51-1.159 1.151-1.159.639 0 1.149.519 1.149 1.159a1.15 1.15 0 1 1-2.3 0m4.55 0c0-.64.511-1.159 1.151-1.159.639 0 1.15.519 1.15 1.159a1.15 1.15 0 0 1-2.301 0m4.54 0c0-.64.521-1.159 1.16-1.159.63 0 1.151.519 1.151 1.159 0 .631-.521 1.15-1.151 1.15-.639 0-1.16-.519-1.16-1.15m4.551 0c0-.64.52-1.159 1.159-1.159.63 0 1.151.519 1.151 1.159 0 .631-.521 1.15-1.151 1.15a1.158 1.158 0 0 1-1.159-1.15m4.55 0c0-.64.519-1.159 1.149-1.159.641 0 1.16.519 1.16 1.159a1.155 1.155 0 0 1-2.309 0m4.55 0c0-.64.519-1.159 1.15-1.159.64 0 1.159.519 1.159 1.159a1.155 1.155 0 0 1-2.309 0m4.549 0c0-.64.521-1.159 1.151-1.159.64 0 1.16.519 1.16 1.159 0 .631-.52 1.15-1.16 1.15-.63 0-1.151-.519-1.151-1.15m4.55 0c0-.64.521-1.159 1.151-1.159.639 0 1.15.519 1.15 1.159a1.15 1.15 0 0 1-2.301 0m4.551 0c0-.64.52-1.159 1.149-1.159.64 0 1.161.519 1.161 1.159a1.156 1.156 0 0 1-2.31 0M121.16 4.303c-.31 0-.6-.12-.819-.34a1.14 1.14 0 0 1-.341-.81c0-.31.131-.6.341-.82.269-.26.67-.39 1.04-.31.079.01.149.03.219.06s.14.07.201.11a1.136 1.136 0 0 1 .509.96c0 .31-.12.59-.339.81-.221.22-.5.34-.811.34m-10.471 2.324a.689.689 0 0 1-.689-.688c0-.181.007-.394.016-.627a.728.728 0 0 1 .055-.242c.513-1.221.514-2.313-.009-3.507a.683.683 0 0 1-.06-.274C110 1.066 110 .864 110 .69a.69.69 0 0 1 .689-.69c.151 0 .323 0 .511.002.148.001.29.058.408.147 1.075.82 2.265.605 3.43-.053a.7.7 0 0 1 .337-.093l.562-.003a.69.69 0 0 1 .689.69l-.001.563a.732.732 0 0 1-.092.335c-.653 1.167-.826 2.314-.046 3.427.085.12.137.261.138.41l.001.514a.689.689 0 0 1-.689.688l-.578-.001a.72.72 0 0 1-.311-.078c-1.188-.594-2.32-.456-3.497.014a.707.707 0 0 1-.232.049c-.234.009-.449.016-.63.016" fill="#766414" fill-rule="evenodd"/>
</svg>
