<svg xmlns="http://www.w3.org/2000/svg" width="109" height="7" viewBox="0 0 109 7">
    <path d="M61 3.159C61 2.519 61.519 2 62.149 2c.641 0 1.16.519 1.16 1.159a1.155 1.155 0 0 1-2.309 0m4.55 0c0-.64.519-1.159 1.15-1.159.64 0 1.149.519 1.149 1.159a1.149 1.149 0 1 1-2.299 0m4.549 0c0-.64.51-1.159 1.151-1.159.639 0 1.149.519 1.149 1.159a1.15 1.15 0 1 1-2.3 0m4.55 0c0-.64.511-1.159 1.151-1.159.639 0 1.15.519 1.15 1.159a1.15 1.15 0 0 1-2.301 0m4.54 0c0-.64.521-1.159 1.16-1.159.63 0 1.151.519 1.151 1.159 0 .631-.521 1.15-1.151 1.15-.639 0-1.16-.519-1.16-1.15m4.551 0c0-.64.52-1.159 1.159-1.159.63 0 1.151.519 1.151 1.159 0 .631-.521 1.15-1.151 1.15a1.158 1.158 0 0 1-1.159-1.15m4.55 0c0-.64.519-1.159 1.149-1.159.641 0 1.16.519 1.16 1.159a1.155 1.155 0 0 1-2.309 0m4.55 0c0-.64.519-1.159 1.15-1.159.64 0 1.159.519 1.159 1.159a1.155 1.155 0 0 1-2.309 0m4.549 0c0-.64.521-1.159 1.151-1.159.64 0 1.16.519 1.16 1.159 0 .631-.52 1.15-1.16 1.15-.63 0-1.151-.519-1.151-1.15m4.55 0c0-.64.521-1.159 1.151-1.159.639 0 1.15.519 1.15 1.159a1.15 1.15 0 0 1-2.301 0m4.551 0c0-.64.52-1.159 1.149-1.159.64 0 1.161.519 1.161 1.159a1.156 1.156 0 0 1-2.31 0M0 3.159C0 2.519.519 2 1.149 2c.641 0 1.16.519 1.16 1.159a1.155 1.155 0 0 1-2.309 0m4.55 0C4.55 2.519 5.069 2 5.7 2c.64 0 1.149.519 1.149 1.159a1.149 1.149 0 1 1-2.299 0m4.549 0c0-.64.51-1.159 1.151-1.159.639 0 1.149.519 1.149 1.159a1.15 1.15 0 1 1-2.3 0m4.55 0c0-.64.511-1.159 1.151-1.159.639 0 1.15.519 1.15 1.159a1.15 1.15 0 0 1-2.301 0m4.54 0c0-.64.521-1.159 1.16-1.159.63 0 1.151.519 1.151 1.159 0 .631-.521 1.15-1.151 1.15-.639 0-1.16-.519-1.16-1.15m4.551 0c0-.64.52-1.159 1.159-1.159.63 0 1.151.519 1.151 1.159 0 .631-.521 1.15-1.151 1.15a1.158 1.158 0 0 1-1.159-1.15m4.55 0c0-.64.519-1.159 1.149-1.159.641 0 1.16.519 1.16 1.159a1.155 1.155 0 0 1-2.309 0m4.55 0c0-.64.519-1.159 1.15-1.159.64 0 1.159.519 1.159 1.159a1.155 1.155 0 0 1-2.309 0m4.549 0c0-.64.521-1.159 1.151-1.159.64 0 1.16.519 1.16 1.159 0 .631-.52 1.15-1.16 1.15-.63 0-1.151-.519-1.151-1.15m4.55 0c0-.64.521-1.159 1.151-1.159.639 0 1.15.519 1.15 1.159a1.15 1.15 0 0 1-2.301 0m4.551 0c0-.64.52-1.159 1.149-1.159.64 0 1.161.519 1.161 1.159a1.156 1.156 0 0 1-2.31 0m6.199 3.468A.689.689 0 0 1 51 5.939c0-.181.007-.394.016-.627a.728.728 0 0 1 .055-.242c.513-1.221.514-2.313-.009-3.507a.683.683 0 0 1-.06-.274C51 1.066 51 .864 51 .69a.69.69 0 0 1 .689-.69c.151 0 .323 0 .511.002.148.001.29.058.408.147 1.075.82 2.265.605 3.43-.053a.7.7 0 0 1 .337-.093L56.937 0a.69.69 0 0 1 .689.69l-.001.563a.732.732 0 0 1-.092.335c-.653 1.167-.826 2.314-.046 3.427.085.12.137.261.138.41l.001.514a.689.689 0 0 1-.689.688l-.578-.001a.72.72 0 0 1-.311-.078c-1.188-.594-2.32-.456-3.497.014a.707.707 0 0 1-.232.049c-.234.009-.449.016-.63.016" fill="#766414" fill-rule="evenodd"/>
</svg>
