<svg xmlns="http://www.w3.org/2000/svg" width="165" height="165" viewBox="0 0 165 165">
    <g fill="none" fill-rule="evenodd">
        <circle cx="82.5" cy="82.5" r="82.5" fill="#F6EFE5"/>
        <circle cx="48" cy="113" r="8" stroke="#483711" stroke-width="2"/>
        <circle cx="80.5" cy="90.5" r="4.5" stroke="#483711" stroke-width="2"/>
        <circle cx="71.5" cy="35.5" r="4.5" stroke="#483711" stroke-width="2"/>
        <circle cx="125" cy="101" r="6" stroke="#483711" stroke-width="2"/>
        <path fill="#483711" d="M52.141 72.777l.342.361c-1.292 1.311-2.964 1.976-4.997 1.976-2.014 0-3.61-.608-4.807-1.805-1.178-1.216-1.767-2.85-1.767-4.921 0-2.09.589-3.743 1.786-4.959 1.197-1.235 2.793-1.843 4.769-1.843 1.482 0 2.736.323 3.762.988l.817-.437.228.228.152 2.698h-.551c-.323-1.14-1.007-1.938-1.824-2.299-.779-.38-1.425-.513-2.166-.513-2.888 0-4.503 2.052-4.503 6.023 0 3.705 1.577 6.004 4.864 6.004 1.615 0 2.907-.494 3.895-1.501zM58.449 75h-4.541v-.418l1.14-.418V61.985l-1.14-.304v-.399l3.116-.38.285.266v13.053l1.14.38V75zm32.926 40.785v-.285h4.83c1.095 0 1.98.24 2.655.72.675.465 1.02 1.11 1.02 1.92 0 1.245-.855 2.13-2.28 2.475 1.665.315 2.7 1.26 2.7 2.625 0 .855-.375 1.53-1.125 2.025-.75.495-1.74.735-2.97.735h-4.83v-.285l.975-.24v-9.435l-.975-.255zm2.82 5.07v4.68h1.725c1.515 0 2.475-.795 2.475-2.34s-.96-2.34-2.475-2.34h-1.725zm1.725-4.875h-1.725v4.41h1.725c1.245 0 2.055-.75 2.055-2.205s-.81-2.205-2.055-2.205zm5.475 9.69l.9-.33v-5.73l-.84-.255v-.36l2.4-.3.225.225-.045 1.2.045.045c.045-.075.075-.18.33-.495.33-.405.9-.93 1.71-.93.915 0 1.665.63 1.665 1.575 0 .66-.375.99-.87.99-.54 0-.915-.39-.915-.945v-1.035a.59.59 0 0 0-.3-.075c-.285 0-.57.135-.84.405s-.465.54-.6.81l-.18.405v4.485l1.365.33V126h-4.05v-.33zM96.375 66v-.24l.975-.33v-9.3l-.975-.3v-.33h2.835l5.61 7.905V56.04l-.975-.315V55.5h2.43v.225l-.975.33V66h-.69l-6.78-9.555v9.03l.975.3V66h-2.43zm15.435-.81l-.045-.06c-.675.63-1.53.945-2.565.945-1.245 0-1.86-.555-1.86-1.65 0-.615.255-1.065.63-1.365.195-.15.48-.285.855-.405.375-.135.765-.24 1.155-.33l1.56-.33.24-.045v-1.32c0-.885-.495-1.455-1.38-1.455-.375 0-.735.105-1.095.315v.99c0 .555-.36.93-.885.93-.48 0-.87-.345-.87-.9 0-.54.285-.96.855-1.275.585-.315 1.29-.48 2.115-.48 1.905 0 3.03.84 3.03 2.085v4.335c0 .225.105.345.315.345.18 0 .33-.06.465-.165l.15.15c-.36.36-.9.54-1.62.54-.645 0-.99-.285-1.05-.855zm-.03-.51v-2.31l-.675.135c-.105.015-.285.06-.54.12-.255.06-.42.105-.495.15l-.345.165c-.315.135-.33.255-.495.48-.135.225-.165.465-.165.81 0 .795.36 1.185 1.065 1.185.63 0 1.185-.24 1.65-.735z"/>
        <circle cx="50.5" cy="68.5" r="16.5" stroke="#483711" stroke-width="3"/>
        <circle cx="99" cy="121" r="14" stroke="#483711" stroke-width="3"/>
        <circle cx="105" cy="61" r="14" stroke="#483711" stroke-width="3"/>
    </g>
</svg>
