<?xml version="1.0" encoding="UTF-8"?><!DOCTYPE svg PUBLIC "-//W3C//DTD SVG 1.1//EN" "http://www.w3.org/Graphics/SVG/1.1/DTD/svg11.dtd"><svg xmlns="http://www.w3.org/2000/svg"><defs>
        <style>
            .cls-1,path{fill:#fff}
        </style>
    
        <style>
            .cls-1,.cls-2{fill:#f4e07a;fill-rule:evenodd}.cls-2{fill:none;stroke:#fff;stroke-miterlimit:10;stroke-width:2px}
        </style>
    
        <style>
            .cls-1{fill:#c0d5b3;fill-rule:evenodd}
        </style>
    
        <style>
            .cls-1{fill:#c0d5b3;fill-rule:evenodd}
        </style>
    
        <style>
            .cls-1{fill:#c0d5b3;fill-rule:evenodd}
        </style>
    
        <style>
            .cls-1{fill:#c0d5b3;fill-rule:evenodd}
        </style>
    
        <style>
            .cls-1{fill:#c0d5b3;fill-rule:evenodd}
        </style>
    </defs><symbol id="icon-button-inline" viewBox="0 0 273 50">
    
    <title>
        button
    </title>
    <path d="M260 1a7 7 0 0 1 7 7v8.06a9 9 0 0 0 0 17.88V42a7 7 0 0 1-7 7H13a7 7 0 0 1-7-7v-8.06a9 9 0 0 0 0-17.88V8a7 7 0 0 1 7-7h247m0-1H13a8 8 0 0 0-8 8v9a8 8 0 0 1 0 16v9a8 8 0 0 0 8 8h247a8 8 0 0 0 8-8v-9a8 8 0 0 1 0-16V8a8 8 0 0 0-8-8z"/>
    <path class="cls-1" d="M264.49 25.67a.68.68 0 0 1 0-1c.12-.13.28-.27.45-.43a.57.57 0 0 1 .21-.13 4.16 4.16 0 0 0 2.47-2.49.78.78 0 0 1 .16-.24l.42-.42a.68.68 0 0 1 1 0l.36.36a.68.68 0 0 1 .19.39 2.93 2.93 0 0 0 2.46 2.39.69.69 0 0 1 .3.17l.4.4a.68.68 0 0 1 0 1l-.4.4a.64.64 0 0 1-.3.17 3 3 0 0 0-2.45 2.39.73.73 0 0 1-.2.39l-.36.36a.68.68 0 0 1-1 0c-.12-.12-.26-.25-.41-.41a.57.57 0 0 1-.16-.27 4 4 0 0 0-2.49-2.46.86.86 0 0 1-.2-.13l-.45-.44"/>
    <path class="cls-1" d="M.49 25.67a.68.68 0 0 1 0-1c.12-.13.28-.27.45-.43a.57.57 0 0 1 .21-.13 4.16 4.16 0 0 0 2.47-2.49.78.78 0 0 1 .16-.24L4.2 21a.68.68 0 0 1 1 0l.36.36a.68.68 0 0 1 .19.39 2.93 2.93 0 0 0 2.46 2.39.69.69 0 0 1 .3.17c.15.15.29.28.4.4a.68.68 0 0 1 0 1l-.4.4a.64.64 0 0 1-.3.17 3 3 0 0 0-2.45 2.39.73.73 0 0 1-.2.39c-.13.13-.25.26-.36.36a.68.68 0 0 1-1 0c-.12-.12-.26-.25-.41-.41a.57.57 0 0 1-.16-.27 4 4 0 0 0-2.49-2.46.86.86 0 0 1-.2-.13l-.45-.44"/>
</symbol><symbol id="icon-button" viewBox="0 0 273 50">
    
    <title>
        button
    </title>
    <g id="Layer_3" data-name="Layer 3">
        <path class="cls-1" d="M5 17V8a8 8 0 0 1 8-8h247a8 8 0 0 1 8 8v9a8 8 0 0 0 0 16v9a8 8 0 0 1-8 8H13a8 8 0 0 1-8-8v-9a8 8 0 0 0 0-16z"/>
        <path class="cls-1" d="M264.49 25.67a.68.68 0 0 1 0-1c.12-.13.28-.27.45-.43a.57.57 0 0 1 .21-.13 4.16 4.16 0 0 0 2.47-2.49.78.78 0 0 1 .16-.24l.42-.42a.68.68 0 0 1 1 0l.36.36a.68.68 0 0 1 .19.39 2.93 2.93 0 0 0 2.46 2.39.69.69 0 0 1 .3.17l.4.4a.68.68 0 0 1 0 1l-.4.4a.64.64 0 0 1-.3.17 3 3 0 0 0-2.45 2.39.73.73 0 0 1-.2.39l-.36.36a.68.68 0 0 1-1 0c-.12-.12-.26-.25-.41-.41a.57.57 0 0 1-.16-.27 4 4 0 0 0-2.49-2.46.86.86 0 0 1-.2-.13l-.45-.44"/>
        <path class="cls-1" d="M.49 25.67a.68.68 0 0 1 0-1c.12-.13.28-.27.45-.43a.57.57 0 0 1 .21-.13 4.16 4.16 0 0 0 2.47-2.49.78.78 0 0 1 .16-.24L4.2 21a.68.68 0 0 1 1 0l.36.36a.68.68 0 0 1 .19.39 2.93 2.93 0 0 0 2.46 2.39.69.69 0 0 1 .3.17c.15.15.29.28.4.4a.68.68 0 0 1 0 1l-.4.4a.64.64 0 0 1-.3.17 3 3 0 0 0-2.45 2.39.73.73 0 0 1-.2.39c-.13.13-.25.26-.36.36a.68.68 0 0 1-1 0c-.12-.12-.26-.25-.41-.41a.57.57 0 0 1-.16-.27 4 4 0 0 0-2.49-2.46.86.86 0 0 1-.2-.13l-.45-.44"/>
        <path class="cls-2" d="M264 35.25V42a4 4 0 0 1-4 4H13a4 4 0 0 1-4-4v-6.75a11 11 0 0 0 0-20.5V8a4 4 0 0 1 4-4h247a4 4 0 0 1 4 4v6.75a11 11 0 0 0 0 20.5z"/>
    </g>
</symbol><symbol id="icon-combined-shape" viewBox="0 0 18 12">
    <path fill-rule="evenodd" d="M6.825 9.565L16.25.295c.4-.393 1.05-.393 1.45 0 .4.394.4 1.033 0 1.427L7.55 11.705c-.4.393-1.05.393-1.45 0L.3 6a.997.997 0 0 1 0-1.426c.4-.394 1.05-.394 1.45 0l5.075 4.991z"/>
</symbol><symbol id="icon-fb" viewBox="0 0 22 22">
    
    <title>
        social_fb
    </title>
    <path class="cls-1" d="M20.78 0H1.22A1.22 1.22 0 0 0 0 1.22v19.56A1.22 1.22 0 0 0 1.22 22h10.53v-8.52H8.88v-3.32h2.87V7.71A4 4 0 0 1 16 3.33a23.67 23.67 0 0 1 2.56.13v3h-1.74c-1.38 0-1.64.65-1.64 1.61v2.12h3.28L18 13.48h-2.82V22h5.6A1.22 1.22 0 0 0 22 20.78V1.22A1.22 1.22 0 0 0 20.78 0"/>
</symbol><symbol id="icon-instagram" viewBox="0 0 22 22">
    
    <title>
        social_in
    </title>
    <path class="cls-1" d="M11 2c2.94 0 3.28 0 4.44.07a5.9 5.9 0 0 1 2 .38 3.39 3.39 0 0 1 1.26.82 3.44 3.44 0 0 1 .82 1.26 6.13 6.13 0 0 1 .38 2c.1 1.18.1 1.53.1 4.47s0 3.28-.06 4.44a6.07 6.07 0 0 1-.38 2 3.48 3.48 0 0 1-.82 1.27 3.52 3.52 0 0 1-1.26.82 6.15 6.15 0 0 1-2 .38c-1.2.09-1.54.09-4.48.09H6.56a6.15 6.15 0 0 1-2-.38 3.44 3.44 0 0 1-1.26-.82 3.48 3.48 0 0 1-.82-1.27 6.07 6.07 0 0 1-.38-2C2 14.28 2 13.93 2 11s0-3.29.07-4.45a6.13 6.13 0 0 1 .38-2 3.44 3.44 0 0 1 .82-1.26 3.32 3.32 0 0 1 1.26-.82 5.9 5.9 0 0 1 2.05-.38C7.72 2 8.06 2 11 2m0-2C8 0 7.64 0 6.47.07A8 8 0 0 0 3.8.58a5.34 5.34 0 0 0-1.95 1.27A5.39 5.39 0 0 0 .58 3.79a8 8 0 0 0-.51 2.67C0 7.64 0 8 0 11s0 3.36.07 4.53a8 8 0 0 0 .51 2.67 5.42 5.42 0 0 0 1.27 1.95 5.34 5.34 0 0 0 1.95 1.27 8.31 8.31 0 0 0 2.67.51C7.64 22 8 22 11 22s3.36 0 4.53-.06a8.31 8.31 0 0 0 2.67-.51 5.34 5.34 0 0 0 1.95-1.27 5.42 5.42 0 0 0 1.27-1.95 8 8 0 0 0 .51-2.67C22 14.36 22 14 22 11s0-3.36-.07-4.54a8 8 0 0 0-.51-2.67 5.39 5.39 0 0 0-1.27-1.94A5.34 5.34 0 0 0 18.2.58a8 8 0 0 0-2.67-.51C14.36 0 14 0 11 0"/>
    <path class="cls-1" d="M11 5.35A5.65 5.65 0 1 0 16.65 11 5.65 5.65 0 0 0 11 5.35m0 9.31A3.67 3.67 0 1 1 14.67 11 3.67 3.67 0 0 1 11 14.66"/>
    <path class="cls-1" d="M18.19 5.13a1.32 1.32 0 1 1-1.32-1.32 1.32 1.32 0 0 1 1.32 1.32"/>
</symbol><symbol id="icon-left-arrow" viewBox="0 0 129 129">
    <path d="M88.6 121.3c.8.8 1.8 1.2 2.9 1.2s2.1-.4 2.9-1.2c1.6-1.6 1.6-4.2 0-5.8l-51-51 51-51c1.6-1.6 1.6-4.2 0-5.8s-4.2-1.6-5.8 0l-54 53.9c-1.6 1.6-1.6 4.2 0 5.8l54 53.9z"/>
</symbol><symbol id="icon-logo-author" viewBox="0 0 65 35">
    <path fill-rule="evenodd" d="M61.846 31.93c-1.95 1.949-4.636 3.06-7.57 3.07l-.01-.002H28.295L25.982 35h-8.524c-4.79.003-9.154-1.87-12.317-5.058l-.012.009A17.542 17.542 0 0 1 0 17.559l.006-.005H0A17.566 17.566 0 0 1 5.129 5.165v-.008C8.287 1.975 12.653.003 17.445 0h6.717a4.034 4.034 0 0 1 4.029 4.036c0 2.245-1.803 3.846-4.03 3.846l-6.706.004-.004-.01c-2.578.01-4.93 1.293-6.63 3.001l-.02.005a9.411 9.411 0 0 0-2.745 6.672H8.05a9.475 9.475 0 0 0 2.779 6.668l-.009.012c1.701 1.712 4.051 2.846 6.638 2.846l8.515-.007 2.33.007 25.963-.007h.002c.744 0 1.413-.384 1.904-.874.48-.48.814-1.445.814-2.19h.004c-.004-.757-.343-1.99-.839-2.49a2.62 2.62 0 0 0-1.885-.773H47.35l-10.387-.005c-2.007.012-4.024-2.013-4.03-4.041l-.005-12.65C32.923 2.027 34.936 0 36.95 0h10.895c2.233-.008 4.031 1.609 4.027 3.84.004 2.24-1.805 4.056-4.022 4.06l-7.034-.01v5.668l6.533.005 6.912-.005h.005c2.942 0 5.633 1.22 7.584 3.186 1.942 1.957 3.15 4.588 3.15 7.548.012 2.962-1.208 5.672-3.154 7.637"/>
</symbol><symbol id="icon-ok" viewBox="0 0 22 22">
    
    <title>
        social_ok
    </title>
    <path class="cls-1" d="M13.3 16a11 11 0 0 0 3.3-1.36 1.66 1.66 0 0 0-1.77-2.81 7.25 7.25 0 0 1-7.66 0 1.67 1.67 0 0 0-2.29.52 1.66 1.66 0 0 0 .52 2.29A11 11 0 0 0 8.7 16l-3.18 3.17a1.65 1.65 0 0 0 0 2.34 1.67 1.67 0 0 0 2.36 0l3.12-3.1 3.12 3.1a1.67 1.67 0 0 0 2.35 0 1.65 1.65 0 0 0 0-2.34L13.3 16"/>
    <path class="cls-1" d="M11 0a5.69 5.69 0 1 0 5.69 5.69A5.69 5.69 0 0 0 11 0m0 8.05a2.36 2.36 0 1 1 2.36-2.36A2.36 2.36 0 0 1 11 8.05"/>
</symbol><symbol id="icon-person" viewBox="0 0 14 14">
    <path fill-rule="evenodd" d="M9.48 5.98C8.798 6.66 7.971 7 7 7s-1.799-.34-2.48-1.02C3.84 5.298 3.5 4.471 3.5 3.5s.34-1.799 1.02-2.48C5.202.34 6.029 0 7 0s1.799.34 2.48 1.02c.68.681 1.02 1.508 1.02 2.48s-.34 1.799-1.02 2.48zM2.405 9.733C4.01 9.078 5.542 8.75 7 8.75c1.458 0 2.99.322 4.594.966C13.198 10.36 14 11.205 14 12.25V14H0v-1.75c0-1.045.802-1.884 2.406-2.516z"/>
</symbol><symbol id="icon-play" viewBox="0 0 78 78">
    <g fill-rule="evenodd">
        <circle cx="39" cy="39" r="37" stroke-width="4"/>
        <path d="M53.184 41.156L31.038 54.6A2 2 0 0 1 28 52.891V26a2 2 0 0 1 3.038-1.71l22.146 13.446a2 2 0 0 1 0 3.42z"/>
    </g>
</symbol><symbol id="icon-right-arrow" viewBox="0 0 129 129">
    <path d="M40.4 121.3c-.8.8-1.8 1.2-2.9 1.2s-2.1-.4-2.9-1.2c-1.6-1.6-1.6-4.2 0-5.8l51-51-51-51c-1.6-1.6-1.6-4.2 0-5.8 1.6-1.6 4.2-1.6 5.8 0l53.9 53.9c1.6 1.6 1.6 4.2 0 5.8l-53.9 53.9z"/>
</symbol><symbol id="icon-ring" viewBox="0 0 17 15">
    <path d="M7.063.194c-.426.15-.683.478-.727.92-.05.528.324 1.023.846 1.123l.201.04v1.136l-.254.043c-.63.103-1.393.362-2.057.7-2.397 1.223-3.991 3.768-4.008 6.392-.003.466.004.509.076.665.106.209.307.412.515.518l.165.08h13.24l.165-.08c.208-.106.41-.309.515-.518.072-.153.079-.2.076-.648-.014-2.053-1.01-4.14-2.625-5.488-1-.834-2.268-1.432-3.44-1.621l-.254-.043V2.277l.201-.04c.519-.1.888-.588.849-1.116a1.076 1.076 0 0 0-.618-.884L9.743.151 8.49.144C7.347.134 7.218.141 7.063.194zM.724 12.954c-.31.106-.472.252-.64.568-.112.215-.112.644.003.88.102.213.304.412.512.518l.165.08h15.351l.165-.08c.208-.106.41-.305.512-.518.066-.136.083-.216.08-.449 0-.239-.014-.308-.09-.455a1.103 1.103 0 0 0-.515-.505l-.185-.086L8.49 12.9c-7.24-.006-7.6-.006-7.765.054z"/>
</symbol><symbol id="icon-search" viewBox="0 0 612.08 612.08">
    <path d="M237.927 0C106.555 0 .035 106.52.035 237.893s106.52 237.893 237.893 237.893c50.518 0 97.368-15.757 135.879-42.597l.028-.028 176.432 176.433c3.274 3.274 8.48 3.358 11.839 0l47.551-47.551c3.274-3.274 3.106-8.703-.028-11.838L433.223 373.8c26.84-38.539 42.597-85.39 42.597-135.907C475.82 106.52 369.3 0 237.927 0zm0 419.811c-100.475 0-181.918-81.443-181.918-181.918S137.453 55.975 237.927 55.975s181.918 81.443 181.918 181.918-81.443 181.918-181.918 181.918z"/>
</symbol><symbol id="icon-vk" viewBox="0 0 22 22">
    
    <title>
        social_vk
    </title>
    <path class="cls-1" d="M18.22 11.3s2.89-4.08 3.17-5.42c.1-.48-.11-.75-.61-.75h-2.51a.91.91 0 0 0-.95.62 22.85 22.85 0 0 1-3 4.7c-.53.59-.8.77-1.09.77s-.34-.2-.34-.73V5.84c0-.65-.08-.84-.61-.84h-4c-.31 0-.5.18-.5.42 0 .61.94.75.94 2.41v3.43c0 .69 0 1-.37 1-.86 0-2.9-3-4.05-6.33C4 5.19 3.79 5 3.14 5H.63a.6.6 0 0 0-.63.61c0 .67.78 3.77 3.87 7.92 2.06 2.8 4.78 4.31 7.23 4.31 1.49 0 1.85-.25 1.85-.88v-2.14c0-.54.22-.77.52-.77s.95.11 2.37 1.51c1.69 1.61 1.8 2.28 2.72 2.28h2.81c.29 0 .56-.13.56-.61s-.82-1.76-2.09-3.1c-.51-.69-1.35-1.44-1.62-1.78s-.27-.63 0-1"/>
</symbol><symbol id="icon-yt" viewBox="0 0 22 22">
    
    <title>
        social_yt
    </title>
    <path class="cls-1" d="M21.77 6.34a4.81 4.81 0 0 0-.88-2.19 3.15 3.15 0 0 0-2.2-.93C15.61 3 11 3 11 3s-4.63 0-7.7.22a3.18 3.18 0 0 0-2.21.93 4.75 4.75 0 0 0-.87 2.19A33.26 33.26 0 0 0 0 9.9v1.67a33.26 33.26 0 0 0 .22 3.56 4.75 4.75 0 0 0 .87 2.19 3.83 3.83 0 0 0 2.43.94c1.76.17 7.47.22 7.47.22s4.62 0 7.7-.23a3.15 3.15 0 0 0 2.2-.93 4.81 4.81 0 0 0 .88-2.19 33.26 33.26 0 0 0 .23-3.56V9.9a33.26 33.26 0 0 0-.23-3.56zm-13 7.25V7.41l5.94 3.1z"/>
</symbol></svg>