<svg xmlns="http://www.w3.org/2000/svg" width="165" height="165" viewBox="0 0 165 165">
    <g fill="none" fill-rule="evenodd">
        <circle cx="82.5" cy="82.5" r="82.5" fill="#F6EFE5"/>
        <path fill="#000" d="M68.543 99.031a1.217 1.217 0 0 0-.141-1.716l-.003-.002a1.219 1.219 0 0 0-1.715.141l-4.795 5.658c-.43.571-.43 1.287.143 1.718.573.43 1.289.43 1.718-.143l4.793-5.656zm4.337 1.459l-.058-.036a1.217 1.217 0 0 0-1.678.43l-7.394 12.675c-.286.574-.143 1.431.43 1.72.572.285 1.43.14 1.717-.43l7.41-12.703a1.216 1.216 0 0 0-.427-1.656zM61.54 76.284l-7.236-1.227c-.715-.143-1.288.288-1.43 1.004-.144.715.284 1.288 1 1.43l7.253 1.23c.66.112 1.286-.33 1.402-.989l.007-.035a1.219 1.219 0 0 0-.996-1.413zm3.724 16.896l-.036-.058a1.218 1.218 0 0 0-1.657-.425l-12.702 7.408c-.574.288-.858 1.146-.43 1.719.43.572 1.146.859 1.718.428l12.676-7.394c.585-.34.78-1.097.43-1.678zm12.468 9.15l-.036-.008c-.665-.117-1.3.33-1.411.996l-1.227 7.237c-.143.716.285 1.287 1 1.431.716.142 1.29-.286 1.432-1.002l1.23-7.254a1.217 1.217 0 0 0-.988-1.4zM62.176 83.143v-.142c0-.67-.546-1.216-1.218-1.216h-14.67c-.715 0-1.288.572-1.288 1.288 0 .716.573 1.287 1.288 1.287h14.67c.672 0 1.218-.544 1.218-1.217zm52.671 15.817l-12.702-7.41a1.216 1.216 0 0 0-1.656.426l-.038.058a1.218 1.218 0 0 0 .431 1.678l12.677 7.395c.573.285 1.431.143 1.718-.43.286-.573.141-1.432-.43-1.717zm3.863-18.322h-14.669c-.671 0-1.217.546-1.217 1.218V82c0 .673.546 1.218 1.217 1.218h14.67c.715 0 1.289-.572 1.289-1.288 0-.716-.574-1.29-1.29-1.29zm-57.532 6.87l-6.875 2.577c-.572.288-.858 1.003-.715 1.576.285.715 1 1.002 1.574.715l6.876-2.579c.629-.236.948-.937.712-1.567l-.005-.01a1.217 1.217 0 0 0-1.567-.713zm37.709 8.661a1.218 1.218 0 0 0-1.718.143v.002a1.217 1.217 0 0 0 .142 1.715l5.655 4.794c.574.431 1.29.431 1.718-.141.43-.574.43-1.29-.142-1.718l-5.655-4.795zm-8.946 6.364a1.219 1.219 0 0 0-1.568-.713l-.01.004c-.63.237-.95.938-.713 1.568l2.579 6.876c.286.715 1.002 1.002 1.573.715.716-.287 1.003-1.003.716-1.576l-2.577-6.874zm4.915-2.366a1.216 1.216 0 0 0-1.677-.43l-.059.036a1.216 1.216 0 0 0-.425 1.656l7.409 12.703c.286.571 1.146.857 1.717.43.574-.288.86-1.146.43-1.72l-7.395-12.675zm-11.713 2.656H83c-.673 0-1.218.546-1.218 1.218v14.671c0 .716.574 1.287 1.29 1.287a1.28 1.28 0 0 0 1.286-1.287v-14.67c0-.673-.545-1.219-1.216-1.219zM65.825 68.67a1.218 1.218 0 0 0 1.727-.133l.001-.003c.43-.51.37-1.27-.132-1.706l-5.532-4.795c-.572-.428-1.288-.428-1.717.144-.43.572-.43 1.288.141 1.719l5.512 4.774zm-2.971 4.78a1.218 1.218 0 0 0 1.657-.423l.036-.06a1.217 1.217 0 0 0-.43-1.677L51.44 63.895c-.573-.288-1.431-.144-1.718.428-.43.572-.144 1.288.43 1.719l12.701 7.408zm35.59 11.803c-1.109 6.692-6.506 12.086-13.197 13.194-11.056 1.83-20.524-7.637-18.693-18.693 1.108-6.691 6.502-12.087 13.194-13.196 11.056-1.835 20.529 7.636 18.695 18.695zm-6.74-19.6c-17.327-8.36-34.412 8.725-26.053 26.056a16.453 16.453 0 0 0 7.644 7.643c17.33 8.357 34.412-8.728 26.051-26.057a16.438 16.438 0 0 0-7.641-7.642zm11.83 11.841l6.875-2.579c.574-.285.86-1 .716-1.573-.287-.716-1.002-1.002-1.573-.716l-6.876 2.578a1.218 1.218 0 0 0-.713 1.568l.004.01c.236.63.938.948 1.567.712zm-1.355 9.67c-.119.664.33 1.298.995 1.411l7.235 1.227c.716.142 1.29-.286 1.431-1.002.145-.716-.286-1.288-1.002-1.431l-7.25-1.23a1.22 1.22 0 0 0-1.405.99l-.004.035zm-6.01-21.193a1.22 1.22 0 0 0 .143 1.718h.001c.513.435 1.28.37 1.715-.142l4.796-5.655c.428-.574.428-1.29-.143-1.718-.572-.43-1.288-.43-1.717.143l-4.795 5.654zM75.07 62.157c.23.64.938.969 1.575.73l.01-.003c.622-.233.941-.923.718-1.55l-2.459-6.886c-.288-.716-1.003-1.003-1.574-.716-.573.287-1.002 1.002-.716 1.575l2.446 6.85zm-4.926 2.67c.34.588 1.097.784 1.68.434l.059-.035c.57-.342.761-1.078.428-1.652l-7.416-12.849c-.288-.57-1.145-.859-1.719-.428-.571.285-.857 1.144-.428 1.716l7.396 12.813zm29.592 6.994l.037.059c.342.572 1.08.761 1.656.425l12.703-7.41c.57-.285.858-1.144.43-1.716-.43-.573-1.146-.859-1.718-.43l-12.677 7.395a1.219 1.219 0 0 0-.431 1.677zm-12.61-9.006l.034.008c.666.117 1.3-.33 1.413-.997l1.227-7.235c.143-.716-.287-1.288-1.002-1.431-.716-.143-1.29.285-1.432 1l-1.23 7.254c-.112.66.33 1.285.99 1.401zm-5.27-.64h.142c.672 0 1.216-.543 1.216-1.216v-14.67h-.141c0-.716-.574-1.289-1.29-1.289-.716 0-1.144.573-1.144 1.288V60.96c0 .673.546 1.217 1.217 1.217zm10.12 2.338l.06.036a1.217 1.217 0 0 0 1.675-.431l7.394-12.677c.288-.571.145-1.431-.428-1.716-.573-.287-1.43-.143-1.719.43l-7.408 12.7a1.218 1.218 0 0 0 .425 1.658z"/>
    </g>
</svg>
