<svg xmlns="http://www.w3.org/2000/svg" width="433" height="150" viewBox="0 0 433 150">
    <g fill="#483711" fill-rule="evenodd">
        <path d="M432.172 144.783a.567.567 0 0 0-.25-.142c-1.065-.296-1.885-.865-2.035-1.972a.566.566 0 0 0-.151-.324l-.298-.3a.57.57 0 0 0-.804 0l-.349.351a.57.57 0 0 0-.125.195c-.38.975-1 1.599-1.963 2.014H6.407c-1.009-.305-1.778-.87-1.921-1.936a.573.573 0 0 0-.153-.324l-.297-.3a.57.57 0 0 0-.805 0l-.349.351a.57.57 0 0 0-.125.195c-.391 1.004-1.03 1.64-2.042 2.054a.58.58 0 0 0-.173.11c-.141.13-.27.249-.375.354a.57.57 0 0 0 0 .805c.106.106.235.227.377.36.048.043.105.08.165.105.961.413 1.701.994 2.049 2.035a.589.589 0 0 0 .136.227l.337.337a.57.57 0 0 0 .805 0l.298-.3a.602.602 0 0 0 .159-.32c.187-1.067.915-1.63 1.919-1.94H426.19c.92.412 1.634.984 1.97 1.996a.6.6 0 0 0 .137.227l.337.337a.57.57 0 0 0 .804 0l.3-.3a.607.607 0 0 0 .158-.32c.194-1.106.966-1.674 2.027-1.974a.597.597 0 0 0 .25-.142l.33-.328a.57.57 0 0 0 0-.805c-.098-.096-.208-.207-.33-.326M149.238 75.042l1.695-13.342h7.266v16.203h-9.848c.456-.557.76-1.52.887-2.861zm-2.735 3.62h14.254l.632 3.444h.735v-4.203h-2V61.877l1.645-.43v-.507h-13.468v.507l1.645.38-1.696 13.266c-.177 1.543-.556 2.48-1.089 2.81h-2v4.203h.735l.607-3.444zm23.97-10.987c2.329 0 3.873 1.924 3.873 5.164 0 3.216-1.544 5.14-3.873 5.14s-3.873-1.924-3.873-5.14c0-3.24 1.544-5.164 3.873-5.164m0 11.088c1.747 0 3.139-.532 4.203-1.594 1.088-1.064 1.62-2.507 1.62-4.33s-.532-3.266-1.62-4.33c-1.064-1.062-2.456-1.594-4.203-1.594-1.747 0-3.139.532-4.203 1.595-1.063 1.063-1.594 2.506-1.594 4.329s.531 3.266 1.594 4.33c1.064 1.062 2.456 1.594 4.203 1.594m11.869-.557l-1.519-.455.532-8.304 4.152 9.215h.886l4.127-9.215.531 8.05-1.519.558v.607h4.886v-.583l-1.52-.43-.58-9.57 1.518-.48v-.582h-3.064l-4.303 9.645-4.279-9.645h-3.088v.581l1.519.431-.607 9.57-1.52.556v.507h3.848zm21.412-5.366c0-3.241 1.544-5.165 3.874-5.165S211.5 69.6 211.5 72.84c0 3.216-1.544 5.14-3.873 5.14-2.33 0-3.874-1.924-3.874-5.14m8.077 4.329c1.088-1.064 1.62-2.506 1.62-4.329s-.532-3.265-1.62-4.329c-1.064-1.064-2.456-1.596-4.203-1.596-1.747 0-3.14.532-4.203 1.596-1.063 1.064-1.595 2.506-1.595 4.33 0 1.822.532 3.264 1.595 4.328 1.064 1.064 2.456 1.595 4.203 1.595 1.747 0 3.139-.531 4.203-1.595m13.693-9.393l.582 2.101h.709v-2.86h-11.19v2.86h.684l.607-2.101h3.368v9.721l-1.52.557v.608h4.911v-.582l-1.518-.43v-9.874zm11.085 10.127h-6.48c.48-.583.784-1.52.936-2.861l.937-7.266h4.607v10.127zm2.786 3.823h.708v-3.823h-1.62v-10l1.519-.38v-.506h-10.38v.505l1.519.355-.937 7.216c-.176 1.494-.531 2.43-1.088 2.81h-1.595v3.823h.684l.632-3.064h9.95l.608 3.064zm8.705-9.014c1.645 0 2.708.988 2.708 2.582 0 1.621-1.063 2.609-2.708 2.609h-2.406v-5.19h2.406zm-2.406-4.632l1.52-.481v-.583h-4.887v.583l1.52.43v9.62l-1.52.456v.557h6.05c2.634 0 4.38-1.317 4.38-3.368 0-2.05-1.746-3.366-4.38-3.366h-2.683V68.08zm12.887 10l-1.52-.431v-9.57l1.52-.48v-.583h-4.912v.583l1.519.43v9.468l-1.52.558v.607h4.912zm6.147 0l-1.899-.431 3.494-4.177 3.392 4.177-1.393.43v.583h4.962v-.583l-1.417-.43-4.102-5.063 3.874-4.557 1.469-.43v-.583h-4.279v.583l1.873.43-3.392 4-3.215-4 1.418-.43v-.583h-4.988v.583l1.418.43 3.95 4.886-4 4.734-1.47.43v.583h4.305zm18.021-1.545c-.937.912-2.076 1.368-3.418 1.368-1.392 0-2.075-.659-2.075-1.95 0-.86.405-1.494 1.214-1.924.583-.279 2-.683 4.279-1.19v3.696zm-.126-4.48c-2.963.657-4.912 1.215-5.823 1.67-.912.456-1.368 1.24-1.368 2.355 0 1.797.988 2.709 2.962 2.709 1.545 0 3.317-.634 4.33-1.469l.076.076c.05.886.456 1.342 1.24 1.342.861 0 1.57-.278 2.152-.861l-.253-.278a1.034 1.034 0 0 1-.76.304c-.38 0-.557-.228-.557-.659v-7.29c0-1.799-1.696-3.04-4.329-3.04-1.266 0-2.329.254-3.215.786-.86.507-1.291 1.14-1.291 1.923 0 .684.405 1.014.912 1.014.531 0 .936-.405.936-.911v-1.267c.709-.531 1.544-.785 2.506-.785 1.544 0 2.608.938 2.608 2.228v2.127c-.026 0-.076 0-.126.025zM27.101 90.391c1.76 0 3.294.316 5.145 1.219 1.942.858 3.566 2.753 4.333 5.46h1.31l-.362-6.408-.542-.542-1.94 1.039c-2.437-1.58-5.417-2.348-8.936-2.348-4.695 0-8.486 1.445-11.33 4.378-2.844 2.889-4.242 6.816-4.242 11.78 0 4.92 1.398 8.802 4.197 11.69 2.844 2.843 6.635 4.288 11.42 4.288 4.829 0 8.8-1.58 11.87-4.694l-.813-.857c-2.347 2.391-5.416 3.565-9.253 3.565-7.808 0-11.554-5.46-11.554-14.262 0-9.434 3.836-14.308 10.697-14.308m38.812 9.479v-.858H47.09v.857l2.709.723-1.445 13.223c-.36 3.656-1.309 4.875-1.94 4.875-.18 0-.316-.045-.36-.09v-1.174c0-1.399-.994-2.256-2.438-2.256-1.445 0-2.347.948-2.347 2.527 0 2.166 1.715 3.205 3.701 3.205 2.752 0 4.378-2.437 4.874-7.267l1.444-13.179h6.59v18.28l-2.347.993v.947h10.38v-.947l-2.707-.903v-18.19l2.708-.767zm16.607 16.834c-1.4 1.49-3.069 2.212-4.965 2.212-2.12 0-3.205-1.174-3.205-3.566 0-1.85.678-3.16 1.987-3.926.857-.452 2.888-.993 6.183-1.671v6.951zm-.723-8.079l-4.693.993c-1.174.271-2.347.588-3.475.994-1.129.36-1.987.767-2.573 1.218-1.129.902-1.895 2.256-1.895 4.107 0 3.295 1.85 4.965 5.596 4.965 3.114 0 5.732-.947 7.763-2.844l.135.18c.181 1.717 1.219 2.574 3.16 2.574 2.121 0 3.746-.543 4.874-1.626l-.451-.45c-.451.315-.902.496-1.399.496-.678 0-.993-.361-.993-1.038v-13.045c0-3.746-3.385-6.273-9.117-6.273-2.483 0-4.604.497-6.32 1.444-1.714.949-2.571 2.212-2.571 3.837 0 1.76 1.127 2.707 2.617 2.707 1.58 0 2.618-1.127 2.618-2.797v-2.98c1.129-.631 2.211-.947 3.34-.947 2.572 0 4.107 1.715 4.107 4.378v3.973l-.723.134zm19.135 1.535h3.927c2.888 0 4.649 1.58 4.649 4.603 0 3.025-1.76 4.56-4.65 4.56h-3.926v-9.163zm0-9.794h3.927c2.211 0 3.61 1.489 3.61 4.197 0 2.754-1.399 4.243-3.61 4.243h-3.927v-8.44zm-8.079 19.407v.903h13.405c5.19 0 8.665-2.167 8.665-5.732 0-2.753-2.166-4.784-5.641-5.461 2.888-.677 4.649-2.528 4.649-5.055 0-3.295-3.114-5.416-7.673-5.416H92.853v.903l2.708.812v18.234l-2.708.812zm39.084-3.069c-1.4 1.49-3.069 2.212-4.965 2.212-2.12 0-3.205-1.174-3.205-3.566 0-1.85.678-3.16 1.987-3.926.857-.452 2.888-.993 6.183-1.671v6.951zm5.326-11.555c0-3.746-3.385-6.273-9.117-6.273-2.483 0-4.604.497-6.32 1.444-1.714.949-2.571 2.212-2.571 3.837 0 1.76 1.127 2.707 2.617 2.707 1.58 0 2.618-1.127 2.618-2.797v-2.98c1.129-.631 2.212-.947 3.34-.947 2.572 0 4.107 1.715 4.107 4.378v3.973l-.723.134-4.693.993c-1.174.271-2.347.588-3.475.994-1.129.36-1.987.767-2.573 1.218-1.129.902-1.895 2.256-1.895 4.107 0 3.295 1.85 4.965 5.596 4.965 3.114 0 5.732-.947 7.763-2.844l.135.18c.181 1.717 1.219 2.574 3.16 2.574 2.121 0 3.746-.543 4.874-1.626l-.451-.45c-.451.315-.902.496-1.399.496-.678 0-.993-.361-.993-1.038v-13.045zm25.948-15.074v-.993h-11.418v.993l2.933.902v8.576c0 5.056 2.889 8.26 8.847 8.26 1.67 0 3.43-.226 5.28-.632 1.896-.406 3.475-1.038 4.695-1.805v13.269l-2.935 1.038v.993h11.42v-.947l-2.935-.948V91.023l2.935-.948v-.993h-11.42v.993l2.935.902v12.999c-1.987 1.219-5.191 1.94-7.493 1.94-3.836 0-5.778-2.255-5.778-6.769v-8.124l2.934-.948zm27.168 18.37c.226-5.19 2.708-8.35 5.777-8.35 2.889 0 4.649 2.753 4.649 7.763l-10.426.587zm15.075.496c.135-.406.226-.993.226-1.67 0-2.482-.903-4.468-2.709-6.048-1.805-1.58-4.152-2.392-7.04-2.392-3.205 0-5.868.993-7.9 3.024-2.03 1.986-3.069 4.695-3.069 8.124 0 3.295.994 5.914 2.98 7.944 1.985 1.986 4.739 2.979 8.304 2.979 3.7 0 6.68-1.129 8.891-3.43l-.812-.813c-1.58 1.58-3.656 2.347-6.229 2.347-5.1 0-7.672-3.113-7.717-9.388h14.398l.677-.677zm11.506-5.867c1.219-1.49 2.754-2.257 4.604-2.257 3.43 0 5.461 3.475 5.461 9.208 0 6.318-2.211 9.658-6.047 9.658a7.44 7.44 0 0 1-4.017-1.174v-15.435zm4.83 17.828c6.725 0 10.697-4.153 10.697-11.42 0-6.454-2.98-10.651-8.44-10.651-2.934 0-5.28.947-7.086 2.843l-.136-.135.136-2.211-.677-.632-7.222.902v1.084l2.527.767v27.397l-2.707.993v.993h12.185v-.948l-4.106-.993v-9.072c1.353.722 2.979 1.083 4.829 1.083zm39.355-20.897v-.993h-10.381v.993l2.302.857v8.034h-9.524v-8.034l2.302-.857v-.993h-10.38v.993l2.707.857v17.829l-2.707.992v.993h10.38v-.948l-2.302-.903v-8.485h9.524v8.396l-2.302.992v.948h10.38v-.948l-2.708-.903v-17.918zm14.079.09c3.43 0 5.687 3.43 5.687 9.794 0 6.318-2.258 9.75-5.687 9.75-3.43 0-5.642-3.432-5.642-9.75 0-6.364 2.212-9.794 5.642-9.794m-11.104 9.794c0 3.34 1.039 6.003 3.07 8.034 2.03 1.986 4.738 2.98 8.034 2.98 3.294 0 6.002-.994 8.034-2.98 2.03-1.986 3.068-4.649 3.068-8.034 0-3.385-1.038-6.048-3.068-8.034-2.032-2.03-4.74-3.024-8.034-3.024-3.296 0-6.003.993-8.035 3.024-2.03 1.986-3.07 4.649-3.07 8.034m31.638 10.065l-2.707-.858.902-15.525 7.674 17.105h1.849l7.538-17.06.903 15.074-2.708.993v.993h10.741v-.948l-2.708-.902-1.038-17.919 2.708-.903v-.992H311.6l-7.177 16.113-7.04-16.113h-7.403v.992l2.709.858-1.038 18.1-2.709.947v.767h6.815zm43.553-10.065c0 6.318-2.257 9.75-5.688 9.75-3.43 0-5.642-3.432-5.642-9.75 0-6.364 2.212-9.794 5.642-9.794s5.687 3.43 5.687 9.794m-13.72-8.034c-2.032 1.986-3.07 4.649-3.07 8.034 0 3.34 1.038 6.003 3.07 8.034 2.03 1.986 4.738 2.98 8.033 2.98 3.294 0 6.003-.994 8.034-2.98 2.031-1.986 3.069-4.649 3.069-8.034 0-3.385-1.038-6.048-3.069-8.034-2.031-2.03-4.74-3.024-8.034-3.024-3.295 0-6.003.993-8.033 3.024m30.191 1.219c1.219-1.49 2.754-2.257 4.604-2.257 3.43 0 5.461 3.475 5.461 9.208 0 6.318-2.211 9.658-6.047 9.658a7.44 7.44 0 0 1-4.017-1.174v-15.435zm4.83 17.828c6.725 0 10.697-4.153 10.697-11.42 0-6.454-2.98-10.651-8.44-10.651-2.934 0-5.28.947-7.086 2.843l-.136-.135.136-2.211-.677-.632-7.222.902v1.084l2.527.767v27.397l-2.707.993v.993h12.185v-.948l-4.106-.993v-9.072c1.353.722 2.979 1.083 4.829 1.083zm21.752-11.419h3.204c2.708 0 4.469 1.714 4.469 4.92 0 3.204-1.715 4.92-4.469 4.92h-3.204v-9.84zm-8.079 10.29v.903h12.683c5.1 0 8.53-2.438 8.53-6.274s-3.475-6.273-8.53-6.273h-4.604v-7.222l2.707-.902v-.993h-10.786v.993l2.708.857v18.099l-2.708.812zm39.535-10.29h-3.43c-2.753 0-4.604-1.625-4.604-4.558 0-2.934 1.851-4.56 4.604-4.56h3.43v9.118zm8.035-9.614v-.857h-13c-5.054 0-8.53 2.257-8.53 5.73 0 2.935 2.482 5.011 6.454 5.508-2.391.497-3.881 1.715-4.513 3.746l-.903 2.618c-.586 2.031-.902 2.663-1.85 2.663a2.3 2.3 0 0 1-1.399-.496l-.452.496c.993 1.083 2.438 1.625 4.333 1.625 2.573 0 3.611-1.174 4.378-3.928l.903-3.023c.722-2.302 2.166-3.07 5.01-3.07h1.534v7.854l-2.707.993v.948h10.742v-.948l-2.709-.902v-18.19l2.709-.767zM183.63 19.421l-.598.225v.263h2.317v-.253l-.598-.198v-5.789l-.116-.163-1.644.408v.306h.64zm4.074-5.571c.461 0 .694.92.694 2.755-.144.307-.357.46-.632.46-.46 0-.735-.542-.735-1.545 0-1.047.26-1.67.673-1.67m-.165 3.602c.336 0 .619-.108.846-.315-.075 1.507-.71 2.33-2.083 2.628l.158.206c2.042-.133 3.065-1.309 3.065-3.52 0-1.78-.66-2.899-1.87-2.899-.508 0-.927.18-1.25.542-.323.352-.48.84-.48 1.445 0 .578.143 1.037.44 1.39.294.352.686.523 1.174.523m54.437-.699l.274.136c.406.208.68.389.825.551.151.162.227.406.227.74 0 .731-.343 1.12-.894 1.12-.543 0-.816-.406-.816-1.228 0-.524.13-.966.384-1.319m.447-3.268c.446 0 .673.38.673 1.147 0 .46-.096.848-.295 1.174l-.111-.064c-.364-.189-.61-.36-.755-.524-.145-.171-.214-.415-.214-.731 0-.606.262-1.002.702-1.002m-1.808 4.66c0 .93.55 1.471 1.711 1.471 1.285 0 1.924-.624 1.924-1.878 0-.442-.082-.785-.247-1.03-.164-.243-.427-.478-.79-.686.543-.333.81-.822.81-1.444 0-.858-.494-1.4-1.511-1.4-.605 0-1.038.163-1.306.497-.268.334-.398.759-.398 1.29 0 .823.289 1.255.831 1.59-.64.352-1.024.794-1.024 1.59m4.745-.515c-.295 0-.515.261-.515.704 0 .57.406.984.894 1.155.247.082.515.127.797.127.543 0 .982-.153 1.32-.47.337-.315.501-.74.501-1.264 0-.821-.44-1.408-1.203-1.625.632-.209 1.025-.714 1.025-1.464 0-.495-.152-.884-.447-1.173-.296-.297-.702-.442-1.203-.442a2 2 0 0 0-1.148.334c-.337.217-.501.532-.501.948 0 .443.22.705.516.705.301 0 .521-.29.521-.723v-.732a.614.614 0 0 1 .44-.171c.413 0 .694.416.694 1.283 0 .912-.322 1.272-.948 1.272h-.288v.352h.315c.736 0 1.1.471 1.1 1.4 0 .948-.357 1.409-.873 1.409a.696.696 0 0 1-.481-.172v-.73c0-.434-.213-.723-.515-.723"/>
        <path d="M211.889 18.121c1.923-5.415 2.033-15.38 2.033-15.801 0-.878.62-1.717 1.865-1.706 1.245.012 1.703 1.018 1.703 1.676l-.001 11.046c0 1.107-2.6 1.157-2.6 1.157l-.182.995s2.78.05 2.782 1.156v8.786c0 3.061-2.239 4.115-2.239 4.115s-.203 1.03-.23 1.152c6.106-3.462 9.716-4.344 9.716-4.344l-.3-.767s-2.548.7-2.548-1.101v-8.997c4.478.472 7.969 8.056 9.594 12.203.249.632.511 1.293.736 1.93a38.54 38.54 0 0 0-7.344 1.86c-2.439.874-5.311 2.49-7.521 4.625-1.873-1.577-4.494-2.973-7.926-4.342a36.933 36.933 0 0 0-4.705-1.526c4.023-3.926 5.85-8.406 7.167-12.117m7.616 24.648c0 2.05-.69 3.625-2.05 3.625-1.36 0-2.189-1.804-2.189-3.668 0-1.417.48-3.418 2.123-5.412 1.42 1.71 2.116 3.789 2.116 5.455m25.212-8.894c.162 1.156-.939 2.41-3.062 1.901-2.62-.63-4.265-3.539-4.652-4.524 4.627.04 7.47.89 7.714 2.623m-46.905-.941c-3.336 2.86-8.98 4.278-8.98 1.505 0-2.595 6.297-3.387 10.743-3.15-.6.602-1.194 1.156-1.762 1.645m-2.557-30.745c3.37 0 1.203 8.364 4.307 14.383 1.376 2.664 3.45 4.554 6.882 5.238-1.085 2.732-3.27 5.461-5.257 7.745-3.607-.484-6.417-.209-8.315.065-3.164.457-5.85 2.403-5.2 4.744.65 2.339 4.593 3.77 11.83-.218a23.679 23.679 0 0 0 3.6-2.45c3.635.611 8.552 1.894 11.756 3.73.733.42 1.338.872 1.843 1.342-1.795 1.928-3.094 4.285-3.094 6.558 0 5.155 3.389 5.378 3.908 5.378.52 0 3.634-.203 3.634-5.317 0-2.534-1.222-4.821-3.081-6.634.391-.388.84-.777 1.366-1.176 3.093-2.342 8.842-4.09 13.617-4.156 1.737 3.385 4.394 5.347 8.317 5.347 2.52 0 4.241-1.245 3.975-3.147-.23-1.642-1.814-2.632-4.126-3.439-1.533-.535-3.54-.847-4.769-.855-.593-2.12-2.5-6.999-4.587-9.992-1.682-2.416-4.703-3.951-6.746-4.625 2.118-.355 3.717-.974 5.445-2.774 3.521-3.668 1.216-9.995 4.588-9.995 1.708 0 2.3 1.877 2.3 1.877h.01l.203-.89c-.407-.808-1.237-1.87-2.792-1.87-3.72 0-4.165 2.909-5.968 7.336-1.486 3.648-4.735 5.199-7.014 5.467V3.363c0-2.174 2.511-1.893 2.511-1.893l.205-.632S222.634 0 215.814 0c-6.823 0-9.184.838-9.184.838l.169.606s2.649-.364 2.649 1.935c0 3.447.176 10.906-2.24 17.08-1.901 0-4.808-2.452-5.742-8.56-1.112-7.279-2.2-10.841-5.918-10.841-1.458 0-2.508 1.047-3.109 1.87l.249.845c.247-.388 1.124-1.584 2.568-1.584M.544 72.536c.048.045.105.08.165.106.96.414 1.702.994 2.05 2.035a.591.591 0 0 0 .135.226c.124.126.237.24.337.339a.568.568 0 0 0 .804 0l.3-.301a.599.599 0 0 0 .158-.32c.187-1.067.915-1.63 1.92-1.938h130.952v-1.815H6.407c-1.008-.305-1.778-.868-1.922-1.935a.568.568 0 0 0-.152-.325l-.298-.3a.568.568 0 0 0-.804 0l-.35.352a.576.576 0 0 0-.124.196c-.391 1.002-1.03 1.639-2.042 2.052a.588.588 0 0 0-.173.11c-.142.13-.27.25-.376.356a.569.569 0 0 0 0 .803c.106.107.236.227.378.36m427.616 2.139a.593.593 0 0 0 .137.227l.337.339a.568.568 0 0 0 .804 0l.3-.301a.604.604 0 0 0 .158-.32c.194-1.105.966-1.674 2.027-1.974a.57.57 0 0 0 .249-.142c.123-.12.234-.231.33-.327a.57.57 0 0 0 0-.804 39.981 39.981 0 0 0-.33-.328.58.58 0 0 0-.251-.142c-1.064-.297-1.884-.865-2.033-1.971a.569.569 0 0 0-.152-.325l-.298-.3a.568.568 0 0 0-.804 0l-.35.352a.585.585 0 0 0-.124.196c-.38.974-1 1.598-1.963 2.012H295.581v1.815H426.19c.92.411 1.633.984 1.97 1.993"/>
    </g>
</svg>
