<svg xmlns="http://www.w3.org/2000/svg" width="162" height="149" viewBox="0 0 162 149">
    <g fill="#483711" fill-rule="evenodd">
        <path d="M48.64 19.243l-.599.226v.262h2.32v-.253l-.598-.198v-5.79l-.117-.162-1.646.406v.307h.64zm4.08-5.571c.462 0 .696.921.696 2.754-.144.308-.359.461-.633.461-.462 0-.737-.541-.737-1.545 0-1.047.261-1.67.674-1.67m-.166 3.603c.338 0 .62-.109.848-.316-.075 1.508-.71 2.33-2.086 2.628l.158.207c2.045-.134 3.07-1.309 3.07-3.521 0-1.78-.66-2.899-1.872-2.899-.51 0-.93.181-1.253.543-.323.35-.481.84-.481 1.445 0 .577.143 1.037.44 1.39.295.351.688.523 1.176.523m54.524-.699l.275.136c.406.207.681.387.826.55.151.163.227.406.227.74 0 .732-.343 1.12-.895 1.12-.543 0-.818-.406-.818-1.228 0-.523.13-.966.385-1.318m.448-3.269c.447 0 .674.379.674 1.147 0 .46-.096.848-.297 1.174l-.11-.063c-.364-.19-.612-.362-.756-.524-.145-.171-.214-.416-.214-.732 0-.606.262-1.002.703-1.002m-1.81 4.66c0 .93.55 1.471 1.713 1.471 1.287 0 1.927-.623 1.927-1.878 0-.442-.082-.785-.248-1.03-.164-.243-.427-.478-.79-.686.542-.333.81-.82.81-1.445 0-.857-.495-1.399-1.513-1.399-.606 0-1.04.163-1.308.497-.269.333-.399.759-.399 1.291 0 .821.289 1.255.833 1.589-.64.353-1.025.794-1.025 1.59m4.752-.515c-.295 0-.516.262-.516.704 0 .57.406.984.895 1.155.248.082.516.127.799.127.543 0 .983-.154 1.321-.47.338-.316.502-.74.502-1.264 0-.821-.44-1.409-1.204-1.624.633-.209 1.026-.715 1.026-1.464 0-.496-.152-.884-.448-1.173-.296-.298-.703-.443-1.205-.443-.433 0-.812.108-1.15.334-.337.217-.501.533-.501.947 0 .444.22.706.516.706.303 0 .522-.29.522-.723v-.732a.615.615 0 0 1 .441-.172c.414 0 .695.417.695 1.284 0 .912-.322 1.272-.95 1.272h-.288v.353h.316c.737 0 1.101.47 1.101 1.4 0 .947-.357 1.408-.874 1.408a.698.698 0 0 1-.482-.171v-.731c0-.434-.213-.723-.516-.723"/>
        <path d="M76.352 18.12c1.928-5.414 2.038-15.38 2.038-15.8 0-.878.62-1.717 1.868-1.706 1.246.013 1.705 1.019 1.705 1.676v11.046c0 1.107-2.605 1.156-2.605 1.156l-.182.996s2.784.05 2.786 1.156v8.787c0 3.06-2.242 4.114-2.242 4.114s-.203 1.03-.231 1.152c6.116-3.462 9.732-4.344 9.732-4.344l-.3-.766s-2.552.699-2.552-1.102v-8.997c4.485.472 7.98 8.056 9.609 12.203.249.632.512 1.294.737 1.93a38.651 38.651 0 0 0-7.356 1.859c-2.442.875-5.32 2.491-7.533 4.626-1.875-1.578-4.5-2.973-7.939-4.342a36.876 36.876 0 0 0-4.712-1.525c4.03-3.927 5.86-8.408 7.178-12.117m7.629 24.648c0 2.049-.691 3.625-2.053 3.625-1.363 0-2.193-1.806-2.193-3.669 0-1.417.48-3.419 2.127-5.413 1.421 1.712 2.119 3.79 2.119 5.457m25.251-8.896c.163 1.157-.94 2.411-3.067 1.902-2.623-.63-4.271-3.539-4.659-4.524 4.635.04 7.482.89 7.726 2.622m-46.978-.94c-3.342 2.86-8.994 4.278-8.994 1.505 0-2.594 6.306-3.387 10.759-3.15-.6.602-1.195 1.157-1.765 1.644m-2.56-30.744c3.375 0 1.204 8.365 4.313 14.382 1.378 2.665 3.455 4.554 6.892 5.239-1.086 2.732-3.274 5.46-5.265 7.745-3.612-.484-6.426-.209-8.328.066-3.169.456-5.86 2.402-5.208 4.743.65 2.34 4.6 3.77 11.849-.217a23.722 23.722 0 0 0 3.605-2.451c3.64.61 8.567 1.894 11.776 3.73a9.89 9.89 0 0 1 1.845 1.342c-1.798 1.928-3.098 4.285-3.098 6.557 0 5.156 3.394 5.38 3.914 5.38.521 0 3.64-.205 3.64-5.318 0-2.533-1.224-4.821-3.087-6.634.392-.388.841-.777 1.369-1.176 3.097-2.342 8.856-4.09 13.638-4.156 1.74 3.385 4.401 5.347 8.33 5.347 2.523 0 4.248-1.244 3.982-3.146-.231-1.644-1.818-2.633-4.133-3.44-1.535-.535-3.546-.847-4.776-.855-.595-2.121-2.505-6.999-4.594-9.992-1.686-2.416-4.712-3.952-6.757-4.625 2.121-.355 3.723-.973 5.453-2.773 3.527-3.67 1.219-9.996 4.595-9.996 1.711 0 2.305 1.877 2.305 1.877h.008l.205-.891c-.408-.807-1.24-1.87-2.797-1.87-3.725 0-4.171 2.91-5.978 7.337-1.488 3.65-4.742 5.2-7.024 5.466V3.363c0-2.175 2.514-1.893 2.514-1.893l.206-.632S87.115 0 80.283 0c-6.833 0-9.198.838-9.198.838l.17.604s2.652-.363 2.652 1.936c0 3.447.177 10.906-2.242 17.08-1.905 0-4.816-2.453-5.751-8.56C64.8 4.618 63.71 1.056 59.986 1.056c-1.46 0-2.512 1.049-3.114 1.872l.249.845c.248-.389 1.126-1.585 2.572-1.585m97.627 72.107a.538.538 0 0 0 .14.218c.129.122.247.231.35.326.23.215.604.215.835 0 .093-.085.198-.182.31-.29a.56.56 0 0 0 .166-.308c.201-1.064 1.002-1.612 2.105-1.9a.621.621 0 0 0 .258-.138l.343-.315a.52.52 0 0 0 0-.775c-.1-.094-.215-.2-.342-.316a.607.607 0 0 0-.261-.137c-1.105-.286-1.957-.832-2.112-1.9a.535.535 0 0 0-.157-.311l-.31-.29a.625.625 0 0 0-.835 0 68.65 68.65 0 0 0-.363.34.56.56 0 0 0-.129.188c-.395.938-1.039 1.54-2.039 1.939H142v1.748h13.272c.957.396 1.697.948 2.047 1.92M.555 72.233a.556.556 0 0 0 .168.102c.98.397 1.736.957 2.09 1.96a.56.56 0 0 0 .139.218l.343.326a.605.605 0 0 0 .82 0c.091-.086.194-.182.306-.29a.567.567 0 0 0 .161-.308c.192-1.027.933-1.57 1.957-1.867H21v-1.748H6.535c-1.028-.294-1.814-.837-1.96-1.865a.534.534 0 0 0-.156-.312l-.303-.29a.607.607 0 0 0-.821 0 45.1 45.1 0 0 0-.355.34.555.555 0 0 0-.128.188c-.4.966-1.05 1.579-2.082 1.977a.593.593 0 0 0-.177.105c-.144.126-.276.242-.383.344a.526.526 0 0 0 0 .774c.108.103.24.218.385.346m160.947 72.564a.59.59 0 0 0-.252-.136c-1.068-.286-1.89-.834-2.04-1.9a.539.539 0 0 0-.153-.312c-.109-.106-.21-.204-.299-.288a.587.587 0 0 0-.806 0 32.12 32.12 0 0 0-.35.337.542.542 0 0 0-.126.189c-.381.938-1.004 1.54-1.97 1.94H6.428c-1.012-.295-1.784-.839-1.929-1.866a.539.539 0 0 0-.152-.312c-.11-.106-.21-.204-.3-.288a.588.588 0 0 0-.807 0l-.35.337a.553.553 0 0 0-.124.189c-.393.965-1.033 1.578-2.05 1.978a.587.587 0 0 0-.173.105c-.14.125-.27.24-.376.342a.533.533 0 0 0 0 .775c.107.103.236.219.378.346a.591.591 0 0 0 .165.103c.965.397 1.708.957 2.057 1.96a.563.563 0 0 0 .136.218l.337.326a.59.59 0 0 0 .808 0l.3-.29a.568.568 0 0 0 .16-.31c.187-1.026.917-1.569 1.924-1.866H155.5c.924.395 1.64.948 1.977 1.921a.563.563 0 0 0 .137.219l.338.326a.588.588 0 0 0 .806 0c.09-.086.191-.183.3-.29a.568.568 0 0 0 .16-.31c.194-1.063.968-1.61 2.033-1.9a.586.586 0 0 0 .25-.136c.123-.117.235-.223.331-.317a.532.532 0 0 0 0-.775c-.096-.093-.207-.2-.33-.315M44.973 77.674l.26.312c-.754.806-1.352 1.17-2.496 1.17-1.586 0-2.392-.728-3.016-2.99l-.91-3.38c-.546-2.08-2.106-2.834-4.992-2.834h-1.17v7.982l1.69.468V79h-5.356v-.624l1.69-.624v-15.86l-1.69-.494V60.8h5.356v.598l-1.69.52v7.306c1.508 0 2.6-.234 3.276-.676.676-.468 1.17-1.196 1.508-2.184l.884-2.704c.676-2.002 1.768-3.016 3.302-3.016 1.326 0 2.132.65 2.132 1.69 0 .806-.364 1.196-1.092 1.196-.65 0-1.118-.39-1.118-1.092v-.754a.524.524 0 0 0-.286-.078c-.936 0-1.664.806-2.184 2.418l-.832 2.548c-.468 1.43-1.17 2.366-2.132 2.808 1.482.13 2.574.442 3.276.936.702.494 1.222 1.3 1.508 2.418l.884 3.38c.442 1.586.962 2.054 1.872 2.054.546 0 .988-.156 1.326-.494zm12.44-5.356l-.338.312h-8.58c.026 3.926 1.638 5.538 4.628 5.538 1.638 0 2.834-.39 3.614-1.196l.494.52c-1.014 1.066-2.548 1.612-4.602 1.612-1.898 0-3.38-.546-4.498-1.664-1.092-1.118-1.638-2.6-1.638-4.446 0-1.872.546-3.354 1.612-4.42 1.092-1.092 2.496-1.638 4.238-1.638 1.56 0 2.808.442 3.744 1.3.962.858 1.43 1.95 1.43 3.224 0 .364-.026.65-.104.858zm-4.94-4.602c-1.04 0-1.924.416-2.678 1.248-.754.806-1.17 1.794-1.274 2.938l7.254-.182c0-2.314-1.326-4.004-3.302-4.004zm22.918-.078l-1.56.494.598 9.828 1.56.442V79h-5.018v-.624l1.56-.572-.546-8.268L67.747 79h-.91l-4.264-9.464-.546 8.528 1.56.468V79h-3.952v-.52l1.56-.572.624-9.828-1.56-.442v-.598h3.172l4.394 9.906 4.42-9.906h3.146v.598zM77.691 79v-.624l1.56-.572v-9.88l-1.56-.364v-.52h13.52v.52l-1.56.39v10.01l1.56.442V79h-4.966v-.598l1.482-.572V67.82h-6.578v10.14l1.482.442V79h-4.94zm15.56 0v-.624l1.56-.572V68.08l-1.56-.442v-.598h4.966v.598l-1.508.442v6.942l-.078 1.222.078.078 6.526-7.852v-.39l-1.508-.442v-.598h4.966v.598l-1.56.494v9.828l1.56.442V79h-4.966v-.598l1.508-.572v-6.812l.078-1.222-.078-.078-6.526 7.852v.39l1.508.442V79h-4.966zm15.508 0v-.624l1.56-.572V68.08l-1.56-.442v-.598h4.94v.598l-1.482.442v4.42h6.578v-4.42l-1.482-.442v-.598h4.966v.598l-1.56.494v9.828l1.56.442V79h-4.966v-.598l1.482-.572v-4.524h-6.578v4.654l1.482.442V79h-4.94zm24.53-9.022l-.598-2.158h-4.914v10.062l2.392.52V79h-5.85v-.624l1.56-.572v-9.88l-1.56-.364v-.52h9.698v2.938h-.728zM25.696 90.15l-2.99 1.058v8.326c0 4.324 1.794 6.486 5.382 6.486 2.07 0 5.06-.69 6.9-1.794V91.162l-2.99-1.012V89h12.696v1.15l-2.99 1.058v27.876l2.99 1.012v1.104H31.998v-1.196l2.99-1.104v-13.156c-1.242.782-2.76 1.426-4.646 1.84-1.886.414-3.634.644-5.244.644-6.072 0-9.108-3.312-9.108-8.234v-8.832L13 90.15V89h12.696v1.15zm34.466 28.52l-.138-.138c-2.116 1.978-4.692 2.944-7.774 2.944-3.772 0-5.658-1.702-5.658-5.152-.276-2.346 1.38-3.91 3.128-4.876.552-.322 1.426-.644 2.668-.966a76.857 76.857 0 0 1 3.22-.782c.92-.23 2.3-.506 4.186-.92.092-.046.184-.046.23-.046v-4.048c0-2.622-1.38-4.324-3.772-4.324-.966 0-1.932.276-2.944.828v3.082c0 1.978-1.196 3.22-3.036 3.22-1.656 0-2.99-1.196-2.99-3.082 0-1.702.92-3.036 2.714-4.002 1.794-.966 4.048-1.472 6.67-1.472 6.21 0 9.798 2.622 9.798 6.532v13.064c0 .69.322 1.012.92 1.012.506 0 .966-.184 1.38-.506l.506.506c-1.196 1.196-3.036 1.794-5.566 1.794-2.162 0-3.312-.644-3.542-2.668zm-.138-1.656v-6.854c-1.334.276-2.254.46-2.76.598-.506.138-1.15.322-1.932.598-2.024.782-2.254 1.748-2.53 4.324 0 2.3.92 3.45 2.806 3.45 1.61 0 3.082-.69 4.416-2.116zm26.14-22.356v-2.53c0-1.656 1.15-2.806 2.668-2.806 1.518 0 2.668 1.104 2.668 2.714 0 1.426-.782 2.576-2.392 3.358-1.564.782-3.358 1.15-5.428 1.15-2.024 0-3.818-.368-5.428-1.15-1.564-.782-2.346-1.932-2.346-3.404 0-1.61 1.15-2.668 2.668-2.668 1.518 0 2.622 1.15 2.622 2.806v2.53c.736.368 1.564.552 2.484.552.966 0 1.794-.184 2.484-.552zM70.156 121.2v-1.196l2.76-1.058V101.19l-2.76-.92v-1.15h11.546v1.15l-2.346.92v11.086l-.138 2.99.138.138 8.648-13.432v-.782l-2.346-.92v-1.15h11.546v1.15l-2.76 1.012v17.848l2.76.966v1.104H85.658v-1.104l2.346-1.058v-10.994l.138-2.99-.138-.138-8.648 13.478v.736l2.346.966v1.104H70.156zm46.702-18.492v-1.426a.99.99 0 0 0-.46-.092c-.782 0-1.472.92-2.07 2.76l-.782 2.438c-.414 1.242-.966 2.162-1.656 2.76 4.6.138 6.992 1.334 7.728 4.416l.782 3.174c.506 2.162.874 2.852 1.794 2.852.506 0 .966-.184 1.38-.506l.506.506c-1.15 1.242-2.852 1.84-5.106 1.84-2.806 0-4.186-1.38-4.876-4.186l-.874-3.542c-.552-2.346-1.932-3.128-4.554-3.128h-1.288v8.556l2.622.966v1.104H98.182v-1.196l2.76-1.058V101.19l-2.76-.92v-1.15h11.96v1.15l-2.76 1.012v7.82c2.392 0 3.91-1.058 4.554-3.174l.92-2.668c.874-2.898 2.346-4.324 5.106-4.324 2.53 0 4.278 1.104 4.278 3.496 0 1.794-1.012 2.898-2.668 2.898-1.656 0-2.714-.966-2.714-2.622zm22.46 15.962l-.138-.138c-2.116 1.978-4.692 2.944-7.774 2.944-3.772 0-5.658-1.702-5.658-5.152-.276-2.346 1.38-3.91 3.128-4.876.552-.322 1.426-.644 2.668-.966a76.857 76.857 0 0 1 3.22-.782c.92-.23 2.3-.506 4.186-.92.092-.046.184-.046.23-.046v-4.048c0-2.622-1.38-4.324-3.772-4.324-.966 0-1.932.276-2.944.828v3.082c0 1.978-1.196 3.22-3.036 3.22-1.656 0-2.99-1.196-2.99-3.082 0-1.702.92-3.036 2.714-4.002 1.794-.966 4.048-1.472 6.67-1.472 6.21 0 9.798 2.622 9.798 6.532v13.064c0 .69.322 1.012.92 1.012.506 0 .966-.184 1.38-.506l.506.506c-1.196 1.196-3.036 1.794-5.566 1.794-2.162 0-3.312-.644-3.542-2.668zm-.138-1.656v-6.854c-1.334.276-2.254.46-2.76.598-.506.138-1.15.322-1.932.598-2.024.782-2.254 1.748-2.53 4.324 0 2.3.92 3.45 2.806 3.45 1.61 0 3.082-.69 4.416-2.116z"/>
    </g>
</svg>
