<svg xmlns="http://www.w3.org/2000/svg" width="338" height="150" viewBox="0 0 338 150">
    <g fill="#483711" fill-rule="evenodd">
        <path d="M337.092 144.782a.582.582 0 0 0-.251-.142c-1.066-.296-1.887-.865-2.038-1.972a.568.568 0 0 0-.152-.323l-.297-.3a.57.57 0 0 0-.806 0l-.35.35a.588.588 0 0 0-.125.197c-.38.974-1.001 1.598-1.966 2.013H6.417c-1.01-.305-1.78-.87-1.925-1.937a.575.575 0 0 0-.153-.323l-.298-.3a.57.57 0 0 0-.806 0l-.348.35a.574.574 0 0 0-.126.197c-.392 1.002-1.031 1.638-2.045 2.053a.582.582 0 0 0-.173.109c-.142.13-.27.25-.376.355a.569.569 0 0 0 0 .805c.106.107.236.226.378.359.048.044.105.08.165.106.962.413 1.705.993 2.052 2.034a.6.6 0 0 0 .136.227l.337.339a.572.572 0 0 0 .806 0l.3-.301a.598.598 0 0 0 .159-.32c.186-1.066.916-1.63 1.921-1.939h324.68c.922.41 1.636.984 1.973 1.994a.6.6 0 0 0 .137.227l.337.339a.572.572 0 0 0 .806 0c.088-.09.19-.19.3-.301a.605.605 0 0 0 .159-.32c.194-1.105.965-1.673 2.029-1.974a.579.579 0 0 0 .25-.142c.122-.12.233-.23.33-.328a.567.567 0 0 0 0-.805 62.621 62.621 0 0 0-.33-.327M112.278 78.813c2.688 0 4.894-.86 6.592-2.607l-.481-.481c-1.42 1.443-3.297 2.152-5.604 2.152-2.256 0-4.005-.735-5.222-2.177-1.218-1.443-1.826-3.419-1.826-5.925 0-5.164 2.535-8.151 6.972-8.151 2.814 0 4.615 1.214 5.4 3.67h.685l-.305-3.316-.304-.304-.76.532c-1.445-.937-3.144-1.418-5.121-1.418-2.612 0-4.716.81-6.289 2.456-1.546 1.62-2.332 3.823-2.332 6.582 0 2.76.786 4.962 2.332 6.582 1.547 1.595 3.652 2.405 6.263 2.405m16.932-2.278c-.938.912-2.08 1.367-3.423 1.367-1.395 0-2.079-.658-2.079-1.95 0-.86.406-1.493 1.217-1.923.583-.28 2.003-.684 4.285-1.19v3.696zm-.127-4.481c-2.967.658-4.919 1.216-5.831 1.671-.913.455-1.37 1.24-1.37 2.354 0 1.798.989 2.71 2.966 2.71 1.548 0 3.322-.634 4.337-1.47l.076.076c.05.887.456 1.342 1.242 1.342.863 0 1.572-.278 2.155-.86l-.254-.279a1.035 1.035 0 0 1-.76.304c-.38 0-.558-.228-.558-.658v-7.291c0-1.798-1.699-3.04-4.336-3.04-1.267 0-2.332.255-3.22.786-.862.507-1.292 1.14-1.292 1.924 0 .684.405 1.013.912 1.013.532 0 .938-.405.938-.91v-1.267c.711-.532 1.547-.785 2.51-.785 1.547 0 2.612.937 2.612 2.228v2.126c-.025 0-.077 0-.127.026zm10.595 6.026l-1.445-.432v-4.53h6.414v4.405l-1.445.556v.583h4.843v-.583l-1.522-.43v-9.57l1.522-.48v-.583h-4.843v.582l1.445.431v4.303h-6.414V68.03l1.445-.43v-.583h-4.818v.582l1.521.431v9.467l-1.521.558v.608h4.818zm18.25-1.545c-.937.912-2.08 1.367-3.422 1.367-1.395 0-2.08-.658-2.08-1.95 0-.86.406-1.493 1.217-1.923.584-.28 2.003-.684 4.285-1.19v3.696zm-.126-4.481c-2.967.658-4.92 1.216-5.832 1.671-.913.455-1.369 1.24-1.369 2.354 0 1.798.988 2.71 2.966 2.71 1.547 0 3.321-.634 4.336-1.47l.076.076c.05.887.457 1.342 1.242 1.342.863 0 1.572-.278 2.156-.86l-.254-.279a1.035 1.035 0 0 1-.761.304c-.38 0-.557-.228-.557-.658v-7.291c0-1.798-1.7-3.04-4.336-3.04-1.267 0-2.332.255-3.22.786-.862.507-1.293 1.14-1.293 1.924 0 .684.405 1.013.913 1.013.532 0 .938-.405.938-.91v-1.267c.71-.532 1.547-.785 2.51-.785 1.547 0 2.611.937 2.611 2.228v2.126c-.025 0-.076 0-.126.026zm15.234-4.279l.583 2.102h.71v-2.86h-11.206v2.86h.684l.61-2.102h3.371v9.722l-1.521.557v.607h4.917v-.582l-1.52-.43v-9.874zm5.346 5.064c0-3.24 1.546-5.164 3.88-5.164 2.332 0 3.879 1.923 3.879 5.164 0 3.216-1.547 5.139-3.88 5.139s-3.879-1.923-3.879-5.14m8.088 4.33c1.091-1.064 1.624-2.506 1.624-4.33 0-1.822-.533-3.265-1.624-4.328-1.065-1.064-2.458-1.596-4.209-1.596-1.75 0-3.143.532-4.208 1.596-1.065 1.063-1.598 2.506-1.598 4.329s.533 3.265 1.598 4.329c1.065 1.063 2.459 1.595 4.208 1.595 1.75 0 3.144-.532 4.21-1.595m10.492.86c-1.216 0-2.206-.303-2.966-.91v-7.95c.76-.886 1.85-1.342 3.27-1.342 2.358 0 3.753 1.848 3.753 5.013 0 3.316-1.547 5.19-4.057 5.19m1.166-11.115c-1.521 0-3.22.506-4.107 1.444l-.076-.076.051-1.114-.304-.304-2.916.456v.683l1.369.355v15.468l-1.522.557v.607h5.706v-.581l-2.333-.507v-5.95c.81.533 1.876.81 3.17.81 3.625 0 5.806-2.202 5.806-6.05 0-3.468-1.775-5.798-4.844-5.798m12.217 11.166l-1.47-.432v-.38l6.363-7.645.076.076-.076 1.19v6.634l-1.47.556v.583h4.842v-.583l-1.521-.43v-9.57l1.521-.48v-.583h-4.843v.582l1.471.431v.38l-6.363 7.645-.076-.076.076-1.19v-6.759l1.47-.43v-.583h-4.843v.582l1.522.431v9.467l-1.522.558v.608h4.843zm14.6-13.57c.76.43 1.597.632 2.51.632.938 0 1.775-.202 2.51-.632.761-.431 1.141-.988 1.141-1.646 0-.633-.406-1.012-.913-1.012-.533 0-.938.404-.938.91v1.115c-.431.354-1.014.531-1.8.531-.76 0-1.344-.177-1.775-.531v-1.114c0-.507-.406-.911-.938-.911-.506 0-.913.328-.913 1.012 0 .658.38 1.215 1.116 1.646m.811 13.57l-1.47-.432v-.38l6.364-7.645.076.076-.076 1.19v6.634l-1.471.556v.583h4.842v-.583l-1.52-.43v-9.57l1.52-.48v-.583h-4.842v.582l1.471.431v.38l-6.364 7.645-.076-.076.076-1.19v-6.759l1.47-.43v-.583h-4.842v.582l1.52.431v9.467l-1.52.558v.608h4.842zM36.35 100.004v-.993H25.908v.993l2.395.857v.768l-9.628 13.901-.135-.135.135-2.888V100.86l2.396-.857v-.993H10.585v.993l2.712.857v17.83l-2.712.992v.993h10.487v-.948l-2.396-.903v-.722l9.628-13.901.135.135-.135 2.844v11.554l-2.395.993v.948h10.44v-.948l-2.712-.903v-17.919zm22.235 20.672h10.759v-.948l-2.713-.903-1.04-17.918 2.713-.903v-.993H60.98l-7.186 16.114-7.053-16.114H39.33v.993l2.712.858-1.04 18.099-2.711.947v.768h6.825v-.722l-2.713-.859.905-15.525 7.684 17.106h1.853l7.55-17.06.903 15.074-2.713.992zm18.755-12.232c.227-5.19 2.713-8.35 5.786-8.35 2.894 0 4.656 2.754 4.656 7.763l-10.441.587zm5.56-9.613c-3.209 0-5.875.993-7.909 3.023-2.034 1.987-3.074 4.695-3.074 8.125 0 3.295.994 5.913 2.984 7.944 1.988 1.985 4.745 2.979 8.316 2.979 3.707 0 6.69-1.13 8.905-3.431l-.814-.812c-1.582 1.58-3.661 2.347-6.238 2.347-5.108 0-7.683-3.114-7.73-9.388h14.42l.678-.677c.136-.406.226-.993.226-1.67 0-2.483-.904-4.468-2.712-6.049-1.808-1.58-4.158-2.391-7.051-2.391zm23.368 20.897l-2.306-.903v-8.486h9.538v8.396l-2.305.993v.948h10.396v-.948l-2.712-.903v-17.918l2.712-.902v-.993h-10.396v.993l2.305.857v8.033h-9.538v-8.033l2.306-.857v-.993H95.87v.993l2.712.857v17.828l-2.712.992v.994h10.397zm25.716-18.866l2.396-.857v-.993h-10.487v.993l2.713.857v17.828l-2.713.992v.994h10.487v-.948l-2.396-.903v-.721l9.628-13.903.136.137-.136 2.842v11.555l-2.395.993v.948h10.441v-.948l-2.712-.903v-17.918l2.712-.902v-.993h-10.441v.993l2.395.857v.767l-9.628 13.9-.134-.134.134-2.889zm61.289-10.923v-.857H168.82v.857l2.938.767-2.532 23.109c-.361 3.656-1.311 4.876-1.943 4.876a.903.903 0 0 1-.407-.091v-1.22c0-1.624-.994-2.572-2.577-2.572-1.581 0-2.576 1.038-2.576 2.708 0 2.302 1.899 3.386 4.068 3.386 2.938 0 4.7-2.438 5.198-7.268l2.486-23.108h11.3v28.119l-2.937 1.038v.992h11.435v-.947l-2.938-.948V90.752l2.938-.813zm8.404 18.505c.227-5.19 2.713-8.35 5.786-8.35 2.893 0 4.656 2.754 4.656 7.763l-10.442.587zm15.098.497c.135-.406.226-.993.226-1.67 0-2.483-.904-4.468-2.712-6.049-1.809-1.58-4.158-2.391-7.052-2.391-3.21 0-5.876.993-7.91 3.023-2.034 1.987-3.073 4.695-3.073 8.125 0 3.295.994 5.913 2.983 7.944 1.989 1.985 4.746 2.979 8.316 2.979 3.707 0 6.69-1.13 8.906-3.431l-.815-.812c-1.582 1.58-3.66 2.347-6.238 2.347-5.107 0-7.683-3.114-7.729-9.388h14.42l.678-.677zm13.829 10.787l-2.305-.903v-8.486h9.538v8.396l-2.306.993v.948h10.397v-.948l-2.712-.903v-17.918l2.712-.902v-.993H235.53v.993l2.306.857v8.033h-9.538v-8.033l2.305-.857v-.993h-10.396v.993l2.711.857v17.828l-2.711.992v.994h10.396zm28.112 0l-2.395-.903v-.721l9.628-13.903.135.136-.135 2.843v11.555l-2.396.993v.948h10.441v-.948l-2.712-.903v-17.918l2.712-.902v-.993h-10.441v.993l2.396.857v.767l-9.628 13.9-.136-.134.136-2.889v-11.644l2.395-.857v-.993H248.23v.993l2.711.857v17.828l-2.71.992v.994h10.485zm43.3-19.724v-.993h-10.397v.993l2.306.857v8.035h-9.538v-8.035l2.305-.857v-.993h-10.396v.993l2.713.857v17.83l-2.713.992v.993h10.396v-.948l-2.305-.903v-8.485h9.538v8.395l-2.306.993v.948h10.397v-.948l-2.713-.903v-17.919zm16.632 16.7c-1.402 1.49-3.074 2.211-4.972 2.211-2.125 0-3.21-1.173-3.21-3.565 0-1.85.679-3.16 1.989-3.927.859-.451 2.892-.993 6.193-1.67v6.95zm-.724-8.08l-4.701.994c-1.175.27-2.35.587-3.48.993-1.13.36-1.99.768-2.576 1.219-1.13.901-1.898 2.256-1.898 4.106 0 3.296 1.852 4.966 5.605 4.966 3.118 0 5.74-.948 7.774-2.845l.135.181c.181 1.716 1.22 2.573 3.165 2.573 2.124 0 3.75-.542 4.881-1.625l-.452-.45c-.453.315-.904.496-1.402.496-.678 0-.994-.362-.994-1.038v-13.045c0-3.746-3.39-6.273-9.131-6.273-2.485 0-4.61.496-6.328 1.444-1.717.948-2.576 2.211-2.576 3.837 0 1.76 1.13 2.707 2.621 2.707 1.583 0 2.622-1.128 2.622-2.798v-2.979c1.13-.632 2.214-.947 3.346-.947 2.576 0 4.113 1.715 4.113 4.378v3.972l-.724.135zM136.57 19.421l-.6.226v.262h2.32v-.253l-.598-.198V13.67l-.117-.163-1.646.406v.307h.64zm4.079-5.571c.461 0 .695.921.695 2.754-.144.307-.358.461-.633.461-.462 0-.737-.542-.737-1.545 0-1.047.261-1.67.675-1.67m-.166 3.603c.337 0 .62-.109.847-.316-.075 1.508-.709 2.33-2.085 2.628l.158.207c2.044-.135 3.07-1.309 3.07-3.521 0-1.78-.661-2.899-1.873-2.899-.508 0-.928.18-1.252.542-.323.352-.482.84-.482 1.445 0 .579.145 1.037.44 1.39.296.352.689.524 1.177.524m54.517-.7l.276.135c.406.209.68.39.826.552.15.163.227.406.227.74 0 .732-.344 1.12-.894 1.12-.544 0-.82-.406-.82-1.228 0-.523.131-.966.386-1.319m.447-3.268c.448 0 .675.38.675 1.147 0 .46-.096.849-.296 1.174l-.111-.064c-.364-.189-.612-.36-.757-.524-.143-.17-.213-.415-.213-.731 0-.605.262-1.002.702-1.002m-1.81 4.66c0 .93.551 1.47 1.714 1.47 1.286 0 1.927-.622 1.927-1.878 0-.44-.083-.785-.248-1.029-.165-.242-.426-.478-.79-.686.542-.334.81-.821.81-1.445 0-.857-.495-1.4-1.514-1.4-.605 0-1.04.164-1.307.498-.269.333-.4.759-.4 1.29 0 .822.29 1.256.834 1.59-.64.352-1.025.794-1.025 1.59m4.751-.515c-.295 0-.515.26-.515.704 0 .57.406.985.894 1.156.248.081.517.126.799.126.543 0 .984-.154 1.322-.47.337-.316.5-.74.5-1.264 0-.822-.439-1.409-1.203-1.625.633-.208 1.026-.713 1.026-1.463 0-.497-.152-.885-.448-1.174-.295-.298-.703-.442-1.204-.442-.433 0-.812.108-1.15.334-.337.216-.502.533-.502.947 0 .444.22.705.517.705.302 0 .522-.289.522-.722v-.731a.612.612 0 0 1 .441-.172c.413 0 .695.415.695 1.282 0 .912-.323 1.273-.95 1.273h-.289v.352h.317c.737 0 1.101.47 1.101 1.4 0 .949-.358 1.41-.874 1.41a.7.7 0 0 1-.483-.173v-.731c0-.434-.213-.723-.515-.723"/>
        <path d="M164.87 18.121c1.926-5.415 2.036-15.38 2.036-15.802 0-.878.62-1.716 1.867-1.705 1.247.012 1.705 1.018 1.705 1.676v11.046c0 1.107-2.605 1.156-2.605 1.156l-.182.996s2.783.05 2.786 1.156v8.785c0 3.063-2.241 4.115-2.241 4.115s-.204 1.031-.231 1.153c6.115-3.462 9.73-4.344 9.73-4.344l-.3-.766s-2.551.698-2.551-1.102v-8.997c4.484.471 7.98 8.055 9.608 12.202.248.632.512 1.295.737 1.931a38.627 38.627 0 0 0-7.355 1.859c-2.442.875-5.32 2.491-7.532 4.626-1.875-1.578-4.5-2.974-7.94-4.343a36.859 36.859 0 0 0-4.71-1.524c4.028-3.927 5.858-8.408 7.178-12.118m7.627 24.649c0 2.049-.692 3.625-2.053 3.625-1.362 0-2.192-1.806-2.192-3.668 0-1.419.48-3.42 2.126-5.413 1.422 1.71 2.119 3.79 2.119 5.456m25.25-8.896c.161 1.156-.942 2.411-3.068 1.902-2.623-.63-4.27-3.539-4.658-4.523 4.634.038 7.48.888 7.725 2.621m-46.974-.941c-3.341 2.86-8.993 4.28-8.993 1.506 0-2.594 6.306-3.387 10.758-3.15a30.78 30.78 0 0 1-1.765 1.644m-2.56-30.744c3.376 0 1.205 8.365 4.314 14.382 1.376 2.665 3.454 4.555 6.89 5.24-1.085 2.73-3.273 5.46-5.264 7.743-3.611-.483-6.425-.208-8.327.066-3.168.458-5.858 2.403-5.208 4.744.651 2.34 4.6 3.77 11.848-.217a23.833 23.833 0 0 0 3.606-2.451c3.64.611 8.564 1.894 11.773 3.73.734.42 1.339.871 1.845 1.342-1.797 1.927-3.097 4.285-3.097 6.557 0 5.156 3.393 5.38 3.914 5.38.52 0 3.639-.205 3.639-5.319 0-2.532-1.225-4.82-3.086-6.633.392-.387.84-.777 1.368-1.177 3.097-2.341 8.855-4.089 13.637-4.156 1.74 3.385 4.401 5.348 8.329 5.348 2.523 0 4.247-1.245 3.98-3.146-.23-1.644-1.816-2.633-4.131-3.44-1.535-.535-3.546-.847-4.775-.854-.595-2.122-2.505-7-4.594-9.994-1.686-2.414-4.712-3.951-6.756-4.624 2.12-.355 3.722-.974 5.452-2.773 3.527-3.669 1.219-9.996 4.594-9.996 1.712 0 2.305 1.876 2.305 1.876h.008l.205-.89c-.408-.807-1.24-1.87-2.796-1.87-3.725 0-4.17 2.91-5.977 7.337-1.489 3.649-4.742 5.2-7.024 5.466V3.364c0-2.174 2.514-1.893 2.514-1.893l.206-.632S175.63 0 168.799 0c-6.831 0-9.196.838-9.196.838l.169.604s2.652-.363 2.652 1.935c0 3.448.178 10.907-2.242 17.081-1.904 0-4.815-2.452-5.751-8.56-1.113-7.28-2.202-10.842-5.927-10.842-1.46 0-2.511 1.048-3.114 1.871l.25.845c.247-.388 1.126-1.584 2.572-1.584m184.862 72.489a.591.591 0 0 0 .136.227c.125.125.238.24.338.337a.57.57 0 0 0 .805 0l.3-.3a.606.606 0 0 0 .159-.32c.194-1.106.966-1.674 2.029-1.974a.588.588 0 0 0 .25-.142c.124-.12.234-.23.33-.327a.569.569 0 0 0 0-.805 28.79 28.79 0 0 0-.33-.327.57.57 0 0 0-.251-.142c-1.065-.296-1.886-.864-2.036-1.972a.571.571 0 0 0-.152-.324l-.299-.3a.571.571 0 0 0-.805 0l-.35.352a.574.574 0 0 0-.125.195c-.38.974-1.002 1.598-1.965 2.013h-82.423v1.814H331.1c.924.412 1.637.984 1.974 1.995M.545 72.537c.048.044.105.08.165.105.962.413 1.705.994 2.052 2.035a.593.593 0 0 0 .136.227l.337.337a.57.57 0 0 0 .806 0l.3-.3a.606.606 0 0 0 .159-.32c.186-1.066.916-1.63 1.921-1.939h83.814V70.87H6.417c-1.01-.306-1.781-.87-1.925-1.937a.573.573 0 0 0-.153-.324l-.298-.3a.571.571 0 0 0-.806 0c-.102.103-.22.22-.349.352a.574.574 0 0 0-.125.195c-.392 1.003-1.031 1.64-2.045 2.053a.613.613 0 0 0-.174.109c-.14.13-.27.25-.375.356a.567.567 0 0 0 0 .804c.106.106.236.227.378.36"/>
    </g>
</svg>
