<svg xmlns="http://www.w3.org/2000/svg" width="316" height="150" viewBox="0 0 316 150">
    <g fill="#483711" fill-rule="evenodd">
        <path d="M92.423 61.7l-1.696 13.342c-.127 1.342-.43 2.303-.886 2.86h9.848V61.7h-7.266zm9.822 16.962H87.992l-.607 3.444h-.735v-4.203h2c.532-.33.912-1.267 1.09-2.81l1.695-13.267-1.646-.38v-.506h13.47v.507l-1.647.43v16.026h2v4.203h-.733l-.634-3.444zm9.717-.683c2.328 0 3.873-1.925 3.873-5.14 0-3.24-1.545-5.165-3.873-5.165-2.329 0-3.874 1.925-3.874 5.165 0 3.215 1.545 5.14 3.874 5.14m-5.797-5.14c0-1.823.531-3.265 1.594-4.33 1.064-1.062 2.456-1.595 4.203-1.595 1.747 0 3.139.533 4.203 1.595 1.088 1.065 1.62 2.507 1.62 4.33s-.532 3.266-1.62 4.33c-1.064 1.062-2.456 1.593-4.203 1.593-1.747 0-3.14-.531-4.203-1.594-1.063-1.063-1.594-2.506-1.594-4.329m27.641-4.759l.582 9.57 1.519.43v.582h-4.885v-.608l1.518-.557-.531-8.05-4.127 9.215h-.887l-4.151-9.215-.531 8.304 1.518.455v.456h-3.848v-.506l1.52-.557.607-9.57-1.52-.43v-.583h3.089l4.279 9.646 4.304-9.646h3.063v.583zm15.311 9.899c2.33 0 3.873-1.925 3.873-5.14 0-3.24-1.544-5.165-3.873-5.165-2.33 0-3.874 1.925-3.874 5.165 0 3.215 1.545 5.14 3.874 5.14m-5.797-5.14c0-1.823.531-3.265 1.594-4.33 1.064-1.062 2.456-1.595 4.203-1.595 1.747 0 3.14.533 4.202 1.595 1.089 1.065 1.62 2.507 1.62 4.33s-.531 3.266-1.62 4.33c-1.063 1.062-2.455 1.593-4.202 1.593-1.747 0-3.14-.531-4.203-1.594-1.063-1.063-1.594-2.506-1.594-4.329m23.691-5.063h-3.366v9.873l1.518.43v.583h-4.91v-.608l1.518-.557v-9.721h-3.367l-.608 2.101h-.683v-2.86h11.19v2.86h-.709zm6.479 0l-.937 7.265c-.152 1.342-.455 2.28-.936 2.861h6.48V67.776h-4.607zm6.784 10.886h-9.949l-.633 3.064h-.683v-3.824h1.595c.557-.38.911-1.316 1.088-2.81l.937-7.215-1.52-.354v-.507h10.381v.507l-1.52.38v10h1.62v3.823h-.707l-.609-3.064zM198.55 68.08v9.57l1.518.43v.582h-4.911v-.608l1.52-.557V68.03l-1.52-.43v-.583h4.911v.583l-1.519.48zm-11.368 4.632v5.19h2.406c1.644 0 2.708-.987 2.708-2.607 0-1.594-1.064-2.583-2.708-2.583h-2.406zm-3.367 5.95v-.557l1.519-.456v-9.62l-1.519-.43v-.583h4.886v.583l-1.519.48v3.849h2.684c2.633 0 4.379 1.315 4.379 3.367 0 2.05-1.746 3.367-4.38 3.367h-6.05zm27.388-1.013l-3.393-4.176-3.494 4.176 1.9.43v.582h-4.304v-.581l1.468-.431 4-4.734-3.95-4.886-1.417-.43v-.583H207v.583l-1.418.43 3.216 4 3.393-4-1.875-.43v-.583h4.28v.583l-1.469.43-3.873 4.557 4.1 5.063 1.419.43v.582h-4.962v-.581zm13.034-4.809c-2.279.506-3.696.91-4.279 1.189-.81.43-1.215 1.064-1.215 1.924 0 1.291.684 1.95 2.076 1.95 1.342 0 2.481-.456 3.418-1.368V72.84zm-.026 4.48c-1.012.835-2.784 1.469-4.329 1.469-1.975 0-2.962-.912-2.962-2.71 0-1.113.456-1.898 1.368-2.354.91-.455 2.86-1.013 5.823-1.67.05-.026.1-.026.126-.026v-2.127c0-1.29-1.064-2.227-2.608-2.227-.962 0-1.797.252-2.506.784v1.267c0 .505-.405.91-.937.91-.506 0-.911-.329-.911-1.013 0-.784.43-1.417 1.291-1.923.886-.532 1.95-.786 3.215-.786 2.633 0 4.329 1.241 4.329 3.04v7.29c0 .43.177.659.557.659.304 0 .557-.102.76-.304l.253.278c-.582.583-1.291.86-2.152.86-.785 0-1.19-.455-1.24-1.341l-.077-.076zm90.79 67.463a.567.567 0 0 0-.25-.142c-1.065-.296-1.885-.865-2.035-1.972a.566.566 0 0 0-.151-.324l-.298-.3a.57.57 0 0 0-.805 0c-.102.103-.22.22-.348.351a.57.57 0 0 0-.125.195c-.38.975-1 1.599-1.963 2.014H6.407c-1.009-.305-1.778-.87-1.922-1.936a.566.566 0 0 0-.152-.324l-.297-.3a.57.57 0 0 0-.805 0l-.349.351a.57.57 0 0 0-.125.195c-.391 1.004-1.03 1.64-2.042 2.054a.58.58 0 0 0-.173.11c-.141.13-.27.249-.375.354a.57.57 0 0 0 0 .805c.105.106.235.227.377.36.048.043.105.08.165.105.961.413 1.701.994 2.049 2.035a.589.589 0 0 0 .136.227l.337.337a.57.57 0 0 0 .805 0l.298-.3a.602.602 0 0 0 .159-.32c.187-1.067.915-1.63 1.919-1.94h302.607c.92.412 1.634.984 1.97 1.996a.589.589 0 0 0 .137.227l.336.337a.57.57 0 0 0 .805 0l.299-.3a.602.602 0 0 0 .159-.32c.194-1.106.965-1.674 2.026-1.974a.589.589 0 0 0 .25-.143l.33-.327a.567.567 0 0 0 0-.805 39.878 39.878 0 0 0-.33-.326M42.097 89.94v-.858H10.412v.857l2.935.768v27.938l-2.935 1.038v.993h11.42v-.948l-2.934-.947V90.527h14.714v28.118l-2.933 1.038v.993h11.418v-.948l-2.934-.947V90.752zm10.333 13.134c1.218-1.49 2.754-2.257 4.603-2.257 3.43 0 5.462 3.475 5.462 9.208 0 6.318-2.211 9.658-6.048 9.658a7.44 7.44 0 0 1-4.017-1.174v-15.435zm4.829 17.828c6.725 0 10.698-4.153 10.698-11.42 0-6.454-2.98-10.651-8.44-10.651-2.935 0-5.282.947-7.087 2.843l-.135-.135.135-2.211-.677-.632-7.222.902v1.084l2.528.767v27.397l-2.708.993v.993h12.185v-.948l-4.106-.993v-9.072c1.353.722 2.979 1.083 4.829 1.083zm21.752-20.04l2.392-.857v-.993h-10.47v.993l2.708.857v17.828l-2.709.993v.993h10.471v-.948l-2.392-.902v-.722l9.614-13.902.135.136-.135 2.843v11.554l-2.392.993v.948H96.66v-.948l-2.708-.902v-17.919l2.708-.902v-.993H86.233v.993l2.392.857v.768l-9.614 13.9-.134-.134.134-2.89zm32.404-.767c3.385 0 5.507 3.43 5.507 9.794 0 6.318-2.122 9.75-5.507 9.75s-5.551-3.432-5.551-9.75c0-6.364 2.166-9.794 5.55-9.794m-10.2-1.264c-.587 2.121-.903 4.603-.903 7.448 0 9.748 3.656 14.623 10.924 14.623 3.43 0 6.138-.993 8.124-2.934 2.03-1.986 3.023-4.65 3.023-8.033 0-3.385-.992-6.094-2.979-8.08-1.986-2.03-4.649-3.024-7.943-3.024-3.61 0-6.23 1.218-7.808 3.61h-.18c.134-8.259 4.513-8.8 8.98-9.387 3.295-.45 6.68-1.084 8.215-5.236l-.677-.631c-.767.767-2.979 1.173-5.326 1.534-2.302.316-5.144.767-7.627 2.256-2.483 1.49-4.604 3.566-5.822 7.854m32.178 4.243c1.218-1.49 2.754-2.257 4.603-2.257 3.43 0 5.462 3.475 5.462 9.208 0 6.318-2.211 9.658-6.048 9.658a7.44 7.44 0 0 1-4.017-1.174v-15.435zm4.829 17.828c6.725 0 10.698-4.153 10.698-11.42 0-6.454-2.98-10.651-8.44-10.651-2.935 0-5.282.947-7.087 2.843l-.135-.135.135-2.211-.677-.632-7.222.902v1.084l2.528.767v27.397l-2.708.993v.993h12.185v-.948l-4.106-.993v-9.072c1.353.722 2.979 1.083 4.829 1.083zm19.766-12.457c.226-5.19 2.708-8.35 5.777-8.35 2.889 0 4.649 2.753 4.649 7.763l-10.426.587zm15.075.496c.135-.406.226-.993.226-1.67 0-2.482-.903-4.468-2.709-6.048-1.805-1.58-4.151-2.392-7.04-2.392-3.205 0-5.868.993-7.898 3.024-2.032 1.986-3.07 4.695-3.07 8.124 0 3.295.993 5.914 2.98 7.944 1.985 1.986 4.738 2.979 8.303 2.979 3.702 0 6.68-1.129 8.892-3.43l-.813-.813c-1.58 1.58-3.656 2.347-6.229 2.347-5.1 0-7.671-3.113-7.717-9.388h14.398l.677-.677zm28.839-5.913l-.857 2.618c-.724 2.122-2.257 3.205-4.65 3.205v-7.944l2.708-.902v-.994h-10.742v.994l2.708.857v7.989c-2.392 0-3.927-1.083-4.65-3.205l-.856-2.618c-.858-2.798-2.437-4.197-4.694-4.197-2.212 0-3.882 1.038-3.882 3.25 0 1.67.903 2.617 2.347 2.617 1.49 0 2.482-.857 2.482-2.3v-1.49a.907.907 0 0 1 .407-.091c.813 0 1.49.902 2.077 2.754l.767 2.391c.451 1.354 1.082 2.347 1.85 2.98-4.333.134-6.454 1.263-7.176 4.332l-.858 3.295c-.496 1.986-.947 2.709-1.85 2.709-.497 0-.949-.182-1.355-.497l-.45.497c.992 1.082 2.482 1.624 4.423 1.624 2.528 0 3.7-1.31 4.423-4.062l.857-3.475c.587-2.348 1.985-3.205 4.694-3.205h1.444v8.53l-2.708.993v.993h10.652v-.947l-2.618-.904v-8.665h1.4c2.753 0 4.152.857 4.694 3.205l.902 3.475c.722 2.752 1.85 4.062 4.423 4.062 1.987 0 3.43-.542 4.378-1.624l-.45-.497c-.408.315-.86.497-1.355.497-.903 0-1.309-.723-1.806-2.709l-.902-3.295c-.767-3.069-2.844-4.243-7.13-4.378.766-.631 1.353-1.625 1.804-2.934l.813-2.391c.585-1.852 1.263-2.754 2.075-2.754.181 0 .317.045.407.09v1.49c0 1.444.993 2.301 2.437 2.301 1.49 0 2.392-.947 2.392-2.617 0-2.212-1.67-3.25-3.836-3.25-2.483 0-3.837 1.444-4.74 4.197m22.564-3.023v-.993h-10.381v.993l2.708.857v17.829l-2.708.992v.993h10.38v-.948l-2.301-.903v-8.485h9.524v8.396l-2.302.992v.948h10.38v-.948l-2.707-.903v-17.918l2.708-.902v-.993h-10.381v.993l2.302.857v8.034h-9.524v-8.034zm25.679 9.478h3.204c2.708 0 4.47 1.714 4.47 4.92 0 3.204-1.716 4.92-4.47 4.92h-3.204v-9.84zm-8.079 10.29v.903h12.683c5.1 0 8.53-2.438 8.53-6.274s-3.475-6.273-8.53-6.273h-4.604v-7.222l2.708-.902v-.993h-10.787v.993l2.708.857v18.099l-2.708.812zm32.813-19.768v-.993H264.09v.993l2.708.857v17.829l-2.708.992v.993h10.787v-.948l-2.708-.903v-17.918zm7.759-8.079c0 1.354.767 2.436 2.257 3.204 1.49.767 3.205 1.128 5.1 1.128 1.895 0 3.61-.36 5.1-1.128 1.535-.768 2.302-1.806 2.302-3.16 0-1.444-1.038-2.391-2.347-2.391-1.399 0-2.392.993-2.392 2.437v2.437c-.768.406-1.625.632-2.663.632-.993 0-1.85-.226-2.617-.632v-2.437c.27-3.16-4.965-3.204-4.74-.09m20.22 8.079v-.993h-10.425v.993l2.392.857v.767l-9.614 13.902-.135-.136.135-2.888v-11.645l2.392-.857v-.993h-10.47v.993l2.707.857v17.829l-2.708.992v.993h10.471v-.948l-2.392-.903v-.721l9.614-13.902.135.135-.135 2.844v11.555l-2.392.992v.948h10.425v-.948l-2.708-.903v-17.918zM124.613 19.421l-.599.225v.263h2.316v-.253l-.597-.198v-5.789l-.116-.163-1.644.408v.306h.64zm4.073-5.571c.461 0 .694.92.694 2.755-.144.307-.357.46-.632.46-.46 0-.735-.542-.735-1.545 0-1.047.26-1.67.673-1.67m-.166 3.602c.337 0 .62-.108.846-.315-.075 1.507-.708 2.33-2.082 2.628l.158.206c2.042-.133 3.065-1.309 3.065-3.52 0-1.78-.66-2.899-1.87-2.899-.508 0-.927.18-1.25.542-.323.352-.482.84-.482 1.445 0 .578.145 1.037.44 1.39.296.352.688.523 1.175.523m54.438-.699l.274.136c.406.208.68.389.825.551.15.162.227.406.227.74 0 .731-.343 1.12-.894 1.12-.543 0-.817-.406-.817-1.228 0-.524.13-.966.385-1.319m.447-3.268c.446 0 .673.38.673 1.147 0 .46-.096.848-.296 1.174l-.11-.064c-.364-.189-.611-.36-.756-.524-.144-.171-.213-.415-.213-.731 0-.606.262-1.002.702-1.002m-1.808 4.66c0 .93.55 1.471 1.71 1.471 1.286 0 1.925-.624 1.925-1.878 0-.442-.082-.785-.248-1.03-.164-.243-.426-.478-.789-.686.542-.333.81-.822.81-1.444 0-.858-.494-1.4-1.511-1.4-.606 0-1.039.163-1.306.497-.269.334-.398.759-.398 1.29 0 .823.288 1.255.831 1.59-.64.352-1.024.794-1.024 1.59m4.746-.515c-.296 0-.516.261-.516.704 0 .57.406.984.894 1.155.247.082.514.127.797.127.542 0 .982-.153 1.32-.47.337-.315.5-.74.5-1.264 0-.821-.44-1.408-1.202-1.625.632-.209 1.025-.714 1.025-1.464 0-.495-.152-.884-.447-1.173-.296-.297-.702-.442-1.203-.442a2 2 0 0 0-1.148.334c-.337.217-.501.532-.501.948 0 .443.22.705.516.705.301 0 .52-.29.52-.723v-.732a.614.614 0 0 1 .44-.171c.414 0 .695.416.695 1.283 0 .912-.323 1.272-.948 1.272h-.289v.352h.316c.736 0 1.1.471 1.1 1.4 0 .948-.357 1.409-.873 1.409a.696.696 0 0 1-.481-.172v-.73c0-.434-.213-.723-.515-.723"/>
        <path d="M152.87 18.121c1.924-5.415 2.034-15.38 2.034-15.801 0-.878.62-1.717 1.865-1.706 1.245.012 1.703 1.018 1.703 1.676l-.001 11.046c0 1.107-2.6 1.157-2.6 1.157l-.182.995s2.78.05 2.782 1.156v8.786c0 3.061-2.239 4.115-2.239 4.115s-.203 1.03-.23 1.152c6.106-3.462 9.716-4.344 9.716-4.344l-.3-.767s-2.548.7-2.548-1.101v-8.997c4.478.472 7.969 8.056 9.594 12.203.248.632.511 1.293.736 1.93a38.54 38.54 0 0 0-7.344 1.86c-2.439.874-5.312 2.49-7.521 4.625-1.873-1.577-4.494-2.973-7.927-4.342a36.876 36.876 0 0 0-4.704-1.526c4.023-3.926 5.849-8.406 7.167-12.117m7.616 24.648c0 2.05-.69 3.625-2.05 3.625-1.36 0-2.189-1.804-2.189-3.668 0-1.417.48-3.418 2.123-5.412 1.42 1.71 2.116 3.789 2.116 5.455m25.212-8.894c.162 1.156-.939 2.41-3.062 1.901-2.62-.63-4.265-3.539-4.652-4.524 4.627.04 7.47.89 7.714 2.623m-46.905-.941c-3.336 2.86-8.98 4.278-8.98 1.505 0-2.595 6.297-3.387 10.743-3.15a31.51 31.51 0 0 1-1.763 1.645m-2.556-30.745c3.37 0 1.203 8.364 4.307 14.383 1.376 2.664 3.45 4.554 6.88 5.238-1.083 2.732-3.268 5.461-5.256 7.745-3.606-.484-6.416-.209-8.314.065-3.164.457-5.85 2.403-5.2 4.743.65 2.34 4.593 3.77 11.83-.217a23.679 23.679 0 0 0 3.6-2.45c3.634.611 8.552 1.894 11.756 3.73a9.92 9.92 0 0 1 1.842 1.342c-1.794 1.928-3.093 4.285-3.093 6.558 0 5.155 3.389 5.378 3.908 5.378.52 0 3.634-.203 3.634-5.317 0-2.534-1.222-4.821-3.081-6.634.391-.388.84-.777 1.366-1.176 3.093-2.342 8.842-4.09 13.616-4.156 1.738 3.385 4.395 5.347 8.318 5.347 2.52 0 4.241-1.245 3.975-3.147-.23-1.642-1.814-2.632-4.126-3.439-1.533-.535-3.54-.847-4.769-.855-.593-2.12-2.5-6.999-4.587-9.992-1.682-2.416-4.704-3.951-6.746-4.625 2.118-.355 3.717-.974 5.445-2.774 3.521-3.668 1.216-9.995 4.587-9.995 1.71 0 2.301 1.877 2.301 1.877h.01l.203-.89c-.407-.808-1.237-1.87-2.792-1.87-3.72 0-4.165 2.909-5.968 7.336-1.486 3.648-4.735 5.199-7.014 5.467V3.363c0-2.174 2.511-1.893 2.511-1.893l.205-.632S163.616 0 156.794 0c-6.82 0-9.182.838-9.182.838l.169.606s2.649-.364 2.649 1.935c0 3.447.176 10.906-2.24 17.08-1.901 0-4.808-2.452-5.742-8.56-1.113-7.279-2.2-10.841-5.918-10.841-1.458 0-2.508 1.047-3.109 1.87l.249.845c.247-.388 1.124-1.584 2.568-1.584M310.99 74.676a.591.591 0 0 0 .135.227l.338.339a.568.568 0 0 0 .804 0l.299-.301a.599.599 0 0 0 .159-.32c.194-1.105.965-1.674 2.027-1.974a.57.57 0 0 0 .249-.142 62.9 62.9 0 0 0 .33-.327.568.568 0 0 0 0-.804 28.783 28.783 0 0 0-.33-.328.58.58 0 0 0-.251-.142c-1.064-.297-1.884-.865-2.033-1.971a.568.568 0 0 0-.152-.325l-.298-.3a.568.568 0 0 0-.804 0l-.35.352a.585.585 0 0 0-.124.196c-.38.974-1 1.598-1.963 2.012h-72.464v1.815h72.457c.92.411 1.633.984 1.97 1.993M.544 72.536c.048.045.105.08.165.106.961.414 1.702.994 2.049 2.035a.582.582 0 0 0 .136.226l.337.339a.57.57 0 0 0 .805 0l.299-.301a.604.604 0 0 0 .158-.32c.187-1.067.914-1.63 1.919-1.938h71.935v-1.815H6.407C5.4 70.563 4.63 70 4.486 68.933a.57.57 0 0 0-.153-.325l-.297-.3a.57.57 0 0 0-.805 0l-.349.352a.565.565 0 0 0-.125.196c-.392 1.002-1.03 1.639-2.042 2.052a.576.576 0 0 0-.172.11c-.142.13-.271.25-.376.356a.567.567 0 0 0 0 .803c.106.107.235.227.377.36"/>
    </g>
</svg>
