<svg xmlns="http://www.w3.org/2000/svg" width="200" height="200" viewBox="0 0 200 200">
    <g fill="none" fill-rule="evenodd">
        <path fill="#483711" d="M117.644 168.552c-.445 0-.885-.197-1.18-.574-7.594-9.68-5.954-25.779-5.18-30.956-3.613-.625-8.128-3.359-8.08-13.125v-18.338c-.845-11.477 2.94-14.868 3.937-15.556 8.431-7.89 9.75-12.546 9.892-24.352.085-6.993 2.398-11.044 4.65-13.337a34.9 34.9 0 0 0-3.919.536c-5.337 1.022-10.22 1.519-14.933 1.519h-4.74c-4.712 0-9.597-.497-14.933-1.518a34.682 34.682 0 0 0-3.919-.536c2.252 2.292 4.565 6.343 4.65 13.337.141 11.805 1.46 16.461 9.892 24.351.998.688 4.781 4.079 3.936 15.556v18.155c0 1.751-.265 7.727-3.68 11.097a8.008 8.008 0 0 1-4.395 2.24c.775 5.21 2.395 21.267-5.184 30.927a1.503 1.503 0 0 1-2.106.255 1.502 1.502 0 0 1-.254-2.107c8.095-10.319 4.36-29.958 4.322-30.155-.087-.443.03-.902.32-1.249.29-.348.732-.561 1.171-.54 1.65.049 2.97-.471 4.02-1.506 2.651-2.618 2.786-7.925 2.786-8.962v-18.211c0-.037.001-.075.004-.112.787-10.515-2.618-12.901-2.652-12.924a1.087 1.087 0 0 1-.239-.182c-9.26-8.637-10.79-13.956-10.942-26.597-.134-11.109-6.496-13.194-6.767-13.278a1.506 1.506 0 0 1-1.065-1.473 1.495 1.495 0 0 1 1.124-1.418c.133-.035 3.32-.809 9.543.386 5.148.985 9.847 1.464 14.367 1.464h4.741c4.521 0 9.22-.479 14.368-1.465 6.221-1.192 9.41-.419 9.542-.385a1.5 1.5 0 0 1 .046 2.895c-.258.08-6.62 2.165-6.754 13.274-.152 12.641-1.68 17.96-10.94 26.597-.087.08-.18.15-.283.208.004 0-3.396 2.389-2.61 12.898.003.038.004.075.004.112v18.408c-.033 6.736 2.272 10.192 6.851 10.271a1.501 1.501 0 0 1 1.446 1.789c-.039.197-3.773 19.836 4.322 30.155a1.501 1.501 0 0 1-1.179 2.426"/>
        <path fill="#F4E07A" d="M89.28 163.583c3.77-8.837 3.188-19.605 2.542-25.062 5.73-2.07 7.865-8.855 7.865-14.807V105.63c.855-11.838-3.056-15.972-4.65-17.149-7.941-7.45-9.042-11.392-9.18-22.854-.056-4.633-1.038-8.113-2.378-10.713 5.197.958 9.983 1.424 14.612 1.424h4.74c4.63 0 9.417-.467 14.613-1.424-1.34 2.6-2.323 6.08-2.38 10.713-.137 11.462-1.237 15.404-9.18 22.854-1.592 1.177-5.503 5.311-4.648 17.15v18.256c-.048 9.73 4.168 13.32 7.869 14.596-.648 5.447-1.242 16.245 2.537 25.1H89.28z"/>
        <path fill="#483711" d="M51.478 78.599a1.5 1.5 0 0 1-.28-2.973c.114-.022 11.608-2.328 14.801-10.507a1.5 1.5 0 0 1 2.795 1.091c-3.8 9.735-16.495 12.26-17.033 12.363a1.62 1.62 0 0 1-.283.026M149.441 78.599a1.62 1.62 0 0 1-.283-.026c-.538-.103-13.23-2.628-17.032-12.363a1.5 1.5 0 1 1 2.794-1.091c3.205 8.207 14.685 10.485 14.801 10.506a1.5 1.5 0 1 1-.28 2.974"/>
        <path fill="#483711" d="M88.005 134.183h.01c1.608 0 2.889-.493 3.915-1.507 2.653-2.618 2.787-7.925 2.787-8.962v-18.211c0-.037.002-.074.005-.112.786-10.515-2.618-12.9-2.653-12.924a1.075 1.075 0 0 1-.24-.181c-9.26-8.638-10.788-13.957-10.941-26.598-.133-11.11-6.495-13.193-6.766-13.277a1.509 1.509 0 0 1-1.066-1.474 1.496 1.496 0 0 1 1.125-1.418c.133-.035 3.32-.81 9.542.386 5.148.985 9.848 1.465 14.368 1.465h4.74c4.52 0 9.22-.48 14.368-1.466 6.222-1.192 9.41-.42 9.542-.385a1.5 1.5 0 0 1 .047 2.895c-.258.08-6.62 2.165-6.754 13.273-.153 12.642-1.681 17.96-10.942 26.599-.085.08-.18.149-.282.208.005 0-3.396 2.388-2.61 12.897.003.038.005.075.005.112l-.001 18.409c-.032 6.677 2.233 10.13 6.735 10.267 1.392-.218 2.505-.925 3.399-2.16 3.677-5.08 2.41-17.445 1.61-21.781a1.694 1.694 0 0 1-.018-.143c-.695-8.085 1.157-12.544 1.236-12.73a1.5 1.5 0 0 1 .515-.638c13.614-9.616 12.314-23.927 12.3-24.07a1.405 1.405 0 0 1-.008-.112c-.41-14.49 2.277-23.617 4.575-28.693-4.231.33-8.056-.174-11.62-1.524a2.813 2.813 0 0 1-.15-.064c-.023-.01-.07-.024-.095-.034-.99-.387-2.084-.985-3.342-1.828-12.683-8.53-29.073-8.532-41.758-.013-1.237.843-2.333 1.446-3.344 1.84-.008.004-.1.036-.108.039l-.137.06c-3.563 1.35-7.387 1.854-11.62 1.524 2.298 5.076 4.985 14.204 4.575 28.694a2.133 2.133 0 0 1-.007.11c-.058.585-1.258 14.495 12.3 24.07.227.162.406.383.515.639.079.186 1.93 4.645 1.236 12.729a1.72 1.72 0 0 1-.02.144c-.028.156-2.814 15.672 1.612 21.782.899 1.24 2.018 1.949 3.42 2.163m.01 3c-.107 0-.217-.001-.325-.015-2.27-.31-4.131-1.45-5.536-3.39-5.053-6.982-2.39-22.637-2.145-24.01.504-5.98-.511-9.73-.884-10.867C64.813 88.516 65.839 73.645 65.95 72.41c.463-16.612-3.235-25.695-5.482-29.633a1.5 1.5 0 0 1 .069-1.595c.327-.476.9-.725 1.467-.63 4.922.77 9.03.444 12.926-1.03.034-.02.096-.05.29-.114.724-.286 1.625-.786 2.68-1.505 13.712-9.208 31.416-9.203 45.112.007 1.073.719 1.976 1.217 2.76 1.524.12.037.182.067.263.104 3.85 1.459 7.958 1.787 12.882 1.014a1.49 1.49 0 0 1 1.467.63c.328.475.354 1.094.068 1.595-2.247 3.938-5.945 13.02-5.482 29.633.112 1.234 1.138 16.106-13.174 26.49-.371 1.13-1.388 4.883-.884 10.867.246 1.373 2.909 17.028-2.145 24.01-1.405 1.94-3.267 3.08-5.535 3.39-.076.01-.158.01-.23.014-3.683-.064-9.854-1.875-9.8-13.285l.002-18.338c-.846-11.477 2.938-14.868 3.936-15.556 8.432-7.89 9.75-12.546 9.893-24.352.084-6.992 2.397-11.044 4.649-13.336a34.654 34.654 0 0 0-3.92.535c-5.335 1.022-10.22 1.52-14.931 1.52H98.09c-4.711 0-9.596-.498-14.933-1.52a34.638 34.638 0 0 0-3.918-.535c2.25 2.292 4.564 6.344 4.648 13.337.142 11.805 1.46 16.46 9.893 24.35.998.689 4.782 4.08 3.936 15.557v18.155c0 1.75-.265 7.727-3.68 11.097-1.594 1.574-3.62 2.372-6.022 2.372"/>
        <path fill="#483711" d="M40.973 86.555c-.648 0-1.2-.038-1.623-.068-6.786-.52-11.555-4.861-13.895-7.56-2.357-1.292-4.313-2.963-5.816-4.97-5.358-7.131-4.145-16.928-.566-23.472 4.553-8.335 12.718-11.096 16.017-11.897.059-.013.119-.024.179-.032 7.512-.875 14.581-.604 21.009.81l1.045.239c1.374.315 2.932.673 4.682.948a1.501 1.501 0 0 1 1.249 1.715 1.504 1.504 0 0 1-1.715 1.248c-1.854-.291-3.535-.677-4.887-.987l-1.022-.233c-6.073-1.337-12.775-1.596-19.921-.77-2.376.589-9.964 3.002-14.004 10.397-3.017 5.517-4.199 14.2.333 20.234 1.292 1.724 2.999 3.156 5.078 4.258.168.09.318.21.441.356 1.582 1.866 5.917 6.258 12.013 6.723 1.371.1 3.683.259 6.083-1.046 1.641-.927 4.423-3.095 4.341-5.288-.137-3.284-6.521-6.372-11.371-6.372-2.151 0-4.252.353-6.076 1.02-2.119.759-4.428-.187-5.261-2.154l.001-.001-.026-.065c-1.503-3.45-1.908-6.818-1.203-10.012.574-2.536 1.817-4.865 3.697-6.93 6.074-6.511 16.168-5.75 21.647-4.717 1.906.366 6.775 1.57 11.893 5.039 1.915 1.274 3.367 2.576 4.291 3.445a1.5 1.5 0 0 1-2.054 2.186c-.917-.861-2.19-1.997-3.909-3.14-4.798-3.252-9.432-4.324-10.737-4.575-3.963-.746-13.653-1.855-18.925 3.795-1.514 1.663-2.519 3.535-2.975 5.552-.855 3.872.574 7.13 1.043 8.2.013.029.026.06.036.09.253.53.932.655 1.46.467 2.142-.785 4.599-1.2 7.098-1.2 5.702 0 14.134 3.6 14.368 9.243.164 4.399-4.868 7.466-5.878 8.037-2.286 1.244-4.514 1.487-6.14 1.487M159.942 86.555c-1.627 0-3.845-.242-6.107-1.473-1.038-.586-6.068-3.657-5.904-8.033.235-5.66 8.666-9.261 14.368-9.261 2.499 0 4.956.415 7.106 1.202.518.187 1.199.06 1.452-.47.01-.03.023-.06.036-.09.469-1.07 1.899-4.326 1.042-8.207-.455-2.01-1.461-3.883-2.986-5.558-5.27-5.635-14.953-4.527-18.872-3.788-1.346.258-5.98 1.33-10.78 4.575-1.742 1.166-3.063 2.354-3.906 3.147a1.5 1.5 0 1 1-2.055-2.186c.92-.865 2.366-2.165 4.287-3.45 5.122-3.464 9.992-4.668 11.847-5.024 5.526-1.042 15.613-1.803 21.683 4.692 1.893 2.077 3.137 4.406 3.709 6.938.707 3.202.303 6.57-1.201 10.019l-.027.065h.002c-.834 1.968-3.14 2.915-5.254 2.158-1.831-.67-3.931-1.023-6.083-1.023-4.85 0-11.234 3.088-11.371 6.368-.081 2.194 2.7 4.363 4.356 5.299 2.386 1.297 4.697 1.133 6.077 1.039 6.087-.465 10.423-4.857 12.004-6.723.123-.146.273-.266.442-.356 2.064-1.094 3.773-2.528 5.078-4.26 4.526-6.038 3.346-14.721.333-20.231-4.042-7.397-11.63-9.81-14.005-10.398-7.143-.827-13.85-.567-19.937.77l-.961.22c-1.362.314-3.056.705-4.932 1a1.5 1.5 0 0 1-.465-2.963c1.77-.28 3.339-.641 4.723-.96l.986-.225c6.447-1.415 13.52-1.686 21.025-.812.06.008.12.019.18.032 3.299.8 11.464 3.56 16.018 11.898 3.575 6.536 4.786 16.33-.567 23.47-1.52 2.017-3.474 3.688-5.816 4.972-2.34 2.698-7.108 7.04-13.886 7.559-.428.029-.986.068-1.64.068"/>
        <path fill="#F4E07A" d="M48.444 77.124c.15 1.982-2.341 3.523-2.99 3.924-2.267 1.402-4.594 1.311-5.853 1.246-2.647-.139-7.386-1.196-8.408-4.235-.413-1.226-.092-2.39-.062-2.492.444-1.538 1.706-2.339 2.242-2.677 1.676-1.064 3.377-1.042 5.107-.997 1.396.037 4.532.16 7.473 2.242 1.216.861 2.392 1.695 2.49 2.99M152.041 77.122c-.155 2.034 2.402 3.615 3.067 4.026 2.327 1.44 4.715 1.346 6.007 1.28 2.716-.144 7.577-1.229 8.627-4.347.423-1.257.094-2.45.064-2.556-.456-1.579-1.752-2.399-2.3-2.748-1.722-1.09-3.466-1.068-5.24-1.022-1.433.037-4.652.163-7.669 2.301-1.247.882-2.455 1.738-2.556 3.066"/>
    </g>
</svg>
