<svg xmlns="http://www.w3.org/2000/svg" xmlns:xlink="http://www.w3.org/1999/xlink" width="200" height="200" viewBox="0 0 200 200">
    <defs>
        <path id="a" d="M.199.405h74.897v74.897H.199z"/>
        <path id="c" d="M0 140.595h164.752V1H0z"/>
    </defs>
    <g fill="none" fill-rule="evenodd">
        <g transform="translate(63 30.595)">
            <mask id="b" fill="#fff">
                <use xlink:href="#a"/>
            </mask>
            <path fill="#483711" d="M37.648 3.405c-18.995 0-34.45 15.454-34.45 34.449 0 18.994 15.455 34.448 34.45 34.448 18.995 0 34.448-15.454 34.448-34.448 0-18.995-15.453-34.45-34.448-34.45m0 71.898c-20.65 0-37.45-16.8-37.45-37.448 0-20.65 16.8-37.45 37.45-37.45 20.649 0 37.448 16.8 37.448 37.45 0 20.649-16.8 37.448-37.448 37.448" mask="url(#b)"/>
        </g>
        <path fill="#483711" d="M94.986 88.056h11.323V75.621a1.5 1.5 0 0 1 1.5-1.5h12.434V62.774H107.81a1.5 1.5 0 0 1-1.5-1.5V48.84H94.986v12.434a1.5 1.5 0 0 1-1.5 1.5H81.051v11.347h12.435a1.5 1.5 0 0 1 1.5 1.5v12.435zm12.823 3H93.486a1.5 1.5 0 0 1-1.5-1.5V77.121H79.551a1.5 1.5 0 0 1-1.5-1.5V61.274a1.5 1.5 0 0 1 1.5-1.5h12.435V47.34a1.5 1.5 0 0 1 1.5-1.5h14.323a1.5 1.5 0 0 1 1.5 1.5v12.434h12.434a1.5 1.5 0 0 1 1.5 1.5v14.347a1.5 1.5 0 0 1-1.5 1.5H109.31v12.435a1.5 1.5 0 0 1-1.5 1.5z"/>
        <path fill="#F4E07A" d="M96.832 86.21V72.277H82.898V64.62h13.934V50.687h7.63V64.62h13.936v7.655h-13.936V86.21zM52.528 163.318h37.248v-16.539H52.528zM110.093 163.318h37.248v-16.539h-37.248z"/>
        <path fill="#483711" d="M116.62 144.829h-.01a1.5 1.5 0 0 1-1.49-1.51 57.316 57.316 0 0 0-1.089-11.412c-1.153-5.824-.66-11.592 1.423-16.682a35.457 35.457 0 0 1 4.524-7.964c5.841-7.756 12.611-11.034 17.262-12.417 1.92-.56 3.546-.847 4.688-.994 2.151-1.938 13.063-11.703 18.335-15.206 4.054-2.681 9.544-1.895 12.77 1.83a1.5 1.5 0 0 1 .028 1.932l-13.85 16.945a4026.483 4026.483 0 0 0-5.753 10.18 1.5 1.5 0 1 1-2.614-1.472c1.931-3.43 3.875-6.87 5.82-10.298.04-.074.09-.144.142-.21l13.061-15.98c-2.269-1.822-5.492-2.05-7.947-.426-5.55 3.687-18.207 15.135-18.335 15.25-.234.212-.53.345-.844.379a27.527 27.527 0 0 0-4.654.947c-4.21 1.253-10.363 4.24-15.714 11.346a32.495 32.495 0 0 0-4.142 7.294c-1.86 4.544-2.295 9.718-1.257 14.964a60.335 60.335 0 0 1 1.145 12.013 1.5 1.5 0 0 1-1.5 1.49"/>
        <path fill="#483711" d="M142.583 144.829a1.5 1.5 0 0 1-1.5-1.5c0-6.707 3.019-12.925 8.286-17.071l23.23-22.394a14.556 14.556 0 0 0 4.207-7.755c1.886-9.765 2.932-16.75 2.946-19.687l-2.517-29.386c-1.371.543-2.553 1.61-3.348 3.029-.788 1.409-.548 4.327-.336 6.902.096 1.162.195 2.363.21 3.468 0 .055-.002.109-.007.164l-1.403 14.657a1.5 1.5 0 0 1-2.987-.286l1.396-14.575c-.017-.98-.106-2.05-.199-3.182-.259-3.15-.528-6.406.709-8.613 1.204-2.15 3.065-3.746 5.242-4.494.772-.266 1.902-.543 2.802.099.514.367.806.935.827 1.604l2.606 30.423c.003.042.005.085.005.128 0 3.955-1.632 13.232-3.001 20.319a17.53 17.53 0 0 1-5.07 9.345l-23.285 22.447a1.883 1.883 0 0 1-.117.1 18.614 18.614 0 0 0-7.196 14.758 1.5 1.5 0 0 1-1.5 1.5"/>
        <path fill="#483711" d="M165.246 72.974a1.499 1.499 0 0 1-1.495-1.642l.772-8.116a541.85 541.85 0 0 0-.077-7.336 666.172 666.172 0 0 1-.074-6.087 9.44 9.44 0 0 1 .673-3.56c.127-.318.264-.65.4-.971.816-1.954 2.346-3.502 4.197-4.247a9.16 9.16 0 0 1 .46-.174 3.371 3.371 0 0 1 4.514 3.174v4.49a1.5 1.5 0 1 1-3 0v-4.49a.355.355 0 0 0-.155-.301.385.385 0 0 0-.356-.047c-.11.04-.224.082-.338.129-1.116.449-2.046 1.405-2.556 2.625-.129.307-.258.62-.379.923a6.442 6.442 0 0 0-.46 2.43c.011 1.887.042 3.973.073 6.06.04 2.615.078 5.229.078 7.453 0 .047-.002.095-.006.142l-.78 8.187a1.5 1.5 0 0 1-1.49 1.358"/>
        <path fill="#483711" d="M158.213 75.698a1.5 1.5 0 0 1-1.491-1.678l.986-8.266c-.688-8.669.36-14.169 3.122-16.352 1.813-1.433 3.612-.909 3.812-.843a1.501 1.501 0 0 1-.883 2.867c-.081-.02-.573-.099-1.136.384-.854.734-2.751 3.552-1.913 13.85.008.1.006.2-.006.3l-1.004 8.416a1.5 1.5 0 0 1-1.487 1.322"/>
        <path fill="#483711" d="M146.452 86.745a1.501 1.501 0 0 1-1.374-2.1l4.496-10.323 1.166-10.108c.01-.074.023-.147.042-.22 1.548-5.748 5.952-8.005 6.14-8.098a1.5 1.5 0 0 1 1.346 2.68c-.152.079-3.355 1.78-4.56 6.096l-1.179 10.216a1.47 1.47 0 0 1-.116.427l-4.585 10.529a1.5 1.5 0 0 1-1.376.9M84.133 144.829a1.5 1.5 0 0 1-1.5-1.491 60.174 60.174 0 0 1 1.145-12.013c1.038-5.246.604-10.42-1.256-14.963a32.528 32.528 0 0 0-4.142-7.294c-5.352-7.106-11.504-10.094-15.723-11.35a27.47 27.47 0 0 0-4.646-.944 1.499 1.499 0 0 1-.844-.38c-.128-.114-12.785-11.562-18.338-15.251-2.45-1.622-5.675-1.395-7.945.429L43.946 97.55c.053.066.102.136.143.21 1.944 3.428 3.888 6.869 5.82 10.298a1.5 1.5 0 1 1-2.615 1.472c-1.909-3.39-3.83-6.791-5.752-10.18l-13.85-16.945a1.5 1.5 0 0 1 .027-1.931c3.226-3.727 8.715-4.513 12.768-1.832 5.273 3.504 16.186 13.269 18.337 15.207 1.142.147 2.767.434 4.68.99 4.66 1.387 11.43 4.665 17.271 12.422a35.49 35.49 0 0 1 4.524 7.964c2.083 5.089 2.575 10.857 1.422 16.682a57.218 57.218 0 0 0-1.088 11.412 1.5 1.5 0 0 1-1.49 1.509h-.01z"/>
        <path fill="#483711" d="M58.17 144.829a1.5 1.5 0 0 1-1.5-1.5 18.614 18.614 0 0 0-7.197-14.757 1.883 1.883 0 0 1-.117-.101l-23.285-22.447a17.53 17.53 0 0 1-5.07-9.345c-1.369-7.087-3-16.364-3-20.32 0-.042.001-.085.004-.127l2.606-30.423c.021-.67.312-1.237.827-1.604.901-.643 2.03-.365 2.802-.1 2.177.749 4.038 2.345 5.242 4.495 1.237 2.207.968 5.464.71 8.613-.094 1.132-.183 2.202-.2 3.182l1.396 14.575a1.5 1.5 0 0 1-2.987.286l-1.403-14.657a1.799 1.799 0 0 1-.007-.164c.015-1.105.114-2.306.21-3.468.212-2.575.452-5.493-.336-6.902-.795-1.42-1.977-2.486-3.348-3.03L21 76.423c.014 2.938 1.06 9.922 2.946 19.687a14.556 14.556 0 0 0 4.207 7.755l23.23 22.394c5.267 4.146 8.286 10.364 8.286 17.07a1.5 1.5 0 0 1-1.5 1.5"/>
        <path fill="#483711" d="M35.506 72.974a1.5 1.5 0 0 1-1.49-1.358l-.78-8.187a1.687 1.687 0 0 1-.008-.142c0-2.216.04-4.82.078-7.425.032-2.096.063-4.193.074-6.087a6.449 6.449 0 0 0-.46-2.431c-.12-.3-.25-.616-.378-.921-.512-1.222-1.44-2.178-2.552-2.625a7.196 7.196 0 0 0-.344-.131.381.381 0 0 0-.355.047.355.355 0 0 0-.154.3v4.49a1.5 1.5 0 1 1-3 0v-4.49c0-1.092.532-2.121 1.423-2.75a3.397 3.397 0 0 1 3.09-.424c.153.054.307.113.463.176 1.848.744 3.377 2.292 4.196 4.248.134.319.27.65.397.968a9.43 9.43 0 0 1 .674 3.56 672.137 672.137 0 0 1-.074 6.115 522.928 522.928 0 0 0-.078 7.309l.773 8.116a1.499 1.499 0 0 1-1.495 1.642"/>
        <path fill="#483711" d="M42.644 76.927a1.5 1.5 0 0 1-1.488-1.329l-1.109-9.644a1.592 1.592 0 0 1-.005-.293c.839-10.299-1.058-13.117-1.913-13.85-.58-.499-1.087-.397-1.143-.384-.788.256-1.608-.183-1.864-.971s.201-1.641.989-1.897c.199-.066 1.999-.59 3.812.843 2.76 2.183 3.81 7.685 3.121 16.355l1.092 9.499a1.499 1.499 0 0 1-1.492 1.671"/>
        <path fill="#483711" d="M54.3 86.745a1.5 1.5 0 0 1-1.376-.901l-4.585-10.53a1.47 1.47 0 0 1-.116-.426l-1.178-10.216c-1.209-4.327-4.425-6.026-4.562-6.096a1.505 1.505 0 0 1-.656-2.015 1.495 1.495 0 0 1 2.004-.665c.187.093 4.591 2.35 6.14 8.099.018.072.032.145.041.219l1.166 10.108 4.496 10.323a1.501 1.501 0 0 1-1.374 2.1M48.73 170.595a1.5 1.5 0 0 1-1.5-1.5v-25.766a1.5 1.5 0 0 1 1.5-1.5h44.424a1.5 1.5 0 0 1 1.5 1.5v23.796a1.5 1.5 0 0 1-1.5 1.5H57.34a1.5 1.5 0 1 1 0-3h34.314v-20.796H50.23v24.266a1.5 1.5 0 0 1-1.5 1.5M150.93 168.625a1.5 1.5 0 0 1-1.5-1.5V144.83h-41.424v20.468h35.406a1.5 1.5 0 1 1 0 3h-36.906a1.5 1.5 0 0 1-1.5-1.5V143.33a1.5 1.5 0 0 1 1.5-1.5h44.424a1.5 1.5 0 0 1 1.5 1.5v23.796a1.5 1.5 0 0 1-1.5 1.5"/>
    </g>
</svg>
