<svg xmlns="http://www.w3.org/2000/svg" width="200" height="200" viewBox="0 0 200 200">
    <defs>
        <path id="a" d="M.043.895h15.33v25.284H.042V.895z"/>
    </defs>
    <g fill="none" fill-rule="evenodd">
        <path fill="#483711" d="M76.306 56.284h-.763a1.5 1.5 0 1 1 0-3h.763c3.104 0 6.086-1.47 7.978-3.93a10.118 10.118 0 0 0 2.088-6.135v-10.72a1.5 1.5 0 1 1 3 0v10.72c0 2.865-.962 5.694-2.71 7.965a13.145 13.145 0 0 1-10.356 5.1"/>
        <path fill="#483711" d="M63.799 41.62c-.342 0-.691.02-1.048.06-14.39 1.61-35.022 34.234-38.996 42.425-11.763 24.248-14.877 50.462-8.544 71.92 2.726 9.238 12.906 9.655 21.888 10.022 1.458.059 2.874.118 4.21.212 11.486.804 24.507 1.718 36.922-.817 5.658-1.156 8.037-4.074 8.21-10.072.445-15.496.501-33.473-4.52-50.716a473.02 473.02 0 0 0-2.393-7.868c-3.839-12.361-7.81-25.145-6.412-38.795.373-3.648.509-8.276-1.776-11.716-.26-.391-.526-.757-.798-1.096-1.909-2.388-4.123-3.56-6.743-3.56m-4.097 128.486c-6.429 0-12.713-.441-18.603-.854a138.68 138.68 0 0 0-4.123-.206c-9.493-.39-21.308-.873-24.642-12.17-6.542-22.166-3.363-49.167 8.722-74.078 2.654-5.473 24.181-42.177 41.362-44.1 4.133-.458 7.653 1.09 10.467 4.609.328.41.649.85.954 1.31 2.813 4.233 2.686 9.534 2.262 13.68-1.336 13.042 2.369 24.97 6.292 37.6a470.306 470.306 0 0 1 2.408 7.92c5.143 17.66 5.091 35.915 4.639 51.64-.213 7.384-3.584 11.49-10.609 12.926-6.352 1.297-12.81 1.723-19.129 1.723M124.826 56.284h-.763c-4.03 0-7.9-1.906-10.357-5.1a13.137 13.137 0 0 1-2.71-7.965V33.06a1.5 1.5 0 1 1 3 0v10.158c0 2.207.742 4.386 2.088 6.137a10.132 10.132 0 0 0 7.979 3.928h.763a1.5 1.5 0 1 1 0 3"/>
        <path fill="#483711" d="M128.655 44.242h.01-.01zm7.915-2.622c-2.62 0-4.834 1.17-6.744 3.559-.272.34-.537.705-.796 1.095-2.287 3.44-2.15 8.069-1.778 11.717 1.398 13.65-2.572 26.434-6.41 38.795a454.763 454.763 0 0 0-2.394 7.868c-5.022 17.245-4.966 35.22-4.52 50.716.172 5.998 2.551 8.916 8.21 10.072 9.688 1.98 19.757 1.486 29.494 1.009 3.39-.166 6.894-.338 10.343-.404 9.075-.175 20.34-.393 23.182-10.021 6.333-21.46 3.22-47.673-8.544-71.921-3.974-8.191-24.607-40.816-38.997-42.426a9.365 9.365 0 0 0-1.046-.06zm1.93 128.259c-5.656 0-11.34-.35-16.963-1.497-7.025-1.436-10.396-5.542-10.608-12.926-.453-15.723-.505-33.977 4.638-51.64.773-2.654 1.605-5.331 2.408-7.92 3.923-12.63 7.628-24.558 6.293-37.6-.425-4.146-.55-9.448 2.262-13.681.307-.462.628-.903.954-1.31 2.813-3.518 6.333-5.066 10.466-4.607 17.18 1.922 38.708 38.626 41.363 44.099 12.085 24.91 15.263 51.912 8.721 74.079-3.463 11.735-16.477 11.986-25.978 12.17-3.428.066-6.91.236-10.278.4-4.375.216-8.818.433-13.279.433z"/>
        <path fill="#483711" d="M125.724 71.39c-.206 0-.416-.042-.616-.133a61.08 61.08 0 0 0-24.924-5.359h-.127a61.079 61.079 0 0 0-24.796 5.36 1.5 1.5 0 1 1-1.234-2.734 64.107 64.107 0 0 1 26.024-5.626h.133a64.103 64.103 0 0 1 26.158 5.625 1.5 1.5 0 0 1-.618 2.867M41.913 92.774a1.5 1.5 0 0 1-1.452-1.881c1.92-7.305 6.326-14.048 12.407-18.987 6.724-5.463 14.122-7.428 21.123-8.974a1.5 1.5 0 0 1 .647 2.93c-6.926 1.528-13.658 3.319-19.88 8.372-5.59 4.54-9.636 10.728-11.395 17.42a1.5 1.5 0 0 1-1.45 1.12"/>
        <path fill="#483711" d="M54.233 69.397c-1.3 0-2.608-.061-3.918-.25-2.932-.425-5.362-1.437-7.223-3.01a1.498 1.498 0 0 1-.178-2.113 1.498 1.498 0 0 1 2.112-.178c1.407 1.188 3.383 1.994 5.718 2.332 2.2.321 4.434.226 6.798.127l5.925-.251a1.5 1.5 0 1 1 .128 2.998l-5.923.25c-1.131.047-2.28.095-3.438.095M60.213 100.645a1.498 1.498 0 0 1-1.483-1.734c1.728-10.908-4.475-17.137-4.741-17.397a1.5 1.5 0 1 1 2.091-2.152c.31.302 7.593 7.516 5.612 20.017a1.499 1.499 0 0 1-1.479 1.266M159.436 92.774a1.5 1.5 0 0 1-1.45-1.12c-1.759-6.692-5.806-12.878-11.396-17.42-6.22-5.053-12.953-6.844-19.879-8.372a1.5 1.5 0 0 1 .647-2.93c7.001 1.546 14.4 3.51 21.123 8.974 6.081 4.94 10.487 11.683 12.407 18.987a1.5 1.5 0 0 1-1.452 1.88"/>
        <path fill="#483711" d="M147.115 69.397c-1.157 0-2.304-.048-3.434-.095l-5.928-.25a1.5 1.5 0 1 1 .128-2.998l5.921.25c2.37.101 4.603.194 6.802-.126 2.367-.343 4.291-1.128 5.718-2.332a1.498 1.498 0 1 1 1.935 2.291c-1.862 1.573-4.292 2.585-7.224 3.01-1.309.189-2.619.25-3.918.25M141.136 100.645a1.499 1.499 0 0 1-1.48-1.266c-1.98-12.501 5.303-19.715 5.613-20.017a1.5 1.5 0 0 1 2.09 2.152c-.268.264-6.468 6.492-4.74 17.397a1.498 1.498 0 0 1-1.483 1.734"/>
        <path fill="#F4E07A" d="M81.71 158.76c-.67 1.56-1.99 2.15-4.31 2.62-2.59.53-5.33.92-8.25 1.18-2.92.26-6.04.39-9.37.39-5.85 0-11.7-.37-18.18-.83-1.37-.09-2.83-.15-4.33-.21-9.78-.41-16.33-1.11-18.08-7.06-6.05-20.48-3.02-45.61 8.3-68.93 2.26-4.67 6.52-11.57 11.53-18.35-.296.636-7.797 17.025-10.988 39.61-3.773 26.712 16.536 50.96 43.5 51.752 3.358.098 6.77.056 10.178-.173M118.29 158.76c.67 1.56 1.99 2.15 4.31 2.62 2.59.53 5.33.92 8.25 1.18 2.92.26 6.04.39 9.37.39 5.85 0 11.7-.37 18.18-.83 1.37-.09 2.83-.15 4.33-.21 9.78-.41 16.33-1.11 18.08-7.06 6.05-20.48 3.02-45.61-8.3-68.93-2.26-4.67-6.52-11.57-11.53-18.35.296.636 7.797 17.025 10.987 39.61 3.774 26.712-16.535 50.96-43.5 51.752-3.358.098-6.769.056-10.177-.173"/>
    </g>
</svg>
