<svg xmlns="http://www.w3.org/2000/svg" width="200" height="200" viewBox="0 0 200 200">
    <g fill="none" fill-rule="evenodd">
        <path fill="#483711" d="M115.274 145.638H58.483a16.512 16.512 0 0 1-13.354-6.831l-21.508-29.808a3.254 3.254 0 0 1-.561-2.552c.175-.902.7-1.667 1.477-2.156a3.277 3.277 0 0 1 4.47.935l16.519 24.304a19.452 19.452 0 0 0 16.101 8.523h53.647a3.796 3.796 0 0 1 3.792 3.792 3.796 3.796 0 0 1-3.792 3.793zm1.423 7.649H115l-1.711-4.649h1.985c.221 0 .439-.013.656-.033l.767 4.682zm-60.036 0h-1.622l.795-4.838c.851.117 1.711.184 2.581.187l-1.754 4.651zm-21.172-52.628a2.413 2.413 0 0 1 3.273.637l9.784 13.771a2.4 2.4 0 0 1 .407 1.844 2.4 2.4 0 0 1-1.042 1.573l-4.321 2.86-12.102-17.805c-.051-.076-.11-.145-.165-.218l4.166-2.662zm79.785 34.394H61.627c-1.337 0-2.652-.164-3.921-.475.489-1.96 2.252-3.421 4.361-3.421h27.096a1.5 1.5 0 1 0 0-3H62.067c-3.422 0-6.311 2.303-7.211 5.44a16.45 16.45 0 0 1-6.848-5.754l-2.731-4.017 4.29-2.84a5.38 5.38 0 0 0 2.335-3.526 5.377 5.377 0 0 0-.91-4.131l-9.785-13.771a5.414 5.414 0 0 0-7.333-1.427l-5.014 3.204a6.26 6.26 0 0 0-5.919.416 6.314 6.314 0 0 0-2.826 4.122 6.309 6.309 0 0 0 1.073 4.882l21.509 29.808a19.507 19.507 0 0 0 10.202 7.25l-1.107 6.731a1.5 1.5 0 0 0 1.48 1.743h4.427c.624 0 1.183-.386 1.404-.97l2.517-6.679h48.472l2.454 6.668c.217.59.779.981 1.408.981h4.509a1.499 1.499 0 0 0 1.48-1.743l-1.133-6.91a6.789 6.789 0 0 0 3.256-5.789 6.8 6.8 0 0 0-6.792-6.792zM176.532 130.21c0 9.641-7.843 17.484-17.484 17.484h-22.875a6.006 6.006 0 0 1-5.999-5.999 6.005 6.005 0 0 1 6-5.998h8.801c7.016 0 13.298-3.196 17.472-8.207.086-.082.16-.175.224-.276a22.622 22.622 0 0 0 5.04-14.253v-5.413c0-.205-.042-.404-.12-.589v-8.643a1.5 1.5 0 1 0-3 0v7.591c-3.687-.704-6.483-3.946-6.483-7.835 0-4.4 3.581-7.982 7.982-7.982 1.068 0 2.106.208 3.084.62.38.158.807.154 1.184-.01a4.358 4.358 0 0 1 1.764-.375 4.416 4.416 0 0 1 4.41 4.411v35.474zm-6.718 25.716h-1.874l-2.508-6.264c1.217-.4 2.385-.905 3.49-1.515l.892 7.78zm-28.273.003h-1.656l.86-5.235h2.99l-2.194 5.235zm1.046-28.015h15.233c-3.456 2.973-7.939 4.783-12.845 4.783h-8.603c.733-2.749 3.238-4.783 6.215-4.783zm29.535-40.589c-.808 0-1.6.132-2.367.393a10.915 10.915 0 0 0-3.665-.628c-6.056 0-10.982 4.927-10.982 10.982 0 5.59 4.196 10.215 9.603 10.896v3.993c0 4.495-1.528 8.631-4.068 11.953h-18.056c-4.815 0-8.79 3.626-9.362 8.29-3.516 1.223-6.05 4.563-6.05 8.491 0 4.962 4.036 9 8.998 9h1.532l-1.067 6.491a1.5 1.5 0 0 0 1.48 1.743h4.421a1.5 1.5 0 0 0 1.383-.92l3.064-7.315h12.062c1.174 0 2.32-.122 3.44-.312l3.044 7.601c.23.57.78.943 1.393.943h4.57a1.502 1.502 0 0 0 1.491-1.67l-1.26-10.987c4.746-3.756 7.806-9.552 7.806-16.059V94.736c0-4.087-3.324-7.41-7.41-7.41z"/>
        <path fill="#F4E07A" d="M119.31 66.906c-1.304.233-2.244.646-2.579 1.133-.626.912-.76 3.298-.868 5.216-.176 3.116-.357 6.338-2.358 8.647a1.886 1.886 0 0 1-.072.08c-1.257 1.433-2.948 2.443-4.83 2.948v5.325h1.248a3.835 3.835 0 0 1 0 7.672H99.684a3.836 3.836 0 0 1 0-7.672h1.248v-5.243c-2.01-.474-3.823-1.525-5.166-3.054a2.713 2.713 0 0 1-.084-.097c-1.987-2.296-2.227-5.523-2.459-8.645-.146-1.953-.327-4.382-1.004-5.297-.327-.44-1.167-.81-2.307-1.013a3.836 3.836 0 1 1 1.351-7.552c3.18.57 5.576 1.914 7.12 3.999 1.998 2.698 2.55 4.918 2.55 4.918v-5.834a3.836 3.836 0 1 1 7.67 0v6.17c.286-1.734.791-3.436 1.806-4.911 1.554-2.265 4.095-3.725 7.551-4.342a3.833 3.833 0 0 1 4.451 3.102 3.836 3.836 0 0 1-3.102 4.45m-14.698-20.61c-16.788 0-30.446 13.657-30.446 30.445s13.658 30.446 30.446 30.446c16.788 0 30.446-13.658 30.446-30.446 0-16.788-13.658-30.445-30.446-30.445"/>
        <path fill="#483711" d="M120.111 62.867a1.503 1.503 0 0 0-1.74-1.213c-2.817.501-4.848 1.633-6.038 3.362-1.472 2.145-1.638 5.09-1.798 7.939-.125 2.223-.255 4.519-1.087 5.48-.773.88-1.92 1.397-3.18 1.495V62.436a1.5 1.5 0 1 0-3 0V79.96c-1.387-.025-2.658-.572-3.518-1.551-.865-1-1.039-3.334-1.207-5.59-.217-2.912-.44-5.922-2.037-8.078-1.178-1.588-3.08-2.627-5.655-3.087a1.5 1.5 0 1 0-.529 2.953c1.797.322 3.066.968 3.773 1.92 1.08 1.459 1.271 4.029 1.456 6.515.214 2.87.416 5.58 1.97 7.374 1.405 1.599 3.496 2.522 5.746 2.549v9.625h-3.583a1.5 1.5 0 0 0 0 3h10.166a1.5 1.5 0 1 0 0-3h-3.583v-9.642c2.13-.105 4.095-1.01 5.472-2.575 1.48-1.708 1.631-4.4 1.791-7.25.137-2.436.28-4.955 1.275-6.406.718-1.044 2.095-1.753 4.093-2.11a1.499 1.499 0 0 0 1.213-1.74"/>
        <path fill="#483711" d="M104.61 43c-18.603 0-33.74 15.136-33.74 33.74 0 18.605 15.137 33.74 33.74 33.74 18.605 0 33.74-15.135 33.74-33.74 0-18.604-15.135-33.74-33.74-33.74m0 70.48c-20.257 0-36.74-16.48-36.74-36.74C67.87 56.481 84.354 40 104.61 40c20.26 0 36.74 16.481 36.74 36.74 0 20.26-16.48 36.74-36.74 36.74"/>
    </g>
</svg>
